<svg xmlns="http://www.w3.org/2000/svg" viewBox="0 0 335.906 210.195"><path d="M165.124 158.031c-2.478-3.246-2.91-9.092-2.91-14.71v-7.53c-.31-1.347.19-3.448-.161-5.01a27.481 27.481 0 0 1 .161-8.568c.714-3.246-.538-7.975.162-11.154a28.907 28.907 0 0 0-.162-7.92l-.161-10.507c0-6.843-.714-15.518 1.347-20.206 3.152-7.382 17.512-5.01 27.318-5.01a54.309 54.309 0 0 0 7.112-.163c1.832-.269 4.042.189 5.658-.161l45.26.161c4.54 0 9.43-.161 14.226-.161a28.034 28.034 0 0 1 5.98.161c2.385.526 4.715 0 6.736.809 6.115 2.303 7.49 5.752 7.759 13.901a16.082 16.082 0 0 1 .161 3.556 21.846 21.846 0 0 0 .162 6.628v3.071c0 2.29 0 4.917.162 6.95v8.232c0 8.405-.445 16.825 0 24.893v8.083c0 7.206 0 13.336-4.365 16.488-3.3 2.397-8.473 2.222-14.225 2.263-5.024 0-10.695.323-16.164.323h-8.082a8.768 8.768 0 0 0-3.233.162h-1.347c-.903-4.217-1.267-9.43-2.263-13.74-.364-1.563.161-3.732-.647-4.85l-.162-.485a44.838 44.838 0 0 0-8.082-.161c-2.074 0-4.041-.324-5.658.323a16.247 16.247 0 0 0 0 7.112l.485 11.962h-23.653c-.432-3.96-1.401-8.27-4.85-9.2v.04a9.537 9.537 0 0 0-.323-2.693c-.283-.108-.162 0-.323-.162a.903.903 0 0 0-1.213.633 6.48 6.48 0 0 0 .243 3.246c.377.836.889.364 1.616.809a7.017 7.017 0 0 1 1.778 1.94 13.674 13.674 0 0 1 1.132 3.718 11.603 11.603 0 0 0 .161 1.454v.324c-10.52-.001-25.095.995-29.635-4.85zm-20.906 37.933h-8.62v-3.233a3.004 3.004 0 0 0 1.454-.161h5.388c.606.404 1.145 2.586 1.778 3.232zm3.988 0a3.032 3.032 0 0 1-1.94-.525v.04c-1.01-.404-1.105-1.832-1.779-2.587v-.161h3.718zm45.584-.417l-43.806.323a25.582 25.582 0 0 0 .162-3.233l17.134-.324a59.135 59.135 0 0 1 11.962-.323c1.482.135 5.469-.552 6.627.162 2.183 0 7.194-.674 7.76.97a5.78 5.78 0 0 1 .161 2.424zM33.599 118.01l.646-4.364 1.778-6.628c.458-1.845.297-3.394.97-5.01a27.951 27.951 0 0 1 10.346-12.77c7.22-4.46 18.481-5.066 24.247-10.993h.323a30.606 30.606 0 0 0 .485 6.466c.215.983-.175 2.115.161 2.91s1.051 1.172 1.455 1.778c4.216.943 4.715-.768 7.274-2.586a35.49 35.49 0 0 0 4.041-2.425c.337 0 .31 0 .485.162a1.536 1.536 0 0 1 1.078 1.603l.485-.162c.188.593.633 1.05.808 1.617.93 3.004.647 6.897.647 10.668l.161 8.73a4.04 4.04 0 0 1 .647.807l3.395.162a3.178 3.178 0 0 1 .97-.647c.592-2.775.323-9.146.323-12.608v-4.674a13.158 13.158 0 0 1 1.94-4.041c1.266.471 1.576 2.114 2.91 2.586a2.938 2.938 0 0 0 1.455.161l.97-.808c.39-2.06-.499-7.462-1.455-8.729v-.161c4.701 2.829 10.911 4.647 16.164 6.735 1.819.74 3.88.808 5.496 1.778a28.571 28.571 0 0 1 10.184 9.699c1.495 2.411 1.347 5.065 2.102 8.244s1.495 6.64 2.263 10.022l.215 2.95c.458 1.94.808 4.04 1.347 5.819.35 1.347.148 2.896.808 3.88-.107.282 0 .161-.161.323a11.544 11.544 0 0 1-3.233.97h-2.694c-1.9.471-4.041 1.212-5.981 1.778-1.037.31-2.384.121-3.233.647-.822-.095-.795-.31-1.347-.647l.162-13.093a32.404 32.404 0 0 0-.162-5.82c-.23-1.05 0-2.546-.162-3.394-.471-2.223.35-5.671-.646-7.274a1.012 1.012 0 0 0-1.832-.862 20.545 20.545 0 0 0 .485 4.526v2.91c.714 3.3.323 7.557.323 11.315a39.178 39.178 0 0 1-.162 7.112c-.687 3.193.499 7.45-.161 10.507v2.91a42.003 42.003 0 0 1-.324 7.921v3.556l-.97 10.022v2.102c-.714 3.246-.43 7.125-1.131 10.345-.377 1.751.242 5.752-.485 6.95v1.617c-1.078-.727-1.778-1.886-3.072-2.425-2.222-.929-4.687-.498-7.274-1.13s-6.236-1.577-9.429-.81c-4.903 1.2-9.106 3.517-14.225 4.527-.916-.89-2.303-2.398-4.202-1.778-.62.202-1.065.889-1.779 1.131 0 0-2.801-1.024-3.394-1.347-3.449-1.535-8.082-2.411-10.669-4.85-.768-1.212 0-3.394-.323-5.01s-.256-4.23-.647-5.981v-2.694l-1.455-9.7c-1.509-5.832-2.56-12.123-4.688-17.296a57.628 57.628 0 0 1-2.586-8.082 4.7 4.7 0 0 1 .323-1.94c.283-.714 3.112-2.155 3.88-2.586.108-.283 0-.162.162-.324a1.805 1.805 0 0 0-.485-1.347 3.475 3.475 0 0 0-2.425 1.132h-.324a11.884 11.884 0 0 1 1.131-3.88 1.953 1.953 0 0 0-.484-1.455c-2.156.081-1.711 2.533-2.263 4.203-.418 1.266-.93 2.789-1.347 4.203l-.485 3.556a15.598 15.598 0 0 0-.809 4.203l-.161.162a70.21 70.21 0 0 1-12.285-2.102h-3.449a13.603 13.603 0 0 0-3.233-.808c.108-4.27 1.55-8.473 2.587-12.164zm141.763 65.79c3.61-.108 2.64 3.381 2.425 6.304h-2.425zm-3.718 5.658v-8.406c.283-.107.162 0 .323-.161a1.712 1.712 0 0 1 .809.323 39.577 39.577 0 0 1 .646 8.89l-1.94.162a1.347 1.347 0 0 1 .162-.808zm-4.203-10.668c1.132 0 1.267.39 1.94.807a41.351 41.351 0 0 1 .324 7.598 7.112 7.112 0 0 1-.162 2.694v.323h-1.94c.013-2.788.485-9.012-.808-10.453.134-.687.283-.579.646-.97zm-2.424 1.454c1.131 1.697.848 7.247.808 10.022h-2.155c.216-.768-1.563-7.543-2.263-7.759-1.037-.337-2.155.862-2.586 1.347a7.422 7.422 0 0 0-2.263 7.112l-2.425-.161c-.081-1.495-1.24-3.624-.593-5.388.418-1.267 2.964-5.267 4.041-5.82s3.139-.12 4.041-.323a13.605 13.605 0 0 1 1.779-.485z" fill="#fff"/><path d="M140.931 139.348c1.159 4.58 1.657 9.173 2.694 13.578 1.145 4.634.93 10.48 3.233 13.901 1.132 1.67 3.422 2.317 5.173 3.395 1.455.902 2.761 2.182 4.203 3.071s3.327 1.495 4.85 2.587c.35.256.417.848.807 1.131-1.104.822-3.286.23-4.687.808s-5.388 5.267-5.496 7.274c-7.194-1.94-15.559-4.903-19.074-10.507l-.485-1.616c-3.233-6.533-4.042-15.276-5.981-23.115-.809-3.22-1.05-6.278-1.94-9.214-.23-.741-.122-1.522-.485-2.102.62-.996 3.22-.633 4.526-.97 2.532-.646 5.172-.916 7.759-1.616a11.357 11.357 0 0 1 3.88-.808zm-30.227 51.888a19.978 19.978 0 0 0-6.143-6.466c-.956-.62-2.276-.7-3.071-1.455-1.024 0-.97.189-1.455.647 0 .337 0 .31.162.485.512 1.347 3.071 1.778 4.202 2.586a17.377 17.377 0 0 1 4.526 5.011c.35.58.378 1.347.809 1.778a4.873 4.873 0 0 0-.162 1.778c-.498 0-.552.148-.97-.161-1.172-.485-3.03-3.893-3.88-5.011-1.346-1.725-4.7-2.533-6.304-4.042-1.037-.08-2.141.27-1.616 1.132s4.876 2.937 5.98 3.718l3.557 4.688v.161c-3.947-.094-4.216-3.165-6.95-4.203-1.954-.74-5.214-.12-6.736-1.347-1.67.23-2.209 2.56-3.394 3.395-3.045 2.169-8.218 1.158-10.346-1.132-.727.081-.687.216-1.131.485v.485a22.92 22.92 0 0 1-3.61-.916l-7.274-.808c-2.99-.727-6.83-1.185-10.022-1.94l-3.395-.323c-2.95-.876-6.264-1.846-9.052-2.694l-3.718-.647c-3.03-.795-6.21-1.347-8.567-2.91-4.782-3.179-7.22-8.567-7.22-16.555a23.332 23.332 0 0 1 .323-5.496c.727-2.977.916-6.991 1.778-9.699.997-3.111 1.145-6.466 1.94-9.537.35-1.347.108-3.179.808-4.203v-.323c2.52.512 5.133.216 7.76.808a64.991 64.991 0 0 1 9.536 2.425 39.725 39.725 0 0 1-1.778 8.729c-.7 2.478-1.064 4.903-1.616 7.274v1.617a24.737 24.737 0 0 0-.485 6.143v1.94c1.212 3.812 5.092 4.714 8.729 6.142.97.377 2.142 1.347 3.071 1.778 1.576.808 3.22 1.037 4.688 1.94a52.54 52.54 0 0 0 4.85 2.91 45.277 45.277 0 0 0 5.172 2.1l1.455.162a28.423 28.423 0 0 0 4.203 1.778.889.889 0 0 1-.485.647c0 1.71.794 2.182 1.455 3.233 2.505-.08 3.125-.781 4.943-1.347.7 0 1.468-1.172 2.169-1.172a42.95 42.95 0 0 0 4.85-1.347c2.963-.97 5.953-2.452 9.052-3.233s6.95.27 9.429.808 4.97.121 6.95 1.132a18.439 18.439 0 0 1 4.85 5.657l.647 2.102v.323c-1.86-.216-2.304-2.815-3.233-4.041s-4.904-2.6-6.736-3.071l-.808.161c-1.71-.673-2.169-2.694-4.364-1.455.108 1.954 2.694 2.492 3.88 3.395 2.033 1.509 2.491 4.27 3.717 6.627.593 1.159 1.563 1.846 1.617 3.557-1.146-.202-1.995-3.193-2.587-4.203zM74.926 53.352c-1.078-3.26-1.845-6.735-2.694-10.183a7.287 7.287 0 0 1-.162-3.557c.27-.7.916-.862 1.455-1.347.93 0 1.347 0 1.778.485s1.697 3.435 1.172 4.297c0 .108-.202 2.223-.202 2.33a1.886 1.886 0 0 0 2.425 0c0-4.432 1.872-3.677 2.802-6.573 1.225-4.041-1.347-8.083 2.694-9.537a9.562 9.562 0 0 1 3.556-.162h12.123c1.347-.283 2.83 0 3.718-.647 2.223.485 2.533 5.9 2.263 8.73a10.774 10.774 0 0 0-5.657 0c-.108.282 0 .16-.162.323a3.458 3.458 0 0 0 .162 1.131c1.104.216 2.694-.364 4.04 0a5.24 5.24 0 0 0 1.617.323c-.215 1.846.095 4.62-.323 6.466-1.078 4.823-1.55 10.116-3.071 14.71a39.644 39.644 0 0 1-1.778 3.88 19.074 19.074 0 0 1-.97 2.694 5.698 5.698 0 0 1-6.628 2.263 13.206 13.206 0 0 1-2.263-1.347 31.417 31.417 0 0 1-4.526-4.202 2.142 2.142 0 0 0-1.347.323c0 2.694 5.455 6.021 7.597 6.95a43.914 43.914 0 0 1-1.131 10.508c-.552 2.263-.162 3.96-1.455 5.388v.161c-.62-.78-.876-1.791-1.455-2.586-.943-1.347-3.516-2.546-4.85-3.556l-1.615-2.102c-1.577-1.24-4.176-2.694-4.85-4.688v-8.19c-.956-4.243-.997-8.432-2.263-12.285z" fill="#fff"/><path d="M102.796 27.004a5.849 5.849 0 0 1 1.617.323 9.804 9.804 0 0 1 1.131 1.455c1.078 2.56.526 8.648.485 12.123a65.8 65.8 0 0 1-3.718 19.56c-.754 2.303-1.09 4.728-2.263 6.627a8.312 8.312 0 0 1-3.556 3.233c-.889.337-2.492 0-2.91.808-.62.984-.337 2.613-.646 3.88-.943 3.84-.35 9.322-1.347 13.47a3.353 3.353 0 0 1-2.425.808c-.458-.43-.89-.444-1.132-1.131a9.43 9.43 0 0 1-.282-4.701c.202-.903-.081-2.452.161-3.557.606-2.694.687-5.752 1.347-8.244.35-1.44.081-2.694.808-3.717.903-1.24 3.584-1.347 5.389-1.779a12.27 12.27 0 0 0 2.101-3.717c.148-.62-.242-.97-.323-1.347-.148-.633.229-1.078.323-1.455l-.162-1.617c.149-.714.916-1.199 1.132-1.778.754-1.966.822-4.903 1.347-6.95.687-2.99-2.196-3.153-1.617-5.82a38.823 38.823 0 0 1 .647-3.88c.539-1.67 1.347-3.744 1.778-5.495a8.163 8.163 0 0 0-.646-3.718c-.162-.674.215-1.118.323-1.616a22.044 22.044 0 0 0 2.438-1.765zm134.328 135.62l.485 13.256c.903 3.408 1.522 10.48 0 13.74h3.718c2.465-1.752 4.553 1.266 5.496 2.263a5.387 5.387 0 0 1-.162 2.586c-1.764 1.01-4.957 1.199-7.597 1.347h-3.556c-2.856.606-6.641-.512-9.7.162-3.946.875-8.526.148-12.284-.485-.93-.162-1.765.35-2.694.161-.862-1.347-.714-4.283.97-4.849 1.347-1.226 9.079-1.347 11.8-1.347.902 1.67 1.953-.08 2.263-1.347l-.647-8.89c-1.266-5.564-.363-12.218-1.616-17.943l-.162-4.85c-.525-2.438 0-5.226-.646-7.759a6.736 6.736 0 0 1-.485-3.394c.175-.728.62-1.347.808-2.102h-2.102c-.188.135-.269.122-.646.162a2.858 2.858 0 0 1-.485.647l.808 18.589a20.317 20.317 0 0 1-5.172.162h-10.67c-.848.525-3.313.161-4.525.161-3.678 0-9.753.593-12.932-.161h-6.466c-4.337-.081-11.625-.93-13.47-3.395-2.936-4.041-2.586-11.84-2.586-18.75V84.495c0-3.462-.445-8.877.808-11.154 1.576-2.882 4.728-2.519 8.406-3.394h2.424c1.805-.39 4.27.134 6.628 0 2.896-.175 8.877 0 13.255 0l36.855-.485c3.691 0 9.726-.58 12.932.161a3.516 3.516 0 0 0 1.455-.161 18.602 18.602 0 0 1 4.526.161l3.717-.161 15.68-.162 4.85.647c1.738.525 3.65 1.347 5.388 1.778.418.875 1.145 1.859 1.455 2.694.822 2.33.242 5.307.808 7.92l-.161 6.736a46.91 46.91 0 0 1 .323 8.89v3.233c.727 3.395.161 8.083.161 11.8v23.6c0 9.43 1.159 19.101-4.364 23.116-3.462 2.519-9.349 2.424-15.356 2.424-5.038 0-10.561.162-15.842.162a111.95 111.95 0 0 0-11.693.324zm-99.681-31.359c4.633.068 4.741 4.648 5.819 8.244 2.007 6.736 2.182 14.993 4.04 21.66.526 1.887.917 3.543 1.456 5.173l.161 1.347c.216.27 4.634 1.792 5.389 2.102a60.111 60.111 0 0 1 7.274 4.203c.916.566 2.56.956 3.233 1.778.43.525.498 1.643.808 2.263 2.694-1.872 4.203-.93 5.496 1.778 2.694-.93 3.233 1.994 4.364 3.233 1.064-.795 2.964.189 4.041.485 1.617 2.398.957 3.556-.485 5.496-.35.471-.188.727-.808.97-.7.606-1.67-.108-2.424.162-.458.161-.795.983-1.455 1.131-1.213.27-1.576-.902-2.263-1.131-.943-.31-1.482.673-2.587.323-.283-.094-.781-.768-.97-.808s-2.855 2.343-4.526 1.347c-2.263-.85-.835-5.389-2.694-6.466-.727.997-2.694 1.428-3.071 2.586a6.735 6.735 0 0 0-.647 3.88c.148.404.606.552.808.97-1.171.175-2.236.121-2.586-.97 1.01-1.199-.404-3.179 0-4.688.674-2.519 4.284-4.27 4.526-6.95a3.14 3.14 0 0 1-.323-.647c-1.037-.566-.93-.108-1.778-.323a31.19 31.19 0 0 1-3.233-2.102c-2.007-1.05-4.23-1.59-6.143-2.694-1.239-.754-2.546-1.75-3.717-2.586a13.968 13.968 0 0 1-3.718-2.91c-.445-.7-.23-1.495-.485-2.425l-1.347-4.526c-1.347-3.489-2.196-7.57-3.233-11.315-.633-2.263-.553-4.31-1.132-6.628-.229-.916-1.508-5.024-1.347-5.819.148-.539.781-.889.97-1.347l.162-1.347c.189-.417.768-.498.97-.808l.162-1.347zm-92.314 34.916a2.397 2.397 0 0 0 .324 1.455c.62 1.63 2.303 1.562 3.88 2.263a14.63 14.63 0 0 1 1.454 1.131 27.55 27.55 0 0 0 3.718 1.455 58.995 58.995 0 0 1 7.112 3.556 30.842 30.842 0 0 0 3.071 1.94c2.492 1.105 5.47 1.064 7.921 2.101a7.959 7.959 0 0 1 2.694 1.779l.162.646a15.06 15.06 0 0 0 7.274 1.132 76.78 76.78 0 0 0 13.268-4.54c2.802-1.226 5.186-3.031 9.214-2.587.323.404.606.404.808.97a3.678 3.678 0 0 1 .324 1.617h-.324c-.296-.89-.862-.741-1.778-.647l-.161-.808h-.324c-1.535-.943-5.092 1.576-5.98 2.101-2.816 1.657-5.577 3.3-8.245 5.173a31.919 31.919 0 0 1-2.653 2.115l-3.88.808c-3.166.728-9.12-.875-11.315-1.616-7.867-2.627-16.03-5.28-23.6-8.406-1.172-.485-2.236-.404-3.557-.808-2.855-.89-6.304-3.166-7.435-5.82-1.253-2.963-.35-9.725.323-12.608l.323-3.88c1.698-6.91 1.913-14.736 3.557-21.821a3.26 3.26 0 0 1 2.478-.93c.458.445.997.862 1.455 1.347a19.27 19.27 0 0 1-.31 4.041h.202c.58-.552 1.185-.404 2.101-.323a13.896 13.896 0 0 0 1.132 1.347c.08 4.041-1.05 6.91-1.94 10.022-.835 2.91-.835 5.712-1.617 8.729a35.198 35.198 0 0 0-1.347 8.89 5.389 5.389 0 0 0 1.671.176zm226.304-16.003a14.298 14.298 0 0 1 .162 2.694c-1.832 1.845-2.56 1.98-5.011.485-.148-.525-.58-1.347-.162-1.94.189-1.953 1.684-1.442 2.694-2.425a4.998 4.998 0 0 1 2.317 1.186zm-76.135.323l.485.162a6.586 6.586 0 0 1 0 3.394v.324c-.444.094-.606.229-.97 0h-.323a9.792 9.792 0 0 1-.162-3.395c.176-.444.23-.35.485-.647.283.068.27.04.445.162zm-12.446.485c.08 1.213.363 4.257-.97 3.556h-.324a12.325 12.325 0 0 0-.323-2.91c.08-.821.242-.714.647-1.131a3.355 3.355 0 0 1 .929.485zm3.717-.323l.485.161c.108.283 0 .162.162.324a6.036 6.036 0 0 1-.485 3.233c-.727-.068-.687-.202-1.131-.485a6.506 6.506 0 0 1 .485-3.395 1.21 1.21 0 0 1 .484.162zm4.527 0l.484.161a5.752 5.752 0 0 1 0 3.072v.323c-.444.08-.606.229-.97 0h-.323c-.108-.283 0-.162-.161-.323a6.506 6.506 0 0 1 .484-3.395c.283.068.27.04.445.162zm21.337 1.347h.323c.094.444.229.606 0 .97v.323a40.336 40.336 0 0 1-6.628 0 6.654 6.654 0 0 1-2.586-.161c-.444-.216-.566-.391-.323-.809a2.606 2.606 0 0 1 .485-.646c1.32.094 7.947-.189 8.688.27zM99.402 192.57v-.808a7.718 7.718 0 0 0 2.263 0c.471-.822.835-2.21 1.94-2.425a2.452 2.452 0 0 0 2.263.323l.162-.485c.62-1.158-2.075-2.572-.485-3.556a4.041 4.041 0 0 0 2.91 1.132 1.953 1.953 0 0 0 .485-1.455 4.042 4.042 0 0 1-1.132-1.347h.633a1.914 1.914 0 0 0 .808.323 27.167 27.167 0 0 1 1.792 2.91c.647-.256.903-.93 1.617-1.131s1.023.229 1.454 0c-1.912-1.226-.956-4.042 1.778-3.88a17.794 17.794 0 0 1 5.456 12.635c-.323.202-2.842.66-3.677.943l-6.143.162c-3.799.835-8.311 1.077-12.285 1.94-2.33.511-7.638-.741-8.082-1.94a2.128 2.128 0 0 1-.324-1.455c.418-.445.593-.943 1.132-1.347 1.373-1.011 5.078-.539 7.435-.539z" fill="#e6e7e8"/><path d="M98.405 79.229a8.743 8.743 0 0 1 4.755.889c2.25.956 4.553 2.411 6.735 3.314 1.253.512 2.317.62 3.557 1.131a15.89 15.89 0 0 0 1.94.97c1.347.283 3.327-.444 4.687.162a21.052 21.052 0 0 1 3.072 2.263c2.694 1.845 6.007 3.785 7.759 6.466 1.347 2.114 2.424 6.007 3.233 8.567l.97 6.735c.242.606 1.185 1.064 1.454 1.778l.485 3.395c.809 3.233.876 7.382 1.455 10.668.404 2.317 2.182 6.534.647 8.406-.876 1.078-2.223.74-3.88 1.131-2.883.674-6.399 1.024-9.214 1.617v-.323c-.822-1.226-.795-3.004-1.347-4.526-1.078-3.314-1.711-7.234-2.586-10.777-.35-1.455-.122-3.96-.809-5.01 0 4.404.162 9.253.162 13.9 0 1.617-.377 4.446.323 5.497.39 1.347 1.67 1.535 3.233 1.347v.323h-2.06c-2.021-1.522-2.695-1.616-1.779-4.688l-1.131-.646c0 3.502 1.023 7.408 1.023 10.91-.808 1.348-.902 6.453-1.347 8.487-.337 1.563 0 3.462-.323 5.173-1.347 6.115-.458 14.023-1.94 19.882-.633 2.492 1.24 7.396-1.347 7.92a7.665 7.665 0 0 0-4.041-3.394c-1.509-.498-2.896-.094-4.365-.485-1.01-.269-2.168-.875-3.071-1.131a13.888 13.888 0 0 0-5.658.323c-2.923.687-5.388.768-7.92 1.617-2.048.673-4.041 1.94-5.981 2.586a7.275 7.275 0 0 1-4.203 0c-.39-.148-.997-.781-1.616-.647-.256 0-.66.566-.97.647-1.832.512-3.287-1.05-4.203-1.617a31.52 31.52 0 0 0-7.92-3.232 88.905 88.905 0 0 0-3.543-26.564c-.795-2.802-.566-5.685-1.455-8.406-1.469-4.499-2.371-9.739-4.203-14.063-1.024-2.411-2.384-4.836-3.556-7.112-.135.161 0 0-.162.323-.66.889-.337 2.6-.97 3.556v-.323c-.27-.39-.216-1.213-.485-1.617a22.235 22.235 0 0 1-.647 4.365c-.498 2.142-.35 4.364-.808 6.304-.592 2.479-.256 4.688-2.424 5.496-2.371.89-4.46-.93-5.82-1.616a14.003 14.003 0 0 0-2.869-.512 43.918 43.918 0 0 0-6.466-1.132v-.485a10.038 10.038 0 0 1-1.778 0c-.08-4.04 1.617-8.419 2.587-11.8.39-1.347.229-2.505.646-3.88 1.172-3.839 1.967-8.082 3.071-11.962.984-3.435 1.078-7.274 2.587-10.183a32.147 32.147 0 0 1 3.233-3.88 10.301 10.301 0 0 1 1.778-2.263c4.54-3.313 10.615-4.984 16.326-7.112 1.765-.66 3.489-.875 5.173-1.616a16.244 16.244 0 0 0 4.526-2.91c.593-.755.956-2.425 1.778-2.91.485-.324 1.347-.162 1.616-.647.472-.687.149-1.724.485-2.586a32.92 32.92 0 0 1 1.132-3.233c.283-.552.768-.89.97-1.617h.162v2.102c-.607.202-.714.417-.809 1.131 1.28 1.347 2.075 3.098 3.557 4.203a94.67 94.67 0 0 1 8.567 6.952c.62.593.58 2.398 1.617 3.233.31.242.538.296.808.161 1.347-.498 1.347-1.912 1.778-3.394 1.118-3.785 1.145-9.039 1.131-13.74h.324a1.859 1.859 0 0 1 1.778.162c2.29.808 2.626 4.862 2.586 7.947zm-13.093 4.526a17.657 17.657 0 0 0-2.91 2.101h-1.347v-.161a29.208 29.208 0 0 0 3.947-2.102c.27.108.148.027.31.162zm-10.777 4.364v.162c-.377-.148-.269 0-.485-.323zm1.347.485c-.12.108-.363.216-.485.324-.377-.148-.269 0-.484-.324zm45.423 25.055v.647h-.162a16.418 16.418 0 0 1-.579-4.364c.593.929 0 2.801.633 3.717z" fill="#fdb913"/><path d="M236.68 163.07c0 1.238.606 3.42 0 4.364 0-4.405-2.923-21.324-3.085-22.752s-12.38-1.01-13.08-1.01c-.188.135-.337 1.751-.525 1.926 0 6.44 1.024 11.37 1.09 17.97a12.31 12.31 0 0 1-6.06-.35h-10.67c-.849.526-3.327.162-4.526.162-3.758 0-9.631.566-12.932-.162h-7.274c-4.31-.943-8.796-.417-11.8-2.586-2.6-1.873-2.411-5.968-3.233-9.699v-2.101c-.754-3.49.485-7.907-.161-11.639v-8.877c0-6.83 0-12.433.161-18.59h.162v.324c.39.499.364 1.132.646 1.778a31.087 31.087 0 0 0 3.072 5.388 100.263 100.263 0 0 0 10.992 9.053 29.62 29.62 0 0 0 2.91 1.94c1.104.498 4.633 1.953 5.388 2.263l6.466 2.101c2.115.606 4.58.499 6.627.97l4.041.162c2.52.552 11.477.43 12.447.485 3.18 0 33.892-1.738 36.532-2.425a93.85 93.85 0 0 0 14.225-4.526c5.105-2.25 10.21-7.907 13.093-12.447 1.064-1.67 1.563-4.297 2.694-5.819v32.167c0 9.2.606 16.165-5.388 19.883-3.314 2.034-9.133 1.778-14.386 1.778-5.038 0-10.561.162-15.842.162a111.888 111.888 0 0 0-11.584.106zm-12.393 12.77c.135.16 0 0 .162.322h-.162z" fill="#d7d7d7"/><path d="M90.228 57.07c-.377.781.607 2.276.97 2.91 1.51 2.64 3.462 3.987 7.76 3.88 1.643-1.697 3.57-4.526 2.694-7.759a58.848 58.848 0 0 0-10.346-.323c-.552.457-.97.403-1.078 1.292zm9.322 2.142h.323c-.148.283 0 .175-.323 0zm-7.436-1.819c.135-.566.23-.43.485-.808a14.99 14.99 0 0 1 3.556.323c1.347 0 4.042-.39 4.365.647h.161v.162c-1.63.404-6.479 1.603-8.243.323-.391-.216-.108.08-.324-.323s-.202-.068 0-.324zm6.897-6.143a4.714 4.714 0 0 0-1.347.324 5.131 5.131 0 0 0-2.91.431 1.79 1.79 0 0 0 .486 1.347c2.842.566 7.233-.593 6.142-4.203a17.352 17.352 0 0 0-1.94-3.717c-.714-1.172-1.078-2.614-1.778-3.718h-.808l-.054-.014c-1.118 1.94 1.172 4.836 2.048 6.641.242.566.997 1.441.485 2.263a2.429 2.429 0 0 1-.324.647zM86.51 39.774c1.388-.162 3.84-1.644 5.497-.485a2.196 2.196 0 0 0 1.616-.485 1.347 1.347 0 0 0-.162-.808c-.43-.89-2.465-.97-3.717-.97h-.054c-.431.283-1.158.013-1.724.107a8.544 8.544 0 0 0-1.94.97c-.162.324-.027.162-.162.324.04.983.216.889.647 1.347zm-1.292 49.463l.484-.161a6.286 6.286 0 0 0 .162-1.455 1.765 1.765 0 0 1-.323-.485 3.206 3.206 0 0 0-1.347-.323 4.046 4.046 0 0 1-.808.687 3.744 3.744 0 0 0 .377 1.737 1.878 1.878 0 0 0 1.454 0zm18.589-46.877a1.792 1.792 0 0 0-.808-2.101h-1.186c-.593.094-.889.256-.916.646-.162 2.802 1.563 2.937 2.91 1.455zm-13.363-.646a1.468 1.468 0 0 0-1.347-.647h-.054a.911.911 0 0 1-.417.189c-.162.053-.283.296-.445.296a2.752 2.752 0 0 0 0 1.616c.216.526.458.472.808.809 1.32.027 2.385-1.186 1.455-2.263zM23.9 197.257a4.34 4.34 0 0 0-1.94-.161v-.04a9.188 9.188 0 0 1-3.395.202c-2.465 0-5.55-.135-7.112.808.04.566.054.687.323.97a4.041 4.041 0 0 0 2.587.323c2.114-.485 7.53.498 9.052-.485.727-.08.687-.215 1.131-.485-.013-.809-.026-.93-.646-1.132zm157.605-46.594c-.108.148-.216.148-.324.323a5.496 5.496 0 0 0 0 3.395c0 .107.108.363.782.579a.957.957 0 0 0 .754-.418c.108-.283.471-3.394-.404-3.88a.863.863 0 0 0-.808 0zm88.797 3.772c.498-.176.58-.391.97-.647a11.808 11.808 0 0 0 .323-3.071c-.525-.566-.808-1.091-1.616-1.347a2.506 2.506 0 0 0-1.347-.162c-.809.849-1.9.256-2.371 1.832-1.778 2.276 2.37 4.822 4.04 3.395zm-2.317-2.802a3.636 3.636 0 0 0 1.131-.485l.485.161a4.674 4.674 0 0 1-.161 1.455l-1.455-.161-.162-.162a2.56 2.56 0 0 1 .162-.808zm-81.119-.889a.97.97 0 0 0-1.159-.081 6.183 6.183 0 0 0-.471 3.22.66.66 0 0 0 .633.686c.862.014.89-.08 1.145-.687a9.78 9.78 0 0 0 0-2.573 2.195 2.195 0 0 1-.148-.565zm7.704 3.852c.877.014.903-.215 1.119-.862a10.887 10.887 0 0 0-.121-3.071c-.35-.728-1.415-.162-1.455 0a18.448 18.448 0 0 0-.162 3.394.565.565 0 0 0 .004.059.552.552 0 0 0 .616.48zm126.327 39.428h-9.699l-.054-.04c-1.549.957-5.078-.62-6.573.364-.822.31-.62.822-.324 1.455a15.898 15.898 0 0 0 5.658.162h8.89c1.428 0 4.338.39 5.173-.324l.485-.161c-.067-1.954-1.684-1.456-3.556-1.456z" fill="#59595a"/><path d="M296.812 194.455c-2.694.566-6.453.162-9.43.162-13.2 0-26.065.323-39.064.323a13.47 13.47 0 0 0-1.132-5.657c-1.064-.014-3.313-.31-4.04.161h-3.126a22.899 22.899 0 0 0-.646-9.214c-.634-2.532-.337-4.849-.97-7.435a41.276 41.276 0 0 1-1.455-8.406h17.188c3.26 0 6.83.297 9.699-.323l11.153-.162c4.526-1.428 7.746-3.3 9.537-7.435 2.695-6.197 1.348-16.677 1.348-25.055l.161-20.691c0-3.53.364-7.503-.323-10.669s.471-7.058-.162-10.022c-.58-2.694.755-4.58.162-7.274s-.068-5.765-.808-8.244c-1.347-4.526-4.917-7.22-9.43-8.567a21.458 21.458 0 0 0-5.927-.647h-3.556c-.943-.39-3.772-.161-5.496-.161l-12.77.161-42.028-.161a46.864 46.864 0 0 1-6.304.161c-2.788.162-6.17.162-9.214.162-11.207 0-24.799-2.37-28.45 6.143-3.22 7.395-.835 22.024-1.347 31.359-.134 2.478.755 5.873.162 8.567-.754 3.395.39 7.772-.162 11.477a39.068 39.068 0 0 0 0 11.638v11.046c.162.849-.067 2.344.162 3.395.862 3.839 1.253 7.49 3.233 10.184 4.593 6.277 19.707 5.59 30.982 5.495a28.369 28.369 0 0 1-1.616 8.568c-.324 1.145-.04 2.047-.324 3.394a8.082 8.082 0 0 0 0 3.395c1.563 5.24 7.436 6.358 6.95 13.093l-.807 1.132a9.845 9.845 0 0 1-3.233.484c.054-2.06-.445-3.704-1.94-4.202-.835-.593-3.017-.324-4.365-.324l-9.698-.161c.067-2.169.498-5.132-.485-6.735l-1.347-1.348a23.77 23.77 0 0 0-3.071-.161 5.497 5.497 0 0 0-1.617-2.91 3.464 3.464 0 0 0-1.616.162c-1.118-.324-1.684-1.913-2.695-2.264s-1.966.66-2.694.324c-.08-.04-.363-.647-.485-.647-.498-.229-.942-.08-1.347-.323-1.172-.687-2.101-1.832-3.233-2.586s-2.532-1.159-3.556-1.778-1.926-1.603-2.91-2.264c-1.603-1.023-4.93-2.25-5.98-3.717-2.695-3.691-2.695-12.622-4.042-17.781-2.532-9.551-3.88-19.856-6.088-29.46l-.324-4.203c-1.252-5.28-1.886-12.326-3.88-16.973a22.537 22.537 0 0 0-3.071-4.203 18.86 18.86 0 0 0-3.395-4.203c-5.563-4.027-12.918-5.576-19.72-8.405a45.505 45.505 0 0 1-5.82-2.425c-1.131-.714-1.94-2.101-3.394-2.425a23.42 23.42 0 0 0-1.778-4.849c3.987-1.603 4.162-3.61 5.819-7.436 2.034-4.7 2.856-10.493 4.203-16.003.404-1.603.134-3.57.485-5.172v-3.556a16.542 16.542 0 0 0-1.777-11.154c1.994-1.158 5.927-6.264 4.688-8.89-.283-.485-.7-.607-1.347-.162.148-3.933 1.158-5.119-3.556-6.628-1.186-.377-3.341.54-3.88.324l-.647-.809a7.596 7.596 0 0 0-1.778-.646 9.079 9.079 0 0 0-4.418.485c-1.927.552-3.557.74-5.442 1.226-1.132.43-2.56 1.037-3.718 1.347a7.126 7.126 0 0 1-3.233-.324 18.238 18.238 0 0 0-8.567 1.132c-2.546 1.576-4.176 4.796-5.011 8.083-.323 1.4.013 2.68-.323 4.202a24.995 24.995 0 0 0-.162 6.951c.27 1.199.714 2.573.97 3.718l-.108 1.792c.674 3.529 4.419 17.605 4.957 19.707s.512 4.054.97 6.142c.162.835-.215 2.048.162 2.694-1.603 1.496-2.573 1.482-3.556 3.88-.337.822 0 2.586-.485 3.394-.148 1.347-3.853 4.136-5.011 4.688s-2.317.62-3.556 1.132c-8.298 3.475-17.89 5.294-22.792 12.123a37.717 37.717 0 0 0-5.011 8.567c-.634 1.711-.485 3.287-.97 5.173-.593 2.398-1.293 5.011-1.94 7.436l-.485 3.556c-3.381 12.002-4.661 25.069-7.598 37.502l-.161 3.394c-1.778 7.773-.916 16.825 2.586 21.823a18.94 18.94 0 0 0 9.537 6.735l7.598 1.455c2.963.97 6.52 2.047 9.699 2.91 2.532.686 5.334.579 7.759 1.131h1.4c2.008.485 4.298.956 6.466 1.455 1.954.485 3.543.04 5.389.485a20.768 20.768 0 0 0 3.717.808v-.647a9.429 9.429 0 0 0 3.88 1.779c-.768.471-2.936.161-4.04.161H67.382c-13.026 0-26.039.553-38.795 0a4.045 4.045 0 0 1-.809.647c.189 1.684 2.061 1.455 3.88 1.455h10.83c10.696 0 21.877-.162 32.815-.162h15.625c2.6-.593 7.059-.323 9.86-.323h3.233c1.724-.391 4.23.283 6.142-.162a37.97 37.97 0 0 1 7.274-.162c3.61 0 7.638-.161 11.477-.161 26.214 0 52.535-.485 79.476-.485 5.873 0 11.949-.162 17.512-.162 1.94 0 4.135-.067 5.82-.161a39.42 39.42 0 0 0 5.387-.162h3.556l5.82-.162a29.508 29.508 0 0 0 5.496-.161h11.153c7.45-.095 15.559-.162 23.277-.162 4.405 0 9.672.31 12.932-.485.161-.323.027-.162.161-.323 0-1.348-1.13-1.684-2.693-1.348zM175.362 183.8c3.61-.108 2.64 3.381 2.425 6.304h-2.425zm-3.718 5.658v-8.406c.283-.108.162 0 .323-.162a1.712 1.712 0 0 1 .809.324 39.577 39.577 0 0 1 .646 8.89l-1.94.162a1.347 1.347 0 0 1 .162-.808zm-4.203-10.669c1.132 0 1.266.39 1.94.808a41.351 41.351 0 0 1 .324 7.598 7.112 7.112 0 0 1-.162 2.694v.323h-1.94c.013-2.788.485-9.012-.808-10.453.134-.687.283-.579.646-.97zm-2.424 1.455c1.131 1.697.848 7.247.808 10.022h-2.155c.216-.768-1.563-7.544-2.263-7.76-1.037-.336-2.155.863-2.586 1.348a7.422 7.422 0 0 0-2.263 7.112l-2.425-.161c-.081-1.495-1.24-3.624-.593-5.388.418-1.267 2.964-5.267 4.041-5.82s3.139-.121 4.041-.323a13.605 13.605 0 0 1 1.779-.485zm-4.85 4.472h.324c.565 1.482.538 3.933 1.454 5.173v.323h-3.664c0-3.03.755-3.704 1.886-5.442zm-19.236-45.369c1.159 4.58 1.657 9.174 2.694 13.579 1.145 4.634.93 10.48 3.233 13.901 1.132 1.67 3.422 2.317 5.173 3.395 1.455.902 2.761 2.182 4.203 3.071s3.327 1.495 4.85 2.586c.35.256.417.849.807 1.132-1.104.822-3.286.229-4.687.808s-5.388 5.267-5.496 7.274c-7.194-1.94-15.559-4.903-19.074-10.507l-.485-1.616c-3.233-6.534-4.042-15.276-5.981-23.116-.809-3.22-1.05-6.277-1.94-9.214-.23-.74-.122-1.522-.485-2.1.62-.998 3.22-.634 4.526-.97 2.532-.648 5.172-.917 7.759-1.617a11.357 11.357 0 0 1 3.88-.809zm-1.508-5.98c-3.449.053-7.14 1.28-10.292 2.1-1.508.392-3.502 0-4.687.81a1.752 1.752 0 0 1-.97-.162c-.297-.431-.202-1.348-.485-1.779 0-.336 0-.31.161-.485 1.038-.687 2.964-.417 4.203-.808a105.352 105.352 0 0 1 11.639-2.586 8.541 8.541 0 0 1 .43 2.91zM99.388 83.095c.256.781.081 2.034.485 2.694v.647c-1.09-.741-4.54-4.755-6.465-3.233h-.162a32.889 32.889 0 0 1 1.131-6.304l.162-5.658c1.643.633 1.778 2.788 2.263 4.58.7 2.465 1.819 4.944 2.586 7.274zm-4.741 1.778a26.186 26.186 0 0 0-2.263 4.364l-.108 16.812h-1.347c0-4.567-.97-13.161.377-17.296.593-1.805 1.846-2.52 2.694-3.88zm-19.72-31.52c-1.079-3.26-1.846-6.736-2.695-10.185a7.287 7.287 0 0 1-.162-3.556c.27-.7.916-.862 1.455-1.347.93 0 1.347 0 1.778.485s1.697 3.435 1.172 4.297c0 .108-.202 2.223-.202 2.33a1.886 1.886 0 0 0 2.425 0c0-4.432 1.872-3.677 2.802-6.573 1.225-4.041-1.347-8.083 2.694-9.537a9.562 9.562 0 0 1 3.556-.162h12.123c1.347-.283 2.83 0 3.718-.647 2.223.485 2.533 5.9 2.263 8.73a10.774 10.774 0 0 0-5.657 0c-.108.282 0 .16-.162.323a3.458 3.458 0 0 0 .162 1.131c1.104.216 2.694-.364 4.04 0a5.24 5.24 0 0 0 1.617.323c-.215 1.846.095 4.62-.323 6.466-1.078 4.823-1.55 10.116-3.071 14.71a39.644 39.644 0 0 1-1.778 3.88 19.074 19.074 0 0 1-.97 2.694 5.698 5.698 0 0 1-6.628 2.263 13.206 13.206 0 0 1-2.263-1.347 31.417 31.417 0 0 1-4.526-4.202 2.142 2.142 0 0 0-1.347.323c0 2.694 5.455 6.021 7.597 6.95a43.914 43.914 0 0 1-1.131 10.508c-.552 2.263-.162 3.96-1.455 5.388v.161c-.62-.78-.876-1.791-1.455-2.586-.943-1.347-3.516-2.546-4.85-3.556l-1.615-2.102c-1.577-1.24-4.176-2.694-4.85-4.688v-8.19c-.956-4.243-.997-8.432-2.263-12.285zM73.524 72.91a9.429 9.429 0 0 1 1.778-2.694l.324-.054c0 1.347-.687 2.883-.485 3.718.633 2.694 3.556 4.5 5.496 5.981.458.35.62.983.97 1.455l2.1 1.616c-.834 1.186-2.693 1.724-3.879 2.587l-1.455 1.454c-.538.364-1.158.391-1.616.809-3.826 0-1.886-2.816-2.586-5.82-.35-1.508-1.2-7.045-.647-9.052zM33.6 118.01l.646-4.364 1.778-6.628c.458-1.845.297-3.394.97-5.01a27.951 27.951 0 0 1 10.346-12.77c7.22-4.46 18.481-5.066 24.247-10.993h.323a30.606 30.606 0 0 0 .485 6.466c.215.983-.175 2.115.161 2.91s1.051 1.172 1.455 1.778c4.216.943 4.715-.768 7.274-2.586a35.49 35.49 0 0 0 4.041-2.425c.337 0 .31 0 .485.162a1.536 1.536 0 0 1 1.078 1.603l.485-.162c.188.593.633 1.05.808 1.617.93 3.004.647 6.897.647 10.668l.161 8.73a4.04 4.04 0 0 1 .647.807l3.395.162a3.178 3.178 0 0 1 .97-.647c.592-2.775.323-9.146.323-12.608v-4.674a13.158 13.158 0 0 1 1.94-4.041c1.266.471 1.576 2.114 2.91 2.586a2.938 2.938 0 0 0 1.455.161l.97-.808c.39-2.06-.499-7.462-1.455-8.729v-.161c4.701 2.829 10.911 4.647 16.164 6.735 1.819.74 3.88.808 5.496 1.778a28.571 28.571 0 0 1 10.184 9.699c1.495 2.411 1.347 5.065 2.102 8.244s1.495 6.64 2.263 10.022l.215 2.95c.458 1.94.808 4.04 1.347 5.819.35 1.347.148 2.896.808 3.88-.107.282 0 .161-.161.323a11.544 11.544 0 0 1-3.233.97h-2.694c-1.9.471-4.041 1.212-5.981 1.778-1.037.31-2.384.121-3.233.647-.822-.095-.795-.31-1.347-.647l.162-13.093a32.404 32.404 0 0 0-.162-5.82c-.23-1.05 0-2.546-.162-3.394-.471-2.223.35-5.671-.646-7.274a1.012 1.012 0 0 0-1.832-.862 20.545 20.545 0 0 0 .485 4.526v2.91c.714 3.3.323 7.557.323 11.315a39.178 39.178 0 0 1-.162 7.112c-.687 3.193.499 7.45-.161 10.507v2.91a42.003 42.003 0 0 1-.324 7.921v3.556l-.97 10.022v2.102c-.714 3.246-.43 7.125-1.131 10.345-.377 1.751.242 5.752-.485 6.95v1.617c-1.078-.727-1.778-1.886-3.072-2.425-2.222-.929-4.687-.498-7.274-1.13s-6.236-1.577-9.429-.81c-4.903 1.2-9.106 3.517-14.225 4.527-.916-.89-2.303-2.398-4.202-1.778-.62.202-1.065.889-1.779 1.131 0 0-2.801-1.024-3.394-1.347-3.449-1.535-8.082-2.411-10.669-4.85-.768-1.212 0-3.394-.323-5.01s-.256-4.23-.647-5.981v-2.694l-1.455-9.7c-1.509-5.832-2.56-12.123-4.688-17.296a57.628 57.628 0 0 1-2.586-8.082 4.7 4.7 0 0 1 .323-1.94c.283-.714 3.112-2.155 3.88-2.586.108-.283 0-.162.162-.324a1.805 1.805 0 0 0-.485-1.347 3.475 3.475 0 0 0-2.425 1.132h-.324a11.884 11.884 0 0 1 1.131-3.88 1.953 1.953 0 0 0-.484-1.455c-2.156.081-1.711 2.533-2.263 4.203-.418 1.266-.93 2.789-1.347 4.203l-.485 3.556a15.598 15.598 0 0 0-.809 4.203l-.161.162a70.21 70.21 0 0 1-12.285-2.102h-3.449a13.603 13.603 0 0 0-3.233-.808c.108-4.27 1.55-8.473 2.587-12.164zm18.751 14.063v-.808h.162l3.394 9.537c.458 1.428.39 2.695.809 4.203 1.158 4.163 1.818 8.918 2.91 13.47.754 3.152.269 6.87.97 10.022.35 1.59-.432 4.041.323 5.388v1.348a30.145 30.145 0 0 1-3.556-1.779A38.228 38.228 0 0 1 53.804 172a12.518 12.518 0 0 0-1.131-.808c-2.937-1.145-6.426-1.805-7.597-4.688-.7-1.738.134-6.196.484-7.759.553-2.438.499-4.364 1.132-6.627a61.064 61.064 0 0 0 2.263-10.669l1.132-.162a10.024 10.024 0 0 0 1.94-4.526c.377-1.562-.378-3.529.323-4.688zm-21.822.041a33.302 33.302 0 0 1 3.718.93h3.394a70.94 70.94 0 0 0 12.447 2.1 7.085 7.085 0 0 1-.809 3.88v.324c-1.576-.094-2.141-.808-3.232-1.131l-3.61-.485a45.64 45.64 0 0 0-12.555-1.738zm61.587 64.82h-5.012c1.347-.956 2.95-.916 3.88-2.263.512.7.39 1.4 1.132 1.94zm8.621-1.131c-2.802 0-5.846.188-7.597-.809a3.004 3.004 0 0 1 .485-1.94 15.154 15.154 0 0 1 5.388.93l.108.04 1.616 1.617zm9.968-4.567a19.978 19.978 0 0 0-6.142-6.466c-.957-.62-2.277-.7-3.072-1.455-1.023 0-.97.189-1.454.647 0 .337 0 .31.161.485.512 1.347 3.071 1.778 4.203 2.586a17.377 17.377 0 0 1 4.526 5.011c.35.58.377 1.347.808 1.778a4.873 4.873 0 0 0-.161 1.778c-.499 0-.553.149-.97-.161-1.172-.485-3.031-3.893-3.88-5.011-1.347-1.724-4.701-2.533-6.304-4.041-1.037-.081-2.142.269-1.617 1.131s4.877 2.937 5.981 3.718l3.557 4.688v.161c-3.947-.094-4.217-3.165-6.951-4.202-1.953-.741-5.213-.122-6.735-1.347-1.67.229-2.21 2.559-3.395 3.394-3.044 2.169-8.217 1.159-10.345-1.131-.728.08-.687.215-1.132.485v.485a22.92 22.92 0 0 1-3.61-.916l-7.274-.809c-2.99-.727-6.83-1.185-10.022-1.94l-3.394-.323c-2.95-.876-6.264-1.846-9.053-2.694l-3.717-.647c-3.031-.795-6.21-1.347-8.568-2.91-4.782-3.179-7.22-8.567-7.22-16.555a23.332 23.332 0 0 1 .324-5.496c.727-2.977.916-6.991 1.778-9.699.997-3.111 1.145-6.466 1.94-9.537.35-1.347.108-3.179.808-4.203v-.323c2.519.512 5.132.216 7.759.808a64.991 64.991 0 0 1 9.537 2.425 39.725 39.725 0 0 1-1.778 8.729c-.7 2.479-1.064 4.903-1.617 7.274v1.617a24.737 24.737 0 0 0-.485 6.143v1.94c1.213 3.812 5.092 4.714 8.73 6.142.97.377 2.141 1.347 3.07 1.778 1.577.808 3.22 1.037 4.688 1.94a52.54 52.54 0 0 0 4.85 2.91 45.277 45.277 0 0 0 5.172 2.1l1.455.162a28.423 28.423 0 0 0 4.203 1.778.889.889 0 0 1-.485.647c0 1.71.794 2.182 1.455 3.233 2.505-.08 3.125-.781 4.943-1.347.7 0 1.468-1.172 2.169-1.172a42.95 42.95 0 0 0 4.85-1.347c2.963-.97 5.953-2.452 9.052-3.233s6.95.27 9.429.808 4.97.121 6.95 1.132a18.439 18.439 0 0 1 4.85 5.657l.647 2.102v.323c-1.86-.216-2.304-2.815-3.233-4.041s-4.904-2.6-6.736-3.071l-.808.161c-1.71-.673-2.169-2.694-4.364-1.455.108 1.954 2.694 2.492 3.88 3.395 2.033 1.509 2.491 4.27 3.717 6.627.593 1.159 1.563 1.846 1.617 3.557-1.146-.202-1.995-3.193-2.587-4.203zm9.483 3.556a13.088 13.088 0 0 0-2.101.647 7.289 7.289 0 0 1-2.91-.175l-.647-2.263a34.38 34.38 0 0 1-3.556-7.113c4.728 1.064 3.462 3.988 6.196 5.833v-.054a2.694 2.694 0 0 0 2.695.162h.323l.485 1.347a2.465 2.465 0 0 1-.485 1.616zm.916-6.142h-.323c-.27-.337-.135-.862-.323-1.347a7.342 7.342 0 0 0-1.617-2.425c.337-2.694.081-5.981.647-8.567v-2.587c.7-3.179.417-7.112 1.131-10.345l.162-4.526c.337-1.563.31-3.65.647-5.173v-3.394a55.674 55.674 0 0 0 .485-11.423c.646.822.484 2.25.808 3.394.768 2.694 1.024 5.55 1.778 8.568 1.536 6.183 2.505 12.904 4.364 18.589.795 2.411 1.145 4.553 2.425 6.466 2.128 3.179 5.253 5.065 8.729 6.95.35.189.74.66 1.131.809a75.202 75.202 0 0 0 6.143 2.101c1.67.498 3.112.445 4.203 1.455a8.42 8.42 0 0 1 .646 3.556h-8.944l-2.695-2.694c-2.788-2.048-7.961-3.92-11.962-1.455-2.465 1.522-3.623 4.203-5.657 6.143v.161c-.768-.471-.809-1.98-1.132-2.91zm12.77 2.694a59.443 59.443 0 0 0-.161 4.526c-.39.121-.364.094-.54.215v-.053h-11.26v-.162c1.71-.62 3.461-3.556 4.525-5.011a8.62 8.62 0 0 1 5.82-3.556 8.27 8.27 0 0 1 4.04.161c1.684.62 2.802 2.344 4.365 2.91-1.226.768-3.785-.256-5.011.485a2.465 2.465 0 0 0-1.778.485zm10.346 4.62h-8.621v-3.233a3.004 3.004 0 0 0 1.454-.162h5.388c.606.404 1.145 2.587 1.778 3.233zm3.987 0a3.032 3.032 0 0 1-1.94-.526v.04c-1.01-.404-1.104-1.832-1.778-2.586v-.162h3.718zm45.584-.418l-43.806.324a25.582 25.582 0 0 0 .162-3.233l17.134-.324a59.135 59.135 0 0 1 11.962-.323c1.482.135 5.469-.552 6.627.162 2.183 0 7.194-.674 7.76.97a5.78 5.78 0 0 1 .161 2.424zm43.321-18.266l1.132 8.083c0 .97.512 2.6 0 3.394-.162.364-.283.35-.485.647a27.68 27.68 0 0 0-5.388.323h-10.508c.876-3.92.485-9.16.485-13.74l-.323-19.074c-.175-.795 0-2.236-.162-3.233a42.688 42.688 0 0 1-.485-8.567l10.723.054a124.229 124.229 0 0 0 2.91 18.858c1.077 4.419.97 8.958 2.1 13.255zm-71.986-19.25c-2.479-3.245-2.91-9.092-2.91-14.71v-7.53c-.31-1.346.189-3.448-.162-5.01a27.481 27.481 0 0 1 .162-8.567c.714-3.247-.539-7.975.162-11.154a28.907 28.907 0 0 0-.162-7.92l-.162-10.507c0-6.843-.714-15.518 1.347-20.206 3.152-7.382 17.512-5.011 27.319-5.011a54.309 54.309 0 0 0 7.112-.162c1.832-.27 4.041.189 5.658-.161l45.26.161c4.54 0 9.43-.161 14.225-.161a28.034 28.034 0 0 1 5.981.161c2.384.526 4.715 0 6.735.808 6.116 2.304 7.49 5.752 7.76 13.902a16.082 16.082 0 0 1 .16 3.556 21.846 21.846 0 0 0 .163 6.628v3.07c0 2.29 0 4.918.161 6.952v8.231c0 8.405-.444 16.825 0 24.893v8.083c0 7.206 0 13.336-4.364 16.488-3.3 2.397-8.473 2.222-14.225 2.263-5.025 0-10.696.323-16.165.323h-8.082a8.768 8.768 0 0 0-3.233.162h-1.347c-.902-4.217-1.266-9.43-2.263-13.74-.364-1.563.162-3.732-.646-4.85l-.162-.485a44.838 44.838 0 0 0-8.082-.161c-2.075 0-4.042-.324-5.658.323a16.247 16.247 0 0 0 0 7.112l.485 11.962h-23.654c-.432-3.96-1.401-8.27-4.85-9.2v.04a9.537 9.537 0 0 0-.323-2.693c-.283-.108-.162 0-.323-.162a.903.903 0 0 0-1.213.633 6.48 6.48 0 0 0 .243 3.246c.377.836.889.364 1.616.809a7.017 7.017 0 0 1 1.778 1.94 13.674 13.674 0 0 1 1.132 3.718 11.603 11.603 0 0 0 .161 1.454v.324c-10.52-.001-25.095.995-29.635-4.85zm44.183 32.02a2.453 2.453 0 0 0-.646.324 29.114 29.114 0 0 0-.162 5.172h-8.46a9.835 9.835 0 0 0 1.455-2.263 6.897 6.897 0 0 0-1.347-5.82c-1.873-2.855-4.957-4.862-5.82-8.566a11.06 11.06 0 0 1 .485-4.688 33.31 33.31 0 0 0 1.617-9.537l23.87.054c0 5.267.202 11.477.162 16.488 0 1.427.39 5.913-.162 6.735-.296 2.694-5.792 1.94-8.729 1.94a5.914 5.914 0 0 0-2.263.161zm1.132 5.496v-3.718c11.638.027 23.762-.606 35.562-.606v-.04l.323 3.718c-11.814 0-23.574.673-35.886.647z" fill="#59595a"/><path d="M210.762 153.788a2.776 2.776 0 0 0 1.94-.485c-.013-.66.162-.997-.323-1.347s-1.818-.162-2.586-.162h-6.466c-.162.135-.162-.161-.323.162s-.027.162-.162.323a1.805 1.805 0 0 0 .485 1.347c1.468-.013 6.56-.39 7.435.162z" fill="#59595a"/><path d="M79.142 180.621a7.516 7.516 0 0 1 5.671 1.684 2.573 2.573 0 0 1-.66 2.694c-.43.216-1.212 1.347-1.643 1.55-1.118.807-1.536 1.67-3.206 1.845-.889.552-4.432-1.482-4.688-2.263a2.573 2.573 0 0 1-.161-1.347c.094-.863 1.09-1.873 2.276-2.614.728-.377 1.118-1.28 2.411-1.549zm3.705 1.913c1.226.781-3.381 3.866-3.826 4.041a4.109 4.109 0 0 1-3.03-.902c-.337-.162-.257-.741-.095-.97a8.487 8.487 0 0 1 3.853-2.95 12.526 12.526 0 0 1 3.098.781zm-8.083 5.173a10.252 10.252 0 0 1 4.203 1.454 8.486 8.486 0 0 0-.323 5.496c.215.566.552.755.646 1.617a2.142 2.142 0 0 1-1.346.323 8.272 8.272 0 0 1-2.587-.646 9.726 9.726 0 0 1-.593-8.244z" fill="#fdb913"/></svg>