<?xml version="1.0" encoding="utf-8"?>
<!-- Generator: Adobe Illustrator 23.0.4, SVG Export Plug-In . SVG Version: 6.00 Build 0)  -->
<svg version="1.1" id="Layer_1" xmlns="http://www.w3.org/2000/svg" xmlns:xlink="http://www.w3.org/1999/xlink" x="0px" y="0px"
	 viewBox="0 0 595.3 569" style="enable-background:new 0 0 595.3 569;" xml:space="preserve">
<style type="text/css">
	.st0{fill:#FFFFFF;}
	.st1{fill:#F5F5F5;}
	.st2{fill:#FFBB01;}
	.st3{fill:#DDDDDD;}
	.st4{fill:#BBBBBB;}
	.st5{fill:#999999;}
	.st6{fill:none;}
	.st7{fill:#FFBB00;}
	.st8{fill:#444444;}
</style>
<g>
	<g id="bg_2_">
		<path class="st0" d="M270.1,404.2c0-0.2-0.2-0.5-0.5-0.5c-6.5-0.1-12.9-0.2-19.4,0c-2.1,0.1-5-0.1-7.6,0.3
			c-1.2-0.1-2.4,0.1-3.5,0.7c-1.4,0.2-2.8,0.7-3.4,1.6c-0.4,0.3-0.7,0.7-0.9,1.2c-0.2,0.3-0.3,0.6-0.3,1c0,0.7,0.4,1.1,0.9,1.3
			c0.1,0.1,0.1,0.1,0.2,0.2c0.3,0.1,0.6,0.2,0.9,0.3c0.6,0.3,1.2,0.3,1.9,0.3c0.6,0.1,1.2,0.2,1.8,0.2c0.1,0,0.2,0,0.2,0
			c1.5,0.2,2.8-0.2,4.2-0.4c1.3-0.2,2.7,0,3.9-0.5c0.6-0.3,0.1-1.1-0.5-0.9c-1,0.4-2.5,0.2-3.6,0.5c-1.4,0.2-2.6,0.5-4,0.4
			c-0.1,0-0.2,0-0.2,0h-0.1c-0.1-0.1-0.2-0.2-0.4-0.2s-0.4,0-0.7,0h-0.1c-0.1,0-0.2,0-0.4,0s-0.4,0-0.6-0.1
			c-0.3-0.1-0.6-0.1-0.8-0.3c-0.1,0-0.1-0.1-0.2-0.1c0,0-0.1,0-0.1-0.1c-0.4-0.2-0.6-0.5-0.6-1.1c0-0.2,0-0.4,0.1-0.6
			c0.3-0.1,0.5-0.2,0.8-0.2c0.1,0,0.1,0,0.2-0.1c-0.1,0.1-0.1,0.2-0.2,0.3c-0.3,0.6,0.6,1.1,0.9,0.5c0.3-0.7,0.8-1.2,1.3-1.6
			c0.1,0,0.2,0,0.3,0c0.6-0.3,1.4-0.6,2.1-0.7c0.6,0,1.1,0,1.7,0.1c0.3,0,0.4-0.1,0.4-0.3c1.3,0,2.7,0,3.9,0l7.3-0.1
			c5-0.1,10-0.1,15-0.2C270.5,405.2,270.5,404.4,270.1,404.2z"/>
		<path class="st0" d="M280,418.4c-0.2,0.1-0.5,0.1-0.8,0.1c0.1-0.2,0.1-0.6-0.3-0.7l-1.2-0.3c0.4-0.2,0.5-0.8,0-0.9
			c-0.9-0.2-1.8-0.3-2.7-0.4c-0.9-0.1-2,0-2.9-0.2l0,0l0,0H272c-0.2,0-0.3,0-0.4,0.1c-0.1-0.1-0.2-0.2-0.3-0.4
			c-0.1-0.1-0.2-0.2-0.3-0.2v-0.1c0.1,0,0.3,0,0.4,0c0.5,0,0.6-0.6,0.3-0.9c0.6,0,1.3,0.1,1.9,0.1s0.6-1,0-1
			c-4.9-0.3-9.8-0.7-14.6-0.6c-1,0-2,0.1-3,0.1c-3.8-0.1-7.5-0.1-11.2,0.2c0,0,0,0-0.1,0c-0.3,0-0.6-0.1-0.8-0.1c-0.1,0-0.1,0-0.2,0
			c-0.3,0-0.6,0-0.9-0.1h-0.1c-0.1-0.1-0.2-0.1-0.3-0.1c-0.6,0-0.6,1,0,1h0.1c0.1,0,0.1,0.1,0.2,0.1c-0.1,0.2,0,0.5,0.3,0.7l0,0
			c0.1,0.1,0.2,0.1,0.3,0.1l0,0c2.2,0.7,4.7,0.7,7.1,0.6c6.4,0.4,12.7,0.6,19.1,0.5c0,0.2,0,0.4,0.2,0.5c1.5,1.1,3.1,2.2,5,2.5
			c1.1,0.2,2.3,0.2,3.4,0.4c0.8,0.1,1.4,0.2,2.2-0.1C280.9,419.2,280.6,418.2,280,418.4z"/>
		<path class="st0" d="M267.8,393.7c-9.7,0.6-19.7,1-29.2,2.9l0,0c-0.6,0-1.1,0.2-1.4,0.7l0,0c-0.1,0-0.1,0-0.2,0.1
			c-0.6,0.4-0.8,1.3-0.5,1.9c0.4,0.8,1.3,1.1,2.1,1.2l0,0c2.2,0.7,4.6,0.6,7,0.7c0.1,0.1,0.2,0.2,0.4,0.2c2.6-0.2,5.3-0.4,8-0.5
			c0.6,0,0.6-1,0-1c-2.4,0.1-4.7,0.2-7,0.4h-0.1c-2.1-0.1-4.4,0-6.6-0.4c-0.1-0.1-0.2-0.2-0.4-0.2c-0.5,0-0.9-0.2-1.3-0.6
			c-0.1-0.1-0.2-0.2-0.4-0.2c0-0.1,0-0.3,0.1-0.4s0.1-0.2,0.1-0.3c0,0,0.1,0,0.1-0.1c0.2-0.1,0.5-0.2,0.7-0.2c0.1,0,0.1,0,0.2,0
			c0.2,0.1,0.5,0,0.6-0.2c0.2,0,0.3,0,0.5,0s0.4-0.1,0.4-0.2c0.5,0,1,0,1.6,0c0.5,0,0.6-0.5,0.4-0.8c8.2-1.3,16.7-1.7,25-2.2
			C268.4,394.7,268.4,393.7,267.8,393.7z"/>
		<path class="st1" d="M535.5,265.5c-16.5-17.5-41.7-26.8-53.1-47.9c-15.7-28.9-1.1-82.5-45.3-89c-9.4-1.4-19,0.5-28.4-1.1
			c-24.9-4.3-38.4-30.3-53.6-50.5c-11.1-14.8-24.8-27.7-40.3-37.8c-14.8-9.7-32.3-17.1-49.9-15C241.1,27,222.5,46.3,210.4,67
			s-19.8,43.9-33.7,63.4c-23,32.3-60.8,51.7-83.9,84c-28.8,40-30.2,95.5-12,141.4c16.6,41.9,47.5,76.6,82.8,104.9
			c29.1,39.9,74.3,67.8,123.4,74.8c0.6,0.1,1.1,0.1,1.7,0c34.3,8,70.1,8.3,104.6,0.7c1.8-0.4,3-1.4,3.7-2.6
			c8.6-1.8,17.1-4.4,25.3-7.9c21.8-9.2,40.6-24.4,57.6-40.9c35.6-34.6,65.1-77.3,75.2-125.9C561.7,326.6,558.2,289.5,535.5,265.5z"
			/>
		<path class="st0" d="M137.5,199.9c-4.9-2.1-10-3.4-15.2-3.8c5-0.9,9.9-2,14.8-3.1c1.1-0.3,1.3-1.5,0.8-2.2c1.1-1,0.4-2.9-1.3-2.6
			c-5.4,1-10.8,2.2-16,3.8c1.6-1.2,3.2-2.4,4.8-3.7c3.3-2.6,7.6-5.1,8.4-9.5c0.2-1.4-1-2.2-2.2-1.7c-9.7,4.4-18.1,10.7-25,18.8
			c-0.2,0.3-0.4,0.6-0.4,0.9c-5.9,5.8-10.6,12.5-13.9,20.1c-0.6,1.3,0.7,2.9,2.1,2c1-0.6,1.9-1.2,2.7-1.9
			c-2.3,5.1-4.2,10.5-5.9,15.9c-0.4,1.4,1.1,2.2,2.2,1.7c5-2.2,7-8.3,9.1-12.9c0.7-1.6,1.4-3.2,2.1-4.9c-0.5,5.7-0.6,11.5,0.3,17.2
			c0.1,0.8,1.1,1.2,1.8,1c4-1,3.5-7.8,3.8-11c0.5-4.9,0.7-9.8,0.5-14.7c2.4,6.3,5.8,12.2,10.1,17.6c0.6,0.8,1.9,0.4,2.3-0.3
			c2.6-4.1-0.3-9-2.1-12.8c-1.1-2.3-2.3-4.5-3.6-6.6c0.6,0.5,1.1,0.9,1.6,1.4c3.6,3.3,7.3,6.2,11.5,8.6c1.5,0.9,2.9-1.1,1.8-2.4
			c-4.3-4.7-8.9-9.1-13.8-13.1c3.4,0.6,6.9,1.1,10.4,1.5c1.3,0.1,3.6,0.6,5.5,0.5c0.3,0,0.6,0.1,0.9,0.1c0.9,0.1,1.6-0.4,1.8-1.1
			c0.3-0.3,0.6-0.8,0.7-1.3C138.3,201,138.1,200.2,137.5,199.9z"/>
		<path class="st0" d="M515,277.6c4.9-2.1,10-3.4,15.2-3.8c-5-0.9-9.9-2-14.8-3.1c-1.2-0.3-1.3-1.5-0.8-2.2c-1.1-1-0.4-2.9,1.3-2.6
			c5.4,1,10.8,2.2,16,3.8c-1.6-1.2-3.2-2.4-4.8-3.7c-3.3-2.6-7.6-5.1-8.4-9.5c-0.2-1.4,1-2.2,2.2-1.7c9.7,4.4,18.1,10.7,25,18.8
			c0.2,0.3,0.4,0.6,0.4,0.9c5.9,5.8,10.6,12.5,13.9,20.1c0.6,1.3-0.7,2.9-2.1,2c-1-0.6-1.9-1.2-2.7-1.9c2.3,5.1,4.2,10.5,5.9,15.9
			c0.4,1.4-1.1,2.2-2.2,1.7c-5-2.2-7-8.3-9.1-12.9c-0.7-1.6-1.4-3.2-2.1-4.9c0.5,5.7,0.6,11.5-0.3,17.2c-0.1,0.8-1.1,1.2-1.8,1
			c-4-1-3.5-7.8-3.8-11c-0.5-4.9-0.7-9.8-0.5-14.7c-2.4,6.3-5.8,12.2-10,17.6c-0.6,0.8-1.9,0.4-2.3-0.3c-2.5-4.1,0.3-9,2.1-12.8
			c1.1-2.3,2.3-4.5,3.6-6.6c-0.6,0.5-1.1,0.9-1.6,1.4c-3.6,3.3-7.3,6.2-11.5,8.6c-1.5,0.9-2.9-1.1-1.8-2.4
			c4.3-4.7,8.9-9.1,13.8-13.1c-3.4,0.6-6.9,1.1-10.4,1.5c-1.3,0.1-3.6,0.6-5.5,0.5c-0.3,0-0.6,0.1-0.8,0.1c-0.9,0.1-1.6-0.4-1.8-1.1
			c-0.3-0.3-0.6-0.8-0.7-1.3C514.2,278.7,514.3,277.8,515,277.6z"/>
		<path class="st2" d="M547.4,277.5c-0.7-1.3-2.1-1.7-3.5-1.5c-0.1,0-0.2,0-0.3,0.1c-0.5-0.2-1.1,0-1.5,0.4
			c-0.7,0.1-1.3,0.5-1.4,1.4c0,0.6,0.1,1.1,0.3,1.6c0.1,1.4,1.1,2.8,2.6,3c0.8,0.1,1.4-0.2,1.7-0.8c0.5,0.1,1.1,0.1,1.5-0.3
			C547.8,280.3,548.1,278.8,547.4,277.5z"/>
		<path class="st1" d="M152.7,503.7c-27.2-13.5-51-34.1-68.2-59.2c-3.7-5.4-7.2-11.4-6.9-17.9c0.1-1.9,0.5-3.8,1.8-5.2
			c3.2-3.6,9.1-1.6,13.1,1c32.7,20.9,44.8,62,78.7,81.9c4.6,2.7,6.1,4.7-0.6,5.3C164.6,510,157.9,506.3,152.7,503.7z"/>
		<path class="st1" d="M49.2,441.3c-12.1-18.5-18.6-40.5-18.5-62.6c0-2.4,0.2-5,1.9-6.6c1.9-1.8,5-1.6,7.3-0.3s3.8,3.6,5.1,5.8
			c9.8,16,15,34.3,21.6,51.8c6.9,18.1,15.8,33,29.9,46.1c8.1,7.5,2.9,8-4.5,4.5c-8.1-3.8-15.7-9.3-22.4-15.2
			C61.8,457.9,54.8,450,49.2,441.3z"/>
		<path class="st1" d="M109.7,498.5c-2.1-1.8-4.1-3.8-4.8-6.4s0.1-5.9,2.6-7c2.3-1,5,0.1,7.3,1.4c13.7,7.7,25.1,19.7,40.1,24.3
			c3.5,1.1,7.2,2,9.5,5.1c-4.8,4.5-21.8-2.1-27.4-3.7C127.2,509.2,117.6,505.1,109.7,498.5z"/>
		<path class="st1" d="M59.1,380.9c0-0.7,0.1-1.4,0.5-2c0.6-0.7,1.6-0.9,2.5-0.7c3.1,0.4,5.5,3,6.6,5.9s1.2,6.1,1.4,9.2
			c0.4,7.9,1.5,15.7,3.1,23.5c1.3,6.2,1.6,11.6-3.9,4.2C61.3,410.1,58.2,394.1,59.1,380.9z"/>
		<path class="st1" d="M479.5,182.1c0.1-2.6,1.2-5.9,3.8-5.7c1.1,0.1,1.9,0.8,2.7,1.6c8.3,8.5,7.1,22.5,13.1,32.7
			c2.1,3.6,14.7,16.5,10.2,21.1c-3,3.1-9.4-4.1-11.3-6C486.3,214.3,478.9,198.8,479.5,182.1z"/>
		<path class="st1" d="M502.3,170.4c-2.9-6.2-6.8-12.2-12.5-16c-1.1-0.8-2.6-1.5-3.9-1c-2.3,0.8-2.1,4-1.4,6.3
			c4.2,12.9,13,24.1,16.4,37.3c1.6,6.1,2.3,13.1,7.1,17.1c0.7,0.5,2.7-7.5,2.8-8.4c0.2-3.7-0.9-7.8-1.6-11.4
			C507.8,186.1,505.8,178,502.3,170.4z"/>
		<path class="st3" d="M509.3,383.5c7.1-8.2,14.8-16.1,23.5-22.6c4-3,8.6-5.9,13.7-5.9c1.4,0,2.9,0.3,4,1.1c2.1,1.6,2.1,4.7,1.9,7.3
			c-3.1,40.6-20.7,79.8-48.2,109.8c-7,7.6-14.6,14.7-22.7,21c-5,3.9-17.2,15.6-24,12.7c-16.3-6.9,5.1-47.8,9.5-57.3
			C477.8,425.7,492.1,403.3,509.3,383.5z"/>
		<path class="st3" d="M578.5,415.2c2.1-0.9,4.8-1.7,6.4-0.1c1.7,1.6,0.8,4.4-0.2,6.5c-11.2,23.5-30.1,43.2-52.9,55.8
			c-3.9,2.2-12.6,8.2-17.2,6.9c-6.1-1.8-4.3-8.4-2.1-12.4c6.5-11.6,16.8-22.2,26.7-31C550.9,430.5,564.2,421.8,578.5,415.2z"/>
		<path class="st0" d="M101.8,249.4c-0.1-0.8-0.6-1.5-1.5-1.5c-2.4,0.1-4.8,0.4-7.2,1c1.8-1.7,3.2-3.9,4.2-6.3
			c0.5-1.3-1.2-2.2-2.2-1.7c-2.8,1.5-5.1,3.6-6.8,6.1c-0.3-1.2-0.7-2.3-1.3-3.3c-0.8-1.5-2.6-2.8-4.2-1.3c-1.3,1.3-1.1,3.7-0.7,5.3
			c0.2,1,0.7,1.8,1.2,2.6c-2.2-0.5-4.5,0.1-6.3,1.6c-0.9,0.7-0.4,2.2,0.7,2.5c0.4,0.1,0.7,0.1,1.1,0.2c-1.8,1.9-3.4,4.1-4.7,6.5
			c-0.6,1.1,0.4,2.6,1.7,2.2c2.5-0.8,4.7-2.2,6.5-4c-0.4,2.5-0.2,5,0.4,7.5c0.3,1.2,2.1,1.5,2.7,0.4c1.6-2.9,2.3-6,2.3-9.2
			c1.7,2.5,3.9,4.7,6.7,6.2c1.2,0.7,2.4-0.5,2.2-1.7c-0.6-3.5-2.7-6.5-5.7-8.3C93.9,253.9,102.1,253.9,101.8,249.4z"/>
		<path class="st2" d="M88.1,251.5c0-0.4-0.2-0.8-0.4-1.1c-0.6-0.6-1.5-0.5-2.1,0c-0.7,0.6-1,1.5-1,2.4c0,1.1,0.7,2.2,1.9,2.2
			C88.1,254.9,89,252.7,88.1,251.5z"/>
		<path class="st2" d="M111.2,203.4c-0.5-0.7-1.3-1.2-2.1-1.3c-0.9-0.3-1.9-0.1-2.7,0.5c-0.8,0.6-1.2,1.5-1.2,2.4
			c-0.2,0.7-0.2,1.4,0,2.1c0.1,0.8,1.1,1.2,1.8,1c0.2-0.1,0.4-0.1,0.5-0.3c0.8,0.2,1.6,0.1,2.3-0.3c0.2-0.1,0.4-0.3,0.6-0.5
			C111.5,206.2,112.1,204.8,111.2,203.4z"/>
		<path class="st2" d="M24.7,335c0-0.7-0.5-1.3-1.2-1.5l0,0l0,0c0.6-0.8,0.5-2.1-0.7-2.4c-1.4-0.4-2.8,0.1-3.8,1.2
			c-0.2,0.3-0.4,0.5-0.6,0.8c-1,0.9-1.6,2.4-1.2,3.8c0,0.2,0.2,0.4,0.3,0.6c0.1,0.9,0.5,1.7,1.6,2c1.2,0.4,2.4-0.2,3.2-1
			c0,0,0.1,0,0.2,0c0.8-0.2,1.3-0.8,1.4-1.5C24.3,336.5,24.6,335.8,24.7,335z"/>
		<path class="st2" d="M32.5,336.6c0-0.4,0-0.7-0.2-1.1c-0.2-0.6-0.6-1-1.2-1.1s-1.2,0.2-1.5,0.7c-1.2,0.5-1.4,2.2-1,3.4
			c0.3,0.9,1.3,1.4,2.2,0.9c0.6-0.4,1-0.9,1.3-1.5C32.5,337.6,32.6,337.1,32.5,336.6z"/>
		<path class="st2" d="M32,346.7c-0.7-0.7-2-1.4-3-0.9c-0.3,0.1-0.5,0.4-0.7,0.6c-0.1,0-0.2,0-0.4,0c-0.7,0-1.6,0.7-1.5,1.5
			c0.1,0.7,0.2,1.4,0.4,2c-0.1,0.4-0.1,0.9,0,1.3c0,0.1,0,0.2,0.1,0.4c-0.1,0.4-0.1,0.7-0.1,1.1c0.1,1,0.9,1.6,1.8,1.4
			c0.6,0.3,1.4,0.2,1.8-0.2c0.5-0.5,1-1,1.3-1.6c0,0,0,0,0.1,0C33.5,350.7,33.5,348.2,32,346.7z"/>
		<path class="st2" d="M573.3,396.1c-0.1-0.1-0.2-0.1-0.3-0.2s-0.1-0.2-0.2-0.3c-0.4-0.6-1.3-1-2-0.5c-0.2,0.1-0.3,0.2-0.5,0.3
			c-0.1-0.1-0.2-0.2-0.4-0.3c-1.3-0.8-2.4,0.3-3,1.4c-1.5,2.8-1.4,6.2,0.1,8.9c0.4,0.7,1.4,0.9,2,0.5c1.8-1.1,3.2-2.6,4.2-4.4
			C574.2,399.9,575,397.5,573.3,396.1z"/>
		<path class="st2" d="M570,412.4c-0.2-0.8-0.9-1.6-1.8-1.6c-1,0-1.8,0.7-2.1,1.7c-0.2,0.7-0.2,1.5-0.2,2.3s0.7,1.5,1.5,1.5
			s1.5-0.7,1.5-1.5c0-0.1,0-0.2,0-0.3C569.7,414.2,570.2,413.4,570,412.4z"/>
		<path class="st4" d="M505.5,401.6c4.4-9.6,8.9-19.8,14.3-29.4c-3.7,3.6-7.1,7.4-10.5,11.3c-17.2,19.8-31.5,42.2-42.4,66.1
			c-4.4,9.6-25.8,50.4-9.5,57.3c6.9,2.9,19-8.8,24-12.7c1.8-1.4,3.5-2.8,5.2-4.2C486.5,459.3,492.7,429.5,505.5,401.6z"/>
		<path class="st4" d="M515.3,484.5c16.4-25.7,37-48.6,60.5-68c-13.3,6.4-25.7,14.6-36.7,24.5c-9.8,8.8-20.2,19.4-26.7,31
			c-2.2,4-4,10.6,2.1,12.4C514.8,484.4,515.1,484.4,515.3,484.5z"/>
		<path class="st5" d="M539.9,369.1c-20,42.9-45.7,83-76.4,119c-1.2,1.5,0.9,3.6,2.1,2.1c30.8-36.3,56.7-76.5,76.8-119.6
			C543.3,368.8,540.7,367.3,539.9,369.1z"/>
		<path class="st5" d="M574.5,423.5c-17.6,17.1-36,33.2-55.4,48.2c-1.5,1.2,0,3.8,1.5,2.6c19.5-15.2,38.2-31.4,56-48.7
			C578,424.3,575.8,422.2,574.5,423.5z"/>
		<g id="bg_3_">
		</g>
	</g>
	<g id="fill_1_">
		<path class="st0" d="M239.5,375.5c-0.1-1.2-0.1-2.4-0.8-3.4c-1.1-1.7-3.4-1.9-5.4-1.9c-7.8-0.2-15.6-0.2-23.4,0.1
			c-5.8,0.2-11.3-0.9-10.3,6.8c0.9,7.5,1.1,15.1,0.6,22.6c-0.1,1.2-0.2,2.4,0.5,3.5s2.1,1.6,3.4,2c9.6,2.7,19.9,3.2,29.7,1.4
			c1.2-0.2,2.5-0.5,3.4-1.3c1.3-1.1,1.5-3,1.7-4.7C239.6,392.2,239.9,383.9,239.5,375.5z"/>
		<path class="st2" d="M203.8,381.9c0-0.5-0.1-1,0.1-1.4c0.4-1,1.8-1.3,2.9-1c1.1,0.2,2.1,0.8,3.2,0.9c1.9,0.1,3.6-1.3,5.5-1
			c0.9,0.1,1.7,0.6,2.5,0.5c0.8-0.2,1.3-0.9,2.1-1.1c1.7-0.6,3.4,1.2,5.2,0.9c1.1-0.2,1.9-1.2,3-1.1c1.3,0.1,2.2,1.9,3.4,1.5
			c0.5-0.1,0.9-0.6,1.5-0.8c0.8-0.3,1.6,0.3,2.1,1s0.5,1.6,0.5,2.4c0.4,7.3,0.8,14.5,1.2,21.8c0,0.7,0.1,1.5-0.4,2s-1.2,0.6-2,0.7
			c-4.9,0.3-9.7,0.2-14.6,0c-3.3-0.1-11.2,0.8-13.9-1.1c-2.2-1.6-1.1-5.9-1.3-8.4C204.5,392.3,204.1,387.1,203.8,381.9z"/>
		<path class="st0" d="M335.3,230.3c-0.4-0.2-0.5-0.5-0.5-0.8c-2.6-1.5-4.2-4.1-4.5-7.5c-0.3-1.6-0.4-3.3-0.4-5.1
			c0.5-0.3,0.8-0.9,0.6-1.6c-0.2-0.6-0.3-1.1-0.4-1.7c0.1-0.7,0.2-1.4,0.2-2c-0.2,0-0.3,0.1-0.5,0.1c-0.7-7.3,1.7-15.5,1.7-22.6
			c0-2.6,0-3.7,1.6-5.9c1.2-1.7,2.8-3,3.9-4.7c2.5-3.6,3.2-7.1,3.6-11.4c0.8-8.1,0-14.6-7.1-19.4c-8.1-5.4-14.1-13.7-22.5-18.6
			c-8-4.7-16.1-5.6-24.9-2.8c-7.5,2.4-16.4,7.1-21,13.7c-5.2,7.4-4.3,18-3.8,26.6c0.3,4.8,1.4,9.1,3,13.7c1.4,4.3,2.4,8.5,4.2,12.7
			c3.1,7.1,6.7,16,13.6,20.4c1.8,1.1,3.8,2.2,5.9,2.6c2.2,0.5,4.2-0.1,6.4,0.2c2.4,0.3,1.1,0.3,2.1,1.7c0.5,0.7,0.6,1.1,1,1.6
			c-0.1,3.3-0.5,6.5-1.1,9.8c-0.6,0.1-1.1,0.3-1.7,0.4c-9.2,2.1-16.8,3.7-25.8,6.6c-7.3,2.4-13.5,7.3-19.3,12.4
			c-30.5,26.6-55,59.8-87,84.8c-0.4,0.3-1.2-0.2-0.7-0.3c-0.4-38.5,0.1-65.5,0.7-104c0-1.2,0.1-2.6,0.8-3.6c0.6-0.8,1.6-1.3,2.5-1.7
			c5.1-2.4,10.1-5.4,13.4-10c2.3-3.3,3.6-7.2,4.9-11c1.2-3.8,2.5-7.6,3.7-11.4c0.6-1.7,1.1-3.5,0.6-5.2s-2.5-3.4-4-2.4
			c0.2-1.9,0.3-3.8,0.5-5.7c0.1-0.7,0.2-1.5,0.8-1.8c0.7-0.3,1.4,0.2,2.1,0.4c2,0.8,4.3-0.6,5.4-2.4s1.2-4.1,1.4-6.2
			c0.3-4.7,0.6-9.3,0.9-14c0.1-1.6,0.2-3.3-0.8-4.6c-1.4-1.9-4.3-1.9-6.6-1.2c-6,2-10.3,7.4-13.4,13c-1,1.8-2,3.8-3.9,4.7
			c-3.3,1.6-8.2-0.7-10.4,2.2c-1.9-2.8-6.3-1.2-9.6-1.9c-1.4-0.3-2.7-1-4.1-1.4c-6-1.8-12.5,2.7-15.1,8.5
			c-2.6,5.8-2.2,12.4-1.9,18.7c0.2,3.6,0.4,7.2,0.7,10.9c0.2,3.3,0.5,6.7,2,9.6c-0.2,0.2-0.2,0.5-0.2,0.9c0.2,2.7,1.4,5.2,3.2,7
			c1.2,2,2,4.2,2.4,6.5c0.2,1.3,0.4,2.6,0.6,3.9c-0.4,3.7-0.8,7.3-1.3,11c-4.4,25.3-6.6,38-6.6,63.7c-0.1,0.4-0.1,0.9-0.2,1.3
			c-0.1,0.4,0,0.8,0.2,1.1c0,3.4,0.1,6.9,0.2,10.3c-1.1,9.4-1.9,18.8-2,28.2c-0.1,7.2,0.2,15.2,5.1,20.5c3.2,3.5,8,5.2,12.8,5.6
			c11.2,0.9,21.7-4.8,31.3-10.6c23.9-14.5,46.7-30.7,68.3-48.5c1.4-1.3,3.2-1.1,5.1-0.1c20.2-11.1,48-6.4,69.4-2.8
			c6.7,1.1,12.7,2.9,18.2,5.8c0.2-7.7,0.8-15.5,1.4-23.1c1.6-20.2-10.5-40.1-4-59.2C330.4,233.7,340.7,232.7,335.3,230.3z"/>
		<path class="st4" d="M361.1,388.8c-0.1-1.5-0.3-3-0.4-4.5c0.1,1.6,0.1,3.3,0.2,5C360.9,389.1,361,388.9,361.1,388.8z"/>
		<g>
			<path class="st1" d="M271.9,238.4c-2-6.7-10.7-1.1-13.3,2.2c-0.8,1-0.9,2.1-0.7,3.1c-0.6,0.5-1.1,1.1-1.3,2.1
				c-3.9,13.9-4.9,28.5-9.1,42.3c-2.1,7-5.2,13.9-9.8,19.7c-4.7,5.9-10.8,10.6-16.8,15c-11.6,8.5-23.8,16.4-36.1,23.9
				c-10,6.2-20.4,11.8-31.4,16c-1.9,0.5-3.9,1-5.9,1.4c-2.8,0.5-5.2,1-7.3-1.3c-0.9-1-1.5-2.5-2.2-3.8c-0.1-1.7-1-3.3-1.3-5
				c-0.4-2.3-1.2-4.4-1.2-6.8c0-1.1-0.5-1.9-1.1-2.5c-0.2-2.1-0.7-4.2-1.1-6.2c-0.5-2-1.2-3.8-1.3-5.9c-0.1-1.4-0.1-2.6-0.5-4
				c-0.3-1.1-2.1-0.9-2,0.3c0.1,1,0.2,2,0.3,3.1c-0.4,0.1-0.8,0.4-0.8,0.9c0,2.4-0.3,4.9,0,7.3c0.2,1.4,0.5,2.8,0.9,4.2
				c-0.8,0.6-1.4,1.5-1.3,2.8c0.1,2.4,0.5,4.8,1.2,7.2c0.3,1,0.3,2,0.5,3c0,0.1,0.1,0.3,0.1,0.4c-0.8,1.1-1,2.6,0,4.1
				c3.5,5,4.8,10,11.8,10.7h0.8c0.9,0.9,2.1,1.3,3.7,0.8c2.1-0.6,4.1-1.3,6.2-2c4-1,8-2.6,11.6-3.8c1.1-0.4,1.8-1.1,2.2-1.9
				c7.3-3.4,14.4-7.4,21.3-11.6c13.6-8.3,27.1-16.9,39.8-26.5c4.7-3.6,9-7.4,12.8-11.6c4.1,0.1,6-3.8,7.8-7.5
				c0.3-0.2,0.7-0.5,0.9-0.9c4.2-6,6.5-12.2,8.4-18.9c0.2-0.6,0.4-1.2,0.6-1.8c2.1-6.4,3.8-13,5.6-19.5c1-3,2-6,2.9-9.1
				c0.5-1.3,1-2.6,1.4-3.9C270.3,249.3,273.3,243.2,271.9,238.4z"/>
			<path class="st1" d="M179.4,186.6c-1.1,4.7-2.3,9.3-3.7,13.9c-1.2,4.1-2.3,9.1-5,12.5c-2.8,3.5-7.6,3.6-11.1,6.2
				c-1.8,1.3-3.1,2.9-3.9,4.8c-0.3,0.4-0.6,1-0.7,1.7c-3.2,21.2-4.1,29.7-3.6,51.1c0.2,10.7,0.7,21.5,1.3,32.2
				c0.3,5.2,0.6,10.4,0.9,15.6c0.3,4.9,0.2,9.7,2.4,14.2c2.2,4.6,9.1,0.5,6.9-4.1c-2.1-4.4-1.4-11.2-1.7-16
				c-0.1-1.8-0.2-3.6-0.3-5.4c0.3-0.5,0.5-1.2,0.5-1.9c0.6-29.9,2.5-47.2,0.8-77.1c0-0.5-0.1-0.9-0.3-1.3c0.1-0.9,0.2-1.8,0.4-2.7
				c0.4-0.6,0.6-1.3,0.6-2.1c-0.1-3.9,8.4-5.2,11.1-7.3c2.6-2,4.4-4.6,5.7-7.6c3.5-7.7,5.4-16.4,7.4-24.6
				C188.3,183.6,180.6,181.5,179.4,186.6z"/>
			<path class="st1" d="M176.9,170.6c-0.8-5.1-8.5-2.9-7.7,2.2c0.6,3.5,1.7,22.2-3.1,25.7c1.1-3.9,0.7-8.2,0.7-12.3l-0.1-15.6
				c0-5.1-8-5.1-8,0l0.1,15.6c0,1.9,0.8,15-3.7,13c0.3-1.8,0.4-3.6,0.5-5.4c0.2-8.4-0.2-16.8-1.1-25.2c-0.5-5.1-8.5-5.1-8,0
				s0.9,10.3,1,15.5c0.1,2.3,1.4,14.6-1.4,15.2c-5,1.1-2.9,8.8,2.2,7.7c1-0.2,1.8-0.6,2.6-1c3.2,1.9,6.6,1.7,9.3,0.2
				c0.4,0.3,0.9,0.5,1.6,0.6C179.7,209.2,178.7,181.7,176.9,170.6z"/>
			<path class="st1" d="M194.5,159.5c-0.1-5.1-0.7-10.2-6.7-10.6c-4.6-0.3-5,6.2-1.3,7.7c0,0.1,0.1,0.2,0.1,0.4
				c-2.3-1.1-5.9,0.1-6,3.5c-0.2,4.6-1.9,11.7,1.1,15.7c2.6,3.5,7.7,3.6,10.2-0.1C194.7,171.8,194.6,164.4,194.5,159.5z"/>
			<path class="st1" d="M329.4,238.4c0-0.4-0.1-0.7-0.3-1.1c0.1-0.9,0.1-1.8,0-2.7c-0.1-0.7-0.3-1.4-0.6-2
				c-2.1,0.2,11.8,0.1,9.7-0.7l-0.4,0.4c-0.5-0.2-0.9-0.4-1.3-0.6c-0.8-0.4-1.6-0.9-2.5-1.1c0.1-0.3,0.2-0.7,0.2-1.1
				c-1.2-1-2.2-2.3-2.5-3.8c-0.9-1.9-1.3-4.1-0.9-6.2c0-0.1,0-0.1,0.1-0.1c0-0.3,0-0.6-0.1-0.9c-0.3-2.2-0.4-4.4-0.5-6.6
				c-2.4,0.5-4.9,0.8-7.3,0.8c0,1,0,2,0.1,3c0.2,5.4,0.3,10.7,3.3,15.1c0,0.4,0.1,0.9,0.7,1c0.2,0.2,0.3,0.4,0.5,0.6
				c0.7,0.8,1.5,1.2,2.3,1.3c0.4,0.3,0.7,0.7,1.1,0.9c0.9,0.7,1.9,1.3,3,1.8c0.9,0.4,2,0.7,3.1,1c0,0.1,0,0.3-0.1,0.4
				c-1.1,3,0.5,7,0,10.1c-0.6,3.6-1.6,7.2-3.1,10.6c-2.9,6.8-7.2,13-12.4,18.2c-4.9,4.9-10.8,9.1-17.3,11.8
				c-7.7,3.1-14,0.1-20.3-4.6c-6-4.4-7.4-10.4-8.5-17.5c-0.3-1.8,0.2-4.8-0.9-6.3c-2.2-3.1-7.3-1.4-7.4,2.3
				c-0.6,16.2,7.6,38.8,24.7,43.9c3.2,1,5.2-2,4.9-4.6c12.8,1.3,24.4-6.9,32.8-16.4c1.6-1.9,1.2-4.1-0.1-5.5
				C339.5,268.5,330.7,253.8,329.4,238.4z"/>
			<path class="st1" d="M327.7,232.6c-5.1-0.1,4.6,0.6,2.1-5.2c-1.1-2.4-0.7-5.3-0.6-7.9c0.1-2.3-0.4-4.5-0.4-6.8
				c0-5.2,0.2-10.5,0.4-15.7c0.2-5.5-0.1-12.1,2-17.3c0.6-1.5-0.3-2.5-1.4-2.8c0-0.2,0-0.4,0-0.5c1.2-0.8,1.6-2.7,0.6-3.7
				c-0.9-4.3-3.1-9.6-7.9-10.2c-2.8-0.4-5-0.9-7.8-2c-2.9-1.2-5.2-3.2-8.1-4.5c-2.4-1.1-2.7-0.3-4.8,0.4c-3.1,1.1-10.3-0.4-13-1.8
				c-1.4-0.7-2.8-1.6-4.1-2.5c-1.8-1.2-2.7-2.8-4.1-4.2c-2.3-2.3-6.3-3.8-6.8-7.5c-0.4-3.2-5.4-3.2-5,0c0.4,2.9,1.2,5.1,3.4,7.1
				c2,1.9,3.9,3.8,5.7,5.7c2.3,2.3,5.4,4.2,8.3,5.7c2.2,1.2,4.4,1.6,6.7,1.9c-0.7,1.6-0.9,3.3-0.4,4.7c0.7,2,2.7,3.2,4.8,3.2
				c0.9,0,1.9-0.2,2.6-0.6c0.9-0.6,1.2-1.4,1.7-2.3c0.5-0.4,0.9-0.9,1.1-1.6c0.2-0.9,0.2-1.8,0.1-2.6c0-0.1,0-0.1,0-0.2
				c0.5-0.2,1-0.4,1.5-0.4c1.9-0.1,4,1.9,6,2.9c2.5,1.3,5.7,2.7,8.4,3.3c2.2,0.5,3.1-0.5,5.1,1.7c0.9,1,1.4,2.5,1.7,3.9
				c-0.5,0.5-0.8,1.3-0.7,2.2c0.9,6.4-0.7,13.7-4.2,19.2c-1.8,2.9-4.1,5.2-6.7,7.4c-1.2,1-1.9,1.3-2.4,2.5c-1.9,1.5-3.8,3.1-6,4.3
				c-2,1.1-6,1.9-7,4.2c-0.2,0.5-0.3,1-0.2,1.4c-1,0.7-1.7,1.8-1.6,3.2c0.2,3.5,0.2,6.9-0.4,10.3c-0.3,2.1,0.6,4.3,2.8,4.9
				c1.5,0.4,3.4-0.2,4.3-1.5c1.2-0.1,2.4-0.9,2.4-2.4c0.1-3.4-0.6-6.6-1-9.9c1-2.7,2.7-5,5.5-6.5c-0.1-0.2-0.2-0.3-0.4-0.5
				c1.2-0.8,2.4-1.7,3.6-2.5c1.3-0.9,2.4-2.2,3.7-3c0.9-0.6,1.2-1.4,1.2-2.2c1.4-1.2,3-2.4,3.6-3.1c0.8-0.9,1.6-1.9,2.3-3
				c0,0.4,0,0.7,0,1.1c-0.1,6.9,0.2,13.9,0,20.8c-0.1,6.1,0.1,11.1,5.3,15.2c4.4,3.4-6.8,2.8-1.7,3C331,237.7,331,232.7,327.7,232.6
				z"/>
		</g>
		<path class="st0" d="M371,503.6c-1.4-8.4-1.3-17.2-4.7-25.1c-0.2-0.6,0-1.1,0.4-1.4c-1.4-6.2-1.4-12.8-1.4-25.3
			c0-14.1-1-28-2.2-41.9c-0.8,0.3-1.6,0.4-2.5,0.5c-1.1,0.1-1.7-0.9-1.8-1.8c-2.9-27-2.1-38.1-2.4-65.2c-0.7-2-1.7-3.8-2.8-5.6
			c-7-12.6-13.1-25.9-15.4-40.1c-3.4-20.6,1.5-41.6,6.5-61.9c1.1,0.5,2.7-0.8,2-2.2c-0.1-0.1-0.1-0.2-0.2-0.3
			c-6.4,0.9-13.3,1.2-19.1-1.4c-0.1,0.4-0.2,0.9-0.2,1.3v0.4c0.1,1.4,0.7,2.9,1.1,4.3c1.2,4.5-0.2,9.2-1.7,13.6
			c-4.9,14.3,4.7,28.6-6.5,38.7c-5.7,5.2-13,9.2-20.8,8.9c-4-0.1-8-1.5-11.6-3.3c-3.5-1.7-6.8-4-9.2-7.1c-0.5-0.7-0.9-1.4-1.3-2.1
			c-1.6-4.9-1.8-10.5-1.6-15.9c2.8-12,6.1-23.8,9.8-35.5c0.1-0.4,0.2-0.8,0.1-1.2c-1.7,0.4-3.4,0.6-5.2,0.8
			c-0.1,0.2-0.1,0.5-0.2,0.7c0-0.2,0-0.5-0.1-0.7c-3,0.3-5.9,0.6-8.7,1.7c-0.4,0.1-0.7,0.1-0.9,0c-3.8,15.7-7.4,31.4-12.5,46.8
			c-1.9,5.8-3.9,11.5-6.1,17.2c-2,5.3-5.2,10-6.8,15.4c-1.5,4.9-2.9,9.9-2.2,15.1c2.9,22.3,9.1,34.3,15.4,46.5
			c9.3,18,3,18.4,5.5,35.5c2.9,19.8-0.1,36.5-2.3,56.4c-0.7,6.2-1.9,10.8-3.4,14.6c-1.2,6.6-2.8,13-5.9,19
			c-1.7,5.1-4.6,9.9-6.8,14.9c0.3,0.4,0.4,0.9-0.1,1.3c-0.3,0.2-0.6,0.5-0.8,0.8c-0.4,0.9-0.7,1.9-1,2.8c10.5,5.5,22,8.9,33.7,11.6
			c8,0.3,15.6,2.8,23.6,3.2c1.7,0.1,3.5,0.2,5.2,0.2c2.8,0,5.6,0.2,8.4,0.4c6.3-1,13.6,0.5,19.4,1c8.4-1.5,16.9-2.7,25.3-3.9
			c2.2-0.5,4.4-0.9,6.6-1.3c2.9-1.5,5.9-3.4,9.5-5.5C374.4,520,372.4,512,371,503.6z"/>
		<g>
			<g>
				<path class="st6" d="M337.7,294.9c0.1,0.9,0.3,1.9,0.4,2.8c0,0.3,0.1,0.5,0.2,0.8c0-0.1,0.1-0.2,0.2-0.3
					C338.2,297.1,337.9,296,337.7,294.9z"/>
				<path class="st1" d="M371,503.6c-1.4-8.4-1.3-17.2-4.7-25.1c-0.2-0.5,0-1,0.3-1.3c-1.4-6.2-1.4-12.9-1.4-25.4
					c0-14.1-1-28-2.2-41.9c-0.8,0.3-1.6,0.4-2.5,0.5c-1.1,0.1-1.7-0.9-1.8-1.8c-2.9-27-2.1-38.1-2.4-65.2c-0.5-1.3-1.1-2.5-1.7-3.7
					l0,0c0.1-1,0-2-0.1-3c0-0.4-0.2-0.7-0.4-0.9c0-0.4,0-0.9-0.1-1.1c0.4-3.2,1.2-6.4,0-9.3c-0.3-0.7-0.7-1.4-1.2-2.1
					c0-0.2-0.1-0.4-0.2-0.6c-3.1-4.9-5.8-10.7-7.6-16.6c0.2-0.3,0.3-0.7,0.1-1.2c-2.3-6.1-3.1-12.4-3.3-18.8
					c0.4-4.9,0.8-9.8,0.9-14.6c0.3-3.4,0.4-6.9,1.2-10.2c0.1-0.5,0-1-0.3-1.3c0-0.2,0.1-0.4,0.1-0.6c0.3-1.2,0.5-2.4,0.8-3.6
					c0.5-1.8,1-3.5,1.5-5.3c0.9-2.7,1.8-5.4,2.7-8c0.9-2.1,2.4-4.6,2.3-6.8c0-0.2,0-0.4,0-0.5c0-0.2-0.1-0.4-0.1-0.7
					c-0.4-1.2-2.1-1.5-2.7-0.4c-0.7-0.1-1.4,0.2-1.6,1.1c-0.5,2.4-1.1,5-1.8,7.4c-0.1,0.1-0.2,0.2-0.2,0.4c-0.3,1-0.6,1.9-0.9,2.9
					c0,0.1-0.1,0.2-0.1,0.3c-0.1,0.2-0.1,0.3-0.1,0.4c-0.1,0.2-0.1,0.5-0.2,0.7c-0.9,2-1.7,4.1-2.3,6.2c-1.4,4.4-1.9,9-2.3,13.6
					c-1.1,4.8-2,9.6-2.9,14.4c-0.1,0.3,0,0.5,0,0.8c-4.5,11.2-10.8,22.7-8.5,33.9c2.9,14.3,18.8,31.1,8,40.9c-2.3,2-4.8,3.6-7.5,4.7
					c-9,1.5-18.1,2.5-27.2,3.2c-7,0.5-16.8-0.9-23.1,2.9c-4.4,2.6-0.4,9.5,4.1,6.9c3.2-1.9,8.6-1.1,12.3-1.3
					c4.2-0.2,8.4-0.5,12.6-0.9c8.3-0.8,16.5-1.9,24.8-3.2c0.4,0.1,0.7,0.3,1.1,0.5c1.7,1,2.6,2.8,3.5,4.5c5.5,10.5-5,5.5-4.8,17.3
					c0.1,11.8-5.2,23.1-4.9,34.9c0.2,8.2,3.2,16.2,2.6,24.3c-0.4,5.8-2.5,7.4-2.7,13.2c-0.3,7.4,2.4,14.4,4,21.6
					c0.2,0.7,0.5,1.4,0.7,2.2c1.3,4.2,1.8,3.4,1.9,2.6c0,0.5-0.1,1.4-0.1,2.8c-0.1,7.7-0.7,14.9-4.7,21.7c-4.1,7,4.7,14.7,8.5,23.4
					c0.3,0.7-0.1,1.3-0.7,1.5c17.2-2,18.4-5.8,35.4-9.7c1.4-0.6,2.8-1.2,4.2-1.9C374.4,519.8,372.3,511.9,371,503.6z"/>
			</g>
			<path class="st1" d="M339,269.9c0.5-0.1,1-0.4,1.1-1.1c1-6.5,2.2-12.8,4.5-18.9c1.1-2.9,2.4-5.8,3.7-8.6c0.8-1.8,2.2-3.7,2.6-5.7
				c0.1-0.6-0.1-1.4-0.7-1.7c-1.3-0.5-3.4-1-5-0.6c0-0.3,0.1-0.7,0.1-1c-2.9,0-5.9-0.1-8.8-0.2c-1.2,3.6-0.9,7.8-1.8,11.5
				c-1.9,6.8,1.5,12.9,3.3,19.3c-0.3,1.7-0.6,3.4-0.9,5.1c-0.1,0.7,0.2,1.2,0.6,1.5c-0.3,2.8-0.6,5.6-0.7,8.3
				c0.6-1.6,1.1-3.3,1.5-4.9C338.9,271.9,339,270.9,339,269.9z M344.4,236.6c0.6,0.3,1.4,0.2,1.8-0.6c-0.1,0.1,0.6,0.2,1.3,0.3
				c-0.8,1.9-2.1,3.9-2.9,5.7c-1,2.3-2.1,4.7-3,7.1c-0.2,0.6-0.4,1.1-0.6,1.7C342.1,246,343.3,241.3,344.4,236.6z"/>
		</g>
		<path class="st0" d="M396.8,370.6c0-0.1,0-0.2,0-0.3c0.1-11.6,0.4-23.3,0.3-35c-0.1-12-0.9-24.1-1.8-36.1
			c-0.5-6.3-1-12.6-2.8-18.8c-1-3.7-2.1-7.3-2.6-11.1c-2.9-9.3-6.5-19.1-13.2-26.1c-4.8-5.9-11.6-9.4-19.3-9.6
			c-0.3,0-0.5,0.1-0.7,0.2c-3.1-0.2-1.3-0.2-4.4-0.4c-11.2,24.6-11.2,54.9-5,81.4c3,6.4,9.3,4.1,7.7,14.8c1.4,3.3,0,10.7,0.2,14.1
			c1.1,3.8,0.2,7.8-1.3,12c0.2,2.7,0.2,5.4,0.2,8.1c0,0.6-0.2,1-0.6,1.3c2.4,15.9,1.7,15.9,2.1,32c0.1,2.6,1.3,7.1,0.1,10
			c0.6-0.2,1.4-0.1,1.9,0.4s0.6,1.2,0.4,1.9c0,0.1,0,0.1,0,0.2c0.3,1-0.4,1.9-1.3,2.2c-5.7,1.9-12.7,1.2-18.6,1.3
			c-7.6,0.1,0.9-0.2-6.7-0.2c-15.5,0.1-31,0.7-46.4,0.8c-0.6,0-1.1-0.2-1.4-0.6c-7.8,1.3-15.7,1.8-23.6,1.2
			c-2.5-9.5-11.9-16.4-21.5-16.8c0,0,0,0,0,0.1c0.9,2.1,0.5,4.4-0.7,6.2c0,0.6-0.2,1.2-0.9,1.5c-0.6,0.3-1.2,0.5-1.8,0.7l0,0
			c-2.8,1-5.8,1.1-8.9,1.1c-0.5,0-0.9-0.2-1.2-0.5c-0.6,0-1.2,0.1-1.8,0.1c-7.5,0.1-14.9-1.4-22.3-2.3c-1.4-0.2-3-0.2-4,0.8
			c-1.1,1.1-0.8,2.9-0.1,4.3s1.8,2.5,2.3,4c0.6,2,0.1,4.3,1.3,6c0.7,1,1.9,1.5,2.6,2.5c0.5,0.7,0.6,1.6,0.9,2.4
			c1.5,5.2,6.4,9.1,11.8,9.5c3.3,6.4,11.8,9.5,18.5,7.1c0.2,0.2,0.5,0.2,0.9,0.2c6.6-0.6,13.1-1.6,19.6-3.1
			c8.9,1.6,18.2,5.6,27.1,7.4c29,5.9,42.7,7.6,72.2,7.2c8.1-0.1,16.2-0.4,24-2.7c1.7-0.5,3.4-1.1,5.1-1.8c3.4-2.2,6.5-4.8,9.4-7.7
			c2.8-9.2,2.6-19.1,4.3-28.8C396.5,392.9,396.3,389.8,396.8,370.6z"/>
		<path class="st7" d="M193,177.7c1.7,0.3,3.9,1.1,3.8,2.9c0,0.9-0.8,1.7-1.7,2.1c-0.9,0.3-1.9,0.3-2.8,0.3c-0.3,0-0.6,0-0.9,0
			c-2.4-0.1-15.4-0.4-12.8-3.5C180.8,176.7,190.1,177.2,193,177.7z"/>
		<path class="st1" d="M394,298.4c-1-8.6-2.2-17.2-3.7-25.7c-1.3-7.5-2.5-15.2-5.3-22.3c-2.3-5.8-5.9-11.1-11.5-14.1
			c-6.5-3.5-14.2-3.4-21.4-3c-1.2,0-2,0.5-2.7,1.2c-1.6,0.1-3.1,0.2-4.7,0.5c-0.4,0.1-0.7,0.5-0.7,0.9c-0.8,0.1-1.5,0.3-2.3,0.7
			c-0.9,0.4-0.5,1.9,0.5,1.9h0.1c-0.7,0.2-1.3,0.5-1.9,1c-0.5,0.4-0.4,1.3,0.2,1.6c0.3,0.1,0.7,0.3,1,0.4c0,0.2,0.1,0.4,0.3,0.5
			c1.5,1.3,3.9,0.8,5.7,0.5c2.1-0.3,4.6-0.2,6.6-1.2c5.7-0.3,11.9-0.4,16.7,2.9c4.8,3.3,6.9,9.2,8.4,14.6
			c3.5,13.2,5.3,27.1,6.8,40.7c3.1,28.4,3.4,40.9,2.6,69.4c-0.4,14.1-1,28.2-1.8,42.4c-0.5,10,1.4,27.9-9.5,33.2
			c-5.6,2.7-12.6,2.3-18.6,2.4c-7,0.1-13.9-0.2-20.8-0.9c-13.6-1.2-11.1-3.6-24.5-6c-14.7-2.6-29.5-5.2-44.4-6.6
			c-7.2-0.7-14.5-1-21.7-0.9c-7.4,0.1-15.9,2.3-23,0.1c-4.9-1.5-7,6.2-2.1,7.7c6.5,2,13.1,0.7,19.7,0.4c7.8-0.4,15.7-0.2,23.5,0.4
			c4.1,0.3,8.3,0.8,12.4,1.3c0.3,1.2,1.2,2.2,2.8,2.5c15.5,3.4,31.2,5.5,47,6.1c0.6,0,1.1-0.1,1.5-0.2c8.3,1.3,0.5,2.5,8.9,3.2
			c7.2,0.7,14.5,1,21.8,0.9c6.7-0.1,14-0.2,20.3-2.9c11.7-5,13.7-17.8,14.3-29.2c0.9-15.4,1.6-30.8,2.1-46.2
			C397.5,345.1,397.4,329.6,394,298.4z"/>
		<path class="st1" d="M361,289.7c-0.2-3.3-0.2-6.8-3.5-8.5c-2.6-1.3-5.1,0.4-5.8,2.6c-1,0.6-1.8,1.7-1.9,3.2
			c-0.9,10-1.8,20.1-1.4,30.2c0.1,3.5-0.2,8.2,2.1,11.1c2,2.5,5.8,3.1,8.3,1c2.6-2.2,2.4-5.9,2.5-9c0.1-5.1,0.2-10.2,0.2-15.3
			C361.4,299.9,361.3,294.8,361,289.7z"/>
		<path class="st0" d="M210.7,398.2c-1.9,0-1.9,3,0,3C212.7,401.2,212.7,398.2,210.7,398.2z"/>
		<path class="st0" d="M228.3,386.2c-3.2,0-3.2,5,0,5C231.6,391.2,231.5,386.2,228.3,386.2z"/>
		<path class="st0" d="M224.8,397.2c-1.3,0-1.3,2,0,2S226.1,397.2,224.8,397.2z"/>
		<path class="st0" d="M211.8,390.5c-0.6,0-0.6,1,0,1C212.4,391.5,212.4,390.5,211.8,390.5z"/>
		<path class="st0" d="M217.6,397.2c-1.9,0-1.9,3,0,3C219.6,400.2,219.6,397.2,217.6,397.2z"/>
		<path class="st0" d="M218.9,388.2c-0.6,0-0.6,1,0,1S219.5,388.2,218.9,388.2z"/>
		<path class="st0" d="M233.7,391.5c-1.3,0-1.3,2,0,2S235,391.5,233.7,391.5z"/>
		<path class="st3" d="M305.1,515c-14-0.2-27.6-2.5-40.9-6.9c-4.9-1.6-7,6.1-2.1,7.7c13.9,4.6,28.4,7,43.1,7.2
			C310.3,523,310.3,515,305.1,515z"/>
	</g>
	<g>
		<path class="st1" d="M279.1,164c-0.7-2.4-2.2-5.1-5-5.2c-0.8,0-1.4,0.4-1.9,0.9c-2.4,0.8-3.8,3.7-3.2,6.2c0.7,2.9,3.6,5.3,6.7,4.6
			C278.4,169.8,279.9,166.5,279.1,164z"/>
		<path class="st1" d="M273.9,164.4L273.9,164.4L273.9,164.4C273.9,164.5,273.9,164.5,273.9,164.4L273.9,164.4z"/>
	</g>
	<g>
		<path class="st6" d="M164.2,199.3c-0.1,0.3,1.4,1,1.6,1.1c0.5,0.2,1,0.2,1.5,0.1c1.1-0.2,1.8-1.1,2.4-2c1.6-2.3,2.2-5.5,2.4-8.2
			c0.3-4.4,0.2-8.9,0.2-13.4c0-2,0.6-4.8-0.8-6.5c-0.5-0.6-1.4-0.8-2.1-1.1c-0.8-0.3-1.9-0.6-2.8-0.4c-0.2,0-1.8,0.5-1.7,0.8
			c2.5,5.4,0.8,13,0.4,18.5C165.1,191.5,165.3,195.7,164.2,199.3z"/>
		<path class="st6" d="M245.2,312.5c0.7-1.8,1.4-3.6,2.2-5.4c3-7,6.5-14.1,8.6-21.4c1.9-6.4,3.3-13,5.4-19.3c2-6,3.7-12.3,4.9-18.5
			c0.7-3.4,1.6-6.6,2.3-9.9v-0.3c-9.1,3.1-17,9.3-24,16.3c-8.8,8.7-17,18.1-25.6,27c-17.7,18.3-36,36-54.7,52.6
			c0.1,1.5,0.3,2.9,0.4,4.4c0.2,1.9-2.8,1.9-3,0c-0.2-1.4-0.3-2.8-0.4-4.2c-0.3-0.4-0.3-0.9-0.1-1.3c-1.3-18.7-0.5-37.6-0.3-56.3
			c0.1-1.4,0.1-2.7,0.1-4.1c0-6.2,0.1-12.5,0.2-18.7c0.1-7.7,0.2-2.5,0.3-10.2c0-2.8-0.1-5.7,0.1-8.6c0.1-2.9,0.4-5.7,0-8.6
			c-0.1-0.6-0.1-1.2,0.1-1.7c0.7-1.6,3.2-1.6,4.7-2c2.1-0.6,4.1-1.6,5.9-2.7c3.5-2.1,6.1-5.2,7.5-9c1.2-3.3,1.8-6.7,2.7-10.1
			c0.9-4,2.3-7.9,3.1-11.9c0.3-1.4,0.6-3.1-1.2-3.4c-4-0.7-5.3,6-5.9,8.6c-0.4,1.9-0.5,4.3-1.9,5.9c-1.5,1.7-4.3,2-6.2,3
			c-3.2,1.7-5.4,4.4-6.8,7.7c-0.8,1.8-3.4,0.3-2.6-1.5c1-2.3,2.4-4.4,4.2-6.1c-0.8-0.2-1.5-0.5-2.1-1c-0.5,0.7-1.1,1.4-1.9,2
			c-3,2.4-6.6,1.7-9-0.7c-0.2,0.4-0.5,0.7-0.8,1c-3.2,3.1-8.3,2.6-9.9-1.8c-1.1-3-0.6-7-0.6-10.2l-0.1-15.6c0-1.9,3-1.9,3,0
			c0,5.8,0,11.7,0.1,17.5c0,0.8-0.2,2-0.1,3v0.1c-0.5,1.5-0.3,3.3,0.6,4.5c0.5,0.7,1.3,1.2,2.2,1.2c3.9,0,4.2-4.1,4.4-7
			c0.1-1.5,0-2.9,0-4.4c0-5.3-0.1-10.5-0.1-15.8c0-1.7,0.7-5.9-0.4-7.4c-1-1.5-4.9-2.3-6.6-2.1c-0.9,0.1-1.9,0.4-2.7,0.7
			c-3,0.9-5.5,2.2-7.1,5s-1.5,6.1-1.6,9.2c-0.2,5.1-0.4,10.2-0.5,15.3c0,5.6,0.2,11.2,1.6,16.6c0.7,2.6,1.7,5.2,3.1,7.6
			c0.6,1,1.8,2.1,2.1,3.2s-0.1,2.4-0.2,3.5c-0.1,1.8-0.3,3.7-0.5,5.5c-0.4,3.7-0.8,7.5-1.1,11.2c-1.3,14-2.5,15.1-3.5,29.1
			c-1.3,18.3-2.3,36.7-2.6,55.1c-0.3,15.6-3.4,48.3,21.6,43.1c8-1.7,15.7-5.8,22.8-9.8c7.4-4.1,14.5-8.8,21.4-13.6
			c7.2-5.1,14.4-10.2,21.5-15.4c4.2-3,8.4-6.1,12.6-9.2c2.1-1.5,4.2-3.1,6.3-4.6c1.9-1.4,4.6-3,6.6-4.3
			C244.5,313.9,244.9,313.4,245.2,312.5z"/>
		<path class="st6" d="M153.7,185.5c0,4.2,1,10.5-0.4,15.2l0.1,0.1c5.4,7.7,8.1-3.1,8.3-5.3c0.2-1.4,0.2-2.9,0.3-4.3l0.6-8.5
			c0.2-2.7,0.6-5.6,0.3-8.3c-0.6-5.8-5.1-6.9-9.7-6.1c0.2,0.9,0.3,1.9,0.4,2.8C154,175.8,153.7,180.7,153.7,185.5z"/>
		<path class="st6" d="M201.8,386.6c0.3,5.9,0.6,11.7,0.9,17.6c0.7,0,1.5,0.1,2.1,0.2c5.2,0.5,10.2,1.6,15.4,1.4
			c5-0.2,10.8,0.9,15.5-1c4.3-1.7,2.7-7.8,2.6-11.4c-0.1-7.3-0.3-14.6-0.4-21.9c-6,0.1-12,0.2-18,0.3c-5.5,0-11.3-0.5-16.7,0.2
			c-3,0.4-1.9,3-1.8,5.7C201.5,380.7,201.7,383.6,201.8,386.6z"/>
		<g>
			<path class="st6" d="M153.7,185.5c0,4.2,1,10.5-0.4,15.2l0.1,0.1c5.4,7.7,8.1-3.1,8.3-5.3c0.2-1.4,0.2-2.9,0.3-4.3l0.6-8.5
				c0.2-2.7,0.6-5.6,0.3-8.3c-0.6-5.8-5.1-6.9-9.7-6.1c0.2,0.9,0.3,1.9,0.4,2.8C154,175.8,153.7,180.7,153.7,185.5z"/>
			<path class="st6" d="M164.2,199.3c-0.1,0.3,1.4,1,1.6,1.1c0.5,0.2,1,0.2,1.5,0.1c1.1-0.2,1.8-1.1,2.4-2c1.6-2.3,2.2-5.5,2.4-8.2
				c0.3-4.4,0.2-8.9,0.2-13.4c0-2,0.6-4.8-0.8-6.5c-0.5-0.6-1.4-0.8-2.1-1.1c-0.8-0.3-1.9-0.6-2.8-0.4c-0.2,0-1.8,0.5-1.7,0.8
				c2.5,5.4,0.8,13,0.4,18.5C165.1,191.5,165.3,195.7,164.2,199.3z"/>
			<path class="st6" d="M201.8,386.6c0.3,5.9,0.6,11.7,0.9,17.6c0.7,0,1.5,0.1,2.1,0.2c5.2,0.5,10.2,1.6,15.4,1.4
				c5-0.2,10.8,0.9,15.5-1c4.3-1.7,2.7-7.8,2.6-11.4c-0.1-7.3-0.3-14.6-0.4-21.9c-6,0.1-12,0.2-18,0.3c-5.5,0-11.3-0.5-16.7,0.2
				c-3,0.4-1.9,3-1.8,5.7C201.5,380.7,201.7,383.6,201.8,386.6z"/>
			<path class="st6" d="M245.2,312.5c0.7-1.8,1.4-3.6,2.2-5.4c3-7,6.5-14.1,8.6-21.4c1.9-6.4,3.3-13,5.4-19.3c2-6,3.7-12.3,4.9-18.5
				c0.7-3.4,1.6-6.6,2.3-9.9v-0.3c-9.1,3.1-17,9.3-24,16.3c-8.8,8.7-17,18.1-25.6,27c-17.7,18.3-36,36-54.7,52.6
				c0.1,1.5,0.3,2.9,0.4,4.4c0.2,1.9-2.8,1.9-3,0c-0.2-1.4-0.3-2.8-0.4-4.2c-0.3-0.4-0.3-0.9-0.1-1.3c-1.3-18.7-0.5-37.6-0.3-56.3
				c0.1-1.4,0.1-2.7,0.1-4.1c0-6.2,0.1-12.5,0.2-18.7c0.1-7.7,0.2-2.5,0.3-10.2c0-2.8-0.1-5.7,0.1-8.6c0.1-2.9,0.4-5.7,0-8.6
				c-0.1-0.6-0.1-1.2,0.1-1.7c0.7-1.6,3.2-1.6,4.7-2c2.1-0.6,4.1-1.6,5.9-2.7c3.5-2.1,6.1-5.2,7.5-9c1.2-3.3,1.8-6.7,2.7-10.1
				c0.9-4,2.3-7.9,3.1-11.9c0.3-1.4,0.6-3.1-1.2-3.4c-4-0.7-5.3,6-5.9,8.6c-0.4,1.9-0.5,4.3-1.9,5.9c-1.5,1.7-4.3,2-6.2,3
				c-3.2,1.7-5.4,4.4-6.8,7.7c-0.8,1.8-3.4,0.3-2.6-1.5c1-2.3,2.4-4.4,4.2-6.1c-0.8-0.2-1.5-0.5-2.1-1c-0.5,0.7-1.1,1.4-1.9,2
				c-3,2.4-6.6,1.7-9-0.7c-0.2,0.4-0.5,0.7-0.8,1c-3.2,3.1-8.3,2.6-9.9-1.8c-1.1-3-0.6-7-0.6-10.2l-0.1-15.6c0-1.9,3-1.9,3,0
				c0,5.8,0,11.7,0.1,17.5c0,0.8-0.2,2-0.1,3v0.1c-0.5,1.5-0.3,3.3,0.6,4.5c0.5,0.7,1.3,1.2,2.2,1.2c3.9,0,4.2-4.1,4.4-7
				c0.1-1.5,0-2.9,0-4.4c0-5.3-0.1-10.5-0.1-15.8c0-1.7,0.7-5.9-0.4-7.4c-1-1.5-4.9-2.3-6.6-2.1c-0.9,0.1-1.9,0.4-2.7,0.7
				c-3,0.9-5.5,2.2-7.1,5s-1.5,6.1-1.6,9.2c-0.2,5.1-0.4,10.2-0.5,15.3c0,5.6,0.2,11.2,1.6,16.6c0.7,2.6,1.7,5.2,3.1,7.6
				c0.6,1,1.8,2.1,2.1,3.2s-0.1,2.4-0.2,3.5c-0.1,1.8-0.3,3.7-0.5,5.5c-0.4,3.7-0.8,7.5-1.1,11.2c-1.3,14-2.5,15.1-3.5,29.1
				c-1.3,18.3-2.3,36.7-2.6,55.1c-0.3,15.6-3.4,48.3,21.6,43.1c8-1.7,15.7-5.8,22.8-9.8c7.4-4.1,14.5-8.8,21.4-13.6
				c7.2-5.1,14.4-10.2,21.5-15.4c4.2-3,8.4-6.1,12.6-9.2c2.1-1.5,4.2-3.1,6.3-4.6c1.9-1.4,4.6-3,6.6-4.3
				C244.5,313.9,244.9,313.4,245.2,312.5z"/>
			<g>
				<path class="st6" d="M153.7,185.5c0,4.2,1,10.5-0.4,15.2l0.1,0.1c5.4,7.7,8.1-3.1,8.3-5.3c0.2-1.4,0.2-2.9,0.3-4.3l0.6-8.5
					c0.2-2.7,0.6-5.6,0.3-8.3c-0.6-5.8-5.1-6.9-9.7-6.1c0.2,0.9,0.3,1.9,0.4,2.8C154,175.8,153.7,180.7,153.7,185.5z"/>
				<path class="st6" d="M164.2,199.3c-0.1,0.3,1.4,1,1.6,1.1c0.5,0.2,1,0.2,1.5,0.1c1.1-0.2,1.8-1.1,2.4-2c1.6-2.3,2.2-5.5,2.4-8.2
					c0.3-4.4,0.2-8.9,0.2-13.4c0-2,0.6-4.8-0.8-6.5c-0.5-0.6-1.4-0.8-2.1-1.1c-0.8-0.3-1.9-0.6-2.8-0.4c-0.2,0-1.8,0.5-1.7,0.8
					c2.5,5.4,0.8,13,0.4,18.5C165.1,191.5,165.3,195.7,164.2,199.3z"/>
				<path class="st6" d="M245.2,312.5c0.7-1.8,1.4-3.6,2.2-5.4c3-7,6.5-14.1,8.6-21.4c1.9-6.4,3.3-13,5.4-19.3
					c2-6,3.7-12.3,4.9-18.5c0.7-3.4,1.6-6.6,2.3-9.9v-0.3c-9.1,3.1-17,9.3-24,16.3c-8.8,8.7-17,18.1-25.6,27
					c-17.7,18.3-36,36-54.7,52.6c0.1,1.5,0.3,2.9,0.4,4.4c0.2,1.9-2.8,1.9-3,0c-0.2-1.4-0.3-2.8-0.4-4.2c-0.3-0.4-0.3-0.9-0.1-1.3
					c-1.3-18.7-0.5-37.6-0.3-56.3c0.1-1.4,0.1-2.7,0.1-4.1c0-6.2,0.1-12.5,0.2-18.7c0.1-7.7,0.2-2.5,0.3-10.2c0-2.8-0.1-5.7,0.1-8.6
					c0.1-2.9,0.4-5.7,0-8.6c-0.1-0.6-0.1-1.2,0.1-1.7c0.7-1.6,3.2-1.6,4.7-2c2.1-0.6,4.1-1.6,5.9-2.7c3.5-2.1,6.1-5.2,7.5-9
					c1.2-3.3,1.8-6.7,2.7-10.1c0.9-4,2.3-7.9,3.1-11.9c0.3-1.4,0.6-3.1-1.2-3.4c-4-0.7-5.3,6-5.9,8.6c-0.4,1.9-0.5,4.3-1.9,5.9
					c-1.5,1.7-4.3,2-6.2,3c-3.2,1.7-5.4,4.4-6.8,7.7c-0.8,1.8-3.4,0.3-2.6-1.5c1-2.3,2.4-4.4,4.2-6.1c-0.8-0.2-1.5-0.5-2.1-1
					c-0.5,0.7-1.1,1.4-1.9,2c-3,2.4-6.6,1.7-9-0.7c-0.2,0.4-0.5,0.7-0.8,1c-3.2,3.1-8.3,2.6-9.9-1.8c-1.1-3-0.6-7-0.6-10.2
					l-0.1-15.6c0-1.9,3-1.9,3,0c0,5.8,0,11.7,0.1,17.5c0,0.8-0.2,2-0.1,3v0.1c-0.5,1.5-0.3,3.3,0.6,4.5c0.5,0.7,1.3,1.2,2.2,1.2
					c3.9,0,4.2-4.1,4.4-7c0.1-1.5,0-2.9,0-4.4c0-5.3-0.1-10.5-0.1-15.8c0-1.7,0.7-5.9-0.4-7.4c-1-1.5-4.9-2.3-6.6-2.1
					c-0.9,0.1-1.9,0.4-2.7,0.7c-3,0.9-5.5,2.2-7.1,5s-1.5,6.1-1.6,9.2c-0.2,5.1-0.4,10.2-0.5,15.3c0,5.6,0.2,11.2,1.6,16.6
					c0.7,2.6,1.7,5.2,3.1,7.6c0.6,1,1.8,2.1,2.1,3.2s-0.1,2.4-0.2,3.5c-0.1,1.8-0.3,3.7-0.5,5.5c-0.4,3.7-0.8,7.5-1.1,11.2
					c-1.3,14-2.5,15.1-3.5,29.1c-1.3,18.3-2.3,36.7-2.6,55.1c-0.3,15.6-3.4,48.3,21.6,43.1c8-1.7,15.7-5.8,22.8-9.8
					c7.4-4.1,14.5-8.8,21.4-13.6c7.2-5.1,14.4-10.2,21.5-15.4c4.2-3,8.4-6.1,12.6-9.2c2.1-1.5,4.2-3.1,6.3-4.6
					c1.9-1.4,4.6-3,6.6-4.3C244.5,313.9,244.9,313.4,245.2,312.5z"/>
				<path class="st6" d="M201.8,386.6c0.3,5.9,0.6,11.7,0.9,17.6c0.7,0,1.5,0.1,2.1,0.2c5.2,0.5,10.2,1.6,15.4,1.4
					c5-0.2,10.8,0.9,15.5-1c4.3-1.7,2.7-7.8,2.6-11.4c-0.1-7.3-0.3-14.6-0.4-21.9c-6,0.1-12,0.2-18,0.3c-5.5,0-11.3-0.5-16.7,0.2
					c-3,0.4-1.9,3-1.8,5.7C201.5,380.7,201.7,383.6,201.8,386.6z"/>
				<g>
					<path class="st6" d="M164.2,199.3c-0.1,0.3,1.4,1,1.6,1.1c0.5,0.2,1,0.2,1.5,0.1c1.1-0.2,1.8-1.1,2.4-2
						c1.6-2.3,2.2-5.5,2.4-8.2c0.3-4.4,0.2-8.9,0.2-13.4c0-2,0.6-4.8-0.8-6.5c-0.5-0.6-1.4-0.8-2.1-1.1c-0.8-0.3-1.9-0.6-2.8-0.4
						c-0.2,0-1.8,0.5-1.7,0.8c2.5,5.4,0.8,13,0.4,18.5C165.1,191.5,165.3,195.7,164.2,199.3z"/>
					<path class="st6" d="M153.7,185.5c0,4.2,1,10.5-0.4,15.2l0.1,0.1c5.4,7.7,8.1-3.1,8.3-5.3c0.2-1.4,0.2-2.9,0.3-4.3l0.6-8.5
						c0.2-2.7,0.6-5.6,0.3-8.3c-0.6-5.8-5.1-6.9-9.7-6.1c0.2,0.9,0.3,1.9,0.4,2.8C154,175.8,153.7,180.7,153.7,185.5z"/>
					<path class="st6" d="M201.8,386.6c0.3,5.9,0.6,11.7,0.9,17.6c0.7,0,1.5,0.1,2.1,0.2c5.2,0.5,10.2,1.6,15.4,1.4
						c5-0.2,10.8,0.9,15.5-1c4.3-1.7,2.7-7.8,2.6-11.4c-0.1-7.3-0.3-14.6-0.4-21.9c-6,0.1-12,0.2-18,0.3c-5.5,0-11.3-0.5-16.7,0.2
						c-3,0.4-1.9,3-1.8,5.7C201.5,380.7,201.7,383.6,201.8,386.6z"/>
					<path class="st6" d="M245.2,312.5c0.7-1.8,1.4-3.6,2.2-5.4c3-7,6.5-14.1,8.6-21.4c1.9-6.4,3.3-13,5.4-19.3
						c2-6,3.7-12.3,4.9-18.5c0.7-3.4,1.6-6.6,2.3-9.9v-0.3c-9.1,3.1-17,9.3-24,16.3c-8.8,8.7-17,18.1-25.6,27
						c-17.7,18.3-36,36-54.7,52.6c0.1,1.5,0.3,2.9,0.4,4.4c0.2,1.9-2.8,1.9-3,0c-0.2-1.4-0.3-2.8-0.4-4.2c-0.3-0.4-0.3-0.9-0.1-1.3
						c-1.3-18.7-0.5-37.6-0.3-56.3c0.1-1.4,0.1-2.7,0.1-4.1c0-6.2,0.1-12.5,0.2-18.7c0.1-7.7,0.2-2.5,0.3-10.2
						c0-2.8-0.1-5.7,0.1-8.6c0.1-2.9,0.4-5.7,0-8.6c-0.1-0.6-0.1-1.2,0.1-1.7c0.7-1.6,3.2-1.6,4.7-2c2.1-0.6,4.1-1.6,5.9-2.7
						c3.5-2.1,6.1-5.2,7.5-9c1.2-3.3,1.8-6.7,2.7-10.1c0.9-4,2.3-7.9,3.1-11.9c0.3-1.4,0.6-3.1-1.2-3.4c-4-0.7-5.3,6-5.9,8.6
						c-0.4,1.9-0.5,4.3-1.9,5.9c-1.5,1.7-4.3,2-6.2,3c-3.2,1.7-5.4,4.4-6.8,7.7c-0.8,1.8-3.4,0.3-2.6-1.5c1-2.3,2.4-4.4,4.2-6.1
						c-0.8-0.2-1.5-0.5-2.1-1c-0.5,0.7-1.1,1.4-1.9,2c-3,2.4-6.6,1.7-9-0.7c-0.2,0.4-0.5,0.7-0.8,1c-3.2,3.1-8.3,2.6-9.9-1.8
						c-1.1-3-0.6-7-0.6-10.2l-0.1-15.6c0-1.9,3-1.9,3,0c0,5.8,0,11.7,0.1,17.5c0,0.8-0.2,2-0.1,3v0.1c-0.5,1.5-0.3,3.3,0.6,4.5
						c0.5,0.7,1.3,1.2,2.2,1.2c3.9,0,4.2-4.1,4.4-7c0.1-1.5,0-2.9,0-4.4c0-5.3-0.1-10.5-0.1-15.8c0-1.7,0.7-5.9-0.4-7.4
						c-1-1.5-4.9-2.3-6.6-2.1c-0.9,0.1-1.9,0.4-2.7,0.7c-3,0.9-5.5,2.2-7.1,5s-1.5,6.1-1.6,9.2c-0.2,5.1-0.4,10.2-0.5,15.3
						c0,5.6,0.2,11.2,1.6,16.6c0.7,2.6,1.7,5.2,3.1,7.6c0.6,1,1.8,2.1,2.1,3.2s-0.1,2.4-0.2,3.5c-0.1,1.8-0.3,3.7-0.5,5.5
						c-0.4,3.7-0.8,7.5-1.1,11.2c-1.3,14-2.5,15.1-3.5,29.1c-1.3,18.3-2.3,36.7-2.6,55.1c-0.3,15.6-3.4,48.3,21.6,43.1
						c8-1.7,15.7-5.8,22.8-9.8c7.4-4.1,14.5-8.8,21.4-13.6c7.2-5.1,14.4-10.2,21.5-15.4c4.2-3,8.4-6.1,12.6-9.2
						c2.1-1.5,4.2-3.1,6.3-4.6c1.9-1.4,4.6-3,6.6-4.3C244.5,313.9,244.9,313.4,245.2,312.5z"/>
					<g>
						<path class="st6" d="M164.2,199.3c-0.1,0.3,1.4,1,1.6,1.1c0.5,0.2,1,0.2,1.5,0.1c1.1-0.2,1.8-1.1,2.4-2
							c1.6-2.3,2.2-5.5,2.4-8.2c0.3-4.4,0.2-8.9,0.2-13.4c0-2,0.6-4.8-0.8-6.5c-0.5-0.6-1.4-0.8-2.1-1.1c-0.8-0.3-1.9-0.6-2.8-0.4
							c-0.2,0-1.8,0.5-1.7,0.8c2.5,5.4,0.8,13,0.4,18.5C165.1,191.5,165.3,195.7,164.2,199.3z"/>
						<path class="st6" d="M153.7,185.5c0,4.2,1,10.5-0.4,15.2l0.1,0.1c5.4,7.7,8.1-3.1,8.3-5.3c0.2-1.4,0.2-2.9,0.3-4.3l0.6-8.5
							c0.2-2.7,0.6-5.6,0.3-8.3c-0.6-5.8-5.1-6.9-9.7-6.1c0.2,0.9,0.3,1.9,0.4,2.8C154,175.8,153.7,180.7,153.7,185.5z"/>
						<path class="st6" d="M201.8,386.6c0.3,5.9,0.6,11.7,0.9,17.6c0.7,0,1.5,0.1,2.1,0.2c5.2,0.5,10.2,1.6,15.4,1.4
							c5-0.2,10.8,0.9,15.5-1c4.3-1.7,2.7-7.8,2.6-11.4c-0.1-7.3-0.3-14.6-0.4-21.9c-6,0.1-12,0.2-18,0.3c-5.5,0-11.3-0.5-16.7,0.2
							c-3,0.4-1.9,3-1.8,5.7C201.5,380.7,201.7,383.6,201.8,386.6z"/>
						<path class="st6" d="M245.2,312.5c0.7-1.8,1.4-3.6,2.2-5.4c3-7,6.5-14.1,8.6-21.4c1.9-6.4,3.3-13,5.4-19.3
							c2-6,3.7-12.3,4.9-18.5c0.7-3.4,1.6-6.6,2.3-9.9v-0.3c-9.1,3.1-17,9.3-24,16.3c-8.8,8.7-17,18.1-25.6,27
							c-17.7,18.3-36,36-54.7,52.6c0.1,1.5,0.3,2.9,0.4,4.4c0.2,1.9-2.8,1.9-3,0c-0.2-1.4-0.3-2.8-0.4-4.2c-0.3-0.4-0.3-0.9-0.1-1.3
							c-1.3-18.7-0.5-37.6-0.3-56.3c0.1-1.4,0.1-2.7,0.1-4.1c0-6.2,0.1-12.5,0.2-18.7c0.1-7.7,0.2-2.5,0.3-10.2
							c0-2.8-0.1-5.7,0.1-8.6c0.1-2.9,0.4-5.7,0-8.6c-0.1-0.6-0.1-1.2,0.1-1.7c0.7-1.6,3.2-1.6,4.7-2c2.1-0.6,4.1-1.6,5.9-2.7
							c3.5-2.1,6.1-5.2,7.5-9c1.2-3.3,1.8-6.7,2.7-10.1c0.9-4,2.3-7.9,3.1-11.9c0.3-1.4,0.6-3.1-1.2-3.4c-4-0.7-5.3,6-5.9,8.6
							c-0.4,1.9-0.5,4.3-1.9,5.9c-1.5,1.7-4.3,2-6.2,3c-3.2,1.7-5.4,4.4-6.8,7.7c-0.8,1.8-3.4,0.3-2.6-1.5c1-2.3,2.4-4.4,4.2-6.1
							c-0.8-0.2-1.5-0.5-2.1-1c-0.5,0.7-1.1,1.4-1.9,2c-3,2.4-6.6,1.7-9-0.7c-0.2,0.4-0.5,0.7-0.8,1c-3.2,3.1-8.3,2.6-9.9-1.8
							c-1.1-3-0.6-7-0.6-10.2l-0.1-15.6c0-1.9,3-1.9,3,0c0,5.8,0,11.7,0.1,17.5c0,0.8-0.2,2-0.1,3v0.1c-0.5,1.5-0.3,3.3,0.6,4.5
							c0.5,0.7,1.3,1.2,2.2,1.2c3.9,0,4.2-4.1,4.4-7c0.1-1.5,0-2.9,0-4.4c0-5.3-0.1-10.5-0.1-15.8c0-1.7,0.7-5.9-0.4-7.4
							c-1-1.5-4.9-2.3-6.6-2.1c-0.9,0.1-1.9,0.4-2.7,0.7c-3,0.9-5.5,2.2-7.1,5s-1.5,6.1-1.6,9.2c-0.2,5.1-0.4,10.2-0.5,15.3
							c0,5.6,0.2,11.2,1.6,16.6c0.7,2.6,1.7,5.2,3.1,7.6c0.6,1,1.8,2.1,2.1,3.2s-0.1,2.4-0.2,3.5c-0.1,1.8-0.3,3.7-0.5,5.5
							c-0.4,3.7-0.8,7.5-1.1,11.2c-1.3,14-2.5,15.1-3.5,29.1c-1.3,18.3-2.3,36.7-2.6,55.1c-0.3,15.6-3.4,48.3,21.6,43.1
							c8-1.7,15.7-5.8,22.8-9.8c7.4-4.1,14.5-8.8,21.4-13.6c7.2-5.1,14.4-10.2,21.5-15.4c4.2-3,8.4-6.1,12.6-9.2
							c2.1-1.5,4.2-3.1,6.3-4.6c1.9-1.4,4.6-3,6.6-4.3C244.5,313.9,244.9,313.4,245.2,312.5z"/>
						<g>
							<path class="st6" d="M153.7,185.5c0,4.2,1,10.5-0.4,15.2l0.1,0.1c5.4,7.7,8.1-3.1,8.3-5.3c0.2-1.4,0.2-2.9,0.3-4.3l0.6-8.5
								c0.2-2.7,0.6-5.6,0.3-8.3c-0.6-5.8-5.1-6.9-9.7-6.1c0.2,0.9,0.3,1.9,0.4,2.8C154,175.8,153.7,180.7,153.7,185.5z"/>
							<path class="st6" d="M245.2,312.5c0.7-1.8,1.4-3.6,2.2-5.4c3-7,6.5-14.1,8.6-21.4c1.9-6.4,3.3-13,5.4-19.3
								c2-6,3.7-12.3,4.9-18.5c0.7-3.4,1.6-6.6,2.3-9.9v-0.3c-9.1,3.1-17,9.3-24,16.3c-8.8,8.7-17,18.1-25.6,27
								c-17.7,18.3-36,36-54.7,52.6c0.1,1.5,0.3,2.9,0.4,4.4c0.2,1.9-2.8,1.9-3,0c-0.2-1.4-0.3-2.8-0.4-4.2
								c-0.3-0.4-0.3-0.9-0.1-1.3c-1.3-18.7-0.5-37.6-0.3-56.3c0.1-1.4,0.1-2.7,0.1-4.1c0-6.2,0.1-12.5,0.2-18.7
								c0.1-7.7,0.2-2.5,0.3-10.2c0-2.8-0.1-5.7,0.1-8.6c0.1-2.9,0.4-5.7,0-8.6c-0.1-0.6-0.1-1.2,0.1-1.7c0.7-1.6,3.2-1.6,4.7-2
								c2.1-0.6,4.1-1.6,5.9-2.7c3.5-2.1,6.1-5.2,7.5-9c1.2-3.3,1.8-6.7,2.7-10.1c0.9-4,2.3-7.9,3.1-11.9c0.3-1.4,0.6-3.1-1.2-3.4
								c-4-0.7-5.3,6-5.9,8.6c-0.4,1.9-0.5,4.3-1.9,5.9c-1.5,1.7-4.3,2-6.2,3c-3.2,1.7-5.4,4.4-6.8,7.7c-0.8,1.8-3.4,0.3-2.6-1.5
								c1-2.3,2.4-4.4,4.2-6.1c-0.8-0.2-1.5-0.5-2.1-1c-0.5,0.7-1.1,1.4-1.9,2c-3,2.4-6.6,1.7-9-0.7c-0.2,0.4-0.5,0.7-0.8,1
								c-3.2,3.1-8.3,2.6-9.9-1.8c-1.1-3-0.6-7-0.6-10.2l-0.1-15.6c0-1.9,3-1.9,3,0c0,5.8,0,11.7,0.1,17.5c0,0.8-0.2,2-0.1,3v0.1
								c-0.5,1.5-0.3,3.3,0.6,4.5c0.5,0.7,1.3,1.2,2.2,1.2c3.9,0,4.2-4.1,4.4-7c0.1-1.5,0-2.9,0-4.4c0-5.3-0.1-10.5-0.1-15.8
								c0-1.7,0.7-5.9-0.4-7.4c-1-1.5-4.9-2.3-6.6-2.1c-0.9,0.1-1.9,0.4-2.7,0.7c-3,0.9-5.5,2.2-7.1,5s-1.5,6.1-1.6,9.2
								c-0.2,5.1-0.4,10.2-0.5,15.3c0,5.6,0.2,11.2,1.6,16.6c0.7,2.6,1.7,5.2,3.1,7.6c0.6,1,1.8,2.1,2.1,3.2s-0.1,2.4-0.2,3.5
								c-0.1,1.8-0.3,3.7-0.5,5.5c-0.4,3.7-0.8,7.5-1.1,11.2c-1.3,14-2.5,15.1-3.5,29.1c-1.3,18.3-2.3,36.7-2.6,55.1
								c-0.3,15.6-3.4,48.3,21.6,43.1c8-1.7,15.7-5.8,22.8-9.8c7.4-4.1,14.5-8.8,21.4-13.6c7.2-5.1,14.4-10.2,21.5-15.4
								c4.2-3,8.4-6.1,12.6-9.2c2.1-1.5,4.2-3.1,6.3-4.6c1.9-1.4,4.6-3,6.6-4.3C244.5,313.9,244.9,313.4,245.2,312.5z"/>
							<path class="st6" d="M164.2,199.3c-0.1,0.3,1.4,1,1.6,1.1c0.5,0.2,1,0.2,1.5,0.1c1.1-0.2,1.8-1.1,2.4-2
								c1.6-2.3,2.2-5.5,2.4-8.2c0.3-4.4,0.2-8.9,0.2-13.4c0-2,0.6-4.8-0.8-6.5c-0.5-0.6-1.4-0.8-2.1-1.1c-0.8-0.3-1.9-0.6-2.8-0.4
								c-0.2,0-1.8,0.5-1.7,0.8c2.5,5.4,0.8,13,0.4,18.5C165.1,191.5,165.3,195.7,164.2,199.3z"/>
							<path class="st6" d="M201.8,386.6c0.3,5.9,0.6,11.7,0.9,17.6c0.7,0,1.5,0.1,2.1,0.2c5.2,0.5,10.2,1.6,15.4,1.4
								c5-0.2,10.8,0.9,15.5-1c4.3-1.7,2.7-7.8,2.6-11.4c-0.1-7.3-0.3-14.6-0.4-21.9c-6,0.1-12,0.2-18,0.3c-5.5,0-11.3-0.5-16.7,0.2
								c-3,0.4-1.9,3-1.8,5.7C201.5,380.7,201.7,383.6,201.8,386.6z"/>
							<path class="st6" d="M371.3,238.1c-6.4-4.1-14.2-3.8-21.5-3.8h-21.2c-0.4,0-0.8-0.2-1-0.4c-7.5-0.7,1.8-2.4,1.1-11.2
								c-0.1-1.2-0.2-2.5-0.2-3.7c-0.7-6.4-1.2-13-0.8-19.3c0.4-5.7,1.1-11.4,1-17.1c-0.9,0.9-2.9,0.1-2.5-1.5l0.2-0.8
								c0.2-0.8,1-1.2,1.8-1.1c0.3,0.1,0.6,0.1,0.8,0c0.4-0.3,0.8-0.4,1.2-0.4c2.5-1.4,3.7-6,4.1-8.1c0.3-1.9,0.2-3.6-0.2-5.2
								c-1.1,2.6-1.8,5.4-4.6,6.8c-0.5,0.2-1.1,0.3-1.5,0c-2.7-1.9-2.5-6.2-5-8.4c-2.3,2.2-6.9,0.3-9.4-1c-3.7-1.9-6.1-4.1-8.4-6.9
								c-0.2,1.8-0.9,3.6-2.4,4.5c-3,1.8-9-0.6-11.9-2c-8-3.9-15.2-10-19.4-17.9c-2,5.1-5.2,10.6-9.9,13.2c1,11.2,3.4,22,6.6,32.8
								c1.6,5.3,4,10.4,6.8,15.2c1.3,2.3,2.4,4.4,4.1,6.4c0.6,0.7,1.2,1.2,1.8,1.8c0.3,0.1,0.7,0.3,0.9,0.6c1.7,2.6,5.8,2.9,8.6,2.8
								c3.7-0.2,7.5-0.1,10.6-2.3c1.6-1.1,3.1,1.5,1.5,2.6c-1,0.7-2,1.3-3.1,1.6c0,0.1,0,0.2,0,0.4v4.4h0.1c0,0.8,0,1.6-0.1,2.5v2.6
								c0,0.4-0.1,0.7-0.3,0.9c0,0.1,0,0.2,0,0.3c-0.3,2.2-0.9,3.9-2.7,5.3c-3.9,3-10.3,3.6-15.8,3.9c-0.2,0.3-0.6,0.5-1.1,0.5
								c-2.6,0-5.1,0.3-7.5,0.9c-0.1,0.2-0.2,0.4-0.4,0.5c-0.3,0.2-0.9,3.9-1,4.3c-0.5,1.9-0.9,3.9-1.3,5.8
								c-0.6,3.3-1.6,6.2-2.5,9.4c-2.2,8.1-3.8,16.2-6.3,24.2s-5,15.9-8.6,23.5c-4,8.7-8.7,18.8-8.4,28.6c0.1,4,1,8,2.2,12
								c0.5,0.1,0.9,0.4,1,1c1.6,8.7,7.5,17,11.1,25.1c3,6.8,6.2,12.5,7.3,19.6c0.1,0,0.2,0,0.2-0.1c0,1,0.1,2,0.1,3l0,0l0,0
								c0.1,3.1,0.3,6.2,0.7,9.5c0.2,2.5-0.3,5.3-0.2,7.9c0.5,0.3,0.8,0.9,0.6,1.6c35.4-0.2,54.8-1.1,90.2-2.9
								c-0.6-3.6-1.1-7.2-1.2-10.8c-2.1-41.7-1.9-67.5,0.4-109.2c0.1-1.9,3.1-1.9,3,0c-2.4,41-2.5,66.1-0.5,107.1v0.3
								c0,4.2,0.5,8.3,1.2,12.4c1.8-0.1,3.6-0.2,5.4-0.3c1.9-0.1,1.9,2.9,0,3c-39.3,2.1-62.6,3.2-102,3.3c-0.3,1.2-2,1.8-2.7,0.5
								c-2.2-4.2-4.1-9.8-7.7-13.1c-2.9-2.6-6.7-3.6-10.5-4c0,1.2-0.1,2.4-0.2,3.5c-0.7,5.1-6.1,5.4-11.1,5.2
								c-7.5,1.1-15.1,0.1-22.6-0.6c-1.5-0.1-4.4-0.9-6.1-0.7c-0.4-0.3-0.8-0.5-1.3-0.5h-0.2c-1,0-1.8,0.8-1.8,1.8
								c0,0.7,0.5,1.3,1.1,1.6c0.2,0.5,0.7,0.9,1.2,1.3c0.5,0.1,0.9,0.3,1.1,0.7c0.1,0,0.3,0.1,0.4,0.2c3.2,1.6,7,1.9,10.4,2.2
								c3.7,0.4,7.5,0.7,11.2,0.8c1.2,0,7.6,0.7,9.7,0.1l0.1-0.1c0.4-0.7,1.4-0.9,2.1-0.5c0,0.1,0.1,0.2,0.2,0.2
								c0.9,0.5,0.9,1.6,0.3,2.3c-1.4,1.8-5.8,1.1-7.7,1.1c-5,0.1-10-0.2-15-0.7c-3.9-0.4-8.5-0.6-12.3-2.4
								c-1.6,11.9,30.5,9.3,36.9,8.5c1.9-0.2,1.9,2.8,0,3c-9.8,1.2-20.9,1.8-30.5-1c-0.7-0.2-1.4-0.5-2.1-0.8
								c1.4,12.1,24.4,8,32.7,7.8c1.9-0.1,1.9,3,0,3c-4.5,0.1-12.2,1.1-19.3,0.6c4.2,4.2,9.8,4,15.8,3.8c5.5-0.2,11-0.9,16.4-2
								c0.3-0.2,0.7-0.3,1.2-0.2c0.5-0.1,0.9,0,1.2,0.2c32,6.3,48.2,12.6,80.9,13.8c13.3,0.5,27.6,1,40.7-1.9
								c6.5-1.4,13-4.2,16.5-10.1c3.3-5.5,3.4-12.2,3.5-18.4c0.4-29,0.6-42,0.9-71c0.3-26.4,0.9-53.4-6.4-79
								C386.6,259.6,381.9,244.8,371.3,238.1z"/>
							<g>
								<path class="st6" d="M153.7,185.5c0,4.2,1,10.5-0.4,15.2l0.1,0.1c5.4,7.7,8.1-3.1,8.3-5.3c0.2-1.4,0.2-2.9,0.3-4.3l0.6-8.5
									c0.2-2.7,0.6-5.6,0.3-8.3c-0.6-5.8-5.1-6.9-9.7-6.1c0.2,0.9,0.3,1.9,0.4,2.8C154,175.8,153.7,180.7,153.7,185.5z"/>
								<path class="st6" d="M245.2,312.5c0.7-1.8,1.4-3.6,2.2-5.4c3-7,6.5-14.1,8.6-21.4c1.9-6.4,3.3-13,5.4-19.3
									c2-6,3.7-12.3,4.9-18.5c0.7-3.4,1.6-6.6,2.3-9.9v-0.3c-9.1,3.1-17,9.3-24,16.3c-8.8,8.7-17,18.1-25.6,27
									c-17.7,18.3-36,36-54.7,52.6c0.1,1.5,0.3,2.9,0.4,4.4c0.2,1.9-2.8,1.9-3,0c-0.2-1.4-0.3-2.8-0.4-4.2
									c-0.3-0.4-0.3-0.9-0.1-1.3c-1.3-18.7-0.5-37.6-0.3-56.3c0.1-1.4,0.1-2.7,0.1-4.1c0-6.2,0.1-12.5,0.2-18.7
									c0.1-7.7,0.2-2.5,0.3-10.2c0-2.8-0.1-5.7,0.1-8.6c0.1-2.9,0.4-5.7,0-8.6c-0.1-0.6-0.1-1.2,0.1-1.7c0.7-1.6,3.2-1.6,4.7-2
									c2.1-0.6,4.1-1.6,5.9-2.7c3.5-2.1,6.1-5.2,7.5-9c1.2-3.3,1.8-6.7,2.7-10.1c0.9-4,2.3-7.9,3.1-11.9c0.3-1.4,0.6-3.1-1.2-3.4
									c-4-0.7-5.3,6-5.9,8.6c-0.4,1.9-0.5,4.3-1.9,5.9c-1.5,1.7-4.3,2-6.2,3c-3.2,1.7-5.4,4.4-6.8,7.7c-0.8,1.8-3.4,0.3-2.6-1.5
									c1-2.3,2.4-4.4,4.2-6.1c-0.8-0.2-1.5-0.5-2.1-1c-0.5,0.7-1.1,1.4-1.9,2c-3,2.4-6.6,1.7-9-0.7c-0.2,0.4-0.5,0.7-0.8,1
									c-3.2,3.1-8.3,2.6-9.9-1.8c-1.1-3-0.6-7-0.6-10.2l-0.1-15.6c0-1.9,3-1.9,3,0c0,5.8,0,11.7,0.1,17.5c0,0.8-0.2,2-0.1,3v0.1
									c-0.5,1.5-0.3,3.3,0.6,4.5c0.5,0.7,1.3,1.2,2.2,1.2c3.9,0,4.2-4.1,4.4-7c0.1-1.5,0-2.9,0-4.4c0-5.3-0.1-10.5-0.1-15.8
									c0-1.7,0.7-5.9-0.4-7.4c-1-1.5-4.9-2.3-6.6-2.1c-0.9,0.1-1.9,0.4-2.7,0.7c-3,0.9-5.5,2.2-7.1,5s-1.5,6.1-1.6,9.2
									c-0.2,5.1-0.4,10.2-0.5,15.3c0,5.6,0.2,11.2,1.6,16.6c0.7,2.6,1.7,5.2,3.1,7.6c0.6,1,1.8,2.1,2.1,3.2s-0.1,2.4-0.2,3.5
									c-0.1,1.8-0.3,3.7-0.5,5.5c-0.4,3.7-0.8,7.5-1.1,11.2c-1.3,14-2.5,15.1-3.5,29.1c-1.3,18.3-2.3,36.7-2.6,55.1
									c-0.3,15.6-3.4,48.3,21.6,43.1c8-1.7,15.7-5.8,22.8-9.8c7.4-4.1,14.5-8.8,21.4-13.6c7.2-5.1,14.4-10.2,21.5-15.4
									c4.2-3,8.4-6.1,12.6-9.2c2.1-1.5,4.2-3.1,6.3-4.6c1.9-1.4,4.6-3,6.6-4.3C244.5,313.9,244.9,313.4,245.2,312.5z"/>
								<path class="st6" d="M164.2,199.3c-0.1,0.3,1.4,1,1.6,1.1c0.5,0.2,1,0.2,1.5,0.1c1.1-0.2,1.8-1.1,2.4-2
									c1.6-2.3,2.2-5.5,2.4-8.2c0.3-4.4,0.2-8.9,0.2-13.4c0-2,0.6-4.8-0.8-6.5c-0.5-0.6-1.4-0.8-2.1-1.1c-0.8-0.3-1.9-0.6-2.8-0.4
									c-0.2,0-1.8,0.5-1.7,0.8c2.5,5.4,0.8,13,0.4,18.5C165.1,191.5,165.3,195.7,164.2,199.3z"/>
								<path class="st6" d="M201.8,386.6c0.3,5.9,0.6,11.7,0.9,17.6c0.7,0,1.5,0.1,2.1,0.2c5.2,0.5,10.2,1.6,15.4,1.4
									c5-0.2,10.8,0.9,15.5-1c4.3-1.7,2.7-7.8,2.6-11.4c-0.1-7.3-0.3-14.6-0.4-21.9c-6,0.1-12,0.2-18,0.3
									c-5.5,0-11.3-0.5-16.7,0.2c-3,0.4-1.9,3-1.8,5.7C201.5,380.7,201.7,383.6,201.8,386.6z"/>
								<path class="st6" d="M371.3,238.1c-6.4-4.1-14.2-3.8-21.5-3.8h-21.2c-0.4,0-0.8-0.2-1-0.4c-7.5-0.7,1.8-2.4,1.1-11.2
									c-0.1-1.2-0.2-2.5-0.2-3.7c-0.7-6.4-1.2-13-0.8-19.3c0.4-5.7,1.1-11.4,1-17.1c-0.9,0.9-2.9,0.1-2.5-1.5l0.2-0.8
									c0.2-0.8,1-1.2,1.8-1.1c0.3,0.1,0.6,0.1,0.8,0c0.4-0.3,0.8-0.4,1.2-0.4c2.5-1.4,3.7-6,4.1-8.1c0.3-1.9,0.2-3.6-0.2-5.2
									c-1.1,2.6-1.8,5.4-4.6,6.8c-0.5,0.2-1.1,0.3-1.5,0c-2.7-1.9-2.5-6.2-5-8.4c-2.3,2.2-6.9,0.3-9.4-1c-3.7-1.9-6.1-4.1-8.4-6.9
									c-0.2,1.8-0.9,3.6-2.4,4.5c-3,1.8-9-0.6-11.9-2c-8-3.9-15.2-10-19.4-17.9c-2,5.1-5.2,10.6-9.9,13.2c1,11.2,3.4,22,6.6,32.8
									c1.6,5.3,4,10.4,6.8,15.2c1.3,2.3,2.4,4.4,4.1,6.4c0.6,0.7,1.2,1.2,1.8,1.8c0.3,0.1,0.7,0.3,0.9,0.6
									c1.7,2.6,5.8,2.9,8.6,2.8c3.7-0.2,7.5-0.1,10.6-2.3c1.6-1.1,3.1,1.5,1.5,2.6c-1,0.7-2,1.3-3.1,1.6c0,0.1,0,0.2,0,0.4v4.4
									h0.1c0,0.8,0,1.6-0.1,2.5v2.6c0,0.4-0.1,0.7-0.3,0.9c0,0.1,0,0.2,0,0.3c-0.3,2.2-0.9,3.9-2.7,5.3c-3.9,3-10.3,3.6-15.8,3.9
									c-0.2,0.3-0.6,0.5-1.1,0.5c-2.6,0-5.1,0.3-7.5,0.9c-0.1,0.2-0.2,0.4-0.4,0.5c-0.3,0.2-0.9,3.9-1,4.3
									c-0.5,1.9-0.9,3.9-1.3,5.8c-0.6,3.3-1.6,6.2-2.5,9.4c-2.2,8.1-3.8,16.2-6.3,24.2s-5,15.9-8.6,23.5c-4,8.7-8.7,18.8-8.4,28.6
									c0.1,4,1,8,2.2,12c0.5,0.1,0.9,0.4,1,1c1.6,8.7,7.5,17,11.1,25.1c3,6.8,6.2,12.5,7.3,19.6c0.1,0,0.2,0,0.2-0.1
									c0,1,0.1,2,0.1,3l0,0l0,0c0.1,3.1,0.3,6.2,0.7,9.5c0.2,2.5-0.3,5.3-0.2,7.9c0.5,0.3,0.8,0.9,0.6,1.6
									c35.4-0.2,54.8-1.1,90.2-2.9c-0.6-3.6-1.1-7.2-1.2-10.8c-2.1-41.7-1.9-67.5,0.4-109.2c0.1-1.9,3.1-1.9,3,0
									c-2.4,41-2.5,66.1-0.5,107.1v0.3c0,4.2,0.5,8.3,1.2,12.4c1.8-0.1,3.6-0.2,5.4-0.3c1.9-0.1,1.9,2.9,0,3
									c-39.3,2.1-62.6,3.2-102,3.3c-0.3,1.2-2,1.8-2.7,0.5c-2.2-4.2-4.1-9.8-7.7-13.1c-2.9-2.6-6.7-3.6-10.5-4
									c0,1.2-0.1,2.4-0.2,3.5c-0.7,5.1-6.1,5.4-11.1,5.2c-7.5,1.1-15.1,0.1-22.6-0.6c-1.5-0.1-4.4-0.9-6.1-0.7
									c-0.4-0.3-0.8-0.5-1.3-0.5h-0.2c-1,0-1.8,0.8-1.8,1.8c0,0.7,0.5,1.3,1.1,1.6c0.2,0.5,0.7,0.9,1.2,1.3
									c0.5,0.1,0.9,0.3,1.1,0.7c0.1,0,0.3,0.1,0.4,0.2c3.2,1.6,7,1.9,10.4,2.2c3.7,0.4,7.5,0.7,11.2,0.8c1.2,0,7.6,0.7,9.7,0.1
									l0.1-0.1c0.4-0.7,1.4-0.9,2.1-0.5c0,0.1,0.1,0.2,0.2,0.2c0.9,0.5,0.9,1.6,0.3,2.3c-1.4,1.8-5.8,1.1-7.7,1.1
									c-5,0.1-10-0.2-15-0.7c-3.9-0.4-8.5-0.6-12.3-2.4c-1.6,11.9,30.5,9.3,36.9,8.5c1.9-0.2,1.9,2.8,0,3
									c-9.8,1.2-20.9,1.8-30.5-1c-0.7-0.2-1.4-0.5-2.1-0.8c1.4,12.1,24.4,8,32.7,7.8c1.9-0.1,1.9,3,0,3
									c-4.5,0.1-12.2,1.1-19.3,0.6c4.2,4.2,9.8,4,15.8,3.8c5.5-0.2,11-0.9,16.4-2c0.3-0.2,0.7-0.3,1.2-0.2c0.5-0.1,0.9,0,1.2,0.2
									c32,6.3,48.2,12.6,80.9,13.8c13.3,0.5,27.6,1,40.7-1.9c6.5-1.4,13-4.2,16.5-10.1c3.3-5.5,3.4-12.2,3.5-18.4
									c0.4-29,0.6-42,0.9-71c0.3-26.4,0.9-53.4-6.4-79C386.6,259.6,381.9,244.8,371.3,238.1z"/>
								<g>
									<path class="st6" d="M245.2,312.5c0.7-1.8,1.4-3.6,2.2-5.4c3-7,6.5-14.1,8.6-21.4c1.9-6.4,3.3-13,5.4-19.3
										c2-6,3.7-12.3,4.9-18.5c0.7-3.4,1.6-6.6,2.3-9.9v-0.3c-9.1,3.1-17,9.3-24,16.3c-8.8,8.7-17,18.1-25.6,27
										c-17.7,18.3-36,36-54.7,52.6c0.1,1.5,0.3,2.9,0.4,4.4c0.2,1.9-2.8,1.9-3,0c-0.2-1.4-0.3-2.8-0.4-4.2
										c-0.3-0.4-0.3-0.9-0.1-1.3c-1.3-18.7-0.5-37.6-0.3-56.3c0.1-1.4,0.1-2.7,0.1-4.1c0-6.2,0.1-12.5,0.2-18.7
										c0.1-7.7,0.2-2.5,0.3-10.2c0-2.8-0.1-5.7,0.1-8.6c0.1-2.9,0.4-5.7,0-8.6c-0.1-0.6-0.1-1.2,0.1-1.7c0.7-1.6,3.2-1.6,4.7-2
										c2.1-0.6,4.1-1.6,5.9-2.7c3.5-2.1,6.1-5.2,7.5-9c1.2-3.3,1.8-6.7,2.7-10.1c0.9-4,2.3-7.9,3.1-11.9c0.3-1.4,0.6-3.1-1.2-3.4
										c-4-0.7-5.3,6-5.9,8.6c-0.4,1.9-0.5,4.3-1.9,5.9c-1.5,1.7-4.3,2-6.2,3c-3.2,1.7-5.4,4.4-6.8,7.7c-0.8,1.8-3.4,0.3-2.6-1.5
										c1-2.3,2.4-4.4,4.2-6.1c-0.8-0.2-1.5-0.5-2.1-1c-0.5,0.7-1.1,1.4-1.9,2c-3,2.4-6.6,1.7-9-0.7c-0.2,0.4-0.5,0.7-0.8,1
										c-3.2,3.1-8.3,2.6-9.9-1.8c-1.1-3-0.6-7-0.6-10.2l-0.1-15.6c0-1.9,3-1.9,3,0c0,5.8,0,11.7,0.1,17.5c0,0.8-0.2,2-0.1,3v0.1
										c-0.5,1.5-0.3,3.3,0.6,4.5c0.5,0.7,1.3,1.2,2.2,1.2c3.9,0,4.2-4.1,4.4-7c0.1-1.5,0-2.9,0-4.4c0-5.3-0.1-10.5-0.1-15.8
										c0-1.7,0.7-5.9-0.4-7.4c-1-1.5-4.9-2.3-6.6-2.1c-0.9,0.1-1.9,0.4-2.7,0.7c-3,0.9-5.5,2.2-7.1,5s-1.5,6.1-1.6,9.2
										c-0.2,5.1-0.4,10.2-0.5,15.3c0,5.6,0.2,11.2,1.6,16.6c0.7,2.6,1.7,5.2,3.1,7.6c0.6,1,1.8,2.1,2.1,3.2s-0.1,2.4-0.2,3.5
										c-0.1,1.8-0.3,3.7-0.5,5.5c-0.4,3.7-0.8,7.5-1.1,11.2c-1.3,14-2.5,15.1-3.5,29.1c-1.3,18.3-2.3,36.7-2.6,55.1
										c-0.3,15.6-3.4,48.3,21.6,43.1c8-1.7,15.7-5.8,22.8-9.8c7.4-4.1,14.5-8.8,21.4-13.6c7.2-5.1,14.4-10.2,21.5-15.4
										c4.2-3,8.4-6.1,12.6-9.2c2.1-1.5,4.2-3.1,6.3-4.6c1.9-1.4,4.6-3,6.6-4.3C244.5,313.9,244.9,313.4,245.2,312.5z"/>
									<path class="st6" d="M164.2,199.3c-0.1,0.3,1.4,1,1.6,1.1c0.5,0.2,1,0.2,1.5,0.1c1.1-0.2,1.8-1.1,2.4-2
										c1.6-2.3,2.2-5.5,2.4-8.2c0.3-4.4,0.2-8.9,0.2-13.4c0-2,0.6-4.8-0.8-6.5c-0.5-0.6-1.4-0.8-2.1-1.1
										c-0.8-0.3-1.9-0.6-2.8-0.4c-0.2,0-1.8,0.5-1.7,0.8c2.5,5.4,0.8,13,0.4,18.5C165.1,191.5,165.3,195.7,164.2,199.3z"/>
									<path class="st6" d="M153.7,185.5c0,4.2,1,10.5-0.4,15.2l0.1,0.1c5.4,7.7,8.1-3.1,8.3-5.3c0.2-1.4,0.2-2.9,0.3-4.3l0.6-8.5
										c0.2-2.7,0.6-5.6,0.3-8.3c-0.6-5.8-5.1-6.9-9.7-6.1c0.2,0.9,0.3,1.9,0.4,2.8C154,175.8,153.7,180.7,153.7,185.5z"/>
									<path class="st6" d="M266,145c1.8-2.4,2.8-5.5,3.7-8.3c-0.1-0.2-0.1-0.3-0.2-0.5c-0.7-1.8,2.2-2.6,2.9-0.8
										c2.3,6.4,6.7,11.6,12.3,15.4c3,2.1,5.9,4.4,9.4,5.5c0.9,0.3,1.9,0.6,2.9,0.8c2,1.2,3.7,0.5,5.2-2.1c0-0.9-0.1-1.8-0.3-2.7
										c-0.2-0.5-0.2-0.9,0-1.3c0-1.2,1.9-2.1,2.9-0.8c1.8,2.6,3.3,5.3,5.9,7.2c1.1,0.8,9.8,6.2,10.5,3.9c0.3-1,1.3-1.3,2.2-0.9
										c2.2,1,3.7,3.4,4.7,5.4c0,0,0.7,2.3,0.9,2.3c1,0.3,2.2-2.7,2.4-3.2c0.5-1.2,0.7-2.2,1.4-3.2c0.2-0.3,0.5-0.5,0.8-0.6
										c0.6-0.8,2.3-0.9,2.7,0.5c0.8,2.5,1.4,3.9,1.3,6.7c-0.1,2.5-0.5,4.9-1.5,7.3c-0.2,0.5-0.4,1-0.7,1.5
										c16.2-4,17-24.3,18.8-38.3c1-8.1,0.3-16-3.1-23.5c-1-2.3-2-4.2-4.1-5.8c-1.1-0.9-2.4-1.4-3.5-2.3c-1.1-1-4.3-5-6.2-4.1
										c-1.2,0.5-2.4-0.6-2.3-1.6c-0.1-0.4,0-0.9,0.5-1.3c4.6-3.7,12.2-7,10.9-13.9c-0.6-3-0.6-6-1.3-9c-0.9-4.2-2.8-5.9-6.5-7.6
										c-5.4-2.4-10.8-4.1-16.7-2.9c-4.7,1-6.6,3.8-9.3,7.4c-1.7,2.3-4.7,5.8-4.6,8.9c0,1.1-0.8,1.5-1.7,1.4
										c-0.7,0.4-1.3,0.5-2,0.6c-0.3,0.5-0.9,0.7-1.6,0.5c-3.1-0.9-7.3,1.7-10.3,2.5c-4.3,1.1-7.4,1.5-10.9,4.6
										c-2.6,2.2-5.3,3.9-7.1,6.9c-1.8,3-3.2,6.2-4.9,9.2c-4,7-5.8,14-6.9,22c-0.5,4.1-0.4,8.1-0.5,12.2c-0.1,2.5-0.5,4.8-0.6,7.2
										C263.3,148.8,264.8,146.6,266,145z"/>
									<path class="st6" d="M201.8,386.6c0.3,5.9,0.6,11.7,0.9,17.6c0.7,0,1.5,0.1,2.1,0.2c5.2,0.5,10.2,1.6,15.4,1.4
										c5-0.2,10.8,0.9,15.5-1c4.3-1.7,2.7-7.8,2.6-11.4c-0.1-7.3-0.3-14.6-0.4-21.9c-6,0.1-12,0.2-18,0.3
										c-5.5,0-11.3-0.5-16.7,0.2c-3,0.4-1.9,3-1.8,5.7C201.5,380.7,201.7,383.6,201.8,386.6z"/>
									<path class="st6" d="M371.3,238.1c-6.4-4.1-14.2-3.8-21.5-3.8h-21.2c-0.4,0-0.8-0.2-1-0.4c-7.5-0.7,1.8-2.4,1.1-11.2
										c-0.1-1.2-0.2-2.5-0.2-3.7c-0.7-6.4-1.2-13-0.8-19.3c0.4-5.7,1.1-11.4,1-17.1c-0.9,0.9-2.9,0.1-2.5-1.5l0.2-0.8
										c0.2-0.8,1-1.2,1.8-1.1c0.3,0.1,0.6,0.1,0.8,0c0.4-0.3,0.8-0.4,1.2-0.4c2.5-1.4,3.7-6,4.1-8.1c0.3-1.9,0.2-3.6-0.2-5.2
										c-1.1,2.6-1.8,5.4-4.6,6.8c-0.5,0.2-1.1,0.3-1.5,0c-2.7-1.9-2.5-6.2-5-8.4c-2.3,2.2-6.9,0.3-9.4-1
										c-3.7-1.9-6.1-4.1-8.4-6.9c-0.2,1.8-0.9,3.6-2.4,4.5c-3,1.8-9-0.6-11.9-2c-8-3.9-15.2-10-19.4-17.9
										c-2,5.1-5.2,10.6-9.9,13.2c1,11.2,3.4,22,6.6,32.8c1.6,5.3,4,10.4,6.8,15.2c1.3,2.3,2.4,4.4,4.1,6.4
										c0.6,0.7,1.2,1.2,1.8,1.8c0.3,0.1,0.7,0.3,0.9,0.6c1.7,2.6,5.8,2.9,8.6,2.8c3.7-0.2,7.5-0.1,10.6-2.3
										c1.6-1.1,3.1,1.5,1.5,2.6c-1,0.7-2,1.3-3.1,1.6c0,0.1,0,0.2,0,0.4v4.4h0.1c0,0.8,0,1.6-0.1,2.5v2.6c0,0.4-0.1,0.7-0.3,0.9
										c0,0.1,0,0.2,0,0.3c-0.3,2.2-0.9,3.9-2.7,5.3c-3.9,3-10.3,3.6-15.8,3.9c-0.2,0.3-0.6,0.5-1.1,0.5c-2.6,0-5.1,0.3-7.5,0.9
										c-0.1,0.2-0.2,0.4-0.4,0.5c-0.3,0.2-0.9,3.9-1,4.3c-0.5,1.9-0.9,3.9-1.3,5.8c-0.6,3.3-1.6,6.2-2.5,9.4
										c-2.2,8.1-3.8,16.2-6.3,24.2s-5,15.9-8.6,23.5c-4,8.7-8.7,18.8-8.4,28.6c0.1,4,1,8,2.2,12c0.5,0.1,0.9,0.4,1,1
										c1.6,8.7,7.5,17,11.1,25.1c3,6.8,6.2,12.5,7.3,19.6c0.1,0,0.2,0,0.2-0.1c0,1,0.1,2,0.1,3l0,0l0,0c0.1,3.1,0.3,6.2,0.7,9.5
										c0.2,2.5-0.3,5.3-0.2,7.9c0.5,0.3,0.8,0.9,0.6,1.6c35.4-0.2,54.8-1.1,90.2-2.9c-0.6-3.6-1.1-7.2-1.2-10.8
										c-2.1-41.7-1.9-67.5,0.4-109.2c0.1-1.9,3.1-1.9,3,0c-2.4,41-2.5,66.1-0.5,107.1v0.3c0,4.2,0.5,8.3,1.2,12.4
										c1.8-0.1,3.6-0.2,5.4-0.3c1.9-0.1,1.9,2.9,0,3c-39.3,2.1-62.6,3.2-102,3.3c-0.3,1.2-2,1.8-2.7,0.5
										c-2.2-4.2-4.1-9.8-7.7-13.1c-2.9-2.6-6.7-3.6-10.5-4c0,1.2-0.1,2.4-0.2,3.5c-0.7,5.1-6.1,5.4-11.1,5.2
										c-7.5,1.1-15.1,0.1-22.6-0.6c-1.5-0.1-4.4-0.9-6.1-0.7c-0.4-0.3-0.8-0.5-1.3-0.5h-0.2c-1,0-1.8,0.8-1.8,1.8
										c0,0.7,0.5,1.3,1.1,1.6c0.2,0.5,0.7,0.9,1.2,1.3c0.5,0.1,0.9,0.3,1.1,0.7c0.1,0,0.3,0.1,0.4,0.2c3.2,1.6,7,1.9,10.4,2.2
										c3.7,0.4,7.5,0.7,11.2,0.8c1.2,0,7.6,0.7,9.7,0.1l0.1-0.1c0.4-0.7,1.4-0.9,2.1-0.5c0,0.1,0.1,0.2,0.2,0.2
										c0.9,0.5,0.9,1.6,0.3,2.3c-1.4,1.8-5.8,1.1-7.7,1.1c-5,0.1-10-0.2-15-0.7c-3.9-0.4-8.5-0.6-12.3-2.4
										c-1.6,11.9,30.5,9.3,36.9,8.5c1.9-0.2,1.9,2.8,0,3c-9.8,1.2-20.9,1.8-30.5-1c-0.7-0.2-1.4-0.5-2.1-0.8
										c1.4,12.1,24.4,8,32.7,7.8c1.9-0.1,1.9,3,0,3c-4.5,0.1-12.2,1.1-19.3,0.6c4.2,4.2,9.8,4,15.8,3.8c5.5-0.2,11-0.9,16.4-2
										c0.3-0.2,0.7-0.3,1.2-0.2c0.5-0.1,0.9,0,1.2,0.2c32,6.3,48.2,12.6,80.9,13.8c13.3,0.5,27.6,1,40.7-1.9
										c6.5-1.4,13-4.2,16.5-10.1c3.3-5.5,3.4-12.2,3.5-18.4c0.4-29,0.6-42,0.9-71c0.3-26.4,0.9-53.4-6.4-79
										C386.6,259.6,381.9,244.8,371.3,238.1z"/>
								</g>
							</g>
						</g>
					</g>
				</g>
			</g>
		</g>
	</g>
	<path class="st8" d="M330,540.2c-0.5,0-1-0.1-1.5-0.1c-0.2,0-0.4,0-0.5,0C323.4,540.2,334.6,540.6,330,540.2z"/>
	<path class="st8" d="M284.1,183.8c-2.5,0.2-5.7,1.1-5.5-2.6c0.1-2.3,2-4.8,2.7-7c1.2-4.1,2.1-8.9,2.1-13.2c0-1.9-3-1.9-3,0
		c0,3.8-0.8,8.1-1.8,11.7c-0.8,2.9-3,6-3.2,9.1c-0.2,5.3,4.8,5.3,8.7,4.9C286,186.6,286,183.6,284.1,183.8z"/>
	<path class="st8" d="M301.1,194.5c-2.3-1.1-5.4-0.5-7.9-0.5c-3.1,0-6.1,0.5-9.2,0.7c-1.7,0.3-3.4,0.5-5.2,0.6
		c-0.1,0.2-0.1,0.3-0.1,0.5c-0.2,2.1,1.4,4.5,2.7,6c1.7,1.9,4.5,2.7,7,2.8c5.5,0.3,10.1-3.9,13.2-8.1
		C302.1,195.9,301.8,194.8,301.1,194.5z M290.9,201.3c-1.9,0.5-4.8,0.3-6.5-0.9c-0.6-0.4-1.5-1.6-2.1-2.7c2.9-0.1,5.7-0.7,8.7-0.7
		c1.7,0,4.5-0.5,6.7-0.3C295.9,198.8,293.6,200.6,290.9,201.3z"/>
	<path class="st8" d="M276.6,162.2c-0.3-0.4-0.7-0.7-1.1-0.9c-0.2-0.2-0.5-0.3-0.8-0.2h-0.1c-0.1-0.1-0.3-0.2-0.5-0.2
		c-0.8-0.2-1.6,0.2-1.8,1.1c0,0.1,0,0.2,0,0.3c-0.6,0.2-1.1,0.8-1,1.4c0,0.8,0.6,1.4,1.4,1.5c0.1,0.3,0.2,0.6,0.3,0.9
		c0.1,0.4,0.3,0.8,0.6,1.1c0.9,0.8,2.2,0.6,3-0.2C277.8,165.6,277.5,163.6,276.6,162.2z"/>
	<path class="st8" d="M279,155.1c-1.9-1.5-4.9-1.7-7.2-1.5c-1.8,0.2-6.5,0.4-7,2.7c-0.3,1.6,1.8,2.4,2.6,1.4c1.7-0.5,3.3-1,5.1-1.1
		c1.1-0.1,3.5-0.1,4.4,0.7C278.4,158.5,280.5,156.3,279,155.1z"/>
	<path class="st8" d="M277.1,164.7c-0.1-0.7-0.8-1.1-1.5-1.1c0-0.2,0-0.4,0-0.6c0-0.8-0.7-1.5-1.5-1.5s-1.5,0.7-1.5,1.5
		c0,1.6-0.3,3.4,1.3,4.2c0.7,0.4,1.6,0.4,2.2,0C277.1,166.7,277.2,165.7,277.1,164.7z"/>
	<path class="st8" d="M392.9,272c-3.3-12.3-8.3-27.8-19.2-35.5c-5.6-4-12.3-4.8-19-5c-2.5-0.1-5-0.1-7.6-0.1c-3.1,0-6.1-0.2-9.2-0.2
		c-2,0-4.2,0.3-5-2.1c-0.6-1.7-0.6-3.7-0.8-5.5c-0.4-2.9-0.7-5.9-1-8.9l0,0c-0.3-5.1-0.8-10.1-0.5-15.2c0.3-3.9,0.7-7.8,0.9-11.8
		c0.2-0.1,0.3-0.1,0.5-0.3c1.4-1.1,2.6-2.2,3.3-4c0.5-1.3,1.1-2.5,1.4-3.9c6.3-1.8,12-6.1,14.7-12.3c4-9.3,5.2-20.8,6.2-30.8
		c0.5-4.7,0.3-9.6-1.1-14.2c-1.3-4.3-2.3-9.3-5.1-12.9c-1.1-1.5-2.5-2.2-4-3.3c-1.4-1-2.3-2.3-3.6-3.3c-1.1-0.8-2.5-1.7-4-2.3
		c5-3.5,10.6-6.9,9.7-13.8c-0.5-4.1-0.7-9.4-2.3-13.3c-1.6-3.9-4.9-5.4-8.5-7c-6.4-2.9-14.2-4.6-20.9-1.5c-4.2,2-6,5.2-8.8,8.8
		c-1.7,2.2-3.6,5.1-4,8c-0.9,0.7-1.4,0.3-2.9,0.5c-0.3,0-0.6,0.1-0.9,0.3c-2.3,0.1-4.8,1.1-6.8,1.8c-3.6,1.3-7.9,1.3-11.3,3.2
		c-1.1,0.6-2.2,1.3-3.2,2.1c-2.9,1.4-5.3,3.4-7.3,6.3c-1.7,2.4-4.5,4.1-5.8,6.8c-0.5,1.2-0.7,2.5-1.1,3.7c-0.7,1.9-1.9,3.2-2.6,5.1
		c-1.3,3.4-1.7,7.5-2.8,11c-0.9,2.8-1.4,5.6-1.6,8.5c-0.2,3.3-1,6.6-1.3,9.9c-0.2,2.9,0.3,5.4,0.6,8.3c0,0.3,0.2,0.7,0.4,0.9
		c0,1.1,0,2.1,0.1,3.2c0,0.1,0,0.3,0.1,0.4c1,11.9,3.5,23.5,7,34.9c1.6,5.2,4.1,10,6.8,14.6c1.2,2,2.1,4.1,3.5,5.9
		c3.3,4.1,6.8,6.8,12.2,7.3c2.3,0.2,4.8-0.3,7.2-0.4c0.4,0,0.7-0.1,1.1-0.1v4.7l0,0c-0.1,3.6,0.4,7.3-3.5,9c-3.1,1.5-6.6,1.9-10,2.2
		c-3.4,0.3-6.6,0.8-10,1.4c-3.7,0.7-7.2,1.9-10.6,3.5c-6.9,3.3-13,8.1-18.5,13.3c-8.2,7.7-15.2,16.4-23,24.5
		c-18.3,19.1-37.3,37.6-56.9,55.5c-1.1-17.8-0.3-35.8-0.1-53.6c0.3-21,0.5-29.1,0.8-50.1c7.3-2.1,14.3-5.5,17.4-13
		c2.1-4.9,3-10.4,4.3-15.5c0.7-2.8,1.4-5.7,2.2-8.5c0.3-1.3,1.8-3.9,0.7-5.1c-5.5-6.2-11,1.7-12.4,4.8c-0.9,2.1-1,4.4-1.8,6.4
		c-0.3,0.7-0.6,1.3-1,1.7c1.4-3.6,1.4-8.1,1.5-11.6c0.2-5.3,1.4-14-2.3-18.4c2.8-4.1,5.6-8.1,8.5-12.2c2-2.8,4.7-5.9,8.6-5.4
		c4.2,0.6,3.3,5.5,3.1,8.6c-0.2,2.5-0.6,5-0.9,7.6c-0.2,2.1-0.2,4.3-1,6.3c-0.9,2.4-4.3,4.1-6.1,1.6c-1.9-2.1,0.2-10.6,0.3-13.7
		c0-1.9-3-1.9-3,0c-0.1,2.9-0.2,5.8-0.6,8.6c-0.2,1.5-0.9,3.5-0.6,5.1c0.6,2.9,3,3.7,5.8,4c9.2,0.8,8.2-10.6,8.9-16.9
		c0.8-6.8,1.7-15-7.3-14.3c-3.7,0.3-5.9,1.7-8.2,4.6c-3.4,4.6-6.6,9.4-9.9,14.1c-2.6-1.1-5.8-0.8-7.9,1.1l-0.1,0.1
		c-2.8-2.3-6.9-2.2-10.6-1.4c-0.1-0.2-0.2-0.3-0.4-0.5c-3.7-3.8-11.6-1-15.5,1.1c-5.7,3.2-6.4,8.4-6.7,14.4
		c-0.7,14.6-3,32.2,6.3,44.6c-3.9,40.4-7.7,67.8-8.1,108.4c-0.1,13.4-2.4,36.4,14.5,41.1c7,1.9,14.3-0.6,20.7-3.3
		c8.6-3.7,16.8-8.3,24.7-13.4c8.6-5.5,16.9-11.4,25.2-17.3c8.4-6.1,17-12.1,25.2-18.4c1.2-0.9,2.4-2,3.6-2.9
		c0.5-0.4,1.1-0.8,1.7-1.1c0.1,1.6-0.8,3.2-1.3,4.7c-1.1,3.8-1.7,7.9-1.4,11.9c0.3,4.3,1.4,8.5,2.7,12.6c0.3,0.9,0.6,1.7,0.9,2.5
		c1.8,6.7,5.9,13.2,8.9,19.3c4,8.1,8.6,16.1,9.2,25.2c0,0.2,0.1,0.5,0.2,0.6c0,2.8,0,5.4,0.4,8.2c0.5,3.4-0.3,6.8,0.2,10.1
		c-0.3,0-0.5,0-0.8,0c-0.1,0-0.3,0-0.4,0.1c-2.3-4.7-4.5-10-8.8-13.1c-3.3-2.4-7.1-3.3-11.1-3.7c-0.1-3-0.4-6.1-0.4-9.1
		c-0.1-5.6-0.2-11.2-0.3-16.8c0-0.8-0.5-1.2-1.1-1.4c-0.2-0.5-0.6-0.8-1.3-0.8c-7.2,0.1-14.4,0.2-21.6,0.3
		c-3.9,0.1-7.9,0.1-11.8,0.2c-1.6,0-4.4-0.5-5.9,0.6c-2.7,2-0.8,9.3-0.7,12c0.4,7.5,0.7,14.9,1.1,22.4c-1.2,0.1-2.3,0.4-3.2,1.1
		c-1.9,1.7-1.2,4.3,0.1,6.1c0.5,0.8,1.2,1.4,1.9,2c-1.1,4,0.9,7.4,4,9.7c-0.1,0.2-0.1,0.3-0.1,0.5c-0.1,7.8,5.4,11,12.3,12.2
		c0,0.2,0.1,0.4,0.3,0.6c3.9,5,7.7,6.5,14,6.7c7.9,0.2,15.7-0.6,23.4-2.2c3.6,0.7,7,1.4,10.3,2.2c-1.9,12.1-2.9,24.3-5,36.4
		c-2.1,12.2-5.4,24.3-11.5,35c-1.1,1.9-2.2,3.7-2.9,5.8c-0.4,1-0.8,2.5-0.7,3.9c0.1,1.6-0.1,1.6,1.4,2.6c4.7,3.2,10.9,4.7,16.4,6.2
		c9,2.4,18.1,3.7,27.3,4.8c10,1.2,19.9,2.3,30,2.2c3.6,0,7.1,0.5,10.6,0.8c8.8-0.4,17.4-2.1,26.2-3.4c6.1-0.9,12.9-2.5,18.8-5.3
		c-0.1-0.1-0.1-0.2-0.2-0.3c2.2-1,3.3-3.3,3.5-5.9c0.2-2.9-1.1-5.4-1.7-8.2c-0.7-3-0.7-6.1-1.2-9.1c-1.7-10.4-5.3-20.7-7-31.2
		c-0.3-4.1-0.6-6-0.9-10.9c-0.2-4,0.8-8.1,0.4-12.1c2.9-0.3,5.8-0.7,8.6-1.3c10.3-2,19.3-7.2,22.2-17.9c1.6-6,1.4-12.4,1.5-18.5
		c0.1-8.5,0.2-17,0.3-25.5c0.2-16.3,0.3-16.6,0.5-33C399.2,329.4,400.5,300,392.9,272z M296.3,231.6c3-2.3,2.9-5.8,3-9.2
		c0-0.8,0.1-1.6,0.1-2.5h-0.1v-4.4c0-0.1,0-0.3,0-0.4c1.1-0.4,2.1-0.9,3.1-1.6c1.5-1.1,0-3.7-1.5-2.6c-3.1,2.2-6.9,2.1-10.6,2.3
		c-1.9,0.1-4,0-5.8-0.8c-2-0.8-4-2.8-5.4-4.4c-1.7-2-2.8-4.1-4.1-6.4c-2.8-4.8-5.2-9.8-6.8-15.2c-3.2-10.8-5.6-21.6-6.6-32.8
		c4.8-2.6,7.9-8,9.9-13.2c4.2,7.8,11.4,14,19.4,17.9c2.9,1.4,8.8,3.8,11.9,2c1.5-0.9,2.2-2.6,2.4-4.5c2.3,2.8,4.7,5,8.4,6.9
		c2.6,1.3,7.2,3.1,9.4,1c2.5,2.2,2.3,6.5,5,8.4c0.4,0.3,1.1,0.2,1.5,0c2.3-1.1,3.2-3.2,4-5.2c0.1,0,0.2,0.1,0.3,0.1
		c0.6-0.7,1.9-0.5,1.9,0.6c-0.1,3.9-0.2,8.2-1.7,11.8c-0.7,1.7-1.6,3.3-2.8,4.6c-0.6,0.6-1.4,1-2,1.6c-0.8,0.9-0.7,1.7-0.8,2.8
		c0,1.1-0.1,2.3-0.2,3.4c-0.2,2.5-0.4,5.1-0.6,7.6c-0.3,4-0.2,8.1,0.1,12.1c0,0.1,0,0.2,0,0.4c0,0.3,0.1,0.6,0.1,0.9
		c0.1,0.9,0.1,1.8,0.2,2.7c0,0,0,0,0.1,0c0.4,4.6,0.6,9.4,1.8,13.8c1,3.8,3.5,4.8,6.7,4.7h4.2c-1.6,12.3-6.1,23.9-10.2,35.5
		c-4.4,12.5-8.1,26.4-23.9,27.2c-14.1,0.6-28.2-7.9-30-22.6c-0.9-7.6-1.1-15.4,0.1-22.9c0.8-5.3,2.3-10.3,3.3-15.5
		C285.5,235.6,292.1,234.9,296.3,231.6z M164.9,169.7c-0.1-0.3,1.5-0.8,1.7-0.8c0.9-0.2,2,0.1,2.8,0.4c0.7,0.3,1.6,0.5,2.1,1.1
		c1.4,1.7,0.8,4.5,0.8,6.5c0,4.5,0.1,9-0.2,13.4c-0.2,2.7-0.8,5.9-2.4,8.2c-0.6,0.9-1.3,1.8-2.4,2c-0.5,0.1-1,0.1-1.5-0.1
		c-0.2-0.1-1.7-0.8-1.6-1.1c1.1-3.6,0.9-7.8,1.1-11.1C165.7,182.7,167.4,175.1,164.9,169.7z M162.9,174.4c0.3,2.7-0.1,5.6-0.3,8.3
		l-0.6,8.5c-0.1,1.4-0.1,2.9-0.3,4.3c-0.2,2.2-2.9,13-8.3,5.3l-0.1-0.1c1.4-4.7,0.4-11,0.4-15.2c0-4.8,0.3-9.7-0.1-14.4
		c-0.1-0.9-0.2-1.9-0.4-2.8C157.8,167.5,162.3,168.6,162.9,174.4z M237.1,318.6c-2.1,1.5-4.2,3.1-6.3,4.6c-4.2,3.1-8.4,6.2-12.6,9.2
		c-7.1,5.2-14.3,10.3-21.5,15.4c-6.9,4.8-14,9.5-21.4,13.6c-7.1,4-14.8,8.1-22.8,9.8c-25,5.2-21.9-27.5-21.6-43.1
		c0.3-18.4,1.3-36.8,2.6-55.1c1-14,2.2-15.1,3.5-29.1c0.3-3.7,0.7-7.5,1.1-11.2c0.2-1.8,0.4-3.7,0.5-5.5c0.1-1.1,0.5-2.4,0.2-3.5
		s-1.5-2.2-2.1-3.2c-1.4-2.4-2.4-5-3.1-7.6c-1.4-5.4-1.6-11-1.6-16.6c0.1-5.1,0.3-10.2,0.5-15.3c0.1-3.1,0-6.4,1.6-9.2
		c1.6-2.8,4.1-4.1,7.1-5c0.8-0.3,1.8-0.6,2.7-0.7c1.7-0.2,5.6,0.6,6.6,2.1c1.1,1.5,0.4,5.7,0.4,7.4c0,5.3,0.1,10.5,0.1,15.8
		c0,1.5,0.1,2.9,0,4.4c-0.2,2.9-0.5,7-4.4,7c-0.9,0-1.7-0.5-2.2-1.2c-0.9-1.2-1.1-3-0.6-4.5V197c-0.1-1,0.1-2.2,0.1-3
		c-0.1-5.8-0.1-11.7-0.1-17.5c0-1.9-3-1.9-3,0l0.1,15.6c0,3.2-0.5,7.2,0.6,10.2c1.6,4.4,6.7,4.9,9.9,1.8c0.3-0.3,0.6-0.6,0.8-1
		c2.4,2.4,6,3.1,9,0.7c0.8-0.6,1.4-1.3,1.9-2c0.6,0.5,1.3,0.8,2.1,1c-1.8,1.7-3.2,3.8-4.2,6.1c-0.8,1.8,1.8,3.3,2.6,1.5
		c1.4-3.3,3.6-6,6.8-7.7c1.9-1,4.7-1.3,6.2-3c1.4-1.6,1.5-4,1.9-5.9c0.6-2.6,1.9-9.3,5.9-8.6c1.8,0.3,1.5,2,1.2,3.4
		c-0.8,4-2.2,7.9-3.1,11.9c-0.9,3.4-1.5,6.8-2.7,10.1c-1.4,3.8-4,6.9-7.5,9c-1.8,1.1-3.8,2.1-5.9,2.7c-1.5,0.4-4,0.4-4.7,2
		c-0.2,0.5-0.2,1.1-0.1,1.7c0.4,2.9,0.1,5.7,0,8.6c-0.2,2.9-0.1,5.8-0.1,8.6c-0.1,7.7-0.2,2.5-0.3,10.2c-0.1,6.2-0.2,12.5-0.2,18.7
		c0,1.4,0,2.7-0.1,4.1c-0.2,18.7-1,37.6,0.3,56.3c-0.2,0.4-0.2,0.9,0.1,1.3c0.1,1.4,0.2,2.8,0.4,4.2c0.2,1.9,3.2,1.9,3,0
		c-0.1-1.5-0.3-2.9-0.4-4.4c18.7-16.6,37-34.3,54.7-52.6c8.6-8.9,16.8-18.3,25.6-27c7-7,14.9-13.2,24-16.3v0.3
		c-0.7,3.3-1.6,6.5-2.3,9.9c-1.2,6.2-2.9,12.5-4.9,18.5c-2.1,6.3-3.5,12.9-5.4,19.3c-2.1,7.3-5.6,14.4-8.6,21.4
		c-0.8,1.8-1.5,3.6-2.2,5.4c-0.3,0.9-0.7,1.4-1.5,1.8C241.7,315.6,239,317.2,237.1,318.6z M257.7,371.3c-2-4.5-4.5-8.8-6.6-13.3
		c-3.8-7.8-7.4-16.1-7.6-24.8c-0.3-9.8,4.4-19.9,8.4-28.6c3.6-7.6,6.1-15.5,8.6-23.5s4.1-16.1,6.3-24.2c0.9-3.2,1.9-6.1,2.5-9.4
		c0.4-1.9,0.8-3.9,1.3-5.8c0.1-0.4,0.7-4.1,1-4.3c0.2-0.1,0.3-0.3,0.4-0.5c0.5-1,3.4-0.9,5.1-0.9c-2.6,14.5-6.5,29.1-2.4,43.9
		c3.5,12.8,18.1,20.2,30.6,20.1c6.3,0,11.7-1.8,16.5-5.9c5.2-4.4,7.2-10.4,9.3-16.6c4.9-14.2,10.9-28.2,12.8-43.3h6h0.1
		c-0.1,0.1-0.1,0.2-0.1,0.4c-1.4,7.5-4.7,14.5-6.1,22c-1.7,9.3-2.8,18.5-2.7,28c0.1,8.3,0.9,17.4,3.7,25.2c1.9,5.2,4.2,12.5,9.6,15
		c-0.7,24.2-0.3,45.5,1.1,74.4c0.1,3.6,0.6,7.2,1.2,10.8c-0.1-0.6-33.1,1.6-36.5,1.7c-11.3,0.5-22.5,0.8-33.8,1
		c-3.9,0.1-7.7,0.3-11.6,0.3c-1.9,0-3.9,0-5.8,0c-0.8,0-1.9,0.1-2.5-0.4c-0.2-0.2-0.1-0.9-0.6-1.3c-0.5-0.3,0.2-4.2,0.2-4.9
		c0.2-6.2-0.2-13.4-1.8-19.4C262.7,381.5,260,376.5,257.7,371.3z M203.2,372c5.4-0.7,11.2-0.2,16.7-0.2c6-0.1,12-0.2,18-0.3
		c0.1,7.3,0.3,14.6,0.4,21.9c0.1,3.6,1.7,9.7-2.6,11.4c-4.7,1.9-10.5,0.8-15.5,1c-5.2,0.2-10.2-0.9-15.4-1.4
		c-0.6-0.1-1.4-0.2-2.1-0.2c-0.3-5.9-0.6-11.7-0.9-17.6c-0.1-3-0.3-5.9-0.4-8.9C201.3,375,200.2,372.4,203.2,372z M333.7,537.6
		c-0.9,0-1.7-0.1-2.6-0.1C333.3,537.5,335.9,537.6,333.7,537.6z M362.9,461.3c-0.1,2.5,0,4,0.2,5.5c-0.1,0.2-0.1,0.4-0.1,0.6
		c0.1,10.3,3.7,19.8,5.7,29.7c1,5,1.9,9.9,2.5,14.9c0.4,3.5,1.9,6.7,2.4,10.2c0.8,5.9-4.2,7.9-9.1,9.4c-2.6,0.8-5.2,1.4-7.9,1.9
		c-8.7,1.7-18.1,3.4-26.9,3.7c-0.1,0-0.1,0-0.2,0c-2.7-0.3-5.3-0.8-8-0.8c-9,0-17.8-0.3-26.8-1.4c-10.7-1.3-21.3-2.6-31.8-5.2
		c-5.4-1.3-11.2-2.8-16.1-5.6c-3.1-1.8,2.8-10.8,3.9-12.8c6-10.9,8.6-23.4,10.6-35.7c1.8-10.9,3.2-21.8,4.6-32.7
		c22.9,5.1,38,9.7,64.9,11c10.6,0.5,21.6,0.9,32.4,0C363.5,456.5,363.1,458.9,362.9,461.3z M396.3,350c-0.3,29-0.5,42-0.9,71
		c-0.1,6.2-0.2,12.9-3.5,18.4c-3.5,5.9-10,8.7-16.5,10.1c-13.1,2.9-27.4,2.4-40.7,1.9c-32.7-1.2-48.9-7.5-80.9-13.8
		c-0.3-0.2-0.7-0.3-1.2-0.2c-0.5-0.1-0.9,0-1.2,0.2c-5.4,1.1-10.9,1.8-16.4,2c-6,0.2-11.6,0.4-15.8-3.8c7.1,0.5,14.8-0.5,19.3-0.6
		c1.9,0,1.9-3.1,0-3c-8.3,0.2-31.3,4.3-32.7-7.8c0.7,0.3,1.4,0.6,2.1,0.8c9.6,2.8,20.7,2.2,30.5,1c1.9-0.2,1.9-3.2,0-3
		c-6.4,0.8-38.5,3.4-36.9-8.5c3.8,1.8,8.4,2,12.3,2.4c5,0.5,10,0.8,15,0.7c1.9,0,6.3,0.7,7.7-1.1c0.6-0.7,0.6-1.8-0.3-2.3
		c-0.1,0-0.2-0.1-0.2-0.2c-0.7-0.4-1.7-0.2-2.1,0.5l-0.1,0.1c-2.1,0.6-8.5-0.1-9.7-0.1c-3.7-0.1-7.5-0.4-11.2-0.8
		c-3.4-0.3-7.2-0.6-10.4-2.2c-0.1-0.1-0.3-0.2-0.4-0.2c-0.2-0.4-0.6-0.6-1.1-0.7c-0.5-0.4-1-0.8-1.2-1.3c-0.6-0.3-1.1-0.9-1.1-1.6
		c0-1,0.8-1.8,1.8-1.8h0.2c0.5,0,0.9,0.2,1.3,0.5c1.7-0.2,4.6,0.6,6.1,0.7c7.5,0.7,15.1,1.7,22.6,0.6c5,0.2,10.4-0.1,11.1-5.2
		c0.1-1.1,0.2-2.3,0.2-3.5c3.8,0.4,7.6,1.4,10.5,4c3.6,3.3,5.5,8.9,7.7,13.1c0.7,1.3,2.4,0.7,2.7-0.5c39.4-0.1,62.7-1.2,102-3.3
		c1.9-0.1,1.9-3.1,0-3c-1.8,0.1-3.6,0.2-5.4,0.3c-0.7-4.1-1.2-8.2-1.2-12.4v-0.3c-2-41-1.9-66.1,0.5-107.1c0.1-1.9-2.9-1.9-3,0
		c-0.6,11.4-1.1,21.7-1.4,31.3c-1.9-1.5-3-3.9-4.1-6.1c-1.8-3.9-3.5-7.8-4.4-12c-1.6-8-2.2-16.4-1.8-24.5c0.4-8.3,1.3-16.6,3.2-24.7
		c1.4-6.1,4-11.8,5.3-17.9c0.1-0.2,0.2-0.4,0.3-0.7c0.1-0.4,0.1-0.7,0.1-1.1c6.3,0,12.8,0.3,18.3,3.8c10.6,6.7,15.3,21.5,18.6,32.9
		C397.2,296.6,396.6,323.6,396.3,350z"/>
	<path class="st8" d="M300.1,161.8c-0.7-0.7-1.7-0.9-2.6-0.7c-0.2,0-0.4,0-0.5,0h-0.2c-0.5,0.1-0.9,0.6-1,1.1
		c-0.4,1.3,0,2.9,0.9,3.9c1.1,1.2,3,1,3.8-0.4C301.1,164.6,301.1,162.8,300.1,161.8z"/>
	<path class="st7" d="M360.9,133.4c0-4.5,0-11.7-2.9-15.5c-1.8-2.3-4.9-4.1-7.1-5.9c-2.5-2.1-5.1-3.9-7.8-5.7
		c-5.9-3.9-11.7-7.9-18.8-9.4c-6.7-1.4-13.7-2.3-20.3-4c-2.6-0.7-5.6-2.2-8.4-1.8c-1.2,0.2-2.3,0.7-3.4,1.3
		c-0.1-0.4-0.2-0.8-0.4-1.2c-0.6-1.1-1.8-2.3-3.1-2.6c-1.8-0.5-2.8,1.2-2.6,2.7c0.1,0.8,0.5,1.5,0.8,2.2c0,0.1,0,0.3,0,0.4
		c0,0.1,0,0.1,0,0.2c-5.9,0.6-11.2,2.7-16.5,5.9c-4.3,2.7-9.8,5.9-11.8,10.8c-1.1,2.6-1.9,6.1-2.7,8.8c-1,3.6-0.6,6.5-0.7,10.2
		c-0.1,5.1-3.9,12.6-0.2,17.1c0,0.2,0,0.4,0.1,0.6c0.1,0.2,0.2,0.4,0.2,0.5s0.1,0.1,0.2,0.2c0.1,0.3,0.2,0.5,0.2,0.8
		c0.2,0.9,1.2,1.3,2,1c0.7-0.3,0.6-0.8,0.8-1.4c0.3-0.7,0.3-1,0.8-1.6c1.1-1.6,1.8-3.4,2.7-5.1c2.4-4.7,4.9-9.2,8-13.6
		c3.6-5.1,7.6-9.7,12.6-13.6c1.2-1,2.7-1.9,4-3c-0.2,1.9-0.1,3.7,1.6,4.7c0.6,0.3,1.3,0.2,1.8-0.2c1.1-1.1,1.8-3,1.9-5
		c0.7,0.8,1.5,1.5,2.5,2.3c2.6,1.9,4.6,4.3,7.1,6.2c6.5,5,12.8,10.1,19.2,15.3c6.3,5.1,12.8,11.1,17.2,18c2,3.2,10.1,22,3.9,23.6
		c-0.4,0.1-0.7,0.3-0.8,0.6c-1,1-0.2,3.1,1.4,2.5c5.9-1.9,8.6-4.6,10.6-10.4c1.6-4.7,4.8-8.5,6.1-13.4
		C361.1,148.4,360.9,141.2,360.9,133.4z"/>
	<g>
		<path class="st0" d="M280.4,102.3c-0.4-1.2-1.6-1.6-2.7-1.4c-0.9,0.1-1.6,0.4-2.1,0.9c-1.3,0.7-2.7,1.8-3.3,3.1
			c-0.5,1.2,0,2.4,1.3,2.7c1.1,0.3,2.3-0.2,3.2-0.8c0.8-0.5,1.6-1.1,2.3-1.7C280,104.4,280.8,103.4,280.4,102.3z"/>
		<path class="st0" d="M266.5,107.2c-0.7-0.2-1.3-0.1-1.8,0.4c-1.2,0.6-2.3,1.8-2.9,2.8c-0.9,1.7-0.6,3.9,1.5,4.4
			c1.4,0.3,2.1-0.6,3-1.5c0.9-1,1.9-2,2-3.4C268.5,108.6,267.7,107.6,266.5,107.2z"/>
		<path class="st0" d="M276.5,114.9c-0.1-0.4-0.3-0.7-0.7-0.9c-0.1-0.1-0.3-0.2-0.4-0.2c-0.9-0.3-1.8,0.1-2.6,0.5
			c-0.3,0.2-0.6,0.5-0.7,0.9c-0.4,0.4-0.8,1-1.1,1.5c-0.4,0.8-0.6,1.7-0.1,2.5c0.5,0.9,1.7,1.1,2.6,0.8c1.6-0.5,2.9-2.1,3-3.8
			C276.7,115.8,276.7,115.3,276.5,114.9z"/>
		<path class="st0" d="M267.4,125.4c-0.1-0.5-0.4-1-0.7-1.3c-0.2-1-1.6-1.8-2.5-0.8c-0.2,0.2-0.5,0.5-0.7,0.8
			c-0.2,0.2-0.4,0.3-0.6,0.5c-0.4,0.4-0.6,0.8-0.5,1.3c-0.5,1-0.8,2.1-0.9,3.3c-0.1,0.9,0.1,1.9,0.9,2.4c1,0.6,2,0,2.7-0.6
			C266.6,129.4,267.9,127.4,267.4,125.4z"/>
		<path class="st0" d="M261,120.4c-0.3-1.5-1.9-2.6-3.2-1.3c-1.1,1.1-0.8,3-0.8,4.4c0,0.1,0,0.2,0,0.2c-0.2,0.6-0.1,1.2,0.3,1.7
			s1,0.9,1.7,0.7C261.3,125.5,261.4,122.3,261,120.4z"/>
		<path class="st0" d="M260.7,137.9c-0.2-0.8-0.7-1.5-1.5-1.8c-0.7-0.3-1.2,0.1-1.8,0.3c-1,0.3-1.3,2-1.5,2.9
			c-0.3,1.3-0.4,3.3,0.6,4.3c1.4,1.4,3.3,0.3,3.8-1.3c0.2-0.7,0.6-1.3,0.7-2C261.1,139.4,260.9,138.7,260.7,137.9z"/>
		<path class="st0" d="M310.3,99.6c-0.4-1.4-2.2-2.2-3.5-2.5c-1.8-0.5-6-1.3-7,1c-0.2,0.5-0.2,1,0.1,1.4c0,0.2,0.1,0.4,0.2,0.6
			c0.5,1.3,1.8,1.9,3.1,2c1.7,0.1,3.4,0.9,5.1,0.4C309.6,102.2,310.7,101,310.3,99.6z"/>
		<path class="st0" d="M310.6,111.7c-0.3-1.2-0.7-2.6-1.6-3.5c-0.8-0.8-2.2-1.3-3.3-1.3c-0.7,0-1.5,0.3-2.1,0.6
			c-0.2-0.1-0.5-0.1-0.8,0c-0.1,0-0.1,0-0.2,0c-0.7,0.2-1.3,1.1-1,1.8c0.8,2.1,3,4.4,5,5.4c1.1,0.5,2.1,0.6,3.1-0.1
			C310.8,113.9,310.9,112.9,310.6,111.7z"/>
		<path class="st0" d="M328.5,104.4c-1.8-2.7-7.3-2.2-9.4-0.4c-0.4,0.4-0.5,0.9-0.4,1.3c0,0.1-0.1,0.1-0.1,0.2
			c-0.2,0.7,0.2,1.3,0.7,1.7c0.9,0.6,2.1,0.8,3.1,1c1.1,0.2,2.4,0.5,3.5,0.3C327.9,108.3,329.8,106.4,328.5,104.4z"/>
		<path class="st0" d="M326.2,118.8c-1.1-1.6-2.9-2.5-4.4-3.7c-0.3-0.2-0.5-0.3-0.8-0.4c-0.3-0.1-0.7-0.2-1.1-0.2
			c-1.9,0.1-2.5,2.2-2,3.8c0.5,1.5,2,3.1,3.2,4.1c1.3,1,3.1,1.6,4.6,0.6C327.2,122,327.1,120.1,326.2,118.8z"/>
		<path class="st0" d="M342.2,114.5c-0.7-2.6-4-5.3-6.8-4.2c-0.1,0.1-0.3,0.1-0.4,0.2c-1.1,0-1.8,1.1-1.9,2.1
			c-0.1,0.8,0.2,1.4,0.7,1.9c0.6,1.2,2,2.3,3.1,3s2.2,1.1,3.5,0.6C341.9,117.6,342.6,116,342.2,114.5z"/>
		<path class="st0" d="M334.8,138.8c-0.4-2.2-2.4-4.5-4.6-5.2c-0.3-0.1-0.7-0.1-1-0.1c-0.9-0.8-2.6-0.4-2.5,1c0,1,0.4,1.7,0.9,2.5
			c0.1,0.2,0.1,0.3,0.2,0.5c0.1,0.4,0.4,0.6,0.7,0.8c0.6,0.9,1.2,1.8,2.1,2.5s1.8,1.4,3,1C334.7,141.3,335.1,140,334.8,138.8z"/>
		<path class="st0" d="M351.8,150.5c-0.6-1-1.4-1.9-2.5-2.5s-2.7-0.5-3,1c0,0,0,0,0,0.1c-0.1,0.1-0.2,0.1-0.3,0.2
			c-2.8,2.5,0.5,7.2,3.3,8.2c1.6,0.6,3.4-0.3,3.9-2C353.7,153.7,352.7,151.9,351.8,150.5z"/>
		<path class="st0" d="M348.1,135c-0.9-1.3-2.1-2.8-3.8-2.8c-0.5,0-0.8,0.1-1.2,0.3c-0.7-0.4-1.5-0.4-1.9,0.5
			c-0.7,1.6-0.3,3.1,0.7,4.4c0.8,1.1,1.8,2.3,3,2.9c1.5,0.9,3.3,0.7,4-1.1C349.4,137.8,348.9,136.2,348.1,135z"/>
		<path class="st0" d="M357.7,120.7c-1.4-2.4-6.2-4.4-8.4-2.1c-0.5,0.5-0.5,1-0.3,1.5c-0.8,2.3,1.8,5.7,4,5.9
			C355.7,126.3,359.5,123.7,357.7,120.7z"/>
		<path class="st0" d="M358.3,136.7c-0.4-0.6-1-1.1-1.6-1.3c-0.4-0.3-0.9-0.4-1.3-0.3c-1.2,0.3-1.5,1.3-1.6,2.4
			c-0.1,1.3-0.3,2.6-0.2,3.9c0.1,1,0.3,2.3,1.2,3c1.1,0.8,2.4,0.3,3.2-0.7C359.4,141.8,359.6,138.7,358.3,136.7z"/>
		<path class="st0" d="M342.8,123.5c-0.2-1.2-1.4-1.9-2.6-1.8c-1.2,0.1-2.1,0.7-2.9,1.5c-1.5,0.4-3,1.3-3.4,3
			c-0.3,1.2,0.1,2.6,1.1,3.3c1.1,0.7,2.4,0.4,3.5-0.2C340.4,128.4,343.2,125.8,342.8,123.5z"/>
		<path class="st0" d="M321.5,126.8c-0.8-1.1-1.9-2.4-3.5-2.3c-0.3,0-0.7,0.2-0.9,0.4c-0.6,0.1-1.1,0.6-1.1,1.4c0,1.5,1,2.8,2.2,3.7
			c1.1,0.8,3.1,1.4,3.9,0C322.7,128.9,322.1,127.7,321.5,126.8z"/>
		<path class="st0" d="M350.9,164.6c-1-2.3-3.9-1.7-4.5,0.6v0.1c-0.2,0.1-0.4,0.3-0.6,0.6c-0.9,1.5-1.8,4-0.4,5.6
			c1.4,1.5,3.7,0.7,4.8-0.8c0.7-1,0.8-2,0.9-3.2C351.3,166.4,351.3,165.6,350.9,164.6z"/>
	</g>
</g>
</svg>
