<svg xmlns="http://www.w3.org/2000/svg" viewBox="0 0 282.23 213.48"><defs><style>.cls-2{fill:#848484}.cls-6{fill:#5b595b}.cls-8{fill:#6c6d70}.cls-9{fill:#404040}.cls-10{fill:#c5902c}.cls-11{fill:#fff}.cls-28{opacity:.3}.cls-14{fill:#e8e9ea}.cls-26,.cls-28,.cls-31{mix-blend-mode:multiply}.cls-17{fill:#fcb715}.cls-19{fill:#b7b7b8}.cls-20{fill:#818285}.cls-23{fill:#cfd1d3}.cls-24{fill:#402e3b}.cls-25{fill:#5e5d5e}.cls-26{opacity:.5}.cls-27{fill:#eaeaea}.cls-30{fill:#fab088}.cls-31{opacity:.35}.cls-32,.cls-36,.cls-38,.cls-39{fill:none;stroke:#5b595b;stroke-linecap:round;stroke-linejoin:round}.cls-32{stroke-width:.39px}.cls-36{stroke-width:.5px}.cls-38{stroke-width:.41px}.cls-39{stroke-width:.42px}</style></defs><g style="isolation:isolate"><g id="Layer_2" data-name="Layer 2"><g id="Layer_1-2" data-name="Layer 1"><path class="cls-2" d="M204.21 15l-3.68 5.49a9.79 9.79 0 0 1-4.63 4c-3 1.12-3.73 1.07-3.73 1.07a11.43 11.43 0 0 1-2.91 4.44s.72 5.9 1.87 8.63 2.23 5 5.64 6.87l1.06.89.2 2.37a7.55 7.55 0 0 1-7.23-3.21s-2.15 1.26-3-.74c0 0-4.32 0-3.74-5.16 0 0-2.93.56-2.3-3.16 0 0-2.88-1.32-.61-4.64a2.79 2.79 0 0 1-1.27-3.56 2.39 2.39 0 0 1 .26-3.27 3.21 3.21 0 0 1 3.13-3.14 23.8 23.8 0 0 1 2.65-7.13c2-3.5 3.8-5.71 6.88-7.62a16.45 16.45 0 0 1 10-2.58c3.32.31 4.36 1.71 4.77 3 0 0 3.47-.65 4.8.13a14.58 14.58 0 0 1 5.24 4.44c1.72 2.5 2.78 4.13 2.65 5.55a32.18 32.18 0 0 1-1.39 7.68l-.42 1.12a3.26 3.26 0 0 0 1.51.56c.81.05 1 1.38 1 1.38a2.89 2.89 0 0 1-1.45 1.93s.7 2.17-.29 3.4c0 0 2.4.55.85 4.56 0 0 .94 1.2-.59 2.73a4.12 4.12 0 0 1-2.48 5.16s-1.42 3.57-4.63 1.6c0 0-1.31 1.89-5.95.88l.05-2.84s3.83-1.6 4.53-2.83a21.83 21.83 0 0 0 1.87-5.35 16.91 16.91 0 0 1 2.16-4.71 15.22 15.22 0 0 1-1.75-4.34 13.35 13.35 0 0 1 0-5.71c.37-2.57-.88-4.3-2-5.78s-5.35-2.37-7.07-2.11z"/><path d="M19.68 207.06c25.54-1.11 51.07-2.26 76.61-3.25 25.71-1 51.43-1.81 77.16-2.09s51.33 0 77 .95q4.71.18 9.41.39l4.71.22c.67 0 1.33.09 2 .11 1 0-.93-.11-.92-.11 1.85.4-1.87-1.21-2-1.34a7.15 7.15 0 0 1-1.77-4.35l2.48-3.41q4.6-4 2.22-3.35c-.32 0-2.22.37-1 .18s0 0-.2 0l-1.42.14c-.83.08-1.66.14-2.49.19-3.09.19-6.19.22-9.29.16-12.58-.24-25.14-1.11-37.74-1.18-25.16-.13-50.3 1.11-75.43 2s-50.12 1.43-75.13-.12c-6.23-.39-12.44-.9-18.64-1.58-1.53-.16-3-.34-4.56-.52l-2.11-.26-1-.14c-1.14-.14-.34 0 .33 0-3.16-.35-6.31-.91-9.44-1.43-6.71-1.12-15-3.59-20.35 2.38a10.8 10.8 0 0 0 .52 15.21c3 2.71 7.21 3.67 11.08 4.4a130.92 130.92 0 0 0 19.77 1.81q9.65.35 19.3.61 19.31.51 38.61.67 38.43.32 76.86-.78 38.59-1.09 77.14-3.62 9.45-.62 18.9-1.32c4.76-.35 9.38-3.95 9.15-9.15-.21-4.65-4-9.52-9.15-9.15q-38.51 2.87-77.11 4.32t-77.21 1.47q-38.62 0-77.22-1.37c-3-.11-5.91-.22-8.86-.46l-2-.19-1.46-.1c-.23 0-1.4-.15-.13 0s-.79-.14-1.13-.2c-.78-.14-1.56-.29-2.33-.46l-2.31-.57c-.32-.09-.65-.2-1-.28-.51-.13-1-.6-.05.07l.59.27 3.3 6.17-1.09 2.69a4.5 4.5 0 0 1-2.37 3.72c.21-.11-2.19.9-1.28.55.35-.13 1.45-.26-.18 0-2.19.29 1.51.3-.75 0-1.91-.28.75.17 1.28.27 1.52.28 3 .54 4.54.79a391.33 391.33 0 0 0 38.93 4.45c25 1.63 50.09 1.13 75.11.26s50.28-2.14 75.44-2.06c12.6 0 25.15.82 37.73 1.15 6.71.19 13.82.21 20.41-1.24a11.39 11.39 0 0 0 8.95-11.4 12.51 12.51 0 0 0-9.89-11.55c-3.48-.75-7.18-.67-10.72-.83-3.26-.14-6.51-.28-9.77-.4q-9.6-.36-19.2-.6-19.24-.47-38.49-.45c-25.61 0-51.21.64-76.81 1.52s-51.28 2-76.92 3.14l-18.61.8c-4.77.21-9.37 4.06-9.15 9.15.22 4.78 4 9.37 9.15 9.15z" fill="#aeaeae" opacity=".2"/><path d="M280.35 73.12h-14l.67-2.61a2.33 2.33 0 0 0-2.26-2.9h-3.7a2.33 2.33 0 0 0-2.26 1.75l-.95 3.76H24.35l-1-3.76a2.32 2.32 0 0 0-2.25-1.75h-3.67a2.32 2.32 0 0 0-2.25 2.9l.66 2.61h-14a1.71 1.71 0 0 0-1.62 2.13l2.55 10a1.71 1.71 0 0 0 1.66 1.29h14.83l2.89 11.36H9.06a1.69 1.69 0 0 0-1.58 2.1l2.43 10a1.64 1.64 0 0 0 1.57 1.28h14.09l5.56 21.88H9.5a2.56 2.56 0 0 0-2.56 2.56v2.35a2.56 2.56 0 0 0 2.56 2.56h21.93v54.26A2.56 2.56 0 0 0 34 197.5h5.14a2.56 2.56 0 0 0 2.56-2.56v-54.26h198.84v54.26a2.57 2.57 0 0 0 2.57 2.56h5.13a2.57 2.57 0 0 0 2.57-2.56v-54.26h21.92a2.57 2.57 0 0 0 2.57-2.56v-2.35a2.56 2.56 0 0 0-2.57-2.56H251.1l5.57-21.88h14.08a1.65 1.65 0 0 0 1.58-1.28l2.43-10a1.7 1.7 0 0 0-1.58-2.13h-13.1L263 86.55h14.84a1.7 1.7 0 0 0 1.65-1.29l2.55-10a1.71 1.71 0 0 0-1.69-2.14zm-37.76 60.09H39.64l-5.57-21.88h214.09zm9-35.31H30.66l-2.89-11.35h226.7z" fill="#cfcfce"/><path class="cls-6" d="M248.24 197.67h-5.13a2.74 2.74 0 0 1-2.74-2.73v-54.09H41.86v54.09a2.73 2.73 0 0 1-2.73 2.73H34a2.73 2.73 0 0 1-2.73-2.73v-54.09H9.5a2.73 2.73 0 0 1-2.73-2.73v-2.35A2.73 2.73 0 0 1 9.5 133h21.42l-5.48-21.5h-14a1.81 1.81 0 0 1-1.74-1.41l-2.43-10a1.92 1.92 0 0 1 .36-1.65 1.75 1.75 0 0 1 1.39-.69h12.91l-2.8-11H4.43a1.87 1.87 0 0 1-1.82-1.45l-2.55-10A1.88 1.88 0 0 1 1.88 73h13.74L15 70.55a2.49 2.49 0 0 1 2.42-3.11h3.71a2.48 2.48 0 0 1 2.41 1.88l.94 3.68h233.27l.93-3.63a2.48 2.48 0 0 1 2.42-1.88h3.7a2.49 2.49 0 0 1 2.42 3.11l-.61 2.4h13.74a1.87 1.87 0 0 1 1.49.72 1.85 1.85 0 0 1 .33 1.62l-2.54 10a1.88 1.88 0 0 1-1.82 1.42h-14.7l-2.81 11h12.88a1.77 1.77 0 0 1 1.39.69 2 2 0 0 1 .35 1.65l-2.43 10a1.81 1.81 0 0 1-1.74 1.41H256.8L251.32 133h21.41a2.74 2.74 0 0 1 2.74 2.73v2.35a2.74 2.74 0 0 1-2.74 2.73H251v54.09a2.74 2.74 0 0 1-2.76 2.77zM41.52 140.51h199.19v54.43a2.4 2.4 0 0 0 2.4 2.39h5.13a2.4 2.4 0 0 0 2.4-2.39v-54.43h22.09a2.4 2.4 0 0 0 2.4-2.39v-2.35a2.4 2.4 0 0 0-2.4-2.39h-21.85l.05-.22 5.6-22h14.22a1.46 1.46 0 0 0 1.41-1.15l2.43-10a1.57 1.57 0 0 0-.29-1.36 1.45 1.45 0 0 0-1.12-.56h-13.31l3-11.69h15a1.55 1.55 0 0 0 1.49-1.16l2.55-10a1.58 1.58 0 0 0-.28-1.33 1.52 1.52 0 0 0-1.22-.59h-14.24l.72-2.82a2.14 2.14 0 0 0-.38-1.86 2.17 2.17 0 0 0-1.71-.83h-3.7a2.14 2.14 0 0 0-2.1 1.59l-1 3.89H24.22l-1-3.89a2.16 2.16 0 0 0-2.09-1.62h-3.7a2.13 2.13 0 0 0-1.7.83 2.18 2.18 0 0 0-.39 1.86l.72 2.82H1.88a1.53 1.53 0 0 0-1.49 1.92l2.55 10a1.53 1.53 0 0 0 1.49 1.16h15l3 11.69H9.06a1.45 1.45 0 0 0-1.13.56 1.61 1.61 0 0 0-.29 1.38l2.43 10a1.48 1.48 0 0 0 1.41 1.15H25.7l5.65 22.22H9.5a2.39 2.39 0 0 0-2.39 2.39v2.35a2.39 2.39 0 0 0 2.39 2.39h22.09v54.43a2.4 2.4 0 0 0 2.4 2.39h5.14a2.39 2.39 0 0 0 2.39-2.39zm201.2-7.13H39.51l-5.65-22.22h214.52l-.06.22zM39.77 133h202.69l5.48-21.54H34.29zm211.94-35H30.52l-3-11.69h227.17zm-220.92-.27h220.66l2.8-11H28z"/><rect x="6.92" y="132.86" width="268.37" height="8.12" rx="3.84" fill="#9e9e9e"/><path class="cls-6" d="M271.45 141.16H10.76a4 4 0 0 1-4-4v-.44a4 4 0 0 1 4-4h260.69a4 4 0 0 1 4 4v.44a4 4 0 0 1-4 4zM10.76 133a3.68 3.68 0 0 0-3.67 3.68v.44a3.68 3.68 0 0 0 3.67 3.67h260.69a3.68 3.68 0 0 0 3.68-3.67v-.44a3.68 3.68 0 0 0-3.68-3.68z"/><path class="cls-8" d="M62.19 92.22h3.91v103.02h-3.91z"/><path class="cls-9" d="M61.42 187.56h5.45v8.08h-5.45zM78 89.48c-1.63-1.14-8-1.06-13.19-.89s-6.83.89-6.83.89c-1 .28-1.72 2.28-.66 3.84s1.79.56 3.66 0 10.67-.83 12-.5.49 2 1.87 2.77a3.48 3.48 0 0 0 4.56-1.54c1.08-1.78.18-3.43-1.41-4.57z"/><path class="cls-10" d="M209.75 49.83c-1.57-1.25-7.05-.75-7.05-.75s-5.85-.46-6.77.88-1.27 3.58.66 4.37 6.53.39 9.79 0 4.93-3.25 3.37-4.5z"/><path class="cls-11" d="M208.17 45.36l-11 .54a24.51 24.51 0 0 1 .22 5 7.24 7.24 0 0 1-1.8 4.14 14.23 14.23 0 0 0 8.22 2.49c4.94 0 6.46-2.24 6.46-2.24s-2.1-3.05-2.14-4.6.04-5.33.04-5.33z"/><path d="M197.12 45.9s.4-.15.13 2.17a9.43 9.43 0 0 0 5.53 1.42A8.36 8.36 0 0 0 208 48a15.27 15.27 0 0 1 .14-2.63z" fill="#d8d8d8" opacity=".3"/><path class="cls-6" d="M203.69 57.72a14.67 14.67 0 0 1-8.21-2.52l-.15-.12.14-.14a7.26 7.26 0 0 0 1.76-4 24.9 24.9 0 0 0-.23-5v-.19l11.37-.56v.18s-.08 3.82 0 5.35 2.09 4.48 2.11 4.51l.07.09-.07.1c-.06.09-1.63 2.27-6.6 2.31zM195.84 55a14.26 14.26 0 0 0 7.85 2.35h.11c4.24 0 5.91-1.67 6.26-2.08-.38-.56-2.06-3.15-2.1-4.58s0-4.41 0-5.19l-10.63.53a24.51 24.51 0 0 1 .2 4.87 7.36 7.36 0 0 1-1.69 4.1z"/><path class="cls-14" d="M228.91 66.23c-4-8.78-7.91-11.3-12.19-12.72a13.52 13.52 0 0 0-9.92.63l-2.35-.47a1.77 1.77 0 0 1 1-.6l-2.14.28h-2.6a77.53 77.53 0 0 0-8.64-.08 12.28 12.28 0 0 0-5.51 1.82 18.5 18.5 0 0 0-6.4 7.45c-1.7 4-7.4 22.51-7.91 26.9s-.9 6.78 2.36 9.76c1.79 1.64 4.9-.25 5.93-1.1 1.52-1.26 1.88-2.26 2.38-5.16s4-16.75 4-16.75-2 14.57-4.84 22.86c-3.4 10-8.08 22.77-6.79 27.16a16.38 16.38 0 0 0 3.23 6.4s-.45-1.21-.31-5.46c.14-4.64 7.66-13.09 22.06-16.08 14.92-3.1 29.89 3.15 29.39 1.45C225.46 98 222.44 75 222.44 75s5.94 20.69 7.41 22.07 7.07 3.36 7.82 2.11 1.51-3.39.75-8-5.49-16.18-9.51-24.95z"/><path class="cls-6" d="M179 133.31l-.55-.57a16.37 16.37 0 0 1-3.27-6.47c-1.19-4 2.55-14.93 5.85-24.53.32-.93.64-1.84.94-2.74 1.95-5.69 3.52-14.45 4.3-19.29C185.18 84 183.46 91 183.12 93c-.51 2.93-.89 4-2.44 5.26-1.08.88-4.28 2.81-6.15 1.09-3.22-2.94-2.93-5.39-2.46-9.46l.05-.44c.49-4.31 6.13-22.74 7.92-27a18.06 18.06 0 0 1 6.45-7.45 12.59 12.59 0 0 1 5.58-1.85 51.15 51.15 0 0 1 6.79 0l1.88.07h2.59l2.13-.28.05.33a1.67 1.67 0 0 0-.68.34l2 .39a13.94 13.94 0 0 1 10-.61c4.55 1.51 8.38 4.27 12.29 12.81s8.75 20.2 9.53 25-.07 7-.78 8.15a1.1 1.1 0 0 1-.85.45c-1.79.25-6-1.34-7.23-2.52s-5.21-14.48-6.8-19.91c.89 6.2 3.53 23.49 6.93 35.16a.35.35 0 0 1-.06.35c-.32.35-1.48.12-4.31-.46-5.34-1.11-15.29-3.17-25.15-1.13-14.07 2.92-21.77 11.13-21.92 15.93-.14 4.14.29 5.38.3 5.39zm7.81-57.15l.33.06c0 .15-2 14.68-4.85 22.89-.3.9-.62 1.81-.94 2.74-3.28 9.55-7 20.37-5.85 24.32a18.13 18.13 0 0 0 2.76 5.8 26.11 26.11 0 0 1-.17-4.82c.15-4.91 7.95-13.28 22.19-16.24 9.93-2.06 19.92 0 25.29 1.13 1.95.4 3.8.78 4 .56-4.21-14.42-7.25-37.32-7.28-37.55l.33-.07c2.05 7.14 6.23 20.93 7.37 22s5.27 2.67 6.95 2.44a.81.81 0 0 0 .6-.3c.68-1.13 1.5-3.19.73-7.91-.72-4.46-5.29-15.72-9.5-24.91-4.29-9.38-8.49-11.44-12.08-12.63a13.51 13.51 0 0 0-9.79.62h-.06l-2.69-.54.19-.22.19-.2-1.19.16h-2.61l-1.85-.07a52.16 52.16 0 0 0-6.73 0 12.29 12.29 0 0 0-5.43 1.8 17.71 17.71 0 0 0-6.34 7.38c-1.78 4.19-7.41 22.56-7.9 26.85v.44c-.47 4.1-.73 6.35 2.36 9.17 1.69 1.56 4.69-.27 5.7-1.1 1.48-1.23 1.83-2.18 2.33-5.06s3.89-16.6 3.93-16.74z"/><path d="M208.68 52.33a14.1 14.1 0 0 1-5.53 1h-.08a15 15 0 0 1-5.75-1c-1.59-.76-4.69.83-6.13 1.09l-.53.1a7.72 7.72 0 0 0 2.9 4.87 14 14 0 0 0 6.4 2.23s.44-1.54.94-3.93a5.36 5.36 0 0 1 2.21-3.31 5.15 5.15 0 0 1 2 3.23c.51 2.38.9 4 .9 4a15.7 15.7 0 0 0 6.09-2.52 7.73 7.73 0 0 0 2.95-4.71 2.73 2.73 0 0 1-.94-.18c-1.34-.54-3.93-1.58-5.43-.87z" fill="#939598" opacity=".28"/><path class="cls-17" d="M208.12 49v.41c.92-.12 2.6 1.24.56 2.21a29 29 0 0 1-5.52 1.77s1.6.27 2.26 3c.57 2.37.84 3.53.84 3.53a12.91 12.91 0 0 0 5.89-2.57 7.06 7.06 0 0 0 2.53-4.08 48.83 48.83 0 0 1-4.7-3.72 3.37 3.37 0 0 0-1.86-.55zm-10.81 2.58c-1.92-1.19-.76-2.3.16-2.18a2.1 2.1 0 0 0 0-.3 5 5 0 0 0-1.68.38 602.19 602.19 0 0 1-4.62 3.85 7.66 7.66 0 0 0 2.38 4.3 12.51 12.51 0 0 0 6.17 2.26s.44-1.35.95-3.73a3.47 3.47 0 0 1 2.33-2.81 10.57 10.57 0 0 1-5.69-1.77z"/><path class="cls-6" d="M206.13 60.08v-.15l-.85-3.53c-.62-2.59-2.06-2.87-2.12-2.88l-.86-.16.85-.18a29 29 0 0 0 5.49-1.75c.46-.23 1-.59.84-1.09a1.38 1.38 0 0 0-1.31-.8h-.19v-.77h.16a3.56 3.56 0 0 1 2 .61 47.18 47.18 0 0 0 4.68 3.7l.08.06v.1a7.2 7.2 0 0 1-2.59 4.19 13 13 0 0 1-6 2.61zm-2.41-6.69a4.28 4.28 0 0 1 1.86 2.93c.45 1.87.72 3 .81 3.38a12.8 12.8 0 0 0 5.61-2.51 7.2 7.2 0 0 0 2.46-3.87 46.13 46.13 0 0 1-4.65-3.68 2.73 2.73 0 0 0-1.56-.5v.06a1.74 1.74 0 0 1 1.5 1c.09.32.09 1-1 1.48a26.33 26.33 0 0 1-5.03 1.71z"/><path class="cls-6" d="M199.84 60.07h-.13a12.61 12.61 0 0 1-6.27-2.29 7.83 7.83 0 0 1-2.44-4.43v-.09l.07-.07s3.41-2.8 4.62-3.84a4.47 4.47 0 0 1 1.78-.41h.17v.18a2.13 2.13 0 0 1 0 .31v.19h-.19a1 1 0 0 0-1 .51c-.14.41.2.9.93 1.36a10.46 10.46 0 0 0 5.62 1.69v.33a3.29 3.29 0 0 0-2.24 2.68c-.5 2.37-.94 3.74-1 3.76zm-8.48-6.68a7.43 7.43 0 0 0 2.29 4.11 12.23 12.23 0 0 0 5.95 2.21c.12-.39.49-1.65.9-3.59a3.81 3.81 0 0 1 1.77-2.62 11.59 11.59 0 0 1-5.05-1.78C196 51 196 50.3 196.15 50a1.13 1.13 0 0 1 .56-.6 2 2 0 0 0-.81.24c-1.11.92-4.03 3.36-4.54 3.75z"/><path class="cls-14" d="M214.31 72.84l-13.61 4.64-5.6 11-11.27 6.26-4.36 10.55s14.46-8.92 15-9.55c4.68.38 14.45-.5 15.34-1s-.07-13.06.47-13.81 1.74 0 1.74 0 .39 4.25 3.05 4.26 11 11.91 11 11.91l-2-11.27z"/><path class="cls-19" d="M217.06 81c-.35 0-3.34-.47-3.19.33s.43 1.17 1 1.29a4.53 4.53 0 0 0 2.28-.07c.56-.34.37-1.55-.09-1.55z"/><path class="cls-6" d="M216.16 82.93a7.5 7.5 0 0 1-1.27-.11c-.68-.13-1-.54-1.18-1.42a.39.39 0 0 1 .1-.37c.35-.39 1.55-.31 2.74-.2h.49a.58.58 0 0 1 .55.45 1.3 1.3 0 0 1-.29 1.41 2.28 2.28 0 0 1-1.14.24zM215 81.08a1.6 1.6 0 0 0-1 .18.07.07 0 0 0 0 .08c.14.74.38 1 .91 1.15a4.58 4.58 0 0 0 2.15 0 1 1 0 0 0 .17-1c0-.12-.12-.24-.2-.23h-.55c-.32-.12-.92-.18-1.48-.18z"/><path class="cls-11" d="M216.93 71c-1.4-.31-7.4 2.53-8.34 2.94s-.53 2.46.75 2.07c1.9-.58 4.23-1.41 4.23-1.41s-1.74 1-1.31 2 1.06 1 1.56.86c-1.38.8-.72 2.78.22 2.68-.47.53-.37 1.87.19 2.1.17-.51 1.7-.79 2.54-.51a5.22 5.22 0 0 1 2.48 1.64l2.36 2.42 1.94-4.21a20 20 0 0 1-2.32-3.79c-1.58-3.35-2.9-6.5-4.3-6.79z"/><path class="cls-14" d="M223.11 79.78s-3.39 4.39-3.64 5.39a130.05 130.05 0 0 0 8.32 12.68c.71 1 6.51 5.13 10.26 2.14 1.57-1.26 1-6 .58-7.27-1.15-3.58-15.52-12.94-15.52-12.94z"/><path class="cls-6" d="M219.76 84.41l.05-.34a.12.12 0 0 0-.08 0 .1.1 0 0 0 0 .08s0-.16-.53-.67a5.08 5.08 0 0 0-2.41-1.59c-.81-.28-2.2 0-2.33.39v.17l-.17-.07a1 1 0 0 1-.54-.77 2.15 2.15 0 0 1 .12-1.34 1.24 1.24 0 0 1-.79-.88 1.77 1.77 0 0 1 .31-1.71c-.41 0-.85-.26-1.17-1a1.51 1.51 0 0 1 .55-1.6c-.85.29-2.14.73-3.26 1.07a1.08 1.08 0 0 1-1.39-.73 1.3 1.3 0 0 1 .52-1.66l.49-.22c2.86-1.29 6.79-3 8-2.72 1.33.3 2.54 2.89 3.94 5.9l.47 1c1 2.05 1.48 2.27 1.48 2.27l-.08.33c-.1 0-.67-.25-1.7-2.46-.17-.34-.32-.68-.48-1-1.3-2.8-2.53-5.45-3.71-5.71s-6.12 2-7.74 2.7l-.5.22c-.41.18-.49.78-.33 1.23a.77.77 0 0 0 1 .53c1.87-.57 4.2-1.41 4.23-1.41l.14.3s-1.61 1-1.25 1.83.88.9 1.37.76l1.28-.35-1.15.66a1.4 1.4 0 0 0-.63 1.69c.12.37.39.72.75.68h.43l-.29.32a1.62 1.62 0 0 0-.21 1.3.9.9 0 0 0 .22.45 3.12 3.12 0 0 1 2.65-.43 5.39 5.39 0 0 1 2.54 1.68c.61.63.68.85.6 1a.23.23 0 0 1-.4.1z"/><path class="cls-19" d="M194.35 77.61c-.64.8-.06 2.16.15 4.18a8.14 8.14 0 0 1-.26 3.47l1.67-.54s.09-5.94-.47-6.76-1.09-.35-1.09-.35z"/><path class="cls-6" d="M194 85.53l.12-.33a8 8 0 0 0 .25-3.39c-.06-.6-.16-1.15-.25-1.63-.2-1.2-.36-2.06.14-2.68a.77.77 0 0 1 .57-.17 1.15 1.15 0 0 1 .77.56c.58.83.51 6.24.5 6.85v.12zm.51-7.8c-.38.5-.24 1.29-.05 2.39.08.49.18 1 .25 1.65a9.53 9.53 0 0 1-.21 3.23l1.24-.4c0-2.37-.06-6-.44-6.54a.82.82 0 0 0-.53-.41.45.45 0 0 0-.3.08z"/><path class="cls-20" d="M208.18 70.69h-11.79a1.14 1.14 0 0 0-1.16 1.16l1.45 19.86a1.14 1.14 0 0 0 1.16 1.11h9.38a1.15 1.15 0 0 0 1.16-1.16l1-19.86a1.14 1.14 0 0 0-1.2-1.11z"/><path class="cls-20" d="M195.59 71a3.22 3.22 0 0 0-.49.8L208 92.72a3.91 3.91 0 0 0 .35-.72c0-.52.66-20.81.66-20.81s-10.86-.28-13.42-.19z"/><path d="M207.92 71.19h-11.8a1.15 1.15 0 0 0-1.12 1.17l1.45 19.85a1.15 1.15 0 0 0 1.16 1.11H207a1.14 1.14 0 0 0 1.16-1.16l1-19.86a1.16 1.16 0 0 0-1.24-1.11z" fill="#424143"/><path d="M197.39 72a.91.91 0 1 0 1.13.89 1 1 0 0 0-1.13-.89zm0 1.4c-.42 0-.77-.23-.77-.51s.35-.52.77-.52.77.23.77.52-.35.46-.77.46z" fill="#595a5c"/><path class="cls-14" d="M179.47 87.65c-2.59 1-6.31 3.18-7.25 5.17-1.09 2.3.14 6.46 1.82 7.11 2.91 1.13 6 .22 9.42-1.61 2.6-1.4 12.25-6.36 12.25-6.36l-1.2-6.79s-8.25-.23-15.04 2.48z"/><path class="cls-6" d="M234.88 101.23a8 8 0 0 1-1-.07 11.81 11.81 0 0 1-6.22-3.16l-.49-.67a130.13 130.13 0 0 1-7.84-12v-.13c.25-1 3.53-5.27 3.67-5.45l.09-.12.13.08c.59.39 14.44 9.43 15.59 13 .41 1.28 1 6.13-.64 7.45a5.08 5.08 0 0 1-3.29 1.07zm-15.22-16.08a130.59 130.59 0 0 0 7.78 11.93l.49.67a11.41 11.41 0 0 0 6 3.07 5 5 0 0 0 4-1c1.46-1.17 1-5.73.53-7.09C237.41 89.47 224.59 81 223.15 80a37.86 37.86 0 0 0-3.49 5.15zm-42.92 15.45a7.36 7.36 0 0 1-2.76-.52 3.72 3.72 0 0 1-1.76-2.17 7 7 0 0 1-.15-5.16c1-2.12 4.93-4.31 7.33-5.26 6.75-2.69 15-2.49 15.12-2.49h.14l1.24 7-.11.06c-.1 0-9.68 5-12.25 6.36a14.64 14.64 0 0 1-6.8 2.18zm2.79-12.8c-2.35.94-6.2 3.07-7.15 5.09a6.67 6.67 0 0 0 .15 4.89 3.45 3.45 0 0 0 1.57 2c2.55 1 5.41.49 9.28-1.6 2.42-1.31 11.06-5.75 12.14-6.31l-1.15-6.52c-1.1 0-8.63 0-14.84 2.46z"/><path class="cls-11" d="M205.1 87.06c-.22-.91-3.93.21-6.56.7 2.15-.66 6.26-1.7 6-2.78s-4.73-.15-6.74.19c1.7-.47 6.05-1.54 5.87-2.46-.1-.5-1-.86-2.2-.71-1.65.21-5.46.71-6.57 1.38 0 0-1 .67-1.18 3.6s1 5.77 1.78 6.27 8.61-1.83 9.25-2.83a.82.82 0 0 0 .09-.9c-.32-.67-3.9.27-5.78.42 1.75-.63 6.39-1.43 6.04-2.88z"/><path class="cls-6" d="M195.93 93.49a1 1 0 0 1-.5-.09c-1-.59-2-3.59-1.86-6.43s1.21-3.7 1.26-3.73c.81-.49 3-1 6.64-1.41 1.25-.15 2.25.2 2.38.84s-.92 1.16-2.89 1.78c2.06-.3 3.58-.32 3.76.49s-.91 1.3-2.62 1.9c1.88-.38 3-.45 3.17.18.27 1.13-1.85 1.85-3.84 2.41 2.06-.34 3.33-.51 3.58 0a1 1 0 0 1-.09 1.06c-.6.97-7 3-8.99 3zM202 82.14h-.53c-4.42.55-6 1-6.5 1.36 0 0-1 .68-1.1 3.46s.94 5.65 1.7 6.12 8.45-1.88 9-2.78a.69.69 0 0 0 .08-.74c-.17-.34-2.12 0-3.42.21-.82.13-1.58.26-2.2.31l-1.25.1 1.18-.43c.42-.15 1-.31 1.63-.49 1.8-.49 4.52-1.24 4.29-2.19-.13-.53-2.59 0-4.39.41-.67.15-1.36.3-2 .42l-.08-.33.92-.27c1.81-.54 5.16-1.52 5-2.31s-3.66-.21-5.52.13l-1 .19-.07-.33.52-.14c1.33-.36 5.37-1.44 5.23-2.13-.03-.29-.6-.57-1.49-.57z"/><path class="cls-8" d="M207.19 150.61c-.54-.05-16.38.58-20.32 3.11-3.72 2.39-3.6 3.56-2.35 4.44s7.91 2.57 22.12 3.57 19.27 1.25 19.73-.83-10-9.41-19.18-10.29z"/><path class="cls-23" d="M205.34 104.35c-2.49 0-7.66-.14-12.21 2.07-4.38 2.14-10.67 4.85-14.42 14.84-2.65 7.06-.15 11.36-.15 11.36 3.48 4.11 9 3.64 12.1 2.57 1.6-.54 16.96-30.84 14.68-30.84z"/><path class="cls-6" d="M186.23 136.14a10.13 10.13 0 0 1-7.8-3.41c0-.07-2.53-4.47.12-11.53 3.63-9.66 9.62-12.56 14-14.68l.52-.25c4.36-2.13 9.27-2.1 11.9-2.09h.38c.1 0 .33 0 .39.39.25 1.54-3.31 9.42-6.72 16.29-2.82 5.65-7.34 14.17-8.29 14.49a14 14 0 0 1-4.5.79zm18.1-31.63c-2.71 0-7.16.13-11.12 2.06l-.52.26c-4.32 2.09-10.24 5-13.82 14.49-2.59 6.9-.19 11.17-.16 11.21.7.83 4.66 5 11.9 2.5.56-.19 3.81-5.72 8.09-14.32s6.89-14.88 6.69-16.09v-.1h-1z"/><path class="cls-11" d="M188.78 180.55c-.16 2.13-2.5 5.59-3.09 9s.84 4.15 4.32 4.3 4.38-3.18 4.4-4.94-.94-4.27.07-8.4 9.34-32.68 9.34-32.68l-12.94-1.37s-1.94 31.96-2.1 34.09z"/><path class="cls-24" d="M188.94 194.07a15.34 15.34 0 0 1-4.91-1.74c-.86 2.5 0 5.34 1 6s3.83 1 6.27.29 2.94-2.67 3.15-4.91c-1.23-.15-3.74.61-5.51.36z"/><path class="cls-25" d="M193.35 190.88c-.78 1.69-5.44 2.15-6.69.53-.68-.87 1.38-8.35 1.38-8.35-.1.22-3.18 6.77-3.89 8.87-.86 2.5 0 5.16.92 5.86 1.33 1 3.83 1 6.27.29s2.49-2.24 2.92-3.3c.85-2.14-.25-10.79-.25-10.79s.12 5.21-.66 6.89z"/><path class="cls-11" d="M224.46 148.5l-13.46-.69c-.15.51-1.58 31.4-2.38 33.67s-2.43 7.82-2.28 9.45 7.19 5.92 8.82 3.89c.4-.5-1.22-12.66-1-13.67s10.3-32.65 10.3-32.65zm-35.68 32.05c-.16 2.13-2.5 5.59-3.09 9s.84 4.15 4.32 4.3 4.38-3.18 4.4-4.94-.94-4.27.07-8.4 9.34-32.68 9.34-32.68l-12.94-1.37s-1.94 31.96-2.1 34.09z"/><path class="cls-11" d="M224.46 148.5l-13.46-.69c-.15.51-1.58 31.4-2.38 33.67s-2.43 7.82-2.28 9.45 7.19 5.92 8.82 3.89c.4-.5-1.22-12.66-1-13.67s10.3-32.65 10.3-32.65z"/><path class="cls-6" d="M190.24 194H190c-2.24-.1-3.41-.46-4.05-1.26a4 4 0 0 1-.43-3.24 23.86 23.86 0 0 1 1.79-5.16 13.39 13.39 0 0 0 1.3-3.79c.16-2.11 2.08-33.8 2.1-34.12v-.17l13.31 1.4-.05.2c-.09.28-8.34 28.58-9.33 32.67a16.39 16.39 0 0 0-.23 6.63 13.21 13.21 0 0 1 .16 1.74A5.87 5.87 0 0 1 193 193a3.88 3.88 0 0 1-2.76 1zm.8-47.38c-.16 2.57-1.94 31.92-2.09 33.94a13.86 13.86 0 0 1-1.33 3.91 23.49 23.49 0 0 0-1.76 5.08 3.64 3.64 0 0 0 .36 3c.57.71 1.67 1 3.8 1.13a3.52 3.52 0 0 0 2.74-.94 5.6 5.6 0 0 0 1.48-3.83 14.24 14.24 0 0 0-.15-1.68 16.84 16.84 0 0 1 .23-6.76c1-3.91 8.54-30 9.28-32.49zm22.74 48.9a6 6 0 0 1-1.59-.26c-2.64-.8-5.91-3.14-6-4.32-.16-1.73 1.55-7.43 2.29-9.51.56-1.59 1.43-17.39 2-26.82.27-5 .37-6.69.41-6.84v-.13l13.81.71-.06.21c-.1.31-10 31.64-10.27 32.63a57.8 57.8 0 0 0 .48 6.35c.54 5.3.68 7.11.46 7.39a1.85 1.85 0 0 1-1.53.59zM211.14 148c0 .63-.2 3.32-.39 6.63-.52 9.46-1.4 25.29-2 26.92-.87 2.45-2.42 7.82-2.27 9.37.09 1 3.15 3.23 5.78 4 .94.28 2.18.48 2.74-.22a62.82 62.82 0 0 0-.53-7.14 48.28 48.28 0 0 1-.48-6.46c.24-1 9.26-29.47 10.21-32.45z"/><g class="cls-26"><path class="cls-8" d="M210.33 159.28c1.74 1.13 7.06 1.9 10.25 1.47 1.38-4.34 4.35-12.94 4.35-12.94l-14-.9c.01.17-.35 7.81-.6 12.37z"/></g><g class="cls-26"><path class="cls-8" d="M190.17 158.09a34.49 34.49 0 0 0 10.47.64c1.26-4.34 3.35-12.16 3.35-12.16l-12.93-1.37s-.62 8.5-.89 12.89z"/></g><path class="cls-24" d="M211.32 193.68a49.4 49.4 0 0 1-6.16-.66 7.21 7.21 0 0 0 1.28 5.37c.59.81 2.4 1.56 4.7 1.32s4.42-1.87 4.38-4.25c-1.45-1.22-2.03-1.91-4.2-1.78z"/><path class="cls-25" d="M214.34 192.14c-.64 1.19-6 1.47-7-.6-.47-1 .65-6.93.84-8.78 0 0-2.53 8.18-3 10.06s.47 3.78 1.23 5.07 2.76 1.69 4.69 1.48c2.13-.24 4-1.7 4.32-3.17.5-2.18-1.1-12-1.1-12s.68 6.8.02 7.94z"/><path class="cls-27" d="M210.84 102.86c-13.89.37-16.26.34-20 9.88-5.92 15.32-7.94 41.59-7.06 44.85 2-1.25 4.55-1.28 21.74-.73 18.8.61 20.8 4 20.8 4s6.7-28.28 3.52-47.31c-1.2-7.41-2.35-11.13-19-10.69z"/><path class="cls-6" d="M226.44 161.35l-.21-.36s-2.31-3.37-20.66-4c-16.78-.54-19.62-.54-21.65.71l-.19.12-.06-.22c-.95-3.52 1.23-29.87 7.06-45 3.7-9.55 6.13-9.61 19.67-10h.44c16.59-.44 17.94 3.22 19.22 10.87 3.14 18.85-3.45 47.1-3.52 47.38zm-35.16-5c3.1 0 7.58.13 14.3.35 15.81.51 19.8 3 20.7 3.85.72-3.17 6.4-29.23 3.44-46.93-1.15-6.88-1.84-11-18.87-10.58h-.44c-13.35.36-15.75.42-19.36 9.76-6 15.37-7.78 40.68-7.1 44.53 1.24-.71 2.8-.99 7.33-.99z"/><g class="cls-28"><path class="cls-23" d="M223.06 103.83c.81 7 2.24 21.3.15 34.42-2.19 13.71-1.56 15.64-13.49 17-3.45.39-7.24.86-11.06 1.44 2 0 4.28.13 6.91.21 18.8.61 20.8 4 20.8 4s6.7-28.28 3.52-47.31c-.82-4.92-1.61-8.21-6.83-9.76z"/></g><path class="cls-8" d="M147.28 115.27c-3.86-2.26-12.56-1.72-17.87-2.07-.57 0-19.71.45-22.1 4.32s-1.9 10.63 3.26 12.72 10 3.56 18.84 3.22 19.85-1.61 22.16-3.38-.44-12.56-4.29-14.81z"/><path d="M161.92 69.44c-3.23-7.15-5.57-13.06-9.5-16-7-5.26-16.52-7.4-16.52-7.4s-13-.35-20.21.35-14.18 5.88-17.08 7.94-5.2 6.28-7 11-8.45 30.08-8.33 32 2.41 7.89 5.31 7.41 7.49-5.8 9.54-9.55 3.36-3.74 6.14-17c-.37 3.14-2.57 14.13-2.88 24-.13 4-.5 18.11.33 19.45 1.69 2.7 19.29 7.22 26.78 7.24 8.89 0 13.36-3 17.23-4.34s6.4-7.74 7.12-12-.12-10.69 0-15.2-.85-18.13-.85-18.13 2.45 13.51 4 15.44 10.75 7.37 11.6 5.07 1-5.67 0-9.66-2.7-14.06-5.68-20.62z" fill="#14718a"/><path class="cls-17" d="M161.92 69.44c-3.23-7.15-5.57-13.06-9.5-16-7-5.26-16.52-7.4-16.52-7.4s-13-.35-20.21.35-14.18 5.88-17.08 7.94-5.2 6.28-7 11-8.45 30.08-8.33 32 2.41 7.89 5.31 7.41 7.49-5.8 9.54-9.55 3.36-3.74 6.14-17c-.37 3.14-2.57 14.13-2.88 24-.13 4-.5 18.11.33 19.45 1.69 2.7 19.29 7.22 26.78 7.24 8.89 0 13.36-3 17.23-4.34s6.4-7.74 7.12-12-.12-10.69 0-15.2-.85-18.13-.85-18.13 2.45 13.51 4 15.44 10.75 7.37 11.6 5.07 1-5.67 0-9.66-2.7-14.06-5.68-20.62z"/><path class="cls-6" d="M128.59 129h-.1c-3.51 0-9.64-1-15.61-2.62-2.36-.62-10.13-2.81-11.32-4.7-.85-1.37-.49-15.31-.35-19.55A155.87 155.87 0 0 1 103.33 83c-1.62 6.66-2.72 8.41-4 10.38-.35.55-.71 1.12-1.1 1.83-2 3.68-6.67 9.13-9.66 9.62a2.58 2.58 0 0 1-2.08-.65c-1.92-1.52-3.34-5.39-3.43-6.91-.12-1.91 6.43-27.06 8.34-32 2.17-5.56 4.6-9.27 7.11-11.1l.43-.31c3.19-2.27 9.83-7 16.74-7.66 7.12-.69 20.1-.36 20.23-.35s9.68 2.22 16.61 7.44c3.56 2.67 5.77 7.63 8.58 13.91l1 2.17c2.35 5.21 3.91 12.53 5 17.37.28 1.3.52 2.43.72 3.28.92 3.79.92 7.26 0 9.76a1 1 0 0 1-.86.64 2 2 0 0 1-.36 0c-2.72 0-9.3-4-10.67-5.69-1.15-1.41-2.71-8.66-3.52-12.74.28 4.24.77 12.06.68 15.26 0 1.67 0 3.59.14 5.62a49.52 49.52 0 0 1-.14 9.6c-.7 4.12-3.2 10.76-7.24 12.15-.87.29-1.78.69-2.75 1.1a33.12 33.12 0 0 1-14.51 3.28zm-24.5-50.93l.33.05c-.09.79-.3 2.08-.56 3.71a165.19 165.19 0 0 0-2.31 20.31c-.28 8.69-.34 18.33.3 19.36 1.58 2.52 18.76 7.14 26.64 7.16h.1a32.72 32.72 0 0 0 14.29-3.22c1-.42 1.9-.81 2.78-1.11 2.14-.74 3.71-3 4.65-4.82a25 25 0 0 0 2.36-7.07 47.91 47.91 0 0 0 .14-9.52c-.09-2-.18-4-.14-5.65.12-4.45-.87-17.91-.88-18h.34c0 .13 2.46 13.49 4 15.36 1.37 1.69 8.4 5.93 10.71 5.55a.71.71 0 0 0 .6-.42c.9-2.45.9-5.84 0-9.57-.2-.85-.44-2-.72-3.29-1-4.83-2.59-12.13-4.93-17.3l-1-2.17c-2.78-6.24-5-11.16-8.47-13.78-6.88-5.18-16.36-7.36-16.46-7.38-.12 0-13.06-.33-20.15.35-6.82.66-13.41 5.36-16.58 7.61l-.42.31c-2.51 1.77-4.85 5.44-6.95 10.91-1.83 4.75-8.44 30.09-8.32 31.9.09 1.46 1.45 5.2 3.3 6.67a2.29 2.29 0 0 0 1.81.58c2.89-.6 7.45-5.92 9.45-9.55.39-.71.75-1.29 1.1-1.84 1.46-2.36 2.74-4.39 4.99-15.14z"/><path class="cls-10" d="M152.64 87.38c0-.26-50.29.14-50.29.14s-.38 6.53-.64 9.2c1.74.32 1.73.89 2.55 2.94s10.21 2.21 22.49 2c11.5-.18 22.42-1.11 23.29-2.8a3.29 3.29 0 0 1 2.8-1.61s-.24-9.61-.2-9.87z"/><path class="cls-23" d="M149 64.88h-43.2a1.54 1.54 0 0 0-1.54 1.63L105.74 96a1.55 1.55 0 0 0 1.55 1.47h40a1.55 1.55 0 0 0 1.58-1.47l1.69-29.46a1.55 1.55 0 0 0-1.56-1.66z"/><path class="cls-6" d="M147.32 97.61h-40a1.72 1.72 0 0 1-1.75-1.61l-1.48-29.46a1.69 1.69 0 0 1 .47-1.28 1.72 1.72 0 0 1 1.24-.53H149a1.71 1.71 0 0 1 1.71 1.82L149 96a1.73 1.73 0 0 1-1.68 1.61zM105.8 65.05a1.37 1.37 0 0 0-1.37 1.45l1.48 29.5a1.38 1.38 0 0 0 1.38 1.31h40A1.38 1.38 0 0 0 148.7 96l1.69-29.46a1.37 1.37 0 0 0-1.39-1.49z"/><path class="cls-11" d="M114.55 83c-1.2.05-3.41.24-5.1.39-1.26.14-2.27.22-2.27.22l2.27-.22c2-.22 4.48-.6 4.74-1.11.42-.85.6-1.63-1.39-1.75s-5.92-.36-7.07.06-6.46 4.1-6.73 5.11a8.56 8.56 0 0 0-.24 3.7 9.31 9.31 0 0 0 1.75 4.4 2.47 2.47 0 0 0 2.86.73c.74-.32 2.88-.85 4.33-1.57s5.86-.6 6.4-1 1.09-2.29-.42-2.41-5.14-.24-5.14-.24 5.62-.07 6.47-.49 1.2-2.76-.67-2.68-6.16 0-6.16 0 5.78-.28 6.66-.4c1.67-.25 1.31-2.81-.29-2.74z"/><path class="cls-30" d="M109.45 83.38l-2.27.22s1.01-.08 2.27-.22z"/><path class="cls-11" d="M140.16 185.86h6.28a47.63 47.63 0 0 0 1.69-7.87l-8.08-1.08zm-18.47.01h6.28l.11-8.94L120 178s1.08 4.38 1.69 7.87z"/><path class="cls-6" d="M144.12 186H140l-.12-9.3 8.45 1.12v.17a49 49 0 0 1-1.7 7.9v.12h-2.44zm-3.79-.35h6a48.24 48.24 0 0 0 1.62-7.56l-7.72-1zM124 186h-2.47v-.14c-.6-3.44-1.68-7.82-1.69-7.86v-.19l8.46-1.12-.12 9.3H124zm-2.18-.34h6l.11-8.57-7.71 1c.19.91 1.07 4.58 1.61 7.61z"/><path class="cls-11" d="M148.86 80.09c-1.15-.42-5.08-.18-7.07-.06s-1.81.9-1.39 1.75c.26.51 2.8.89 4.74 1.11l2.27.22s-1-.08-2.27-.22c-1.68-.15-3.9-.34-5.1-.39-1.6-.06-2 2.5-.32 2.72.88.12 6.66.4 6.66.4s-4.29.09-6.16 0-1.51 2.26-.66 2.68 6.46.49 6.46.49-3.63.12-5.14.24-1 2-.42 2.41 4.95.3 6.4 1 4 1.44 4.71 1.76a2.43 2.43 0 0 0 2.56-.52c1-.84 1.37-2.75 1.67-4.8a8.56 8.56 0 0 0-.24-3.7c-.24-.98-5.56-4.67-6.7-5.09z"/><path class="cls-6" d="M102.43 94.88a2.46 2.46 0 0 1-2-1 9.6 9.6 0 0 1-1.78-4.49 8.91 8.91 0 0 1 .22-3.68v-.08c.28-1.15 5.73-4.84 6.82-5.24s5-.2 7.09-.07c1 .06 1.49.26 1.72.65a1.47 1.47 0 0 1-.19 1.35c0 .1-.15.3-1 .54l1.18-.07a1.53 1.53 0 0 1 1.55 1.48 1.38 1.38 0 0 1-1.2 1.58L114 86h.36a1.32 1.32 0 0 1 1.48 1 1.9 1.9 0 0 1-.73 2 9 9 0 0 1-2.29.35l.9.06a1.11 1.11 0 0 1 1.08.79 2.08 2.08 0 0 1-.57 1.93 7 7 0 0 1-2.48.39 14.39 14.39 0 0 0-4 .65 22.74 22.74 0 0 1-3.13 1.17c-.51.16-1 .3-1.21.41a2.74 2.74 0 0 1-.98.13zm5.9-14.37a9.28 9.28 0 0 0-2.54.23c-1.24.46-6.39 4.13-6.6 5a.51.51 0 0 1 0 .09 8.41 8.41 0 0 0-.19 3.54 9.07 9.07 0 0 0 1.72 4.33 2.28 2.28 0 0 0 2.65.67c.27-.11.72-.25 1.24-.42a22 22 0 0 0 3.08-1.14 13.87 13.87 0 0 1 4.07-.68 9.45 9.45 0 0 0 2.24-.33 1.75 1.75 0 0 0 .44-1.56.77.77 0 0 0-.78-.55c-1.49-.12-5.09-.24-5.12-.25v-.33c1.55 0 5.72-.14 6.39-.47a1.57 1.57 0 0 0 .55-1.63 1 1 0 0 0-1.13-.73c-1.86.08-6.13 0-6.17 0V86c.06 0 5.79-.29 6.65-.41a1 1 0 0 0 .91-1.21 1.19 1.19 0 0 0-1.2-1.17c-1.21 0-3.44.24-5.1.39-1.24.14-2.25.22-2.26.22v-.34l2.26-.22c4.13-.46 4.56-.93 4.61-1 .18-.36.34-.76.19-1s-.64-.43-1.44-.48c-1.15-.16-2.94-.27-4.47-.27zm44.09 14.05a2.54 2.54 0 0 1-.91-.17c-.25-.11-.73-.27-1.28-.45a31.39 31.39 0 0 1-3.44-1.32 14.39 14.39 0 0 0-3.95-.65 7 7 0 0 1-2.48-.39 2.08 2.08 0 0 1-.57-1.93 1.11 1.11 0 0 1 1.08-.79l.9-.06a9 9 0 0 1-2.29-.35 1.9 1.9 0 0 1-.73-2 1.32 1.32 0 0 1 1.48-1h.36l-.9-.08a1.38 1.38 0 0 1-1.2-1.58 1.52 1.52 0 0 1 1.56-1.47l1.17.06c-.82-.24-.92-.44-1-.54-.23-.47-.42-1-.18-1.35s.76-.59 1.71-.65c2.07-.13 5.92-.36 7.1.07s6.53 4.09 6.81 5.24v.08a8.75 8.75 0 0 1 .22 3.68c-.3 2-.71 4-1.73 4.91a2.74 2.74 0 0 1-1.73.74zm-12.29-8.77a1 1 0 0 0-1 .73 1.57 1.57 0 0 0 .55 1.63c.67.33 4.84.45 6.39.47V89s-3.63.13-5.12.25a.77.77 0 0 0-.78.55 1.73 1.73 0 0 0 .45 1.56 9.34 9.34 0 0 0 2.3.33 13.87 13.87 0 0 1 4.07.68 28.1 28.1 0 0 0 3.4 1.29c.58.2 1 .35 1.3.46a2.26 2.26 0 0 0 2.37-.48c.94-.82 1.34-2.75 1.62-4.71a8.41 8.41 0 0 0-.21-3.54v-.09c-.21-.87-5.36-4.54-6.6-5s-5.06-.17-7-.06c-.8 0-1.29.21-1.44.48s0 .66.19 1c0 .09.48.56 4.61 1l2.26.22v.34s-1-.08-2.27-.22c-1.65-.15-3.88-.34-5.09-.39a1.2 1.2 0 0 0-1.2 1.17 1 1 0 0 0 .91 1.21c.87.12 6.59.4 6.65.41v.33s-4.31.08-6.17 0z"/><path class="cls-30" d="M145.14 82.89c1.26.14 2.27.22 2.27.22z"/><path class="cls-11" d="M114.87 8.34S116.39 6.44 118 7s5.06 2.16 9.32 1.72 6-1.62 6-1.62 2 .17 2.23 1.18a42.53 42.53 0 0 1 0 5s.17 8.15.54 9.87.14 1.38.14 1.38h.57l-.2 5.71s-.1 5.88-2.36 7.94a29.1 29.1 0 0 1-5 3.55 12.06 12.06 0 0 1-3.11 1.49A7.08 7.08 0 0 1 121 42c-1.85-1.42-3.81-1.48-5.91-4.19S113 30.4 113 30.4l-.37-5.81h.74s1.08-4.39 1.22-6.08.28-10.17.28-10.17z"/><path class="cls-25" d="M133.76 19.74h-4.89a2.35 2.35 0 0 0-2.35 2.35v1.69a2.35 2.35 0 0 0 2.35 2.35h4.89a2.35 2.35 0 0 0 2.35-2.35v-1.69a2.35 2.35 0 0 0-2.35-2.35zm1.83 4a1.83 1.83 0 0 1-1.83 1.83h-4.89a1.83 1.83 0 0 1-1.87-1.79v-1.69a1.83 1.83 0 0 1 1.83-1.83h4.89a1.83 1.83 0 0 1 1.83 1.83zm-14.47-4.04h-5a2.4 2.4 0 0 0-2.39 2.4v1.72a2.4 2.4 0 0 0 2.39 2.4h5a2.4 2.4 0 0 0 2.39-2.4V22.1a2.4 2.4 0 0 0-2.39-2.4zm1.88 4.12a1.86 1.86 0 0 1-1.86 1.86h-5a1.86 1.86 0 0 1-1.86-1.86V22.1a1.86 1.86 0 0 1 1.86-1.86h5A1.86 1.86 0 0 1 123 22.1z"/><path class="cls-25" d="M122.93 21.79l.23.4a2.53 2.53 0 0 1 1.76-.85 2.35 2.35 0 0 1 1.75.85l.23-.39a2.62 2.62 0 0 0-2-1 2.8 2.8 0 0 0-1.97.99z"/><path class="cls-9" d="M146.94 182.89a15.2 15.2 0 0 1-3.49.23 16.72 16.72 0 0 1-3.18-.36.16.16 0 0 0-.17.1l-3.48 11.92s2.42 1.84 7.23 1.8a20.29 20.29 0 0 0 7.35-1.16l-4-12.41a.18.18 0 0 0-.26-.12z"/><path class="cls-8" d="M143.82 190.72c-2.39 0-4.56.56-5.81 1.71a5.65 5.65 0 0 0-1.63 3.76c0 1.31 1.85 3.32 6.94 3.55s7.94-2.12 8-2.51a6.53 6.53 0 0 0-.81-3.72c-1.02-1.29-4.3-2.79-6.69-2.79z"/><path class="cls-9" d="M146.42 198.19a20.16 20.16 0 0 1-7.78-.67 3.57 3.57 0 0 1-2.26-1.33c-.37.43-.06 2.4-.06 2.4a12 12 0 0 0 6.92 2c5 0 8.09-1.56 8.13-2.1s-.05-2.1-.05-2.1-1.32 1.48-4.9 1.8zM128 182.76a16.72 16.72 0 0 1-3.18.36 15.2 15.2 0 0 1-3.49-.23.18.18 0 0 0-.21.12l-4 12.41a20.32 20.32 0 0 0 7.36 1.16c4.8 0 7.23-1.8 7.23-1.8l-3.49-11.92a.16.16 0 0 0-.22-.1z"/><path class="cls-8" d="M124.43 190.72c-2.39 0-5.67 1.5-6.67 2.79a6.53 6.53 0 0 0-.81 3.72c0 .39 2.89 2.74 8 2.51s6.91-2.24 6.94-3.55a5.65 5.65 0 0 0-1.63-3.76c-1.26-1.15-3.44-1.71-5.83-1.71z"/><path class="cls-9" d="M129.61 197.52a20.14 20.14 0 0 1-7.78.67c-3.57-.32-4.9-1.8-4.9-1.8s-.09 1.56-.05 2.1 3.12 2.1 8.13 2.1a12 12 0 0 0 6.92-2s.31-2-.06-2.4a3.57 3.57 0 0 1-2.26 1.33z"/><path class="cls-8" d="M154.71 109.73c-2.72-.65-11.85 1.4-13.46 6.66-2 6.35-2.82 16.43-3.31 23.68s-.33 38.06-.49 38.71a12.74 12.74 0 0 0 7.94 2.62 15.7 15.7 0 0 0 5.81-1.35s5.2-19.3 7.68-28.34c3.2-11.64 4.67-27.29 3-33-1.38-4.71-4.45-8.34-7.17-8.98zm-34.48 9.44c-1.77-5.15-10-8.45-16-6.7-3.33 1-7.14 7.14-5.57 16.81s18.42 52.12 18.42 52.12 2.61 1.58 8.38 0a18.72 18.72 0 0 0 6.66-3c-.16-.49-2.18-14.13-3.93-21.38s-6.19-32.7-7.96-37.85z"/><g class="cls-28"><path class="cls-8" d="M154.71 109.73h-.07c1.76 1.76 4.45 5.56 4.69 12.41.37 10.25-7.55 52.82-10.12 56.11-1.59 2-4 2.76-6.61 2.9a11.76 11.76 0 0 0 2.79.26 15.7 15.7 0 0 0 5.81-1.35s5.2-19.3 7.68-28.34c3.2-11.64 4.67-27.29 3-33-1.38-4.72-4.45-8.35-7.17-8.99z"/></g><g class="cls-28"><path class="cls-8" d="M120.23 119.17a7.24 7.24 0 0 0-1.26-2.24c2.17 9.43 8.31 37.11 8.31 48.26 0 11.54 0 13.85-5.31 16.86a19.91 19.91 0 0 0 3.52-.65 18.72 18.72 0 0 0 6.66-3c-.16-.49-2.18-14.13-3.93-21.38s-6.22-32.7-7.99-37.85z"/></g><path class="cls-17" d="M86.49 91.83c-2.4 1.25-3.13 2.57-3.4 4.44-.33 2.3-.14 5.79 1.63 7.72s4.54 1.27 6.92.52c4.51-1.4 11.27-9.6 11.52-9.9l-2.75-3.87-1.5-5.34c-.4.16-9.58 4.95-12.42 6.43z"/><path class="cls-6" d="M87.84 105.43a4.19 4.19 0 0 1-3.25-1.32c-1.79-2-2-5.46-1.67-7.86.27-1.84 1-3.24 3.49-4.57l1.31-.68c3.77-2 10.77-5.61 11.13-5.76l.18-.07 1.53 5.5 2.82 4-.16.18c-1.68 2-7.48 8.61-11.53 9.88a13.4 13.4 0 0 1-3.85.7zm11-19.79c-1.17.58-7.68 4-10.92 5.66l-1.35.7c-2.42 1.26-3.06 2.59-3.31 4.32-.34 2.33-.13 5.71 1.58 7.58s4.38 1.21 6.75.47c4-1.23 9.67-7.74 11.36-9.75l-2.71-3.81z"/><path class="cls-17" d="M167 90.62c-1.77-1.28-12-6.94-12.36-7 0 0-1.1 1.7-1.14 5.77 0 5-2.7 4.81-2.7 4.81s3.32 2.53 5.09 4c3.14 2.59 5.69 5 8.53 4.67s4.28-1.76 4.84-3.83c.37-1.37-.47-7.13-2.26-8.42z"/><path class="cls-6" d="M163.87 103c-2.39 0-4.59-1.83-7.11-3.93l-1-.81c-1.75-1.43-5-4-5.08-4l-.46-.35.58.05a1.82 1.82 0 0 0 1.27-.54c.79-.73 1.23-2.15 1.24-4.1 0-4.07 1.12-5.79 1.17-5.86l.06-.11h.12c.42.11 10.7 5.81 12.42 7.06s2.7 7.16 2.32 8.55c-.64 2.35-2.22 3.6-5 3.95a3.77 3.77 0 0 1-.53.09zm-12.62-8.7c.89.68 3.34 2.57 4.76 3.73l1 .81c2.66 2.22 5 4.13 7.43 3.82 2.64-.34 4.09-1.48 4.7-3.71.35-1.3-.51-7-2.2-8.19-1.7-1.24-11-6.35-12.19-6.94a12.53 12.53 0 0 0-1 5.55c0 2.09-.48 3.55-1.36 4.36a2.44 2.44 0 0 1-1.14.57z"/><g class="cls-31"><path class="cls-19" d="M132.92 8.41a2.38 2.38 0 0 0-.44-.17 8.73 8.73 0 0 0-1.68-.41 8.46 8.46 0 0 0-1.19-.11h-.67a5.71 5.71 0 0 0-.71.08c-.48.07-1 .18-1.49.26a6.65 6.65 0 0 1-.78.06h-.82C124 8 123 7.9 122 7.93a10.72 10.72 0 0 0-2.55.38 6.6 6.6 0 0 0-1.59.7c-.17.11-.3.19-.39.26l-.12.11.15-.07.4-.24a7.73 7.73 0 0 1 1.59-.62 10.05 10.05 0 0 1 2.51-.33c1 0 2 .1 3.12.17h.83a5.32 5.32 0 0 0 .81-.06c.52-.08 1-.2 1.49-.27a5.43 5.43 0 0 1 .69-.09h.65a10.32 10.32 0 0 1 1.18.09 11.3 11.3 0 0 1 1.68.34 5 5 0 0 0 .61.17z"/></g><g class="cls-31"><path class="cls-19" d="M133.55 9.57a7.82 7.82 0 0 0-1.55-.45 7.36 7.36 0 0 0-1.1-.1 9.44 9.44 0 0 0-1.27.07c-.88.1-1.84.29-2.84.45a8.39 8.39 0 0 1-1.47.14h-.69l-.63-.14a13.22 13.22 0 0 0-2.36 0 9.37 9.37 0 0 0-1.57.25 3.12 3.12 0 0 0-.41.14l-.14.07s.2-.06.57-.13a12.23 12.23 0 0 1 1.56-.19 15.5 15.5 0 0 1 2.33 0c.22 0 .45 0 .68.08h.71a8.61 8.61 0 0 0 1.5-.13c1-.17 2-.36 2.84-.47a11 11 0 0 1 1.24-.09 7.2 7.2 0 0 1 1.08.08 10.06 10.06 0 0 1 1.52.38 2.27 2.27 0 0 0 .56.16 5.38 5.38 0 0 0-.56-.12z"/></g><g class="cls-31"><path class="cls-19" d="M131.3 10.38c-.36-.06-.76-.13-1.19-.16a3.85 3.85 0 0 0-.68 0c-.24 0-.47 0-.71.08l-1.51.25a11.67 11.67 0 0 1-1.6.19 5.62 5.62 0 0 1-.82 0l-.81-.06h-1.52a19.39 19.39 0 0 0-2.58.15 10 10 0 0 0-1.71.38 3.15 3.15 0 0 0-.44.17l-.15.07h.16a4.55 4.55 0 0 1 .46-.14 13.92 13.92 0 0 1 1.69-.31 21.93 21.93 0 0 1 2.57-.11c.48 0 1 0 1.51.06l.8.05a4.68 4.68 0 0 0 .84 0 14.16 14.16 0 0 0 1.64-.19l1.49-.27.7-.09a4.85 4.85 0 0 1 .66 0 10.14 10.14 0 0 1 1.18.13c.72.11 1.31.22 1.71.3a2.82 2.82 0 0 0 .63.1 4.37 4.37 0 0 0-.61-.18c-.4-.16-1.01-.29-1.71-.42z"/></g><g class="cls-31"><path class="cls-19" d="M131.46 11.7a9.18 9.18 0 0 0-1.24-.19 10.43 10.43 0 0 0-1.85 0l-.53.06-.55.1a10.43 10.43 0 0 1-1.15.11h-2.24a12.24 12.24 0 0 0-1.85 0 7.28 7.28 0 0 0-1.23.2 1.79 1.79 0 0 0-.44.14s.64-.15 1.68-.2a16.1 16.1 0 0 1 1.83 0 20.54 20.54 0 0 0 2.26.06 11 11 0 0 0 1.17-.12l.55-.1.52-.07a12.87 12.87 0 0 1 1.82 0c.52 0 .94.08 1.23.12l.45.07a1.37 1.37 0 0 0-.43-.18z"/></g><g class="cls-31"><path class="cls-19" d="M127.94 13.35a7.46 7.46 0 0 1-1 0c-.19 0-.4 0-.61-.07l-.32-.06-.35-.05a11.44 11.44 0 0 0-2.37 0 2.05 2.05 0 0 0-.95.25s.37-.08 1-.11a14.4 14.4 0 0 1 2.33 0l.33.05.33.05a4.77 4.77 0 0 0 .63.06 5.21 5.21 0 0 0 1.07 0 2.89 2.89 0 0 0 1-.24s-.49.08-1.09.12z"/></g><path class="cls-17" d="M220.52 62.72a1.28 1.28 0 0 0 0-2.56 1.28 1.28 0 0 0 0 2.56zm-12.93 5a1.28 1.28 0 0 0 0-2.56 1.28 1.28 0 0 0 0 2.56zm12.93 2.81a1.28 1.28 0 0 0 0-2.56 1.28 1.28 0 0 0 0 2.56zm-31.59-7.2a1.28 1.28 0 0 0 0-2.56 1.28 1.28 0 0 0 0 2.56zm-1.58 7.81a1.28 1.28 0 0 0 0-2.56 1.28 1.28 0 0 0 0 2.56zm11.58-3.66a1.28 1.28 0 0 0 0-2.56 1.28 1.28 0 0 0 0 2.56zm16.84 23.05a1.28 1.28 0 0 0 0-2.56 1.28 1.28 0 0 0 0 2.56zm4.87 9.15a1.28 1.28 0 0 0 0-2.56 1.28 1.28 0 0 0 0 2.56zm-7.8.37a1.29 1.29 0 0 0 0-2.57 1.29 1.29 0 0 0 0 2.57zm-18.54 3.65a1.28 1.28 0 0 0 0-2.56 1.28 1.28 0 0 0 0 2.56zm-11.96 6.1a1.28 1.28 0 0 0 0-2.56 1.28 1.28 0 0 0 0 2.56zm-5.48-12.07a1.28 1.28 0 0 0 0-2.56 1.28 1.28 0 0 0 0 2.56zm7.44-1.95a1.29 1.29 0 0 0 0-2.57 1.29 1.29 0 0 0 0 2.57zm-3.91-4.03a1.28 1.28 0 0 0 0-2.56 1.28 1.28 0 0 0 0 2.56zm9.27-.97a1.29 1.29 0 0 0 0-2.57 1.29 1.29 0 0 0 0 2.57zm-13.29-5.25a1.28 1.28 0 0 0 0-2.56 1.28 1.28 0 0 0 0 2.56zm6.83-3.05a1.28 1.28 0 0 0 0-2.56 1.28 1.28 0 0 0 0 2.56zm-2.44-8.9a1.28 1.28 0 0 0 0-2.56 1.28 1.28 0 0 0 0 2.56zm3.05-10.37a1.28 1.28 0 0 0 0-2.56 1.28 1.28 0 0 0 0 2.56zm7.93 15a1.28 1.28 0 0 0 0-2.56 1.28 1.28 0 0 0 0 2.56zm1.95-9.63a1.29 1.29 0 0 0 0-2.57 1.29 1.29 0 0 0 0 2.57zm21.1-4.52a1.28 1.28 0 0 0 0-2.56 1.28 1.28 0 0 0 0 2.56zm-10.98 36.72a1.28 1.28 0 0 0 0-2.56 1.28 1.28 0 0 0 0 2.56zm23.42-23.91a1.28 1.28 0 0 0 0-2.56 1.28 1.28 0 0 0 0 2.56zm-.61-9.39a1.28 1.28 0 0 0 0-2.56 1.28 1.28 0 0 0 0 2.56zM233 83a1.28 1.28 0 0 0 0-2.56 1.28 1.28 0 0 0 0 2.56zm-8.57 6.68a1.28 1.28 0 0 0 0-2.56 1.28 1.28 0 0 0 0 2.56zm4.39-1.83a1.28 1.28 0 0 0 0-2.56 1.28 1.28 0 0 0 0 2.56zm7.07 6.71a1.29 1.29 0 0 0 0-2.57 1.29 1.29 0 0 0 0 2.57zm-2.8 4.75a1.28 1.28 0 0 0 0-2.56 1.28 1.28 0 0 0 0 2.56zm-3.42-5.61a1.28 1.28 0 0 0 0-2.56 1.28 1.28 0 0 0 0 2.56z"/><path class="cls-6" d="M105.4 63.47a11.89 11.89 0 0 1 3.6-3.6c.19-.12 0-.44-.19-.31a12.18 12.18 0 0 0-3.73 3.73c-.12.2.19.38.32.18zm38.79-2.87l2.3 3.22c.13.19.45 0 .31-.18l-2.29-3.23c-.13-.19-.45 0-.32.19z"/><path class="cls-11" d="M189.19 30a10.72 10.72 0 0 0 3-4.47s4.47-.69 6.3-2.59a85.79 85.79 0 0 0 5.72-7.85 11.94 11.94 0 0 1 6.22 1.35c2.69 1.63 3 5.46 3 5.46s-.65 4.32-.25 5.75a25.53 25.53 0 0 0 1.82 5.19 33.91 33.91 0 0 0-2.15 5.21c-.71 2.47-1.55 5.11-2.74 5.73-3.89 2-5.48 3.73-6.74 4a8.09 8.09 0 0 1-3-.1l-3.63-2.32a9.2 9.2 0 0 1-4.27-3.85 29.34 29.34 0 0 1-2.69-8.34 22.1 22.1 0 0 1-.59-3.17z"/><path class="cls-32" d="M189.24 30.11s1.18 9.23 4.07 12.69a11.2 11.2 0 0 0 3.38 2.58 9.47 9.47 0 0 0 4.45 2.53c2.5.47 5.43-2.13 5.43-2.13s3.6-1.34 4.79-3.46a19.59 19.59 0 0 0 1.45-4.23 15 15 0 0 1 1.33-3.48c.33-.64.68-1.3.87-1.72"/><path class="cls-32" d="M204.27 15a12.21 12.21 0 0 1 5.7 1.16 7.05 7.05 0 0 1 3.25 7.28 12.72 12.72 0 0 0 2.14 9.82 2.5 2.5 0 0 0 3.09 1.1 2.58 2.58 0 0 0 1.34-2.36 2 2 0 0 0-.08-.64l-.29-1s2.33-1 1.21-2.84a1 1 0 0 0-.86-.49 2 2 0 0 1-1.36-.57s3.08-7.52 1.27-11.07a19.89 19.89 0 0 0-6.08-7 6.19 6.19 0 0 0-4.47-1l-1.61.26s-.42-3.4-6.3-3.18a18.37 18.37 0 0 0-14.73 9.18c-2.86 5.17-3.29 8.22-3.29 8.22s-3.13.26-3 3.13c0 0-1.78 1.66-.27 3.31 0 0-1.11 3.11 2.09 3.67a8.44 8.44 0 0 0 7.28-2 10.32 10.32 0 0 0 2.87-4.45 14.86 14.86 0 0 0 5.6-2c2.33-1.56 6.15-8.46 7.53-10s2.33 1.14 2.33 1.14"/><path class="cls-32" d="M181.17 31.83s-2.4 3 .65 4.66c0 0-1.14 3.34 2.31 3.1 0 0-1.26 4.63 3.58 5.18a2.12 2.12 0 0 0 3.08.71s1.31 3.67 6.52 3.23m10.82.08a5.54 5.54 0 0 0 4.24-1s3 2.08 4.66-1.62a4 4 0 0 0 2.45-5.17s1.54-1.36.59-2.79c0 0 1.7-3.47-.84-4.36"/><path class="cls-6" d="M203.69 25.69c1.77-1.84 6-2 7 .89.09.24.47.13.38-.11-1.1-3.12-5.64-3.13-7.63-1.06-.18.18.1.46.27.28zm-3.51-.28a4.33 4.33 0 0 0-3.78-1.35c-.25 0-.26.41 0 .39a4 4 0 0 1 3.51 1.24c.17.19.44-.09.27-.28z"/><path class="cls-6" d="M207.56 25.88c-.76-1-2.24 1.6-.71 2 .61.17 1.05-.43 1.09-1s-.28-1.44-.93-1c-.21.15 0 .49.2.35s.34.48.34.58c0 .29-.19.76-.6.67s-.4-.59-.32-.86c0-.1.39-.84.59-.57s.49 0 .34-.2z"/><path class="cls-6" d="M207.11 26.15h-.13a.19.19 0 0 0-.19 0c-.29.33-.58.78-.33 1.22a.67.67 0 0 0 1 .21 1.15 1.15 0 0 0 .4-1.23.52.52 0 0 0-.86-.16.86.86 0 0 0-.16 1c.27.34.62 0 .74-.29s.22-.72-.19-.71-.51.69-.48 1 .42.25.39 0v-.53c0 .02 0 .18-.11.2 0-.23 0-.27.19-.14s.19.09.12.21-.15.29-.37.15c-.32 0-.39-.08-.2-.35 0-.12.07-.18.15-.18.24.09.34-.29.11-.38zm-9.96-.27c-.76-1-2.24 1.6-.71 2 .61.17 1.05-.43 1.08-1s-.27-1.44-.92-1c-.21.15 0 .49.2.35s.34.48.34.58c0 .29-.19.76-.6.67s-.4-.59-.32-.86c0-.1.39-.84.59-.57s.49 0 .34-.2z"/><path class="cls-6" d="M196.7 26.15h-.13a.19.19 0 0 0-.19 0c-.29.33-.58.78-.34 1.22a.68.68 0 0 0 1 .21 1.17 1.17 0 0 0 .4-1.23.52.52 0 0 0-.86-.16.86.86 0 0 0-.16 1c.27.34.62 0 .74-.29s.22-.72-.19-.71-.51.69-.48 1 .42.25.39 0v-.53c0 .02 0 .18-.11.2 0-.23 0-.27.19-.14s.19.09.12.21-.15.29-.37.15c-.32 0-.39-.08-.2-.35 0-.12.07-.18.15-.18.24.09.34-.29.11-.38z"/><path class="cls-27" d="M211.26 27.21a1.21 1.21 0 0 0 .85-.69c.11-.22-.23-.42-.34-.2a.85.85 0 0 1-.61.51.2.2 0 0 0 .1.38zm0 .42a1.52 1.52 0 0 0 .84.18c.25 0 .25-.42 0-.4a1.09 1.09 0 0 1-.64-.12c-.23-.12-.43.23-.2.34zm-18.07-.8a.85.85 0 0 1-.61-.51c-.12-.22-.46 0-.34.2a1.21 1.21 0 0 0 .85.69c.24.06.35-.32.1-.38zm-.3.46a1.09 1.09 0 0 1-.64.12c-.25 0-.25.38 0 .4a1.54 1.54 0 0 0 .84-.18c.23-.11 0-.46-.2-.34z"/><path class="cls-6" d="M193.53 26.36a4.87 4.87 0 0 1 1.24-1.24c.21-.14 0-.49-.2-.34a5 5 0 0 0-1.38 1.38c-.14.21.2.41.34.2zm9.12 2.58a9.93 9.93 0 0 0 .55 3.66c.13.4.69 1.37.6 1.77-.27 1.3-2.18 1.09-3.1.89-.25 0-.36.33-.11.38.78.17 3.36.43 3.76-.64.17-.46-.48-1.64-.62-2.06a10.31 10.31 0 0 1-.68-4c0-.25-.38-.25-.4 0zm-77.73-3.59a10 10 0 0 0 .57 3.75c.13.41.7 1.41.61 1.82-.28 1.34-2.24 1.11-3.19.91-.25 0-.36.34-.1.39.8.17 3.45.45 3.85-.65.18-.48-.49-1.69-.63-2.12a10.67 10.67 0 0 1-.7-4.1c0-.26-.39-.26-.41 0zm72.19 13.59a7.66 7.66 0 0 0 9.89 1.19c.22-.14 0-.48-.2-.34a7.29 7.29 0 0 1-9.36-1.13c-.17-.18-.45.1-.28.28z"/><path class="cls-6" d="M197.61 38.16a1.27 1.27 0 0 0-.7 1.1c0 .26.38.25.39 0a.89.89 0 0 1 .51-.76c.23-.12 0-.46-.2-.34z"/><path class="cls-27" d="M197.92 35.48c-3.82 1.18-1.49 6-1.06 8.51 0 .25.42.15.38-.1-.4-2.33-2.74-6.94.79-8 .24-.08.14-.46-.11-.38zm8.9.37a10.58 10.58 0 0 1 0 7c-.09.24.29.34.38.1a10.85 10.85 0 0 0 0-7.16c-.08-.24-.46-.14-.38.1z"/><path class="cls-11" d="M119.65 43.24L117 44.3l-2.69 2.94s3.38 6.13 7.63 8.81l3.43-3.75 2.69 3.82s6.44-5.07 7.38-9.44l-2.88-2.94-1.94-.81-8.12 1.94z"/><path class="cls-27" d="M119.78 44s1.44 1.19 5.12 1.19a10.68 10.68 0 0 0 5.44-1.13l.31-2.81s-2.75 2.06-5.18 2a18.12 18.12 0 0 1-5.82-1.69z"/><path d="M109.88 10.31a11.67 11.67 0 0 1 .74-2.71 11.17 11.17 0 0 1 6.59-6.13 28.71 28.71 0 0 1 14-.75c4 .79 7.17 3.36 8.17 7a12.52 12.52 0 0 1 .39 2.61" stroke-width=".41" fill="none" stroke="#5b595b" stroke-linecap="round" stroke-linejoin="round"/><path class="cls-27" d="M132.8 22.68A1.31 1.31 0 0 0 134 22a.2.2 0 0 0-.35-.2.93.93 0 0 1-.87.47.2.2 0 1 0 0 .4zm.25.53a1.14 1.14 0 0 0 1.52-.39c.15-.22-.2-.42-.35-.2a.74.74 0 0 1-1 .24c-.23-.12-.43.23-.2.35z"/><path class="cls-6" d="M130.9 21.74c-.9-1-2.15 1.35-1 2.15s1.95-1.21 1.25-2.05a.73.73 0 0 0-1.26.13 1.76 1.76 0 0 0 .29 1.73c1.21.89 1.58-2.15.13-1.64a1.21 1.21 0 0 0-.54 1.7.76.76 0 0 0 1.39-.21c.09-.51-.69-.72-.78-.21a1.76 1.76 0 0 1 .16-.49c-.08 0-.1 0-.09.11s0 .13.21.06v-.51.09c0 .09.06.8-.29.6-.15-.08-.09-.37-.06-.48a.82.82 0 0 1 .1-.26c.16-.1.16-.15 0-.15.36.39.93-.19.57-.57zm-11.12 0c-.9-1-2.15 1.35-1 2.15s2-1.21 1.26-2.05a.73.73 0 0 0-1.26.13 1.73 1.73 0 0 0 .22 1.73c1.2.89 1.58-2.15.12-1.64a1.22 1.22 0 0 0-.54 1.7.77.77 0 0 0 1.4-.21c.09-.51-.69-.72-.79-.21a2.81 2.81 0 0 1 .16-.49c-.07 0-.1 0-.08.11s0 .13.2.06a2.93 2.93 0 0 0 0-.51v.09c0 .09.07.8-.29.6-.14-.08-.09-.37-.06-.48a.85.85 0 0 1 .11-.26c.15-.1.15-.15 0-.15.35.39.92-.19.57-.57zM120.81 36a8.16 8.16 0 0 0 8.87.55.2.2 0 0 0-.2-.35 7.76 7.76 0 0 1-8.47-.55c-.21-.15-.41.2-.2.35z"/><path class="cls-6" d="M121.53 35.1c-1.07 0-1.17 1.06-.82 1.85.11.24.46 0 .35-.2-.22-.5-.27-1.22.47-1.25.26 0 .26-.41 0-.4z"/><path class="cls-27" d="M120.9 32.83c-3.37 1.44-.54 5.51 0 7.74.06.26.45.15.39-.11-.52-2.11-3.33-5.94-.19-7.28.24-.1 0-.45-.21-.35zm7.48-.41a4.68 4.68 0 0 1 1.68 4.69c-.32 1.19-1.11 2.15-1.45 3.36a.2.2 0 0 0 .39.1c.49-1.76 1.82-2.92 1.6-4.84a5.57 5.57 0 0 0-1.93-3.6c-.19-.17-.48.11-.29.29zm-11.45-10.03a.81.81 0 0 1-.8-.27.2.2 0 0 0-.29.28 1.27 1.27 0 0 0 1.2.39c.26-.05.15-.44-.11-.4zm-.04.75a.64.64 0 0 1-.86.11c-.21-.14-.42.21-.2.35a1 1 0 0 0 1.34-.17c.18-.2-.11-.48-.28-.29z"/><path class="cls-6" d="M110.77 23.18c0-.46-.24-1.11-.77-1.21s-.69.38-.73.79.4 3.6 1.36 2.7c.19-.18-.1-.47-.29-.29s-.59-1.34-.62-1.53a3.1 3.1 0 0 1 0-.81q-.06-.41.42-.36a.91.91 0 0 1 .27.71c0 .26.42.26.41 0zm28.67-.18a2.16 2.16 0 0 1 .25-.27c.5-.1.7 0 .61.37a2.51 2.51 0 0 1-.14.81 3.94 3.94 0 0 1-.29.77 3.72 3.72 0 0 1-.21.39c-.37.16-.53.08-.47-.23a.21.21 0 0 0-.41 0c0 .4.18.92.69.86s.91-1.11 1.05-1.58.43-1.43 0-1.82-1 0-1.36.41c-.16.2.12.48.29.29z"/><path class="cls-27" d="M119.26 32.76a3.45 3.45 0 0 0-.69 3.15.21.21 0 0 0 .4-.11 3 3 0 0 1 .58-2.75c.17-.2-.12-.49-.29-.29zm11.44 1.94a4.62 4.62 0 0 1-.07 3.41c-.1.24.29.35.39.11a5 5 0 0 0 .07-3.63c-.08-.24-.48-.14-.39.11z"/><path d="M130.65 43.8l1.38.57s1.5 1.81-1 3.43-5.69 3.44-5.69 3.44l.13 1L128 56s6-4.19 7.5-9.25l-3-2.94-1.88-1zm-10.81-.68v1s-1.25 0-1.69.56-.81 2.32 4.25 5.32l2.94 1.25.13 1-3.25 3.88s-3.57-2.19-7.94-8.94l2.62-2.94z" fill="#e2e2e2"/><path d="M130.59 44.12s1.25-.5 1.56.37.69 1.75-1.18 3.19a15.88 15.88 0 0 1-.38-3.56zm-10.75-.07a8.12 8.12 0 0 1-.44 3.69 3.28 3.28 0 0 1-1.5-2.19s0-1.37 1.94-1.5z" fill="#cccccb"/><path class="cls-36" d="M119.59 41.68a19.9 19.9 0 0 1 .24 2.16 10.85 10.85 0 0 1-.36 3.9"/><path d="M130.74 41.12s-.69 4.09.12 6.62" stroke-width=".52" fill="none" stroke="#5b595b" stroke-linecap="round" stroke-linejoin="round"/><path class="cls-36" d="M119.17 44.1a1.49 1.49 0 0 0-1.25 1.75c.25 1.5 4.09 4.58 7.5 5.33 0 0 6.09-2.67 7-5.42 0 0 .42-1.83-1.75-1.83"/><path class="cls-36" d="M119.65 43.18L117 44.24a21.43 21.43 0 0 1-2.82 2.88s4.38 7 8 9.06l3.32-4.06 2.5 4.12s6.69-5.5 7.44-9.62l-2.94-2.88-1.72-.74"/><path class="cls-2" d="M111.9 24.24a8.22 8.22 0 0 1 .5-2.5 25.59 25.59 0 0 0 1.38-7.12c.06-1.5-.56-1.07-2.25-2.5s-1.38-3.57-2.19-3.63-.34 1.19-1.34 3.19-1.5 2.75-.25 4.87a6.24 6.24 0 0 1 1 3.84s1-.9 2.15.41a5.72 5.72 0 0 1 1 3.44zm25.93 0a7.87 7.87 0 0 0-.5-2.5 26 26 0 0 1-1.33-7.12c-.06-1.5.56-1.07 2.25-2.5s1.37-3.57 2.19-3.63.31 1.19 1.37 3.19 1.5 2.75.25 4.87a6.24 6.24 0 0 0-1 3.84s-1-.9-2.15.41a5.76 5.76 0 0 0-1.08 3.44z"/><path class="cls-25" d="M113.87 22s-3.14-1.82-4.31-2.3a.59.59 0 0 0-.66.37 1.48 1.48 0 0 1 .68.13c1.07.62 4.1 2.63 4.1 2.63a.31.31 0 0 0 .13 0c.08 0 .1-.25.11-.34.08-.28.08-.42-.05-.49z"/><path class="cls-38" d="M110.05 20.5a1.39 1.39 0 0 0-1.36-.11c-.72.36-1 3.87-.49 4.55s1.2 4 3.64 2.26"/><path class="cls-25" d="M140.31 19.73c-1.15.48-4.24 2.32-4.24 2.32s-.09.22 0 .53c0 .09 0 .34.11.34a.31.31 0 0 0 .13 0s3-2 4-2.66a1.56 1.56 0 0 1 .66-.13c-.04-.2-.39-.51-.66-.4z"/><path class="cls-38" d="M139.64 20.75s.68-.86 1.4-.5 1 3.87.48 4.55-1.47 4-3.91 2.19"/><path class="cls-39" d="M139.64 20.75a2.53 2.53 0 0 0-1.76 2.25c-.34 2-.34 9-1.17 11.76s-2.66 4.88-7.15 6.89a7.91 7.91 0 0 1-4.78 1.61"/><path class="cls-39" d="M125 43.3a9.18 9.18 0 0 1-5-1.76c-4.49-2-6.32-4.16-7.15-6.88s-.83-9.75-1.17-11.76a2.79 2.79 0 0 0-1.77-2.4"/><path class="cls-6" d="M115.36 18a7.73 7.73 0 0 1 3.78-1.13c1.17-.09 2.72-.32 3.62.61.23.24.58-.12.36-.35-.94-1-2.24-.86-3.49-.79a8.92 8.92 0 0 0-4.52 1.23c-.27.17 0 .61.25.43zm12.39-.58c.38-.9 2.59-.72 3.39-.67a5.88 5.88 0 0 1 3.6 1.28c.25.21.6-.14.35-.35a6.72 6.72 0 0 0-4.5-1.44c-1.11 0-2.81-.17-3.32 1-.13.3.36.43.48.14z"/></g></g></g></svg>