<svg xmlns="http://www.w3.org/2000/svg" viewBox="0 0 137.319 118.654"><defs><clipPath id="a"><path d="M78.83 25.794l-.193.689a.201.201 0 0 0-.012.067c-.173.607-.491 1.714-.602 2.097-.015.05-.005.07.047.085l.807.228c.077.022.077.022.098-.056l.195-.682h-.003c.05-.18.276-.964.407-1.416l.006.002.194-.684a.244.244 0 0 0 .007-.04.072.072 0 0 0-.058-.084l-.877-.248a.272.272 0 0 0-.015.042" fill="none"/></clipPath><clipPath id="b"><path fill="none" d="M78.69 25.614h1.684v3.559H78.69z"/></clipPath><clipPath id="c"><path d="M78.572 25.726c.47.134.935.265 1.417.4l-.324-1.525-1.093 1.125" fill="none"/></clipPath><clipPath id="d"><path fill="none" d="M79.595 24.449h.761v1.879h-.761z"/></clipPath><clipPath id="e"><path d="M28.925 59.472c.809-.33 1.593-.645 2.394-.968l-2.15-1.456-.244 2.424" fill="none"/></clipPath></defs><g style="isolation:isolate"><path d="M40.292 112.071a5.711 5.711 0 0 1-2.83-10.674l12.595-7.169-20.796 8.221a5.71 5.71 0 0 1-5.513-9.887q2.085-1.556 4.198-3.071a36.04 36.04 0 0 1-12.482 2.739 5.71 5.71 0 0 1-3.396-10.341q3.346-2.413 6.763-4.733a5.71 5.71 0 0 1-1.725-9.847.948.948 0 0 0 .049-.04 5.71 5.71 0 0 1-4.173-9.993q.765-.669 1.537-1.334a5.712 5.712 0 0 1 1.203-9.735L45.375 33.15a5.715 5.715 0 0 1 7.819 3.751q7.864-2.85 16.027-5.024a5.71 5.71 0 0 1 5.468 9.595c7.815-2.905 15.753-5.54 23.804-7.783a5.71 5.71 0 0 1 4.033 10.634c-8.218 4.002-16.518 8.045-24.784 12.214l34.552-14.324a5.71 5.71 0 0 1 4.7 10.402c-9.315 4.564-18.732 9.179-28.086 13.976l32.137-12.705a5.71 5.71 0 0 1 4.924 10.273l-14.447 8.224q1.693-.507 3.398-1.006a5.71 5.71 0 0 1 4.858 10.173l-10.756 7.46q1.596-.328 3.202-.617a5.71 5.71 0 0 1 2.023 11.24 116.312 116.312 0 0 0-31.407 10.4 5.71 5.71 0 0 1-8.238-5.626c.413-4.53 3.509-7.606 5.992-9.524a389.976 389.976 0 0 0-37.723 16.57 5.68 5.68 0 0 1-2.58.619" fill="#f3f4f5"/><path d="M40.416 29.156S30.21 32.722 25.711 40.82s2.574-6.643 14.705-11.664m-.621.815s-10.35 10.026-11.7 22.27-.217-9.416 11.7-22.27" fill="#d8d8d7"/><path d="M40.04 29.15s-8.979.731-14.141 6.342 3.325-4.839 14.141-6.342" fill="#ffb300"/><path d="M40.802 27.918s-2.484-6.78-7.905-9.688 4.435 1.639 7.905 9.688" fill="#d8d8d7"/><path d="M40.477 27.637s-4.369-7.667-11.513-9.954 5.696.973 11.513 9.955m.581.246s-.695-5.676-4.334-9 3.109 2.155 4.334 9" fill="#ffb300"/><path d="M41.245 26.88s-1.443-10.663-8.37-16.833 5.9 3.983 8.37 16.834" fill="#d8d8d7"/><path d="M40.65 29.626a11.971 11.971 0 0 0-2.121 6.98c.277 3.677-.568-2.787 2.121-6.98" fill="#ffb300"/><path d="M40.236 28.589s-14.367-4.846-25.644.348 7.976-5.23 25.644-.348" fill="#d8d8d7"/><path d="M40.356 28.84s-6.064-2.012-10.804.2 3.349-2.22 10.804-.2m2.87.53s6.183 1.766 8.87 6.292-1.526-3.744-8.87-6.292" fill="#ffb300"/><path d="M40.417 28.986s-16.503-.156-26.745 9.212 6.775-8.267 26.745-9.212" fill="#d8d8d7"/><path d="M40.31 28.446s-8.68-5.506-16.775-4 5.947-2.072 16.775 4" fill="#ffb300"/><path d="M39.913 27.517s-9.69-9.857-22.012-10.05 9.532-1.169 22.012 10.05m1.009 2.214s-1.405 4.86-.21 14.566c0 0-.546-10.014.21-14.566m1.978-.701s9.984 1.595 15.462 8.303-3.467-5.688-15.461-8.303m-.609.075s11.96 8.037 15.453 19.85c3.492 11.81-1.451-9.307-15.453-19.85" fill="#d8d8d7"/><path d="M42.719 28.821s12.292-1.189 20.617 5.128-5.66-5.722-20.617-5.128m-.628-1.912s1.562-7.775 6.96-11.838-4.54 2.52-6.96 11.838" fill="#ffb300"/><path d="M42.612 26.677s6.117-13.57 17.75-18.547c11.634-4.975-9.41 2.54-17.75 18.547m-.87 1.357s-.283-4.364 1.98-7.382c2.263-3.016-2.03 2.064-1.98 7.382" fill="#d8d8d7"/><path d="M40.41 28.343s-3.632-3.784-8.135-4.225 3.47-.126 8.136 4.225m-10.395-6.317s-9.967-4.28-18.896-1.493 6.507-3.034 18.896 1.493m8.089-2.639s-2.02-4.208-5.701-5.831 2.967.858 5.7 5.83m2.006 1.168s-.998-5.717 1.556-10.022-2.383 3.013-1.555 10.022M53.05 32.097s6.553 2.704 9.328 8.151-1.553-4.426-9.328-8.15m-7.281-4.506s4.817-2.29 9.256-1.087-3.253-1.37-9.256 1.087" fill="#ffb300"/><path d="M23.555 34.184s-7.74 2.974-11.14 9.264 1.942-5.133 11.14-9.264m25.44-2.441s4.402 2.594 5.83 6.763-.659-3.318-5.83-6.763m-9.802-.633s-4.494 7.623-3.159 15.138c1.334 7.513-1.784-5.579 3.159-15.139m1.59-7.993a15.983 15.983 0 0 1 .32-6.22c.866-2.864-.836 2.066-.32 6.22" fill="#d8d8d7"/><path d="M41.5 27.061s-.954-8.262 3-14.359c3.954-6.099-3.61 4.246-3 14.36m.56 2.164s4.983 4.79 5.624 11 .112-4.816-5.624-11m-.46.428s2.519 4.364 2.346 8.678.493-3.204-2.346-8.678" fill="#ffb300"/><path d="M42.17 29.935s4.673 7.246 4.64 14.67.663-5.55-4.64-14.67m.136-1.378s13.284-7.31 25.302-4.19-8.776-3.738-25.302 4.19" fill="#d8d8d7"/><path d="M43.24 28.573s16.133-3.513 28.038 3.577-8.29-6.718-28.038-3.577" fill="#d8d8d7"/><path d="M43.221 27.69s7.43-7.104 15.662-7.218-6.239-.863-15.662 7.218" fill="#ffb300"/><path d="M50.48 21.688s6.63-4.852 13.166-4.08c6.536.77-4.853-1.338-13.166 4.08" fill="#ffb300"/><path d="M42.243 28.112s6.423-9.747 16.603-11.916-8.088.586-16.602 11.916" fill="#d8d8d7"/><path d="M41.25 29.834s3.645 7.857 1.805 23.036c0 0 .332-15.75-1.806-23.036m7.761 6.952a69.321 69.321 0 0 1 4.707 8.774s-.878-3.337-4.708-8.774" fill="#ffb300"/><path d="M46.44 34.105a95.857 95.857 0 0 1 6.145 12.342s-1.074-4.656-6.145-12.342M28.488 23.102a.322.322 0 1 1-.347-.295.322.322 0 0 1 .347.295m-6.282 6.152a.322.322 0 1 1-.347-.294.323.323 0 0 1 .346.294m-1.237 8.049a.322.322 0 1 1-.347-.294.322.322 0 0 1 .347.294m-5.204-3.775a.322.322 0 1 1-.347-.294.322.322 0 0 1 .347.294m5.916 12.184a.46.46 0 1 1-.496-.421.46.46 0 0 1 .497.42m36.539-3.959a.46.46 0 1 1-.498-.421.46.46 0 0 1 .497.42m9.066.537a.46.46 0 1 1-.497-.422.46.46 0 0 1 .497.422M45.297 17.446a.322.322 0 1 1-.347-.294.322.322 0 0 1 .346.294m-6.224-3.178a.322.322 0 1 1-.347-.294.323.323 0 0 1 .347.294m12.044 9.948a.322.322 0 1 1-.347-.294.323.323 0 0 1 .347.294m.28-5.994a.322.322 0 1 1-.347-.294.322.322 0 0 1 .347.294m-15.729 8.841a.17.17 0 1 1-.184-.155.17.17 0 0 1 .184.155m-3.834 5.932a.17.17 0 1 1-.184-.155.171.171 0 0 1 .184.155m5.322-5.485a.085.085 0 1 1-.092-.077.085.085 0 0 1 .092.078m-3.207 4.035a.085.085 0 0 1-.078.092.085.085 0 0 1-.014-.17.085.085 0 0 1 .092.078m3.171-1.2a.085.085 0 1 1-.092-.078.085.085 0 0 1 .092.078m-7.686-4.304a.085.085 0 0 1-.078.092.085.085 0 0 1-.014-.17.085.085 0 0 1 .092.078m3.701-2.413a.085.085 0 1 1-.092-.077.085.085 0 0 1 .092.077m3.004-3.949a.085.085 0 0 1-.078.092.084.084 0 0 1-.09-.078.085.085 0 1 1 .168-.014m-13.077 1.593a.085.085 0 0 1-.078.092.084.084 0 0 1-.09-.078.085.085 0 1 1 .168-.014m13.35 5.843a.085.085 0 0 1-.078.092.084.084 0 0 1-.091-.077.085.085 0 1 1 .169-.015m-.324 1.786a.085.085 0 1 1-.092-.078.085.085 0 0 1 .092.078m-1.983.048a.085.085 0 1 1-.092-.078.085.085 0 0 1 .092.078m3.346-.255a.085.085 0 0 1-.079.092.085.085 0 0 1-.014-.169.084.084 0 0 1 .092.077m-10.606 1.851a.085.085 0 0 1-.078.092.083.083 0 0 1-.091-.077.085.085 0 0 1 .169-.015m7.152-3.934a.142.142 0 1 1-.154-.13.141.141 0 0 1 .154.13m1.508-.845a.085.085 0 1 1-.092-.077.085.085 0 0 1 .092.077m-.551-3.247a.085.085 0 1 1-.092-.078.084.084 0 0 1 .092.077m1.15 1.269a.085.085 0 0 1-.078.092.085.085 0 0 1-.014-.17.085.085 0 0 1 .092.078m4.062 1.989a.085.085 0 1 1-.092-.077.084.084 0 0 1 .092.077m-1.088-2.563a.085.085 0 1 1-.092-.078.085.085 0 0 1 .092.078m3.399 3.864a.085.085 0 1 1-.17.014.085.085 0 0 1 .17-.014m-.265-3.894a.085.085 0 1 1-.091-.078.085.085 0 0 1 .092.078m.532-2.447a.138.138 0 1 1-.15-.127.14.14 0 0 1 .15.127m-1.359.261a.138.138 0 1 1-.15-.127.138.138 0 0 1 .15.127m-4.167.142a.138.138 0 0 1-.127.15.137.137 0 0 1-.15-.127.139.139 0 1 1 .277-.023m14.676 5.779a.139.139 0 1 1-.15-.127.139.139 0 0 1 .15.127m2.831-1.195a.138.138 0 1 1-.15-.127.137.137 0 0 1 .15.127m4.716 1.847a.138.138 0 0 1-.126.15.137.137 0 0 1-.15-.127.139.139 0 1 1 .277-.023m-2.596 1.702a.139.139 0 0 1-.276.023.139.139 0 1 1 .276-.023M42.194 22.05a.085.085 0 1 1-.092-.077.085.085 0 0 1 .092.077m1.448-2.319a.085.085 0 1 1-.17.015.085.085 0 0 1 .17-.015m-2.487 4.282a.086.086 0 0 1-.078.093.085.085 0 1 1 .078-.093m.142-1.893a.085.085 0 1 1-.092-.078.085.085 0 0 1 .092.078m-.866-2.916a.085.085 0 1 1-.091-.077.085.085 0 0 1 .091.077m-1.246-.914a.085.085 0 1 1-.092-.078.085.085 0 0 1 .092.078M35.8 17.151a.085.085 0 1 1-.092-.078.085.085 0 0 1 .092.078m2.998 3.407a.085.085 0 0 1-.078.092.083.083 0 0 1-.09-.077.085.085 0 0 1 .168-.015m6.955 4.528a.085.085 0 1 1-.092-.077.084.084 0 0 1 .092.077m1.351.374a.085.085 0 1 1-.092-.076.085.085 0 0 1 .092.077m-1.698 1.071a.085.085 0 0 1-.078.092.084.084 0 0 1-.09-.078.085.085 0 0 1 .076-.092.086.086 0 0 1 .092.078m3.452 1.826a.085.085 0 1 1-.092-.078.085.085 0 0 1 .092.078m-1.632 2.366a.085.085 0 1 1-.092-.078.085.085 0 0 1 .092.078m-3.339-.749a.084.084 0 0 1-.078.092.083.083 0 0 1-.091-.077.085.085 0 1 1 .169-.015m1.295.575a.085.085 0 1 1-.092-.077.085.085 0 0 1 .092.077m-.074 1.921a.085.085 0 1 1-.092-.077.085.085 0 0 1 .092.077m-.687-1.138a.085.085 0 0 1-.078.092.085.085 0 0 1-.014-.17.085.085 0 0 1 .092.078m-2.455-1.799a.085.085 0 1 1-.092-.077.085.085 0 0 1 .092.077m1.802 4.491a.085.085 0 1 1-.092-.078.085.085 0 0 1 .092.078m.034-1.88a.085.085 0 1 1-.092-.078.085.085 0 0 1 .092.078m-2.686-1.588a.085.085 0 1 1-.092-.077.085.085 0 0 1 .092.077m.164.572a.085.085 0 1 1-.092-.078.085.085 0 0 1 .092.078m-.824-.207a.085.085 0 0 1-.078.092.085.085 0 0 1-.014-.17.085.085 0 0 1 .092.077m-.244-1.346a.085.085 0 1 1-.092-.078.085.085 0 0 1 .092.078m-1.265.815a.085.085 0 1 1-.092-.077.085.085 0 0 1 .092.077m-1.55.776a.085.085 0 1 1-.092-.077.085.085 0 0 1 .092.077m-7.592 3.802a.085.085 0 1 1-.092-.078.085.085 0 0 1 .092.078m-.449-2.612a.085.085 0 0 1-.078.092.085.085 0 0 1-.014-.17.085.085 0 0 1 .092.078m1.061-1.06a.085.085 0 1 1-.092-.078.085.085 0 0 1 .092.078m-1.469-3.468a.085.085 0 1 1-.092-.078.085.085 0 0 1 .092.078M25.65 25.12a.085.085 0 0 1-.079.093.085.085 0 0 1-.014-.17.085.085 0 0 1 .092.078m-2.451 12.083a.085.085 0 1 1-.092-.077.086.086 0 0 1 .092.077m14.525 1.714a.085.085 0 0 1-.078.092.085.085 0 0 1-.014-.17.084.084 0 0 1 .092.078m-.697-6.44a.085.085 0 0 1-.078.092.085.085 0 0 1-.014-.169.084.084 0 0 1 .092.077m2.611-1.836a.085.085 0 1 1-.092-.077.085.085 0 0 1 .092.077m-1.305 3.469a.086.086 0 0 1-.078.092.085.085 0 0 1-.014-.17.085.085 0 0 1 .092.078m-1.714 1.917a.085.085 0 1 1-.092-.078.085.085 0 0 1 .092.078m4.906-3.757a.085.085 0 1 1-.092-.078.085.085 0 0 1 .092.078m-.412.643a.085.085 0 0 1-.078.092.085.085 0 0 1-.014-.17.085.085 0 0 1 .092.078m.602 2.533a.085.085 0 1 1-.092-.078.085.085 0 0 1 .092.078m3.764.077a.085.085 0 0 1-.078.092.083.083 0 0 1-.091-.077.085.085 0 1 1 .169-.015m4.277 5.971a.085.085 0 0 1-.078.092.083.083 0 0 1-.09-.077.085.085 0 1 1 .168-.015m1.235-6.046a.085.085 0 0 1-.079.092.084.084 0 0 1-.09-.078.085.085 0 1 1 .168-.014m3.295-4.21a.085.085 0 0 1-.078.092.084.084 0 0 1-.091-.078.085.085 0 1 1 .169-.014m8.026-4.309a.085.085 0 0 1-.078.092.084.084 0 0 1-.091-.078.085.085 0 1 1 .169-.014m-2.184-5.56a.085.085 0 0 1-.078.093.084.084 0 0 1-.09-.078.085.085 0 1 1 .168-.014M57.593 39.48a.085.085 0 0 1-.078.091.084.084 0 0 1-.091-.078.085.085 0 1 1 .169-.014m-15.671 4.144a.084.084 0 0 1-.078.09.083.083 0 0 1-.091-.076.085.085 0 1 1 .169-.014m-8.42-1.464a.085.085 0 0 1-.078.092.083.083 0 0 1-.09-.077.085.085 0 1 1 .168-.015m25.685-9.245a.085.085 0 1 1-.092-.078.085.085 0 0 1 .092.078m-3.387.163a.085.085 0 1 1-.092-.078.085.085 0 0 1 .092.078m-8.741-.854a.085.085 0 0 1-.078.092.085.085 0 1 1 .078-.092m-1.709-3.702a.085.085 0 1 1-.093-.078.085.085 0 0 1 .092.078m-.734.572a.085.085 0 0 1-.078.092.085.085 0 0 1-.014-.17.085.085 0 0 1 .092.077m4.657 1.333a.085.085 0 1 1-.092-.078.085.085 0 0 1 .092.078m-6.222-2.468a.085.085 0 0 1-.17.014.085.085 0 0 1 .17-.014m1.453.091a.085.085 0 1 1-.092-.077.085.085 0 0 1 .092.077m.751-.398a.085.085 0 0 1-.078.092.084.084 0 0 1-.092-.078.085.085 0 1 1 .17-.014m2.324-.193a.207.207 0 1 1-.223-.19.207.207 0 0 1 .223.19m-1.205 5.844a.207.207 0 1 1-.223-.187.207.207 0 0 1 .223.188m-4.203 4.161a.207.207 0 1 1-.223-.188.208.208 0 0 1 .224.188m-.819-3.696a.206.206 0 1 1-.223-.189.207.207 0 0 1 .223.19m-5.507.285a.207.207 0 1 1-.223-.188.206.206 0 0 1 .223.187m-6.163 4.22a.207.207 0 1 1-.223-.188.207.207 0 0 1 .223.188m10.488-6.097a.207.207 0 1 1-.224-.187.207.207 0 0 1 .223.188m8.364 6.977a.207.207 0 1 1-.223-.189.207.207 0 0 1 .223.19m4.407-10.079a.207.207 0 1 1-.223-.188.206.206 0 0 1 .223.188m-1.65.977a.207.207 0 1 1-.222-.188.206.206 0 0 1 .223.188m-1.584 3.995a.279.279 0 1 1-.301-.254.279.279 0 0 1 .3.254m14.442 2.35a.279.279 0 1 1-.3-.255.278.278 0 0 1 .3.255m4.772-14.175a.279.279 0 1 1-.301-.255.278.278 0 0 1 .301.255M58.775 12.159a.279.279 0 1 1-.301-.254.279.279 0 0 1 .3.254m-2.667 3.274a.279.279 0 1 1-.301-.254.278.278 0 0 1 .3.254m-7.449-5.045a.278.278 0 1 1-.3-.254.278.278 0 0 1 .3.254m-24.488 3.898a.279.279 0 1 1-.301-.255.278.278 0 0 1 .3.255m-7.098 8.328a.279.279 0 1 1-.301-.255.279.279 0 0 1 .301.255m36.484 11.748a.206.206 0 0 1-.19.223.208.208 0 0 1-.222-.189.207.207 0 0 1 .412-.034m3.818-1.606a.207.207 0 1 1-.223-.188.206.206 0 0 1 .223.188m4.325-1.331a.207.207 0 1 1-.223-.188.206.206 0 0 1 .223.188m-17.331-5.077a.085.085 0 1 1-.17.015.086.086 0 0 1 .078-.092.085.085 0 0 1 .092.077m-1.048.115a.085.085 0 0 1-.078.092.083.083 0 0 1-.091-.077.085.085 0 0 1 .169-.015m.993-1.487a.128.128 0 1 1-.138-.116.128.128 0 0 1 .138.116m4.302-1.869a.22.22 0 1 1-.238-.202.22.22 0 0 1 .238.202m-2.796.052a.169.169 0 1 1-.183-.155.17.17 0 0 1 .183.155m2.478-3.279a.208.208 0 1 1-.225-.19.208.208 0 0 1 .225.19m-22.19 1.564a.208.208 0 1 1-.225-.19.21.21 0 0 1 .225.19m4.487 20.461a.208.208 0 1 1-.415.034.208.208 0 0 1 .415-.034m-3.234-9.385a.208.208 0 1 1-.415.034.208.208 0 0 1 .415-.034m33.33-7.182a.208.208 0 1 1-.225-.19.208.208 0 0 1 .225.19m-6.258-1.67a.208.208 0 1 1-.416.034.208.208 0 0 1 .415-.034m-6.178 1.718a.17.17 0 0 1-.155.184.17.17 0 0 1-.028-.338.17.17 0 0 1 .183.154m6.624-4.972a.17.17 0 1 1-.183-.154.169.169 0 0 1 .183.154m-17.178 7.108a.085.085 0 0 1-.078.092.084.084 0 0 1-.09-.078.085.085 0 1 1 .168-.014m-5.236-1.502a.24.24 0 1 1-.258-.22.24.24 0 0 1 .258.22m-9.305-.144a.24.24 0 1 1-.258-.22.24.24 0 0 1 .258.22m5.118 2.27a.24.24 0 1 1-.259-.219.24.24 0 0 1 .26.22m-3.956 1.847a.24.24 0 1 1-.258-.22.24.24 0 0 1 .258.22m8.946-8.723a.24.24 0 1 1-.258-.219.24.24 0 0 1 .258.22m-.01-4.94a.24.24 0 1 1-.258-.22.24.24 0 0 1 .258.22m-6.961 20.406l.458-.149.038-.42.269.33.43-.085-.235.408.16.444-.408-.159-.324.278.037-.42-.425-.227zm-3.011-19.961l.458-.149.038-.42.269.33.43-.085-.235.409.16.443-.408-.159-.324.278.037-.419-.425-.228zm-10.355-5.353l.458-.148.038-.421.269.33.43-.085-.235.409.16.443-.408-.158-.323.277.036-.419-.425-.228zm30.667-4.433l.329-.106.026-.302.194.237.308-.061-.169.293.115.318-.293-.113-.231.199.026-.302-.305-.163zm20.463 7.906l.329-.107.026-.302.194.237.308-.061-.169.293.115.318-.293-.113-.231.199.026-.302-.305-.162zm-12.962-3.378l.458-.148.038-.421.269.33.43-.085-.235.409.16.443-.408-.159-.324.278.037-.419-.425-.228zm-35.77 31.819l.913-.503-.091-.908.707.593.878-.356-.334.964.52.878-.932-.173-.574.722-.092-.908-.995-.309zm17.982-8.492l.437.204.314-.282-.028.426.372.23-.451.139-.185.433-.19-.394-.426-.018.313-.282-.156-.456zm-.493 10.166l.437.204.314-.282-.028.426.372.23-.451.139-.185.433-.19-.394-.426-.017.313-.283-.156-.456z" fill="#d8d8d7"/><path fill="#ffb300" d="M72.717 22.3l.805-.305.032-.753.509.568.759-.189-.386.75.323.778-.741-.249-.554.522.03-.753-.777-.369z"/><path fill="#d8d8d7" d="M27.746 7.443l.54-.204.021-.504.34.38.509-.126-.259.502.217.52-.497-.167-.371.351.021-.505-.521-.247z"/><path fill="#ffb300" d="M29.524 22.618l.285.191.252-.164-.067.297.237.203-.333.048-.178.284-.091-.297-.297-.06.252-.164-.06-.338z"/><path fill="#d8d8d7" d="M34.343 17.329l.138.314.3-.002-.215.213.09.299-.306-.137-.303.143.084-.3-.22-.21.301-.003.131-.317zm9.251.75l.138.314.3-.002-.215.213.091.299-.307-.137-.303.144.084-.301-.219-.21.3-.003.131-.317zm9.34-2.922l.138.314.3-.002-.215.213.09.298-.306-.137-.303.144.084-.301-.219-.209.3-.004.131-.316zm-11.285-1.282l.138.314.3-.002-.215.213.09.299-.306-.137-.303.143.084-.3-.22-.21.301-.003.131-.317z"/><path fill="#ffb300" d="M45.156 9.254l-.035.521.408.207-.441.137-.087.467-.316-.401-.51-.018.324-.346-.15-.437.408.206.399-.336zM27.055 11.14l-.068.537.441.19-.497.167-.123.484-.329-.395-.566.011.379-.374-.141-.441.442.189.462-.368z"/><path fill="#d8d8d7" d="M69.654 17.224l-.035.521.408.206-.441.138-.087.466-.316-.401-.51-.018.323-.346-.149-.436.408.206.399-.336zm-32.997-6.1l.137.314.301-.002-.215.214.09.298-.306-.137-.303.144.084-.301-.22-.209.301-.004.131-.317zm-5.909-.682l.137.314.301-.002-.215.213.09.299-.306-.138-.303.144.084-.3-.22-.21.301-.003.131-.317zm-4.393 17.922l.137.314.301-.002-.215.213.09.299-.306-.137-.303.144.084-.301-.22-.21.301-.003.131-.317z"/><path fill="#ffb300" d="M20.539 22.098l-.057.57.44.242-.488.135-.112.509-.334-.451-.558-.038.367-.368-.148-.485.44.24.45-.354z"/><path fill="#d8d8d7" d="M39.128 39.749l-.057.57.44.242-.488.135-.112.509-.333-.452-.56-.037.368-.368-.148-.486.44.241.45-.354zm6.043 1.263l-.036.363.28.154-.311.087-.072.323-.212-.287-.356-.025.234-.234-.094-.309.28.154.287-.226zm2.162 8.084l-.058.582.449.246-.498.139-.115.518-.34-.46-.57-.039.375-.376-.151-.494.449.246.459-.362zM39.815 34.59l-.217.038-.044.189-.101-.167-.2.011.132-.171-.045-.211.175.098.165-.105-.043.188.178.13zm7.792-19.236l-.217.039-.044.189-.101-.167-.2.011.132-.171-.044-.212.175.098.164-.105-.043.188.178.13zm4.874 15.528l-.217.038-.044.189-.101-.167-.2.011.132-.171-.045-.211.176.098.164-.105-.043.188.178.13zm13.309 2.62l-.544.098-.11.471-.253-.418-.502.03.331-.428-.111-.53.439.245.411-.265-.109.472.448.325z"/><path fill="#ffb300" d="M58.568 29.749l-.037.363.281.154-.311.087-.072.323-.212-.287-.356-.025.234-.234-.094-.309.28.154.287-.226zm-1.482-4.118l-.036.363.28.155-.311.086-.072.324-.212-.288-.356-.024.234-.234-.094-.309.28.154.287-.227zm5.153-4.209l-.047.466.36.197-.399.11-.092.416-.272-.369-.456-.03.3-.301-.121-.396.359.197.368-.29zm7.53 15.27l.287 1.12 1.001.152-.831.596.139 1.042-.944-.625-1.086.317.442-.954-.616-.815 1 .151.608-.984zm-8.506-1.993l-.047.466.36.197-.399.11-.092.415-.271-.368-.457-.031.3-.301-.121-.395.36.196.367-.289zm1.592-24.586l-.077.768.593.326-.658.182-.152.686-.448-.608-.754-.051.496-.496-.2-.654.593.325.607-.478zM36.027 7.229l-.518.572.284.615-.638-.244-.529.462v-.757l-.576-.487.693-.105.227-.645.285.613.772-.024zm10.521 5.91l-.367.29.108.396-.357-.21-.363.222.077-.452-.296-.35.426.007.2-.362.108.396.464.063zm-14.342 1.654l-.367.29.108.396-.357-.21-.363.222.077-.451-.296-.35.425.007.201-.362.108.396.464.062zm33.776 12.683l-.44.348.129.473-.427-.251-.434.267.091-.541-.354-.419.509.008.241-.434.129.474.556.075zM18.516 13.282l-.491.388.145.529-.477-.281-.485.298.102-.604-.395-.468.568.01.268-.484.145.528.62.084zm-1.79 12.636l-.639.505.188.687-.621-.365-.631.388.133-.786-.514-.609.74.012.349-.63.188.688.807.11zm16.781 27.83l.022.813.664.262-.665.279-.067.737-.55-.576-.795.047.452-.585-.295-.657.663.26.571-.58zm-8.47-6.074l.476 1.05 1.009-.024-.713.729.318.999-1.035-.45-1.011.498.268-1.012-.747-.694 1.009-.025.426-1.071zm6.973-10.798l-.462.365.136.498-.45-.263-.456.28.096-.569-.372-.441.535.009.253-.456.136.498.584.079zm-9.675 2.613l-.463.365.136.498-.449-.264-.457.281.097-.569-.373-.441.536.009.252-.456.137.497.584.08zm19.286 7.655l-.957-.002-.329.772-.305-.791-.864-.103.696-.627-.029-.936.672.551.781-.325-.328.771.663.69z"/><path fill="#d8d8d7" d="M58.156 21.842l-.036.364.28.155-.311.086-.072.324-.212-.288-.356-.024.234-.235-.094-.309.28.154.287-.227zm1.031-7.587l-.036.363.28.155-.311.086-.072.324-.212-.288-.356-.024.234-.235-.094-.309.28.154.287-.226zM40.763 7.946l-.504.807.478.682-.827-.156-.541.675-.164-.917-.805-.467.818-.278.135-.83.479.681.931-.197zm28.27 19.615l.841-.683-.262-.913.833.476.832-.527-.162 1.048.695.801-.985-.003-.453.845-.263-.911-1.076-.133zM48.881 43.499l.178.901.788.166-.687.436.065.833-.722-.537-.876.202.393-.736-.453-.675.788.164.526-.754zm-11.972 6.179l.067 1.215 1.002.364-.98.443-.07 1.103-.846-.838-1.186.104.652-.893-.469-.969 1.001.362.829-.891zm-11.424-5.541l.552-.624-.312-.659.69.257.566-.504.007.815.627.521-.747.121-.238.696-.313-.658-.832.035z"/><path fill="#ffb300" d="M28.38 14.992l-.462.578.307.57-.625-.195-.478.472-.044-.724-.58-.433.657-.141.18-.63.308.57.737-.067zm23.691-8.229l.603.866.905-.188-.522.774.451.847-1.006-.234-.828.617.074-.956-.788-.501.905-.19.206-1.035z"/><path fill="#d8d8d7" d="M65.725 19.674l-.638.756.39.773-.828-.284-.657.614-.032-.968-.76-.6.884-.165.263-.835.391.773.987-.064zM18.309 30.385l.9.105.394-.687.201.775.801.193-.724.513-.076.884-.571-.593-.771.221.394-.689-.548-.722z"/><path fill="#ffb300" d="M10.284 32.328l.981-.362.046-.915.613.693.924-.221-.476.907.385.949-.899-.311-.677.631.044-.915-.941-.456z"/><path d="M78.132 29.192q-2.177 7.883-3.917 15.868c-.062.285.385.364.447.079q1.74-7.99 3.916-15.868c.078-.281-.369-.358-.446-.08" fill="#ffb300" opacity=".3"/><path d="M78.486 27.05c.118.051.118.051.09.151l-1.419 4.97c-.053.186-.104.372-.158.557a.11.11 0 0 1-.039.063.092.092 0 0 1-.076-.006c-.01-.005-.006-.045 0-.065q.132-.476.268-.95l1.303-4.612.031-.107" fill="#6b6c6f" fill-rule="evenodd"/><path d="M77.82 29.96a1.734 1.734 0 0 1 .328-.65c-.065-.027-.12.015-.188.025a1.443 1.443 0 0 1 .213-.519.08.08 0 0 1 .098-.033c.122.037.245.073.368.104a.076.076 0 0 1 .067.08 1.404 1.404 0 0 1-.012.242c-.019.103-.054.201-.083.304l-.14-.134a1.878 1.878 0 0 1-.064.748l-.149-.215-.018.006a2.18 2.18 0 0 1-.122.76c-.02-.045-.032-.075-.046-.104-.008-.014-.02-.026-.029-.039a.178.178 0 0 0-.026.037c-.07.188-.138.376-.207.565l-.015.003.027-.117.098-.486c.003-.013-.007-.028-.01-.042a.152.152 0 0 0-.034.015.594.594 0 0 1-.087.057 1.877 1.877 0 0 1 .284-.696l-.014-.016-.239.105" fill="#ffb300" fill-rule="evenodd"/><path d="M77.954 29.76a1.528 1.528 0 0 1 .26-.535c-.049-.02-.09.015-.143.024a1.248 1.248 0 0 1 .17-.425.06.06 0 0 1 .075-.028c.092.028.184.055.277.078a.058.058 0 0 1 .05.064 1.295 1.295 0 0 1-.013.197c-.017.083-.045.164-.069.248l-.104-.106a1.616 1.616 0 0 1-.06.608l-.11-.172-.014.005a1.917 1.917 0 0 1-.105.619 3.67 3.67 0 0 0-.033-.083.134.134 0 0 0-.022-.031.12.12 0 0 0-.02.03l-.166.462-.012.003.023-.095c.028-.133.056-.264.082-.396.003-.011-.004-.023-.007-.034a.15.15 0 0 0-.026.012.424.424 0 0 1-.067.048 1.662 1.662 0 0 1 .227-.57l-.01-.013q-.09.043-.183.09" fill="#fff" fill-rule="evenodd"/><path d="M78.058 29.596a1.344 1.344 0 0 1 .206-.44c-.036-.016-.069.014-.109.022a1.125 1.125 0 0 1 .137-.35.046.046 0 0 1 .057-.024c.07.021.14.042.21.06a.043.043 0 0 1 .036.05 1.07 1.07 0 0 1-.013.161c-.014.07-.037.135-.056.204l-.077-.085a1.44 1.44 0 0 1-.057.497l-.08-.139-.01.005a1.693 1.693 0 0 1-.09.506l-.025-.067a.14.14 0 0 0-.016-.025.23.23 0 0 0-.016.025l-.134.38-.008.002.018-.078.07-.324a.09.09 0 0 0-.005-.028.06.06 0 0 0-.02.01.297.297 0 0 1-.052.041 1.47 1.47 0 0 1 .182-.468l-.007-.01c-.047.024-.093.05-.14.075" fill="#ffce00" fill-rule="evenodd"/><path d="M79.723 26l-.878-.249c-.006.018-.012.03-.015.043-.065.23-.13.46-.193.69a.159.159 0 0 0-.012.066l-.602 2.096c-.015.052-.006.072.046.086.27.075.54.152.808.228.076.021.076.021.098-.056l.194-.682h-.003l.407-1.416.006.002.194-.684a.178.178 0 0 0 .007-.039.072.072 0 0 0-.057-.085" fill="#ffb300" fill-rule="evenodd"/><g clip-path="url(#a)"><g clip-path="url(#b)" opacity=".5"><path d="M78.69 25.848s.836.223.81.463-.79 2.862-.79 2.862l.91-.02.754-2.256-.035-.881-.481-.208-.723-.194s-.396.028-.445.235" fill="#c6c6c6" fill-rule="evenodd"/></g></g><path d="M78.572 25.725l1.093-1.125.324 1.526-1.417-.4" fill="#6b6c6f" fill-rule="evenodd"/><g clip-path="url(#c)"><g clip-path="url(#d)" opacity=".5"><path d="M79.663 24.506a8.539 8.539 0 0 0-.021 1.589.28.28 0 0 0 .061.13.274.274 0 0 0 .138.063 1.708 1.708 0 0 0 .264.038.19.19 0 0 0 .079-.006.182.182 0 0 0 .095-.103 1.049 1.049 0 0 0 .051-.637c-.04-.212-.116-.416-.167-.627a1.426 1.426 0 0 0-.092-.302.355.355 0 0 0-.234-.198.205.205 0 0 0-.242.149" fill="#c6c6c6" fill-rule="evenodd"/></g></g><path d="M51.268 37.848L75.38 68.426 97.31 65.6 73.022 37.848zm23.99 31.149a.275.275 0 0 1-.217-.105L50.48 37.742a.278.278 0 0 1-.03-.292.274.274 0 0 1 .248-.156h22.451a.276.276 0 0 1 .21.095l24.71 28.238a.277.277 0 0 1 .051.28.275.275 0 0 1-.224.177l-22.6 2.91-.037.003m34.595 6.302h.781v21.2h-.781z" fill="#6b6c6f"/><path d="M105.939 77.1s-5.571-1.313-5.232-13.147c.413-14.45 13.734-47.755 13.734-47.755l5.232 47.755s1.33 11.673-4.773 13.17c0 0-4.602 2.523-8.961-.023" fill="#d8d8d7"/><path fill="#fff" d="M31.41 80.192V68.719l18.986-23.614L69.985 68.95v28.346H31.41V80.192z"/><path fill="#6b6c6f" d="M93.943 97.296V64.242L69.985 68.95v28.346h23.958z"/><path d="M69.972 68.934l2.389-.217L50.697 41.49l-22.15 27.23s1.484-.072 2.946-.102l18.903-23.512z" fill="#6b6c6f"/><path fill="#a5a9ac" d="M75.258 68.72L50.697 37.572h22.452L97.861 65.81l-22.603 2.91z"/><path d="M69.972 69.21a.273.273 0 0 1-.214-.1l-19.36-23.566-18.69 23.247a.28.28 0 0 1-.21.103c-1.456.03-2.937.103-2.937.103a.293.293 0 0 1-.262-.151.278.278 0 0 1 .033-.3l22.15-27.232a.288.288 0 0 1 .217-.102.278.278 0 0 1 .215.104l21.664 27.23a.277.277 0 0 1-.192.448l-2.39.217zM50.396 44.829a.276.276 0 0 1 .214.1l19.483 23.717 1.732-.157-21.13-26.557L29.15 68.416c.542-.024 1.37-.055 2.206-.073L50.18 44.932a.258.258 0 0 1 .216-.104" fill="#6b6c6f"/><path d="M72.361 68.718l2.897.001-24.561-31.147-25.164 31.115s1.418-.05 3.113-.088L50.697 41.49zM42.56 71.875h16.274v24.901H42.56z" fill="#eaebeb"/><path d="M59.11 97.053H42.285V71.598H59.11zm-16.273-.554h15.72V72.15h-15.72z" fill="#fff"/><path fill="#6b6c6f" d="M44.067 74.187h6.128v13.109h-6.128zm7.377 0h5.883v13.109h-5.883z"/><path d="M50.472 87.572H43.79V73.91h6.68zm-6.128-.552h5.574V74.463h-5.574zm12.983.552h-5.883a.276.276 0 0 1-.277-.276v-13.11a.276.276 0 0 1 .277-.276h5.883a.276.276 0 0 1 .277.277v13.109a.276.276 0 0 1-.277.276m-5.606-.552h5.329V74.463h-5.329z" fill="#fff"/><path d="M55.017 61.178a4.571 4.571 0 1 1-4.572-4.57 4.571 4.571 0 0 1 4.572 4.57" fill="#6b6c6f"/><path d="M50.446 65.883a4.705 4.705 0 1 1 4.704-4.705 4.71 4.71 0 0 1-4.704 4.705m0-9.142a4.437 4.437 0 1 0 4.437 4.437 4.441 4.441 0 0 0-4.437-4.437" fill="#fff"/><path d="M75.259 68.997l-2.898-.002a.273.273 0 0 1-.216-.105l-21.45-26.96L28.86 68.772a.274.274 0 0 1-.21.103c-1.691.04-3.107.088-3.107.088a.264.264 0 0 1-.26-.153.277.277 0 0 1 .033-.297l25.165-31.116a.273.273 0 0 1 .215-.103h.002a.279.279 0 0 1 .216.105l24.56 31.15a.277.277 0 0 1-.216.448m-2.764-.556l2.192.001-23.993-30.428L26.13 68.39c.547-.018 1.414-.044 2.382-.066l21.971-27.01a.287.287 0 0 1 .216-.102.278.278 0 0 1 .215.104z" fill="#6b6c6f"/><path d="M70.26 97.572H31.133V68.623l.061-.077 19.2-23.88.216.262L70.26 68.85zm-38.574-.553h38.021V69.05L50.398 45.542 31.686 68.817z" fill="#6b6c6f"/><path d="M84.266 59.776c-1.943-.563-4.02-1.217-5.254-2.82a9.018 9.018 0 0 1-1.277-2.738 11.324 11.324 0 0 1-.615-2.589 10.924 10.924 0 0 1 1.102-5.008 20.86 20.86 0 0 0 1.676-4.884 5.413 5.413 0 0 0-1.377-4.78 5.284 5.284 0 0 1 4.091 2.428 9.884 9.884 0 0 1 1.481 4.662l3.1-3.842c1.243-1.54 2.556-3.29 2.417-5.266a1.875 1.875 0 0 0-.802-1.556 6.375 6.375 0 0 1 2.454 1.71 4.716 4.716 0 0 1 .801 2.802c.01.987-.146 1.97-.179 2.957a11.86 11.86 0 0 0 1.538 6.22c-.162-2.796.892-5.825 3.271-7.302-.568 2.275.364 4.625 1.278 6.784q.61 1.437 1.217 2.874a8.45 8.45 0 0 1 .758 2.468 8.478 8.478 0 0 1-.307 2.615 5.785 5.785 0 0 1-.865 2.271 5.777 5.777 0 0 1-1.749 1.367 15.906 15.906 0 0 1-3.023 1.506 5.33 5.33 0 0 1-3.324.12 3.21 3.21 0 0 0 2.855-3.274 9.54 9.54 0 0 0-.696-2.383 8.948 8.948 0 0 1-.278-4.672 3.752 3.752 0 0 0-1.197 3.906 7.212 7.212 0 0 1-3.68-7.629 3.881 3.881 0 0 0-1.243 3.063c-.008 1.14.257 2.264.323 3.402a4.527 4.527 0 0 1-.839 3.23 9.361 9.361 0 0 0-.246-2.654 3.213 3.213 0 0 0-1.584-2.053 4.696 4.696 0 0 1-.137 3.52 7.047 7.047 0 0 0-.527 1.203 2.941 2.941 0 0 0 .758 2.487 2.375 2.375 0 0 1 .65 1.037c.067.407-.29.901-.684.772M52.26 40.079a3.982 3.982 0 0 1-2.159-1.16 3.718 3.718 0 0 1-.525-1.124 4.732 4.732 0 0 1-.253-1.065 4.494 4.494 0 0 1 .453-2.057 8.582 8.582 0 0 0 .689-2.008 2.225 2.225 0 0 0-.566-1.964 2.173 2.173 0 0 1 1.681.998 4.054 4.054 0 0 1 .609 1.916l1.274-1.58a3.311 3.311 0 0 0 .993-2.163.772.772 0 0 0-.329-.64 2.62 2.62 0 0 1 1.008.703 1.938 1.938 0 0 1 .329 1.152c.004.405-.06.809-.073 1.215a4.86 4.86 0 0 0 .632 2.555 3.286 3.286 0 0 1 1.344-3 4.537 4.537 0 0 0 .525 2.788l.5 1.18a2.595 2.595 0 0 1 .185 2.09 1.775 1.775 0 0 1-1.074 1.495 6.572 6.572 0 0 1-1.242.619 2.189 2.189 0 0 1-1.366.049 1.32 1.32 0 0 0 1.173-1.346 3.895 3.895 0 0 0-.286-.978 3.688 3.688 0 0 1-.114-1.921 1.544 1.544 0 0 0-.492 1.605 2.962 2.962 0 0 1-1.512-3.134 1.596 1.596 0 0 0-.511 1.258c-.003.469.106.93.133 1.399a1.862 1.862 0 0 1-.345 1.326 3.866 3.866 0 0 0-.101-1.09 1.322 1.322 0 0 0-.651-.844 1.933 1.933 0 0 1-.056 1.447 2.86 2.86 0 0 0-.217.495 1.205 1.205 0 0 0 .312 1.02.986.986 0 0 1 .266.427c.028.167-.119.37-.28.317m16.89 57.948a4.944 4.944 0 0 1-2.676-1.436 4.58 4.58 0 0 1-.65-1.394 5.735 5.735 0 0 1-.313-1.318 5.552 5.552 0 0 1 .56-2.551 10.63 10.63 0 0 0 .854-2.488 2.758 2.758 0 0 0-.701-2.434 2.691 2.691 0 0 1 2.084 1.237 5.046 5.046 0 0 1 .754 2.374l1.578-1.957a4.1 4.1 0 0 0 1.232-2.681.954.954 0 0 0-.41-.792 3.237 3.237 0 0 1 1.25.87 2.396 2.396 0 0 1 .408 1.427c.006.503-.074 1.003-.09 1.506a6.03 6.03 0 0 0 .783 3.167 4.067 4.067 0 0 1 1.666-3.717 5.61 5.61 0 0 0 .65 3.454l.62 1.463a3.227 3.227 0 0 1 .23 2.589 2.208 2.208 0 0 1-1.331 1.853 8.104 8.104 0 0 1-1.54.767 2.717 2.717 0 0 1-1.692.06 1.635 1.635 0 0 0 1.453-1.667 4.838 4.838 0 0 0-.354-1.213 4.572 4.572 0 0 1-.142-2.38 1.914 1.914 0 0 0-.61 1.99 3.673 3.673 0 0 1-1.873-3.885 1.97 1.97 0 0 0-.633 1.559c-.004.58.13 1.154.164 1.734a2.302 2.302 0 0 1-.427 1.643 4.766 4.766 0 0 0-.125-1.35 1.636 1.636 0 0 0-.807-1.046 2.391 2.391 0 0 1-.07 1.792 3.657 3.657 0 0 0-.27.613 1.5 1.5 0 0 0 .388 1.267 1.206 1.206 0 0 1 .33.527c.035.207-.148.46-.347.394M56.12 75.545a29.145 29.145 0 0 0 7.888-1.847 6.737 6.737 0 0 0 2.76-1.967 9.113 9.113 0 0 0 1.477-3.573 26.666 26.666 0 0 0 .68-6.54 24.455 24.455 0 0 1 .055-4.828 8.92 8.92 0 0 1 2.933-5.212c-2.169-.287-4.683 1.42-5.842 3.967a21.97 21.97 0 0 0-1.023 3.218 2.292 2.292 0 0 1-.381.86 1.428 1.428 0 0 1-.661.413 3.121 3.121 0 0 1-2.748-.295 1.365 1.365 0 0 1-.658-.906 2.17 2.17 0 0 1 .095-.916 9.156 9.156 0 0 1 3.062-4.271 19.73 19.73 0 0 0 3.699-3.605 10.322 10.322 0 0 0 1.619-6.417 12.314 12.314 0 0 0-1.956-5.688 18.986 18.986 0 0 1-1.594 6.834 8.407 8.407 0 0 1-1.537 2.638 2.183 2.183 0 0 1-2.356.77.939.939 0 0 1-.548-.856 1.827 1.827 0 0 1 .137-.591c.474-1.283 1.355-2.61 1.1-3.838-.484 1.737-2.176 2.551-3.577 3.292a20.029 20.029 0 0 0-4.623 3.412c-2.099 2.054-3.987 4.932-4.097 7.949-.094 2.61 1.142 4.722 2.331 6.649l3.149 5.104a8.672 8.672 0 0 1 1.265 2.742 4.292 4.292 0 0 1-.567 3.273" fill="#ffb300"/><path d="M23.394 57.332c-8.979-.848-3.563-.734-12.575-1.087-.483-.018-.482.732 0 .75 9.012.353 3.596.239 12.575 1.087.48.045.477-.705 0-.75" fill="#ffb300" opacity=".3"/><path d="M26.986 57.29c-.05.207-.05.208-.222.19l-8.505-.876c-.317-.033-.635-.063-.952-.097a.18.18 0 0 1-.115-.045.153.153 0 0 1-.01-.126c.006-.018.07-.023.107-.02.54.053 1.082.109 1.623.163l7.89.792.184.019" fill="#6b6c6f" fill-rule="evenodd"/><path d="M22.054 57.045a2.893 2.893 0 0 1 1.156.346c.024-.112-.061-.19-.096-.298a2.358 2.358 0 0 1 .906.197.134.134 0 0 1 .083.15c-.026.209-.047.42-.064.63a.123.123 0 0 1-.11.13 2.252 2.252 0 0 1-.398.053c-.172-.002-.344-.031-.52-.05l.179-.265a3.08 3.08 0 0 1-1.238.112l.308-.305-.016-.028a3.587 3.587 0 0 1-1.272.02c.067-.044.112-.072.155-.104a.447.447 0 0 0 .055-.06.373.373 0 0 0-.067-.031c-.327-.06-.653-.115-.98-.173l-.01-.024c.07.004.134.009.198.01.273.008.547.015.82.02.022 0 .044-.018.066-.03a.306.306 0 0 0-.034-.05.835.835 0 0 1-.12-.126 3.118 3.118 0 0 1 1.217.263l.023-.028c-.08-.118-.16-.237-.241-.36" fill="#ffb300" fill-rule="evenodd"/><path d="M22.42 57.206a2.51 2.51 0 0 1 .946.269c.019-.085-.051-.144-.081-.226a2.06 2.06 0 0 1 .741.154.102.102 0 0 1 .069.114c-.02.158-.036.316-.048.475a.096.096 0 0 1-.089.098 2.112 2.112 0 0 1-.325.036c-.141-.002-.281-.025-.424-.04l.144-.2a2.682 2.682 0 0 1-1.01.077l.249-.228-.012-.021a3.198 3.198 0 0 1-1.039.008c.054-.034.091-.055.126-.08a.364.364 0 0 0 .045-.042.23.23 0 0 0-.056-.025l-.8-.138-.009-.017c.057.003.109.008.162.009l.669.02a.175.175 0 0 0 .054-.021.16.16 0 0 0-.028-.04.681.681 0 0 1-.098-.095 2.736 2.736 0 0 1 .994.206l.018-.021-.198-.272" fill="#fff" fill-rule="evenodd"/><path d="M22.715 57.328a2.247 2.247 0 0 1 .777.209c.014-.063-.043-.108-.068-.171a1.856 1.856 0 0 1 .608.122c.042.019.063.043.057.086a7.15 7.15 0 0 0-.036.359.074.074 0 0 1-.072.074 1.855 1.855 0 0 1-.267.025c-.114-.003-.23-.021-.347-.033l.116-.15a2.369 2.369 0 0 1-.826.05c.069-.056.136-.113.203-.17l-.011-.015a2.823 2.823 0 0 1-.851-.001c.044-.025.074-.041.103-.06a.225.225 0 0 0 .036-.032.234.234 0 0 0-.046-.02l-.656-.107-.007-.014.132.008.549.02a.143.143 0 0 0 .044-.017.226.226 0 0 0-.023-.03.693.693 0 0 1-.082-.071 2.404 2.404 0 0 1 .817.16l.014-.014-.164-.208" fill="#ffce00" fill-rule="evenodd"/><path d="M29.056 59.003l.151-1.502c-.031-.006-.052-.011-.073-.013l-1.18-.116a.3.3 0 0 0-.111 0c-1.041-.107-2.934-.306-3.591-.375-.088-.01-.118.012-.126.1-.043.46-.092.922-.138 1.382-.013.13-.012.13.12.144l1.167.118.001-.004 2.423.254-.001.01 1.169.119a.294.294 0 0 0 .067 0 .12.12 0 0 0 .122-.117" fill="#ffb300" fill-rule="evenodd"/><path d="M29.003 57.274s-.122 1.427-.518 1.454-4.89-.462-4.89-.462l.294 1.477 3.893.578 1.426-.31.2-.845.106-1.235s-.16-.636-.51-.657" fill="#c6c6c6" fill-rule="evenodd" opacity=".5"/><path d="M29.17 57.048c.711.48 1.418.96 2.149 1.455-.8.324-1.585.64-2.394.969l.245-2.424" fill="#6b6c6f" fill-rule="evenodd"/><g clip-path="url(#e)"><path d="M31.472 58.473a13.88 13.88 0 0 0-2.594.425.44.44 0 0 0-.194.136.454.454 0 0 0-.063.245 2.706 2.706 0 0 0 .013.44.34.34 0 0 0 .032.128.306.306 0 0 0 .198.123 1.734 1.734 0 0 0 1.05-.1c.335-.127.646-.309.973-.453a2.204 2.204 0 0 0 .467-.239.581.581 0 0 0 .255-.437.341.341 0 0 0-.313-.352" fill="#c6c6c6" fill-rule="evenodd" opacity=".5"/></g></g></svg>