<svg xmlns="http://www.w3.org/2000/svg" xmlns:xlink="http://www.w3.org/1999/xlink" viewBox="0 0 650 563.3"><style><![CDATA[.L{opacity:.1}.M{enable-background:new}.N{fill:#bbb}.O{fill:#f5f5f5}.P{fill:#ddd}.Q{fill:#fff}]]></style><path d="M628.8 385.5l-2.6-26a208.4 208.4 0 0 1-1.5-25c0-8.6 1-17.1.9-25.7-.2-16.2-2.2-32.3-4.7-48.3-1.2-7.7-3.7-14.8-6.2-22.1-2.4-7-4.8-14.1-9-20.3-8.1-11.8-19.8-20.2-31-28.7-12.8-9.6-21.5-22.2-29.8-35.6-16.7-27-36.4-53.1-58.6-75.7C465 56.4 439 40.8 409 34.9c-32.6-6.4-65.4-3.7-97.8 2.4-16.7 3.1-33.4 6.8-50.2 9.1-17.2 2.4-34.6 3.9-51.8 6-15.6 1.9-31.2 4.4-46.1 9.4-7.3 2.7-14.5 5.7-21.5 9.1-6.8 3.2-13.7 6.3-20 10.4-12.2 8.1-23.7 16.4-30.5 29.8-7 13.7-5.3 31.5-4 46.4 1.5 17.3 1.7 33.3-5.6 49.4-6 13.4-14.9 25.3-22 38.2-6.7 12.2-12.8 26.5-12.6 40.6.2 15.5 6.9 28.5 12.5 42.6 2.7 6.8 5.5 15.2 5.4 22.6-.1 8.4-6 15.6-11.4 21.4-9.6 10.2-20.2 21.3-24.9 34.6-2.6 7.3-3.9 15.1-5 22.8-.5 3.7-1 7.5-1.3 11.2 0 1.9-.2 3.8-.5 5.6-.8 2.8-2.9 3.2-5.2 4.3-5.3 2.5-5.9 7.1-6.5 12.6-.9 6.6.2 13.3 3 19.4 2.7 5.7 6.8 11 12.2 14.3 3.1 1.9 4.7 4.5 7.2 7.1 2.6 2.6 5.4 4.9 8.5 6.8 6.5 4.2 13.7 7.6 20.8 10.7 6.7 3 13.4 6.6 20.5 8.7s12.4 0 19.1-1.8c6.3-1.7 12.8-.4 19.4-1.5.5-.1.9-.3 1.2-.6h8c2.2 0 4.4-.1 6.6-.3 3.1-.5 6.1-.1 9.1-.5 2.4-.3 4.8-.6 7.2-.6h.3c2.5.1 5 0 7.5-.1 5.8-.1 11.6-.4 17.4-.7h.3l8.6-.6c6.6.2 13.3.9 20 .9l25.3.1c8.8.1 17.5-.8 26.2-.8 8 0 16 .1 24-.5 16.7-1.1 33.2-3.4 49.9-4.2 17.1-.7 34.2-.5 51.2.5 17.4.9 34.8.7 52.1.8l52.1.1c17.3 0 34.9 1.6 52.3 1.5 8.7 0 17.4-.4 26-1.1 8-.6 15.9-.5 23.8-1.8 3.3-.5 6.4-1.4 9.6-2.2s6.5-.9 9.3-2.8c4.3-2.8 8-9.3 9.5-14.1 1.8-5.6 3.3-13 2.5-18.9-.5-3.4-1.8-6.7-2.5-10-1-5 0-9.3 1.5-14.1 2.4-7.6 4.7-14.9 6-22.9s2.9-15.9 3.8-23.9c1.1-8.3.1-16.5-.7-24.8zM130.3 526.2l-8.2.1v-.1c5.3 0 10.7-.4 16.1-.7-2.6.4-5.2.6-7.9.7z" class="O"/><use xlink:href="#B" class="N"/><path d="M609.1 424.1c-.7-4.3.5-10.9-4.3-13.2-2.2-1.1-4.8-.7-7.2-.3-3.2.5-7.2.6-10.2 1.8s-3.9 3.8-7.3 3.1c-3.2-.6-5.8-1.1-9-1.4-.2-1.5-.7-3-1.6-4.3-.8-1.2-2.3-2-2.3-3.7 0-1 1.2-2.5 1.6-3.6 1.5-4.8-.6-9-3.5-12.8-3.5-4.5-13.2-11.1-18.7-6.3-1.1 1-2 3.2-3 4.4-.9.9-1.4 2-1.5 3.2-.2 1.2-.9 6-2.3 7.3-.2.2.1.7 0 .8-.5.5-6.3-1.3-6-1.2-8-4.8 1-11.3 2.3-16.5.5-1.9.1-2.8 1-4.9.6-1.3 1.7-2.3 2.3-3.5 1-1.4 1.4-3.1 1.4-4.8-.5-5.6-5-10.8-8.9-14.5-2.1-2-3.7-4.4-4.8-7.1-.8-1.7-1.7-3.7-3.6-4.5-4.1-1.9-6.6 1.7-9.3 3.9-2.3 1.9-3.8.3-6.5.1-3.1-.3-5.3.4-8.2 1.3-3.5 1-9.5 2-11 6-.7 1.9 0 4.1.2 6 .4 4.4-.8 7.7-2.9 11.6-2.3 4.1-4.8 8.6-4.2 13.5.9 7.4 4.6 13.6 4.2 21.3-.3 7.7-4 15.2-4.4 23-.4 7.9.2 15.8 2 23.5.7 3 2.4 12.4 7.2 11.7 2-.3 3.8-2.7 5-4 1-1.3 2.1-2.4 3.3-3.6-1.7.9-3.6 1.5-5.4 2.3-3.3 1.3-8 4.2-8.1-1.8-.1-1.8.7-3.5 2.1-4.5.9-.8 2.6-1.2 3.6-1.9.5-.4.9-.8 1.4-1.1-.3-5.1 3.1-9.8 8.2-10.8 2.3-.5 4.9 0 7.2-1.2 2.4-1.1 3.5-3.6 4.9-5.6 1.6-2.5 4-4.4 6.8-5.4 2.5-1.1 4.6-1.4 4.9-4.4.2-1.8-.1-3.5.4-5.3.9-3.7 1.3-6.1-1.5-9.4-1.4-1.7-3.1-3.1-4.9-4.3-2.5-1.7-11.2-5.5-5.4-9.3 1.9-1.2 3.9-.5 5.9 0l.6.2c1.6-1.9 2.6-4.2 3.1-6.7.3-1.3 1.1-2.9 1.6-4.4l.1-.3c.1-.4.1-.7.2-1 .1-.5.1-1 0-1.4-.1-.5-.3-.9-.6-1.3l-.5-.7c-1.1-1.1-2-2.3-2.9-3.5-1.4-2.6-2.7-10.5-8.8-5.5-1.5 1.2-3.5-.8-2.1-2.1 4.5-4.3 9.6-4.5 14.5-.6 1.4 1.2 4.3 3.3 3.8 5.6-.1.2-.1.5-.2.7h.2c.5-.7 1-1.4 1.3-2.2.3-1.1-.1-1.4-.8-2.4a6.22 6.22 0 0 1-.9-2.6c0-1-.5-1.9-1.2-2.6-1.4-1.4.7-3.5 2.1-2.1l.2.2c.9.7 1.5 1.7 1.7 2.7.2 1.1.1 2.1.8 3.1.4.4.7.8 1 1.2a2.22 2.22 0 0 1 .3 1.6c.3.4.4.8.3 1.3-.5 1.2-1.1 2.3-1.6 3.5.2 1.4-.1 2.8-.7 4-.1.3-.2.6-.4.9-.1 1-.2 2.1-.4 3.1s-.5 2-.9 3c-.1 1.1-.3 2.3-.5 3.5-.5 2.3-1.4 4.6-2.7 6.6 1 .3 1.9.8 2.7 1.3 1.5.9 2.9 2.1 4.1 3.4.8.2 1.5.5 2.2.9.5.3.8.8.7 1.3-.4 3.5 4.1 2.5 4.8 5.7a17.06 17.06 0 0 1-.3 4.5c-.3 1.1-.8 2.1-1.4 3.1 2.1 1.4 3.5.6 5.6-.1.5-.1.8.2 1.1.2 1.4 1.2 3 1 4.8-.7l.3-.2c.9-.1 1.8-.1 2.7.1h1.1c.9-1.2 1.4-2.7 1.4-4.3.1-1.6-.5-3.3.8-4.5 0-1.3-.5-3.3-.1-4.3.9-2.4 3.2-2 5.4-1.5.5-2.5-.8-5.3-1.8-7.6-.2-.3-.2-.7-.1-1.1.2-.8 1-1.3 1.8-1.1 4 1 4.2 4.3 5 8 .2 1.3.1 2.7-.4 4-.8 2.8-2.2 5.3-2.8 8 .2.5.4.9.6 1.3 1.7 4 3.6 7.3 7.7 9.2 2.6 1.2 6.3 2.2 9.2 1.5 1.4-.3 2.6-1.3 4-1.6 3.6-.8 6.4 1.2 9.9 1.2 5.6-.1 3-4.5 6.2-5.9 1.5-.7 2.6.4 3.6 1.4 4.3 4.3.8 6.6.8 11.9 0 5.5-.8 7.9-6.6 6.2l-11-3.1c-3.7-1-7.4-1-11.2-2.3-4.5-1.5-8.8-1.1-13.5-1.8-1.5-.2-3-.8-4.5-.9-2.2-.1-4.5.8-6.6 1.5-3.3 1.1-7 .3-10 1.7s-5.8 4.5-8.6 6.5c-6.4 4.6-14.1 5.2-20.9 9-3.8 2.1-6.4 5.4-9.8 8.1-.8.6-1.6 1.2-2.4 1.6.4.1.7 0 1.1-.2 5.7-3.6 12.3-3.4 18.2-6.3 1.9-1 3.6-2.3 5-3.9 1.3-1.3 2.3-2.6 4.3-3.2 1.2-.2 2.3-.5 3.4-.9 1.2-.5 2.2-1.7 3.4-2.3 1.5-.8 3.2-1.2 4.7-2 3.6-1.9 6.3-4.9 10.3-6 6.9-1.9 17-2.3 23.7.3 3.5 1.3 7 1.2 10.5 2.5 3 .9 6 1.6 9 2.2 4.4 1.1 8.6 6.2 12.8 1.8 3.2-4 3.3-9.5 2.6-14zM519.2 351c-1.2.7-2.7.9-3.8 1.8l-.3.3c-.1.2-.3.3-.4.4a6.09 6.09 0 0 1-1.6 1.6c-2.3 1.2-5.2-1.1-7.7-.4-.8.2-1.6-.3-1.8-1l-.1-.2c-.1-.2-.1-.4 0-.7.2-.8 1-1.3 1.8-1.2.1-.2.4-.4.6-.5 1.3-.7 2.7-1 4.2-1 .6 0 2.6.9 2.8.9-.1 0 1.1-1.4 1-1.3.5-.4 1-.8 1.5-1.1 1-.5 2.2-.6 3.3-.3.4.1.7.4.9.7.6.6.3 1.6-.4 2zM222.8 231.9c.2-6.2-.2-12.4 0-18.6.2-5.3.6-11.1-.1-16.4.2-.4.2-.9-.1-1.3l-.1-.1c0-.1 0-.2-.1-.3-.1-.6-.6-1.1-1.2-1.1-5.4-5.3-13.3-2.1-20.2-2.4-4.8-.2-7.3 4-6.5 8.5-2.5 1.5-4.8 1.5-6.2 4.8-.4 1-.5 2.6-1.3 3.3-1.5 1.5-2.7.6-4.6.2a27.23 27.23 0 0 0-9-.3c-4.7.9-9.3 2.4-13.6 4.4-5.1 2.3-10.5 4.3-14.9 7.8-3.9 3.1-7 6.4-10.6 9.8s-6.4 6.6-8.3 11.1c-1.9 4.7-2.5 10.4-3.1 15.4s1.4 10.5 3.2 15.2c.9 2.3 1.9 4.3 2 6.2l-.6 2.5c-.4.7-.9 1.3-1.5 1.9-1.5 1.4-3.4 2.1-4.8 3.8-3.2 3.8-3.7 8.9-4.5 13.6-.9 4.8-.9 9.6 0 14.4 1 5.1 2.2 11.7 5.1 16.1 2.5 3.5 5.5 6.6 9 9.1 4.5 3.4 9.5 4.1 14.8 5.5 4 1 5.8 1.5 8.5-1.8.7-.8 1.3-1.8 1.9-2.5l2.8-.9c.3.1.5.3.8.4 1.8 1.3 2.1 4.1 3.5 5.8 3.5 4.1 11.6 5.5 16.5 6.1 4.5.6 10.5 1.2 14.6-.9.5-.2.7-.9 1.1-1.2 3.3-2.5 3.9-1.5 6.6-.2 2.3 1 4.8 2.6 7.3 3.1 3.9.9 9-1.3 12.3-3.2.3-.2.6-.5.7-.9.5-.3.7-.9.6-1.5-1-5.4-.1-11.2-.6-16.7-.7-6.6-.9-13.2-.8-19.9.2-6.2.9-12.4 1.2-18.5.3-6.6-.1-13.3.2-19.9.9-13.5-.5-26.9 0-40.4z" class="P"/><path d="M222 337.5c-1.1-6.5-.8-13.6-.6-20.1.1-3.2-1.3-2.7-3-5.2-.4-.6-1-.8-1.7-.7-1.7.4-2.5 1.5-3.8 2.3-2.1 1.1-5 .6-7.3 1.4-3.3 1.1-7.4 5.8-11 4.2-2.9-1.3-4.8-4.8-6.5-7.2s-3-5.3-4.7-7.9c-.6-.9-1.2-1.8-2.4-2-1.7-.2-2.1.8-2.9 1.9-2.6 3.6-5.7 5.4-9.2 8.1s-6.6 5.7-11 7.3c-2.2.8-5 1.5-7.4.8s-3.3-2.4-4.9-3.9c-1.3-1.5-3-2.4-4.9-2.7-4.4-.8-9.4-3.9-8.5-9 .4-2.5 2.1-4.8 3-7.2.4-1.5 1.2-2.8 2.4-3.9.7-.5 1.6-.6 2.2-1.4 2-2.6.3-5.4-2.1-6.8.2-.3.3-.5.5-.8a1.68 1.68 0 0 0-.2-1.8c-3.1-3.8-5-8.4-5.7-13.2-.3-2.2-.2-6.7-3.3-7.2-1.8-.3-3.2 1.5-3.8 2.9-1.9 4.2.3 8.7.8 12.9.5 5.2-1.7 6.1-4.5 9.5-.9 1.3-1.7 2.6-2.5 4-2.2 3.4-5.2 4.7-5.8 8.9-.5 4.5.2 9.1 2 13.2 2 4.9 2.7 10.1 4.7 15 1.7 4 3.6 7.2 7.5 9.3 4.3 2.3 9.1 5.4 13.8 7 3.4 1.3 7.2 1.3 10.7.3 2.7-1 2.6-1.7 5.6-1 3.3.8 2.4 1.4 3.4 4.2.1.8.5 1.5 1 2.1 1.5 1.4 4.8.9 6.6 1.9 1.3.8 2.6 1.4 4 1.9 4.7 1.4 8.1.9 12.8-.3 4.4-1.1 9.8.7 14.5.7 4.2 0 8.9 1.5 13.1.9 3.1-.4 7.9-3.7 9.3-6.5 1.7-3.9.5-8.2-.2-11.9z" class="N"/><path d="M509.4 137.9c-2.4-4.1-7.1-2.1-10.6-1.1-1.9.6-3.8.8-5.7 1.2-1.3.3-4.1 1.7-5.2 1.4-1.7-.5-1.7-2.5-3.9-2.3-1.4.1-2.9 1.5-4.2 1.9-2.1.5-4.2.8-6.4.9-3.5.5-6.8 1.8-10.4 2.5-8.8 1.7-17.4 3.8-26.1 5.7-4.2.9-8.6 1.5-12.9 2.2-3.4.6-6.1 2.6-9.4 3.5-7.2 1.9-15 1.5-22.1 3.9-6.7 2.2-13.9 5.4-21.1 5.9-1.8.1-1.5-.4-3-1-.9-.4-2-.4-2.9 0-1.7.4-4.5 1.4-5.1 3.2-.3.8 0 1.7.2 1.5-.7.8-4.2 1.3-5.2 1.7-1.8.7-2.5 1.1-2.5 3.2 0 .6.3 1.1.8 1.3-.1 1.2-.1 2.5-.1 3.8s.6 5.2-.2 6.5a.9.9 0 0 0-.6.6c-1 .6-2.5.8-3.2 1.8-.6 1-.9 2.1-.6 3.2.1 1.8.9 3.5 1.2 5.2.4 2.7.5 5.4.4 8.1 0 1.1-.4 2.6.2 3.7.8 1.4 2.5 1.3 3.4 2.4s.7 4.9.6 6.6c-.1 2.1-1 4.1-.9 6.3.1 1.6.4 1.6 1.1 2.9 1.1 2 1.1 2.9.9 5.4-.3 3.4-.5 5.7-2.8 8.3-.9 1-1.9 1.5-2.2 2.9-.1.8 0 1.6.2 2.3.1 2.6 0 2.8-1.1 4.7l-.1.1c-.1-1.3-.3-2.6-.6-3.8-.5-2-1-4.2-.2-6.2.5-1.3 1.9-2.4 2.3-3.8.5-1.6.9-5.4.2-7.1-.3-.7-1.5-1.5-1.6-1.9-.3-1 .1-3.5.1-4.4.1-2.3 1.8-7.2.5-9.4-.5-.9-1.5-.7-2-1.3-1.2-1.3-.9-4.1-.8-6.1s-.1-4-.2-6c0-1.2.5-3 .1-4.1-.4-.9-.7-.9-1.4-1.5-1.8-1.7-2.7-2.2-2.6-4.9 0-.8-.5-1.4-1.3-1.5-.2 0-.3 0-.5.1h-.1c-2.6-1.4 2.4-1.4 3.6-2.4 1.8-1.5 1.5-3.6 1.4-5.8-.1-2.4-.4-2.4-2-4-2.1-2.1-.3-4.5-.8-7.6-.4-2.4-1.6-3.9-4-4.4-1.6-.2-3.2-.2-4.7-.1-3.1-.1-6.2-.4-9.3-.9l-26.8-3.3c-9.2-1.2-18.3-3.4-27.6-4.5-8.3-.9-16.6-1.8-24.8-3.3-3.6-.7-7-.1-10.6-.1-4.1 0-8.2-.9-12.2-1.6-4.3-.7-9.5-2-12.5 1-.8-.1-1.5.5-1.6 1.3v1.4c-.1.2-.1.5 0 .7v6.4c0 2.6-.7 6.4.5 8.8.8 1.6 2.3 2.1 4 2.2a39.75 39.75 0 0 0 6.9 0c-.7 8.2.1 16.7.1 24.9V208c0 3 .4 6.5.3 9.8-.3.2-.5.5-.6.8-.8 3 0 6.2-.3 9.3-.2 2.7-.2 5.5-.1 8.2l.4 17.4-.1 40.4c0 6.7.1 13.4-.2 20.1-.3 5.2-1.9 9.8-.6 14.8.7 2.9 1.9 6.1 1.8 9-.1 2.2-1 4.2-1 6.3 0 .8.1 1.6.3 2.4-.2.6-.1 1.3.4 1.7.2.9.2 1.9-.1 2.9-.3 1.2-.8 2.2-1.1 3.3-.4 0-.8.2-1 .5a17.82 17.82 0 0 1-4.6-.3c-1.3-.5-2.7-.9-4.1-1.2-2.8-.2-6.1.3-8.9.4-8.1.3-16.2.2-24.2-.3-4.3-.3-8.7 0-13.1 0-3.9 0-7.6-.5-11.5 0-5.7.6-13.3-2.1-17.9 2.1-.1.1-.2.2-.3.4-4 3-3 10.5-2.7 14.9.2 2.9-.7 13.2 4 13 .4.3.9.5 1.4.5 2 .7 4 .1 6.2-.1 4-.3 7.9.4 11.9.5l20.6.1c1.1 2.5.3 4.8.3 7.8.1 3.9-.4 7.9 0 11.8.4 4.1.4 8.3.1 12.4-.3 4.6.2 9.1.2 13.7 0 .6.4 1.2.9 1.4 1 .8 2.1 1.4 3.3 1.9 3 1.7 4.7 3.9 7.3 6 3.5 2.8 7.1 5.3 10.5 8.3 2.7 2.3 5.7 4.2 8.9 5.9 6.6 3.6 13.3 9.9 20.8 11.8 3.6.9 7.3 2.5 11.1 3.4-.2.6.2 1.3.8 1.4h.2c11.5 1.6 23.2 2.9 34.8 3.7 5.7.4 12 1 17.7.2 1.3-.2 2.6-.5 3.8-1 4.9 4 9.6 8.9 15.3 11.4 6.1 2.7 10.8 1.8 17.2 2 5.4.2 12.4 1.2 17-2.4 1.6-1.2 2.2-3.3 4.1-4.2s3.5-.5 4.7-2.4c.4-.6.3-1.5.7-2 1.4-2.1 3.2-1.5 5.2-1.1l12.5 2.5c7.7 1.6 15.1 3.4 23 4 16.9 1.2 33.7.9 50.7.9 9 0 18.1.4 27.1-.6l7.2-1c.5.2 1.1.1 1.5-.2 1-.1 2-.2 3.1-.2 3.5-.1 7.3-1 10.8-.8.6.1 1.2-.3 1.4-.9.3-.4.4-.9.3-1.3-.6-3.6.1-8.6.5-12.3.5-4.9-.5-9.5-.3-14.3.2-1.6 0-3.2-.5-4.8-.7-2.1-1.4-3.3-1.1-5.3.5-3.6.2-7 .2-10.8 0-5.2-1.4-10.2-1.4-15.4 0-4.3.3-8.7.7-13 .5-7-.7-13.8-.7-20.8l.6-.2c1.4-.4 2.9-.6 4.4-.6.4 0 .8-.1 1.1-.4.7-.1 1.1-.7 1.1-1.4 0-6.4-.3-12.8-.3-19.2 0-1.2.2-2.4.3-3.6-.1-.9-.3-1.7-.5-2.6-.2-1.7.5-3.2.5-4.9s-.8-2.9-.8-4.6.4-2.4-.7-3.7c-1.8-2.2-5.1-1.9-7.9-1.3.1-14.1 1.8-28.4 2.5-42.5l1.2-23c.1-2.6-.2-5.2-.1-7.9s.8-6.4-.5-8.9c-.3-.6-1-1.1-1.3-1.6-.7-1.6-.2-4.1-.2-5.7.2-4.2.2-8.4.4-12.6l1.1-25.8c.1-4.2.5-8.5.7-12.7.2-4.6 1.3-9.4 1-14-.2-3-1.4-5.8-1.9-8.8-.6-3.4-.1-6.8.1-10.2 3.7-1.1 7.4-2 11.2-2.6.4 0 .8-.3 1-.6.4-.3.7-.7.8-1.2a81.45 81.45 0 0 0 0-12.1c-.7-3.2.9-7.4-.6-10zM224 410.2s-.9.3-1.1.7c-.6 1.4-.9 3-.8 4.5.1 7.8-.1 15.6.4 23.3.4 6.9.8 14.1.1 21-5-2.9-9.8-6.4-14.9-9.2-5.8-3.2-10.3-8-15.7-11.8-.8-.6-1.5-1.2-2.2-1.9.4-3.7-.6-7.8-.7-11.5-.1-5.2.2-10.4 0-15.6-.2-5-.1-10 .4-15 .2-2.2 1.1-5.2.6-7.4-.2-.6-.4-1.2-.7-1.8 6.5.2 13 .2 19.5.6 4.2.2 8.8.9 12.9.6h.4c0 3.3.2 6.5 0 9.8-.1 2.7-.4 6.1.3 8.8.2 1.3 1.9 3.7 1.5 4.9z" class="Q"/><path d="M282.7 353.4z" fill="#444"/><g class="O"><path d="M506.1 139c-2.3-3.8-8.4-.3-6 3.5.7 1.2-.3 5-.4 6.6l.1 1.4c.3 1.6-.3 2.3-1.7 2.2-1 .6-2.6.6-3.6.9-6.5 1.9-13.1 2.9-19.6 4.3-3.3.7-6.6 1-9.9 1.6-3 .5-5.8 1.7-8.8 2.5-6 1.6-11.7 3-17.6 4.9s-12.4 3.1-18.7 4.3c-7.1 1.4-14 3-21.2 3.9-6.8.9-13.5 2.5-20.3 3.5-6.2.9-12.4 3.8-18.7 3.4-4.5-.3-4.5 6.7 0 7 7 .4 14-2.7 20.9-3.7 7.9-1.1 15.8-2.7 23.8-3.9 7.5-1.2 15.1-3 22.5-4.5 7.1-1.5 13.7-3.9 20.7-5.9 14.2-4 28.8-6.1 43.3-9.3 4.8-1.1 13-1.6 15.1-6.7 1.2-2.9.4-6 .8-9 .4-2.6.9-4.4-.7-7zm-164.8 35.5c0-.3 0-.5-.1-.8 1-1.1 1.3-2.7.7-4.1-.4-1.2-1-2.3-1.6-3.4l-.1-.1c-.2-.3-.3-.7-.5-1-1.9-3.2-6.2-1.5-6.5 1.8l-.3 3c-.1.6-.4 1.6-.4 2.2-.9-.1-2.2-.1-2.7-.1-5.6-.1-11.2-.4-16.8-.8-9.3-.8-18.7-1.3-28-1.7l-13.1-1.2c-13.3-1.2-26.4-2.8-39.5-4.8-2.7-.4-5.5-.9-8.2-1.4-2.5-.4-4.8-1.4-7.2-1.9-3.5-.7-5.7 2-5.8 5.3 0 1.6 1.1 2.9 2.6 3.4 2.9.8 5.8 1.4 8.7 1.9-.3 1.7.8 3.4 2.6 3.7.3 0 .5.1.8 0 11.5-.5 23 2.9 34.5 4.2 12.3 1.5 24.6 3.4 37 4.1 5.9.4 11.9.4 17.8.9 5.7.5 11.3 1.5 17 1.6 3.3.1 8.5 1.6 10.2-2.4.2-.4.3-.8.3-1.2 1.5-.4 2.2-1.9 2.4-3.3 0-.2 0-.4.1-.6 0-2.4-2-3.5-3.9-3.3zm-4.2 51c-.3 0-.6-.1-.9-.1-.9-.2-1.8-.2-2.6-.1l-6.9-.6-11.5-1.6c-8.9-1-18-1.1-26.9-2-18.1-1.8-36.1-7.6-53.5-12.6-4.3-1.2-6.2 5.5-1.9 6.8 19.9 5.7 40.1 11.9 60.9 13.3 10.1.7 20.1 1.5 30.1 2.8 4.6.6 9.3 1.3 13.9 1.6 3.1.2 4.9-1.8 5-4.8.1-3.3-3.6-4.2-5.7-2.7zm148.6-20c-.9.4-2.9.8-3.6 1.1-2.3 1.2-4.7 2.2-7.1 3.1-4.8 1.3-9.6 2.2-14.5 2.8-11 1.7-22.1 3-33.1 4.3-9.9 1.2-19.6 3-29.4 4.8-11 2-22.1 2.6-33.1 4.7-4.4.8-2.5 7.6 1.9 6.8 11.8-2.2 23.8-3.1 35.7-5.1 11.5-2 23.1-3.4 34.7-5.1 11.4-1.6 23-2.9 34.3-5.2 5.4-1.1 9.6-3.4 14.7-5.1 3.2-1 5.5-1.6 5.9-5.3s-4.6-4.6-6.4-1.8zm-12.6 96.2c-.8-13.8.4-27.7-.6-41.5-.3-4.5-7.3-4.5-7 0 1 13.9-.1 27.7.6 41.5.7 13.5.4 27.1.4 40.6 0 4.5 7 4.5 7 0 0-13.6.3-27.1-.4-40.6zm-18.5 31.4v-14.8c0-4.4-.8-8.6-1-13-.3-5 0-10.1 0-15.1 0-4.5-7-4.5-7 0 0 5-.3 10.1 0 15.1.2 4.4 1.1 8.6 1 13v14.8c0 3.1.8 6.6.5 9.6-.4 4.5 6.6 4.5 7 0 .3-3-.5-6.4-.5-9.6zm-19.4 11.1c0-3.2-.3-6.4-.8-9.6-.4-4.2-.3-8.4.2-12.5.7-8.5 0-17.2 0-25.7 0-4.5-7-4.5-7 0 0 8.5.6 17.3 0 25.7-.4 3.7-.5 7.5-.4 11.3.2 3.8 1 7.5 1 11.3 0 4.5 7 4.5 7 0v-.5c0 .1 0 .1 0 0zm-189.8-63.7c0-4.5-7-4.5-7 0 0 22.4-1.3 44.7-1 67.1.1 4.5 7 4.5 7 0v-.8c-.3-22.1 1-44.1 1-66.3zm18.7 34c.3-12.1 1.4-24.4 2.2-36.5.3-4.5-6.7-4.5-7 0-.8 12.1-1.9 24.4-2.2 36.5-.3 11.6.7 23.2.7 34.9 0 4.5 7 4.5 7 0 0-11.6-1-23.2-.7-34.9zm17.5-17.6c0-4.5-7-4.5-7 0-.1 17.2.5 34.3.5 51.5 0 4.5 7 4.5 7 0l-.5-51.5zm19.8 52.4c.9-7.3.2-15.4-.1-22.7-.4-9.5-.3-18.9-.3-28.4 0-4.5-7-4.5-7 0 0 8.9-.3 17.6.2 26.4.2 4.2.1 8.4.2 12.6 0 3.7.6 7.5.1 11.1-.1.3-.1.6-.1.9v.2c-.1 3.9 6.3 4.9 6.9.9 0-.3.1-.6.1-.9-.1 0-.1 0 0-.1z"/><path d="M431.5 293.5c-2 1.1-5.3 1-7.5 1.4-2.8.6-5.4 1.6-8.2 2.2-6.5 1.4-13.2 2-19.7 3.1-6.4 1.3-12.8 2.1-19.3 2.7-5.1.3-10.4 1.4-15.5 1.2-11.5-.5-23.2-3.7-34.5-5.5-13.3-2.1-26.6-3.1-39.8-5.6-4.4-.8-6.3 5.9-1.9 6.8 8.3 1.6 16.8 2.5 25.1 3.5 2 6.7 1.4 15.4 1.5 22.4s.7 14.3.4 21.4c-.2 4.5 6.8 4.5 7 0 .4-7.7-.2-15.5-.4-23.2-.2-6.2.2-13.3-1-19.6 3 .4 6 .9 9 1.4h.2c-.9.8-1.3 2.1-1 3.2 1.4 7.8.5 15.5 1 23.3.3 6.7 1.2 13.5 1.6 20.2.3 4.5 7 4.6 7 0v-.2c0-.3 0-.5-.1-.8-.5-6.9-1.5-14-1.6-20.9-.2-7.9.3-15.6-1.1-23.4 0-.2-.1-.3-.1-.5l12.9 2.1c3.9.8 8 1.6 12.1 2.1a1.93 1.93 0 0 0-.3 1c-1 7.1 0 14.1.2 21.2.1 6.6 1.1 13.2 1 19.9 0 4.5 7 4.5 7 0 0-6.1-.7-12.1-1-18.2-.3-6.8-1.4-14.3-.5-21 .1-.9-.1-1.8-.6-2.6 3.4-.1 6.7-.3 10.1-.6v.9c.7 7.4.8 14.7 1.2 22 .4 6.7 1.6 13.4 1.8 20.1.2 4.5 7.2 4.5 7 0-.2-6.8-1.4-13.4-1.8-20.1-.4-7.4-.5-14.7-1.2-22-.1-.6-.2-1.1-.5-1.6 6.1-.7 12.2-1.7 18.2-2.8 6.8-1.3 13.9-1.7 20.6-3.4 3.2-.8 6.3-1.9 9.5-2.5 2.5-.4 4.7-.5 7-1.7 3.7-2 .1-8-3.8-5.9zm-32.9 39.3c0-7.1-.5-14.2-1-21.3-.3-4.5-7.3-4.5-7 0 .5 7.1 1 14.2 1 21.3 0 6.2 1.1 12.3 1 18.5-.1 4.5 6.9 4.5 7 0 .2-6.2-.9-12.3-1-18.5z"/><path d="M417 308.4c.1-.7-.1-1.4-.5-2 0-.2-.1-.4-.1-.5v-.5c0-.2.1-.3.1-.5.5-1.9-.6-3.8-2.5-4.3s-3.7.6-4.3 2.4c-.8 2-.2 4.1.2 6.1-.7 13.3-1.5 26.8-.3 40 .4 4.5 7.4 4.5 7 0-1.2-13.4-.3-27.1.4-40.7zm-62.2 167.2c-.4-4.2-.8-8.4-1.4-12.6-.5-3.5-1.4-6-4.5-7.8-2.4-1.4-3.7-1.7-4.4-4.7a28.22 28.22 0 0 1-.3-5.8c-.1-2.6-.1-4.4 1.3-6.5.9-1.1 1.7-2.3 2.3-3.6 1.4-3.7.6-8.6.9-12.5a45.71 45.71 0 0 0 0-7.4c-.1-.6-.1-2.9-.7-2.9 1-.4 1.9-.9 2.8-1.4 1.1-.8 1.9-1.9 2.4-3.1 1.3-3.1.5-6.7-.5-9.7-1.4-4.3-8.1-2.4-6.8 1.9.7 2 1.8 4.3-.1 5.9-1 .8-2.5.9-3.4 1.9-1.8 1.8-1.5 3.9-1.1 6.2.9 4.8.2 9.3.1 14.1 0 2 .3 3.8-.8 5.6-.8 1.3-2 2.2-2.6 3.7-1.2 2.9-.8 6.3-.6 9.4.2 3.3-.1 7.1 1.6 10.1s4.3 2.8 6.4 4.9c1.9 1.9 1.3 5.2 1.5 7.6.1 1.3.3 2.6.5 3.8-2.9 2.1-.5 6.7 2.8 6.1 2.1.7 4.8-.5 4.6-3.2zm147.5-104.4c-.1-.4-.2-.7-.4-1 1.6-9.1-1.7-18.1-2.2-27.2-.4-4.4-7.2-4.5-7 0 .3 3.3-.7 6.8-.6 10.1 0 2.2.3 4.4.4 6.7v.7h-.2c-.5 0-.9 0-1.4.2-8.2-.2-16.4.1-24.6.4-3.6.1-7.1.7-10.5 1.7-4.1 1.1-8.5 1.2-12.7 1.3-3.8-.1-7.6.2-11.4.8-4.3.8-8.1 2.3-12.5 2.6l-27.3 1.5c-4.5.2-4.5 7.2 0 7l27.3-1.5c3.7-.2 7.4-.9 11-2 4.3-1.2 8.6-1.2 13-1.3 3.8 0 7.5-.3 11.2-.8 4.1-.7 7.7-2 12-2.2 7.9-.3 15.7-.6 23.6-.5 0 .4-.1.7-.1 1.1 0 .9.5 2.9.3 3.6-.6 1.9-4.2 2.2-5.8 2.7-4.3 1.3-2.5 7.9 1.9 6.8 2.7-.7 5.5-1.2 7.9-2.1 1.1.1 2.2.3 3.4.5 1.4.2 3.3-.1 4-1.6.8-2.4 1.1-5 .7-7.5zm-259.1 73.2c.1-14.2-1.9-28.4-1.7-42.6.1-8.1 1.1-16.1 1.2-24.1 0-9-.4-18.1-.8-27.1-.2-4.5-7.2-4.5-7 0 .4 9 .9 18.1.8 27.1-.1 8-1.1 16-1.2 24.1-.1 14.4 1.8 28.9 1.7 43.2 0 4.5 7 4.5 7 0v-.6c0 .1 0 .1 0 0z"/></g><g class="N"><path d="M274.2 271.2c-.7-.3-1.5-.4-2.3-.4h-.1c-.4-.3-.9-.4-1.4-.1h-.1c-2.9-.7-5.9-1.2-8.9-1.5l-8.6-1.3c-1.3-.3-2.6-.4-3.8-.5-3.4-.8-7.4-1.5-9.4.4-.5.5-.6 1.2-.2 1.8.1.1.2.3.3.4.5 1.9 2.8 2 4.7 2.1-.6 12.4 1.2 24.5.4 36.9-.2 3.6.4 7.1.1 10.8-.3 3.3-.3 6.6-.5 10-.3 5.1-1.4 10.6-.5 15.8.2.8 1 1.3 1.8 1 .2-.1.5-.2.7-.4l.3-.3a1.52 1.52 0 0 0 0-2c-.6-5.4.7-11.2.8-16.6 0-3.1.4-6 .6-9.1.2-3.5-.4-6.9-.1-10.5.9-12-1.1-23.9-.6-35.9.3-.3.5-.6.6-1 1.8.2 3.6.4 5.4.5 1.4.1 2.8.3 4.3.4.6.2 1.1.3 1.4.3 1.2.2 2.4.3 3.5.5l.6.2c.1 3 .4 6 .6 9l-.1 31.8v5.2c-.1 3.4-.1 6.8.1 10.2.1 2.9.1 5.7.4 8.5.2 2.4-.5 5.4.3 7.6 0 1-.4 1.8-.2 2.7.2.8 1.1 1.3 1.9 1 .2-.1.5-.2.6-.4l.2-.2c.5-.5.6-1.2.2-1.8 0-.2.1-.3.1-.5.1-.4.1-.8.1-1.3v-.1c.6-2 0-4 0-6l.1-6.8c-.1-5-.7-10.1-.8-15.1l.3-8.9c0-5.7-.1-11.2.2-16.9.1-3.1 0-6.2-.3-9.4l-.1-8.1c1.3.3 2.7.4 4 .2h1c.2 0 .4-.1.7-.1h.2l.3.1c.2.1.4.1.6.2 1.7.9 2.5-2 .6-2.4zm11.8 75.4c0-9.8 0-19.7-.6-29.5-.4-7.8-2.3-16.3-1.5-24 .2-1.9-2.8-1.9-3 0-.8 7.7 1 16.2 1.5 24 .5 10.1.6 20.2.6 30.3v2a1.54 1.54 0 0 0 1.5 1.5 1.54 1.54 0 0 0 1.5-1.5v-2.8zm15.8-22.8c.1-4.2.9-8.4.5-12.5-.4-4.5-1.1-8.8-1-13.3 0-1.9-3-1.9-3 0 0 4.2.3 8.4.9 12.5.6 4.9-.4 10-.4 14.9 0 8.6-.9 17.5.3 26 .3 1.9 3.2 1.1 2.9-.8-1.3-8.8-.5-18-.2-26.8zm17.8-10.2c0-3.9-1-8-1-11.9.4-.5.4-1.3-.1-1.7l-.3-.3c-.6-.6-1.6-.5-2.2.1-.2.3-.4.6-.4 1-.2 4.2.9 8.5.9 12.8 0 4.7.8 9.4.5 14.2-.5 8.3-1 17.2.1 25.4.3 1.9 3.1 1.1 2.9-.8-1.2-8.5-.2-17.5.1-26.1.2-4.3-.5-8.5-.5-12.7zm16.4 31.3c0-4.7-.3-9.1-.7-13.8-.4-5.1-.3-10.3-.5-15.4-.2-5.6-.9-11.2-.8-16.8a1.54 1.54 0 0 0-1.5-1.5 1.54 1.54 0 0 0-1.5 1.5c-.1 5.4.5 10.7.7 16.1l.4 14.7c.1 4 .5 8.1.7 12.1.2 3.6.9 8 .4 11.6-.3 1.9 2.6 2.7 2.9.8.5-3.1-.2-6.1-.1-9.3zm28.6-39.9a1.54 1.54 0 0 0-1.5-1.5 1.54 1.54 0 0 0-1.5 1.5c0 16.2 2.1 32.3 2 48.5a1.54 1.54 0 0 0 1.5 1.5 1.54 1.54 0 0 0 1.5-1.5c.1-16.2-2-32.3-2-48.5zm19.3 39.2l-.2-8.9c-.2-2.3-1.2-3.9-.8-6.3 1.5-8.4-1.1-17-1-25.5 0-1.9-3-1.9-3 0-.2 8.5 2.2 17.1.8 25.4-.3 1.8.1 2.6.6 4.6.5 2.4.3 4.6.3 7 0 4.4.8 8.9.1 13.3-.3 1.9 2.6 2.7 2.9.8a45.11 45.11 0 0 0 .3-10.4zm16.4-9.7c-.2-2.4 1-4.2 1-6.5.1-1.4-.6-2.6-.9-4-.5-2.3 0-4.6 0-6.9.1-5.5-.7-11-.8-16.4a1.54 1.54 0 0 0-1.5-1.5 1.54 1.54 0 0 0-1.5 1.5v.3c.1 5.1.7 10.2.7 15.3 0 1.9-.3 3.9-.2 5.8.1 2.2 1.2 4.6.9 6.8-.2 1.5-1.1 2.5-1.1 4.1 0 1.9.5 3.7.5 5.6 0 4.1.5 8.2.2 12.3-.1 1.9 2.9 1.9 3 0 .4-4.3 0-8.6-.1-12.9.1-1.1 0-2.3-.2-3.5zm17.2 4.5c0-2.1 1-4 1.1-6-.1-1.8-.4-3.5-.7-5.2-1-9.8-1.2-20-1.3-29.9a1.54 1.54 0 0 0-1.5-1.5 1.54 1.54 0 0 0-1.5 1.5c.1 10.1.3 20.6 1.4 30.7.4 3.5-.7 6.4-.5 9.8s0 6.9.2 10.4c.1 1.9 3.1 1.9 3 0-.2-3.4-.2-6.6-.2-9.8zm19.6 5.9c-1-2.5-1.5-7-1.6-9.8-.2-4.7 0-9.4.5-14 1-8.4.3-17.3 0-25.8-.1-1.9-3.1-1.9-3 0 .3 9.2.9 18.4-.2 27.5a60.98 60.98 0 0 0-.3 13.5c.2 3 .7 6 1.6 8.9-.1.8.5 1.5 1.3 1.6h.6c.9-.3 1.3-1.1 1.1-1.9zm19.4-9.7c-.1-3.7.1-7.5-.2-11.2-.7-8.8-1.1-16.4.2-25.1.5-3.1-.1-6.3 0-9.5.1-4.3.1-8.6 0-12.9l-.4-8.3c-.1-2.8.9-5.9-.1-8.5-.7-1.8-3.6-1-2.9.8.9 2.4-.2 5.6 0 8.1l.5 8.6c.2 7.9.8 16.4-.5 24.1-1.2 6.7-.6 13.4.1 20.1.4 3.6.5 7 .5 10.6 0 4.1.8 8.3 0 12.3-.4 1.9 2.5 2.7 2.9.8.4-3.3 0-6.4-.1-9.9z"/><path d="M486.2 256.9c.6-.6.6-1.6 0-2.1-.1-.1-.2-.2-.3-.2-1.5-.7-2-.4-3.6-.1l-8.1 1.2c-2.2 0-4.5.2-6.6.6l-6 .3c-3.7.3-7.4 1.3-11.1 1.4-1.9 0-1.9 3 0 3 4-.1 7.9-.9 11.9-1.1 1.8-.1 3.5-.3 5.3-.6.9 0 1.8-.1 2.7-.1s1.6-.1 2.4-.2l.1.1c.2.1.3.3.5.4-.1 3-.6 6-.4 9.1l.7 11c.4 7.1-1 14.2-1.8 21.2-.6 6.9-.4 13.8.7 20.7.6 3.9 1 7.8 1 11.8 0 3-.9 6.2 0 9.1.6 1.8 3.5 1.1 2.9-.8-1-3.4.2-7.9 0-11.4-.2-2.5-.4-5.1-.8-7.6-1.2-7.8-1.4-15.8-.7-23.7.7-6.8 1.8-13.2 1.5-20l-.7-10.3c0-2.8.1-5.7.4-8.5 3.7-.2 8.7-1.8 10-3.2z"/></g><path d="M451.8 275.8c-.9-4.5-1.3-7-.3-11.6 1.4-6.5 2.3-14.8.9-21.4-1.3-6.2-7.7-4.9-12.6-4.1-17.5 2.7-34.8 6.5-52.4 8.5l-29.6 3.1c-2 .1-4 .5-6 .6.2 2.2.1 4.3-.4 6.4-.8 2.6-2.3 5.2-3.4 7.8-.4 1-1.2 1.7-1.6 2.6-1 2.5-1.4 5.2 1 7.1 2 1.6 4.9 2.2 7.1 3.5a1.3 1.3 0 0 1 .5 1.3c-1.2 3-1.9 6.2-3.6 9-.7 1.2-1.6 2.3-2.7 3.1-1.8 1.4-2.8.7-1.6 3.9.8 2.1 1.2 2 1.2 4.2-.1 2.6.3 2.9 1 5 .1.2.1.4.2.5 2.5-.1 5-.6 7.4-.5a110.28 110.28 0 0 0 11.5 0c8.2-.6 16.3-3 24.5-3.9 16.5-1.9 33.2-4 49.4-7.8 3.9-.9 9.9-3.8 10.8-8 .6-3-.7-6.3-1.3-9.3z" fill="#fab80e"/><path d="M267.5 456.8l-5.3-2.3c-4-3.2-8.4-5.9-13.1-7.9-2.5-1-5.2-1.7-7.9-2-2.7-.4-5.6-1.6-8.3-1.5-1.1 0-2 .9-2 2 0 .2 0 .4.1.5.7 2.6 3.8 3.2 6.1 4 2.6.9 5.2 1.2 7.8 2 3.1 1 6.2 2.3 9.1 3.9.3.1.7.3 1.1.5 0 .3-.1.6-.1.8 0 3.3 2.7 2.1-.8 3.9-2.1 1.1-4.5 2.1-6.1 4-.6.7-.6 1.7-.1 2.4-.6.6-1.1 1.2-1.7 1.9-1.2 1.3-.1 4.1 1.9 3.3 6.9-2.8 13.7-5.9 20.7-8.3 5.8-1.8 2.5-5.5-1.4-7.2zm-5.9 3.2c.6 1.5.5.2-.7.8-.1.1-.2.1-.3.1.1-.4.2-.8.1-1.2s-.3-.8-.5-1.2c.6.4 1.1.9 1.4 1.5zm29.4 9.2c-3 2.2-5.5 5.1-7.2 8.4-1.4-1.3-3.1-2.4-4.5-3.5s-4.1-.1-3.4 1.9.6 4.6 1.5 6.7c1 1.9 1.8 3.9 2.5 6 .3 1.7 1.7 2.9 3.4 3.1.1.1.3.3.4.5.6.9 1.8 1.2 2.7.7.5-.3.8-.7.9-1.3h.2l.5-.1c.9-.1 1.6-1 1.4-1.9v-.1l.1-.1c.9.2 1.8-.5 2-1.4v-.5c-.1-.9-.2-1.8-.2-2.7.6-3 1.5-5.9 2.9-8.6 1.3-1.4 3.2-2.5 3.4-4.6.6-4-4-4.3-6.6-2.5z" class="O"/><g class="Q"><path d="M615.8 384c1.4 0-.3-2-.5-2.3l-2.5-3c-.4-.6-.9-1.1-1.6-1.4-1.4 0 .3 2 .5 2.3l2.5 3c.4.6.9 1.1 1.6 1.4z" class="L M"/><path d="M616.2 382.2c1.3 0-.6-1.8-.6-1.8-.9-.8-2.5-2.5-3.8-2.5s.6 1.8.6 1.8c.9.9 2.6 2.5 3.8 2.5z" class="L M"/><path d="M617 383.8c1.6 0-1-2.4-1-2.4l-3.4-3.1c-.6-.6-1.2-1.1-2-1.4-1.6 0 1 2.4 1 2.4l3.4 3.1c.5.7 1.2 1.1 2 1.4z" class="L M"/><path d="M619.7 386.7c1.5 0-.6-2.1-.7-2.2-.9-1-1.8-1.9-2.8-2.7-.4-.5-1-.9-1.7-1.2-1.5 0 .6 2.1.7 2.2.9 1 1.8 1.9 2.8 2.7.4.6 1 1 1.7 1.2z" class="L M"/><path d="M619.3 384.5c1.5 0-1.1-2.2-1-2.1-1-.9-2.1-1.7-3.2-2.4-.5-.5-1.2-.8-1.9-1-1.5 0 1.1 2.2 1 2.1 1 .9 2.1 1.7 3.2 2.4.5.5 1.2.9 1.9 1z" class="L M"/><path d="M616.2 383.4c.7 0 1.2-1.5.2-1.5-.8 0-1.2 1.5-.2 1.5zm-1.2.4c1.6 0-1.3-4.5-2.3-4.5-1.6 0 1.2 4.5 2.3 4.5z" class="L M"/><path d="M616.9 386.9c1.2 0 .2-1.6-.1-2-.6-1-1.2-1.9-1.9-2.8-.3-.5-.7-1-1.3-1.2-1.2 0-.2 1.6.1 2 .6 1 1.2 1.9 1.9 2.8a3.04 3.04 0 0 0 1.3 1.2zm1.3-4.4c.8 0 1-.4.6-1-1.1-.8-2.4-1.5-3.7-2-.8 0-1 .4-.6 1l1.8 1.1c.6.4 1.3.7 1.9.9z" class="L M"/><path d="M615.5 385.6c1.1 0 .4-1.4.1-1.9l-1.5-2.5a1.98 1.98 0 0 0-1.1-1.1c-1.1 0-.4 1.4-.1 1.9l1.5 2.5a1.98 1.98 0 0 0 1.1 1.1zm2.7-3.4c.5 0 .7-.7.5-1.1s-1.4-.9-1.8-.9-.7.7-.5 1.1 1.3.9 1.8.9z" class="L M"/><path d="M615.2 384.3c.9 0 1.4-1.5.4-1.5s-1.4 1.5-.4 1.5z" class="L M"/><path d="M424.5 291.5c-9.2.5-18.4 3.6-27.5 4.8-5.5.7-10.7 2.5-16.2 2.8-6.1.4-12.2.7-18.2.8-1.9 0-1.9 3 0 3 10.9-.1 21.7-1.2 32.4-3.2 4.3-.8 8.7-1.4 13.1-2.1 5.5-.9 10.9-2.8 16.4-3.1 2-.1 2-3.1 0-3zm24.1-5.3c-4.5.9-8.7 2.5-13.4 3-1.9.2-1.9 3.2 0 3 2.4-.2 4.9-.6 7.3-1.2 2.3-.6 4.5-1.5 6.9-2 1.9-.2 1.1-3.1-.8-2.8z"/></g><path d="M346.8 274.9c.1.2.3.4.5.6 1-1.1 1.6-2.4 1.8-3.9.3-2.5-.9-3.6-2.6-3.9-.9 2.4-1.2 5.2.3 7.2z" class="O"/><g fill="#444"><path d="M509.4 137.9c-2.4-4.1-7.1-2.1-10.6-1.1-1.9.6-3.8.8-5.7 1.2-1.3.3-4.1 1.7-5.2 1.4-1.7-.5-1.7-2.5-3.9-2.3-1.4.1-2.9 1.5-4.2 1.9-2.1.5-4.2.8-6.4.9-3.5.5-6.8 1.8-10.4 2.5-8.8 1.7-17.4 3.8-26.1 5.7-4.2.9-8.6 1.5-12.9 2.2-3.4.6-6.1 2.6-9.4 3.5-7.2 1.9-15 1.5-22.1 3.9-6.7 2.2-13.9 5.4-21.1 5.9-1.8.1-1.5-.4-3-1-.9-.4-2-.4-2.9 0-1.7.4-4.5 1.4-5.1 3.2-.3.8 0 1.7.2 1.5-.7.8-4.2 1.3-5.2 1.7-1.8.7-2.5 1.1-2.5 3.2 0 .6.3 1.1.8 1.3-.1 1.2-.1 2.5-.1 3.8s.6 5.2-.2 6.5a.9.9 0 0 0-.6.6c-1 .6-2.5.8-3.2 1.8-.6 1-.9 2.1-.6 3.2.1 1.8.9 3.5 1.2 5.2.4 2.7.5 5.4.4 8.1 0 1.1-.4 2.6.2 3.7.8 1.4 2.5 1.3 3.4 2.4s.7 4.9.6 6.6c-.1 2.1-1 4.1-.9 6.3.1 1.6.4 1.6 1.1 2.9 1.1 2 1.1 2.9.9 5.4-.3 3.4-.5 5.7-2.8 8.3-.9 1-1.9 1.5-2.2 2.9-.1.8 0 1.6.2 2.3.1 2.6 0 2.8-1.1 4.7l-.1.1c-.1-1.3-.3-2.6-.6-3.8-.5-2-1-4.2-.2-6.2.5-1.3 1.9-2.4 2.3-3.8.5-1.6.9-5.4.2-7.1-.3-.7-1.5-1.5-1.6-1.9-.3-1 .1-3.5.1-4.4.1-2.3 1.8-7.2.5-9.4-.5-.9-1.5-.7-2-1.3-1.2-1.3-.9-4.1-.8-6.1s-.1-4-.2-6c0-1.2.5-3 .1-4.1-.4-.9-.7-.9-1.4-1.5-1.8-1.7-2.7-2.2-2.6-4.9 0-.8-.5-1.4-1.3-1.5-.2 0-.3 0-.5.1h-.1c-2.6-1.4 2.4-1.4 3.6-2.4 1.8-1.5 1.5-3.6 1.4-5.8-.1-2.4-.4-2.4-2-4-2.1-2.1-.3-4.5-.8-7.6-.4-2.4-1.6-3.9-4-4.4-1.6-.2-3.2-.2-4.7-.1-3.1-.1-6.2-.4-9.3-.9l-26.8-3.3c-9.2-1.2-18.3-3.4-27.6-4.5-8.3-.9-16.6-1.8-24.8-3.3-3.6-.7-7-.1-10.6-.1-4.1 0-8.2-.9-12.2-1.6-4.3-.7-9.5-2-12.5 1-.8-.1-1.5.5-1.6 1.3v1.4c-.1.2-.1.5 0 .7v6.4c0 2.6-.7 6.4.5 8.8.8 1.6 2.3 2.1 4 2.2a39.75 39.75 0 0 0 6.9 0c-.7 8.2.1 16.7.1 24.9V208c0 3 .4 6.5.3 9.8-.3.2-.5.5-.6.8-.8 3 0 6.2-.3 9.3-.2 2.7-.2 5.5-.1 8.2l.4 17.4-.1 40.4c0 6.7.1 13.4-.2 20.1-.3 5.2-1.9 9.8-.6 14.8.7 2.9 1.9 6.1 1.8 9-.1 2.2-1 4.2-1 6.3 0 .8.1 1.6.3 2.4-.2.6-.1 1.3.4 1.7.2.9.2 1.9-.1 2.9-.3 1.2-.8 2.2-1.1 3.3-.4 0-.8.2-1 .5a17.82 17.82 0 0 1-4.6-.3c-1.3-.5-2.7-.9-4.1-1.2-2.8-.2-6.1.3-8.9.4-8.1.3-16.2.2-24.2-.3-4.3-.3-8.7 0-13.1 0-3.9 0-7.6-.5-11.5 0-5.7.6-13.3-2.1-17.9 2.1-.1.1-.2.2-.3.4-4 3-3 10.5-2.7 14.9.2 2.9-.7 13.2 4 13 .4.3.9.5 1.4.5 2 .7 4 .1 6.2-.1 4-.3 7.9.4 11.9.5l20.6.1c1.1 2.5.3 4.8.3 7.8.1 3.9-.4 7.9 0 11.8.4 4.1.4 8.3.1 12.4-.3 4.6.2 9.1.2 13.7a1.54 1.54 0 0 0 1.5 1.5 1.54 1.54 0 0 0 1.5-1.5c0-9.2.1-18.4-.4-27.5-.2-4.2.1-8.7.3-12.9.1-2.5.2-3.7-.2-5.1 1.3.1 2.5.1 3.8.2.9.1 1.9.1 2.8.2.5.8.8 1.7 1.1 2.5.5 2.1-.7 5.8-.9 8-.3 4.5-.2 9.2 0 13.7.1 5 0 10 0 15 0 2.1.3 4.1.4 6.2.1 1.3.4 3.2.4 4.8-.4.5-.5 1.2-.2 1.7l.3.5c.4.7 1.4.9 2.1.5.3-.2.6-.5.7-.9.7-3.9-.5-8.2-.6-12.2-.1-5.2.2-10.4 0-15.6-.2-5-.1-10 .4-15 .2-2.2 1.1-5.2.6-7.4-.2-.6-.4-1.2-.7-1.8 6.5.2 13 .2 19.5.6 4.2.2 8.8.9 12.9.6h.4c0 3.3.2 6.5 0 9.8-.1 2.7-.4 6.1.3 8.8.3 1.2 1.9 3.6 1.6 4.8 0 0-.9.3-1.1.7-.6 1.4-.9 3-.8 4.5.1 7.8-.1 15.6.4 23.3.4 7.4.9 15 0 22.4-.2 1.9 2.8 1.9 3 0 .7-7.1.7-14.2.1-21.4-.5-8-.2-16-.5-24 0-.8-.4-1.9-.1-2.6.1-.3 1.3-.5 1.6-1 1-1.6.1-3.5-.4-5.1-1-3.6-1.4-7.3-1-11 .2-3.4-.2-6.7-.1-10.1.7-.4 1.2-1 1.5-1.6.2-.5.2-1-.1-1.5.9-.5 2.1-.6 2.7-1.6.9-1.3.6-4.3.7-5.7.1-2.7 1.5-6.5 1.1-9-.1-.7-.3-1.3-.7-1.8-.6-1-1.8-1-2.6-2.4s-.3-3.1-.6-4.4c-.7-2.5-1.9-2.6-4-3 .7-1.8 1.9-3.3 1.9-5.2 0-.7-.2-1.4-.4-2 2.2-.8 4-.1 7 .1s5.9.4 8.9.8v.1c0 9.4.6 19.1 1.3 28.5.3 4.1.1 8 0 12.2 0 1.5-.6 2.8-.7 4.1-.1 1.8.5 3.2.7 5 .7 5.7 0 11.6.1 17.4l.3 18.1v32.6a1.54 1.54 0 0 0 1.5 1.5 1.54 1.54 0 0 0 1.5-1.5c.2-10.6 0-21.1 0-31.7 0-6-.2-12-.3-18s.4-12.2-.1-18.3c-.1-.8-.1-1.6-.1-2.4 4.4 1 9.3.4 13.7.6 3.1.1 6.2-.2 9.3 0 2.5.1 5 .7 7.6.8 3 .1 8.1 1.4 10.9.3 1.6-.6 1.6-1.4 3.6-1.5 2.1-.1 4.5.5 6.6.5.3 0 .6 0 .9.1l.1 9.6c0 2.3 1.4 7.3.2 9.3-.7 1.2-1.5 1.1-1.8 2.9-.5 3.7-.7 7.5-.6 11.3-.2 2.4.2 4.8 1.1 7.1.8 1.8 1.4 2.1 1 4.4-.2 1.3-.7 2.5-.8 3.8a104.02 104.02 0 0 0-.3 11.2 256.53 256.53 0 0 1-.3 12.4c-.1 1.9 2.9 1.9 3 0 .2-4 .4-7.6.3-11.6a102.86 102.86 0 0 1 .3-11.1c.2-2.7 2.1-4.9 1.2-7.5-.5-1.5-1.5-2.6-2.1-4-.5-1.8-.7-3.6-.5-5.5 0-1.7.2-3.3.4-4.9s-.2-4.2.6-5.9c.5-1.1 1.9-1.2 2.2-3a6.26 6.26 0 0 0-.3-2.7c-.5-2.1-.7-4.2-.7-6.3l-.1-8.8c.8.3 1.6.5 2.4.7 1.6.2 3.1.1 4.6-.3 5.8-.7 11.5-.4 17.4-.1 5.3.3 10.4.2 15.6.1 4 0 7.8.9 11.9 1 .6 1.9 1 3.8 1.1 5.7-1.6 1.6-4.2 2.5-5.3 4.6-1.3 2.3.3 5.4.5 7.8.4 3.8 1.5 9.4.5 13.1-.9 3.3-4.1 6.1-5.3 9.3-1.6 4.2-.8 10.7 2 14.3 2.5 3.2 6.7 4 7 9 .1 1.4-.3 2.8-.1 4.1.2 2 1.5 3.8 1.8 5.8s3.2 1.9 3 0c-.4-3.2-1.6-5.8-1.6-9.2 0-2.3-.1-4.3-1.5-6.3-1.9-2.6-5.2-3.2-6.8-6-1.9-3.4-1.7-8.8-.1-12.1 1.4-2.9 3.7-5.5 4.9-8.6 1-2.5 0-4.7-.3-7.2-.4-3.2-.4-6.5-.9-9.7-.6-4.3 2.2-4.1 4.7-7.1.2-.3.4-.6.4-.9 0-.1.1-.3.1-.5-.1-2-.3-3.9-.8-5.9 4.4-.4 9.1.9 13.6-.1 1.2-.3 2.3-.8 3.2-1.6.2-.2.2-.7.4-.9.7-.4 3.4 0 4.2 0 4.1 0 9.2.6 12.3-2.2 2.2-2 3.8-1.3 6.8-1.3 3.1 0 6.1-.9 9.2-.8 1.9 0 1.9-3 0-3-2.9-.1-5.4.7-8.3.8-2.3.1-5.3-.7-7.6-.1-1.9.5-1.1.6-2.5 2-2.3 2.1-6.9 1.7-9.9 1.8-1.5 0-4-.5-5.4.1-1 .5-1.2 1.6-2.1 2.1-1.8 1.2-6.6.5-8.8.4-1.9-.1-3.9-.2-5.9-.1-.5-1.8-1-4 .1-5.5.5-.6.4-1.6-.1-2.1-.8-4-2.5-8.5-3.6-12.4-.8-2.7-1.8-5.5-2.7-8.3a1.07 1.07 0 0 0-.1-1.4c-.4-.5-.7-1-.9-1.6-.2-.8-.5-1.5-.6-2.3-.2-1.8-.1-3.6.4-5.4 7.6-.1 15.1-1.3 22.8-1.4 4.5-.1 10.5 1.1 15.1-.2 0 1.1 0 2.2.1 3.2.1.9.8 3 .5 3.8l.4.1-1 .3c-.2.2-.7 0-1 .1-.6.3-1 .7-1.2 1.3-.2.7.1 1.3.1 2 0 1.6-.2 3.1-.8 4.6-.5 1.8-.4 3.8.5 5.6.4.7 1.2.9 1.9.6.3.3.6.4 1 .4 9.2 0 18.5-.3 27.7-1.2 3-.3 4.7-1.4 7.4-2.3 5.4-1.8 11.8-.7 17.4-1 3.6-.2 7.7.8 10.8-1.2 1.3-.8 1.3-1.4 3.1-1.6 3-.3 5.9-.5 8.9-.7 4.2-.3 9.2.6 13.2-.5 1.3-.4 1.9-1.2 3-1.8.4-.3.9-.5 1.4-.6-.3 3.2 0 6.1 0 9.5 0 3.2-.8 6.6-.6 9.8.1 2.9.4 5.9.8 8.6 1.2 7.4.3 15.1-.2 22.5-.3 4.2-.4 8.4-.5 12.6 0 1.8-.5 4.6.1 6.6-.5.7-.4 1.7.3 2.3 2.4 1.7 1.6 7.2 1.6 9.9 0 3.8-.3 7.5-.3 11.2 0 6.4 1.7 13.1 1 19.4-.2 1.9 2.8 1.9 3 0 .4-3.8-.3-8-.4-11.8-.1-4.3-.6-8.3-.3-12.7s-.2-8.9-.2-13.3c0-2.1-.3-3.1-1.5-4.2.5-.7.3-1.7-.4-2.2 0 0-.1-.1-.2-.1-.6-2.3.2-7.1.3-8.9.1-4.1.3-8.1.6-12.2.2-3 .4-6 .4-9s1-7 .1-10c-.3-.5-.5-1-.9-1.5.1.1.3-.5.2-.8-.1-2.1-.5-3.8-.8-5.8-.3-2.4.5-5.6.5-8.1 0-4.2-.4-8.6.1-12.7 1-.1 2-.1 3.1 0a1.54 1.54 0 0 0 1.5-1.5 1.54 1.54 0 0 0-1.5-1.5c-3.2 0-6.1-.2-9 1.3-2.6 1.4-3.9 2.1-6.9 2.1-2.6 0-5.2 0-7.9.2-3.7.3-8.8-.2-12.4 1.1-1.4.5-1.8 1.9-3.6 2.1-2.1.3-4.6.1-6.8.2-4.8.3-9.5-.1-14.3.5-3.8.5-6.9 2.3-10.5 2.8-9 1.3-18.6 1.2-27.7 1.2h-.1c-.1-.2-.3-.3-.5-.4-.2-1.8 1.1-3.8 1.1-5.7 0-.4-.2-1.6-.4-2.5.3-.1.7-.3.9-.3 1.5-.2 2-1.3 2.2-2.6s-.6-2.9-.7-4.2c-.1-1.5-.1-3-.1-4.5 6.3-2.8 14.3-1.8 21.2-2.4 3.7-.4 7.4-1 11-1.9.6.6 1.4 1.2 2.2 1.5 2 1 5.5.2 7 2.2.7.9.8 2.7 1.5 3.8.4.7 1.3.9 2.1.5.7-.4.9-1.2.6-1.9l-.1-.1c-1.4-2.4-1-5.5-4-6.4-.7-.1-1.5-.2-2.2-.1-.8-.1-1.6-.3-2.4-.6a104.49 104.49 0 0 0 11.2-1.8c3.5-.7 6.7.3 10.1.3s7.4-.9 10.8-1.3c6.4-.8 12.8-1.5 19.1-2.6l8.7-1.4c1.7-.2 3.6-.4 5.4-.8a1.64 1.64 0 0 0 1.2.2c1.8-.5 5.5-1.6 7.1-.6 1.7 1.1.1 3.1.5 5 .4 1.1.5 2.2.5 3.4 0 1.5 0 3.1.1 4.6.4 7.4.4 15.3.5 22.8-1.8.1-3.7.3-5.5.9-1.2.3-2.5.3-3.8 0-1.2-.1-2.4 0-3.6.2-1.9.1-1.9 3.1 0 3 1.3-.2 2.6-.2 3.9.1.6.1 1.2.3 1.8.3 0 6.5 1 12.9.7 19.5-.2 4.5-.7 9.1-.7 13.6 0 5.5 1.5 10.8 1.4 16.3 0 1.9.2 3.8.3 5.7 0 1.7-.9 3-.9 4.6s.7 3 1.1 4.5c.6 2.6.9 5.2.8 7.8.1 2.8.7 5.5.6 8.2-.1 1.6-.3 3.3-.4 4.9-.2 3.5-.8 7.1-.4 10.6-.3.8.1 1.7 1 2 .3.1.5.1.8.1h.2c.8-.3 1.2-1.1 1-1.8-.6-3.6.1-8.6.5-12.3.5-4.9-.5-9.5-.3-14.3.2-1.6 0-3.2-.5-4.8-.7-2.1-1.4-3.3-1.1-5.3.5-3.6.2-7 .2-10.8 0-5.2-1.4-10.2-1.4-15.4 0-4.3.3-8.7.7-13 .5-7-.7-13.8-.7-20.8l.6-.2c1.4-.4 2.9-.6 4.4-.6.4 0 .8-.1 1.1-.4.7-.1 1.1-.7 1.1-1.4 0-6.4-.3-12.8-.3-19.2 0-1.2.2-2.4.3-3.6-.1-.9-.3-1.7-.5-2.6-.2-1.7.5-3.2.5-4.9s-.8-2.9-.8-4.6.4-2.4-.7-3.7c-1.8-2.2-5.1-1.9-7.9-1.3.1-14.1 1.8-28.4 2.5-42.5l1.2-23c.1-2.6-.2-5.2-.1-7.9s.8-6.4-.5-8.9c-.3-.6-1-1.1-1.3-1.6-.7-1.6-.2-4.1-.2-5.7.2-4.2.2-8.4.4-12.6l1.1-25.8c.1-4.2.5-8.5.7-12.7.2-4.6 1.3-9.4 1-14-.2-3-1.4-5.8-1.9-8.8-.6-3.4-.1-6.8.1-10.2 3.7-1.1 7.4-2 11.2-2.6.4 0 .8-.3 1-.6.4-.3.7-.7.8-1.2a81.45 81.45 0 0 0 0-12.1c-.3-3 1.3-7.2-.2-9.8zm-288.5 29c-1.6.1-3.1.1-4.7-.1-1.6-.1-2.7.5-3.6-1.6-.4-.9 0-2.6 0-3.6 0-2.4 0-4.7.2-7 0-.9 0-1.7-.1-2.6 2.5-4.5 17.4.3 21.8.6 2.9.2 5.7-.5 8.6-.3 3.8.3 8 1.3 11.8 1.9 7 1.1 14.1 1.5 21.1 2.6l25 4.1c8.6 1.2 17.2 2.1 25.8 3.2 1.4.2 2.9.4 4.3.5 1.9.2 5.3-.4 7 .2 5.6 2.2.6 6.3 2.2 9.7.8 1.7 2.6 1.6 3.3 3.4.6 1.4 0 3-1.4 3.7 0 0-.1 0-.1.1-.3-.3-.7-.4-1.1-.4-.9.1-1.6-.6-2.4-.8l-1.9-.6c-.6-.6-1.6-.7-2.4-.2-.3.2-.6.7-.9.8-.5 0-.9 0-1.4-.1-1.4-.1-2.8.4-3.9 1.4-9.5-2.2-19.3-3.4-28.9-4.9-9.8-1.6-19.2-3.8-29.1-4.3-4.5-.2-9.1-1.2-13.5-1.6a99.47 99.47 0 0 1-13.3-2.1c-1.6-.4-3.1-1.7-4.8-1.7-3 .1-2.6 2.1-6.7.9-1.3-.4-2.5-1.3-3.9-1.5a22.72 22.72 0 0 0-5.2.3c-.5-.5-1.3-.5-1.8 0zm3.3 191.3c-.2.8-.2 1.7-.2 2.5.2 1.4.7 2.8 1.5 4 .4.6 2.3 1.6 2.5 2s-.4 2.6-.5 3.5c-.3 2.1.5 7.8-.8 9.3-.4.5-1.4.4-2.3.9s-1.3 2.2-2.1 2.6c-.4.2-.7.5-.8.9-2.7.2-6.8-.5-8.4-.5-4 0-8.1-.3-12.2-.5l-13.2-.6c-.4-.2-.8-.3-1.2-.2l-.2.1-.1.1c-2.1-.1-4.2-.1-6.3-.2h-2.3a1.72 1.72 0 0 0-1.7 0l-19.2-.3c-3.4-.1-6.8-.4-10.2-.4-2.4-.1-6.9 1.1-8.7 0l-.1-.1c-.5.1-1 0-1.3-.4h-.1c-.8.3-1.4-9.9-1.4-10.4-.1-2.7-.8-10.1 1.8-12h.1c.6-.7 1.3-1.2 2.1-1.5v-.1c3.3-1.2 7.9.3 11.1.1 2.9-.1 5.7-.8 8.5-.6l23.4.7 19.5.1c3-.1 6.7-.7 9.7-.3 1.6.2 3.1 1.1 4.7 1.4 1.3.1 2.6.1 3.9 0 .1.1.3.3.5.4.6-.2 1.2-.2 1.8 0 .2-.1.4-.3.5-.6l1.7.1zm123.7 17.2c.9 3.2 1.7 6.4 2.5 9.6.4 1.6 1.3 3.3 1.7 5-.8 1.9-1 4-.5 6-3.6-.3-7-1.4-10.4-1.1-5.5.4-10.9.4-16.4 0-5.5-.5-11-.5-16.5-.1-2.1.4-4.2.2-6.2-.5-1.4-.5-2.9-.7-4.4-.7-3.3-.1-7.9-1.5-10.9-.2-2 .8-2.2 1.4-4.6 1.3-1.8-.1-3.5-.3-5.4-.3-5.6 0-11.1-.7-16.7-.7-4.3 0-10.7.5-14.9-.6h-.4c.2-4.9.9-9.9.4-14.9-.9-9.6-1.6-19.6-1.6-29.2h.2c3.6.5 7.1 1.3 10.7 1.7 1.7.2 4.6 1.1 6.2.3 2.2-1.1.3-1.8 3.5-1.5 3.6.3 7 .9 10.6 1 1.2 0 6.4-.2 7.4 1-.2-.3.6 2 .6 2.1.8 1.7 3.5 3.2 4.5 4.6-.1.9.5 1.7 1.4 1.8h.8c.8-.2 1.3-1 1-1.8-.5-2.5-2.3-3.2-3.8-4.5 8.8 0 17.8.5 26.5 1 4.9.3 9.8 1 14.8 1.3 5.3.4 10.7-.3 15.9.2 0 .2-.1.3-.1.5-.6.2-.9.8-.8 1.4.2 1.6.5 3.3.9 4.9.2 1.2.5 2.4 1 3.5-1.9 3.1-4.2 6-6.8 8.5-2.5 2.5-3.2 3-6.9 3.4-7 .6-12.8-.3-18.9-3.8-2.3-1.3-4.8-3.3-7.5-3.7-2.5-.3-5.5.6-7.9 1.1-1.7.4-3.4.9-5.1 1.2-3.7.6-5.4-.2-7.6-2.9-1.7-2-3.3-3.7-6-4.1-.8-.2-1.6.3-1.8 1.1s.3 1.6 1.1 1.8l.7.3c.2.1.4.1.6.1 3.1 1.4 4.1 5.4 7.2 6.9 2.7 1.3 5.7 0 8.4-.7 5-1.2 9.7-2.6 14.5.2l1 .6c-1 1-1.8 2.2-2.9 3.1-1.9 1.6-3.6 3-5.9 3.5-3.5.4-6.1 3.3-6.2 6.8 0 .1-.1.3-.1.4v.2a1.54 1.54 0 0 0 1.5 1.5 1.54 1.54 0 0 0 1.5-1.5c0-1.6.4-3.2 1.9-4 1-.6 2-.3 3-.5 1.2-.4 2.2-1 3.1-1.8 1.4-1 2.7-2 4-3.1 1-.9 1.7-2.3 2.7-3 1.2.7 2.5 1.4 3.8 1.9 2.8 1.1 5.8 1.7 8.9 1.6 3.2-.1 8 .3 11-1.1 3.8-1.8 7.5-6.4 10-10.4.6 1.6 1.2 3.5 1.7 5.3zm-3.2-22.4c-4.6-.4-9.2-.1-13.9-.2-5.5-.1-10.9-.8-16.3-1.2-9.7-.7-20-1.3-29.7-1.2-.3-.9-.5-1.3-1.9-2-3.7-1.7-8.7-.8-12.6-1.2-2.4-.2-7.3-2-9.7-.8-.5.2-1 1.2-1.3 1.3 0 0-2.8 0-3.4-.1-4.6-.5-9.1-1.4-13.6-2s-8.9-.9-13.3-1.4c-2.6-.2-3.8-.3-5.3.3v-.5c.1-2.5 1.2-4.8 1.1-7.4a28.46 28.46 0 0 0-1.2-5.8c-1-3.2-1.1-6.5-.5-9.8.3-1.9.5-3.7.4-5.6l.3-20.8c0-13-.6-26.1.1-39.1.3-5.4-.4-10.8-.4-16.1 0-3.2-.2-6.4-.1-9.6.1-1.5.5-3.5.5-5.1 0-.8-.1-1.6-.2-2.4v-.1c1.1-3.6.4-7.9.4-11.6v-14.1c0-8.9-.9-18.1-.1-26.9 1.8-.2 3.6-.1 5.3.4 1.4.5 2.6 1.6 4.1 1.7 1.7.2 2.8-.8 4.4-1s.9-.1 2.6.5c1.6.4 3.2.7 4.8.8 3.1.4 6.1 1.1 9.2 1.6 4 .6 8 .8 12 1.4 5.8.9 11.5.9 17.2 1.9l14.1 2.6c10.3 2 20.9 2.9 31.2 5.4.8.2 1.6-.3 1.8-1.1v-.4c.2-.1.4-.1.7-.1.5-.1 1-.1 1.5 0 .6.1 1.3 0 1.9-.3.2-.1.4-.3.5-.4h.2c.8.2 1.5.5 2.2.8-1 2 .6 4.5 2.5 5.5-.1 1.9-.2 4.1 1.4 5.4 1 .8 2.2.5 2.7 1.4.3.6.1 3.3.1 4 .2 3.3-1 8.2.6 11.4.5.9 1.2 1 1.7 1.7 1.2 1.8.4 3.7.2 6s-1 5.9.1 8.2c.6 1.1 1.1 1.1 1.3 2.6.1 1.5-.1 3.1-.7 4.5-1.4 3.5-2.9 4.7-2.2 8.9.3 1.1.7 2.2 1.1 3.2.3 1.2.3 2.5.1 3.8-.1.1-.1.3-.1.4-.2 1.1-.6 2.2-1.1 3.3-.4.3-.6.8-.6 1.2-2 3.6-4.9 6.8-5.9 10.7-1.7 6-2.5 12.2-2.6 18.4 0 5.6 5.2 9.4 7.1 14.5 1.1 3.1.3 6.4.5 9.6.2 3.8.5 7.4.5 11.2-.1 3.2-.9 6.5-.5 9.6.8 5.5 3.4 10.9 3.2 16.6.2 2.9-1.3 5.1-2.4 7.5zm73.2-5.8c-.8.1-1.5.3-2.3.5-2.5.8-5.2 1.3-7.9 1.4-3.6.3-7.3.5-10.9.6-2.6.1-5.6-.4-8.2.5-1.5.6-2.5 1.6-4.1 2.1-1.6.4-3.3.6-5 .4-3.5 0-6.9-.1-10.4 0-7 .1-13.9 1.2-20.9 1.3.2-.4.3-.9.5-1.3 1.4-3.6 1.9-7.4 1.3-11.2-.6-4.3-2.3-8.5-2.8-12.8-.2-2.5 0-5 .4-7.5.1-.2.2-.5.2-.7v-2.4c0-.8-.1-1.5-.1-2.3 2.5 3.3 5.3 6.4 8 9.6 1.4 1.6 2.1 3.8 3.8 5.2 2 1.5 4.9 1.8 7 2.9s3.5 2.8 5.4 4.2c2.2 1.4 4.5 2.7 7 3.6 3.2 1.4 5.3 2.9 8.9 3.4 1.8.3 3.2.9 5 .5 2.6-.6 4.3-2.7 6.5-4 2.5-1.6 5.1-1.6 7.8-2.6 1.1-.4 2.7-1.6 3.8-1.7 2.5-.2 3.4 1.8 4.4 3.6s1.7 3.9 2.8 5.9c-.2.5-.2.6-.2.8zm76.4-150l-.7 12.7-1.1 25.8-.4 13.9a15.28 15.28 0 0 0 .8 6.4c.5 1.1.8.6 1.3 2.1.5 1.7 0 4.6-.1 6.4-.2 3-.2 5.9-.2 8.8 0 7-.5 14.2-.9 21.2l-1.2 22.4c-.3 7.1-1.2 14.1-1.3 21.2-1.8.8-5.1.9-7.1 1.1-2.7.3-5.4 1-8.1 1.5-7 1.1-14 1.9-21.1 2.8-3.4.4-6.7 1.1-10.2.8-2.3-.4-4.6-.5-6.9-.4-5.3.6-10.6 2.1-16 2.3-.2-.3-.5-.6-.7-1-1.4-2.2-2-5-3.4-7.2s-3.7-4.4-6.5-3.7c-1 .4-2 .8-3 1.3-2.2.9-3.9.9-6.2 1.5-2 .5-3.5 1.8-5.2 3.1-2.6 2-4.4 2.3-7.6 2.1-2.6-.2-3.6-1.2-5.8-2.4-1.8-1-3.9-1.4-5.8-2.4-2.4-1.2-3.9-2.8-6-4.4-1.5-1.1-3.2-2-5-2.7-3.3-1.4-5.2-2.5-7.3-5.4-3.5-4.9-8-9-11.3-14.1-.1-.1-.1-.2-.2-.3 0-.5-.1-1-.1-1.5-.2-3.2.4-6.3-.1-9.4-.8-4.9-5.1-8.8-6.6-13.5-1.7-5.5-.1-14.1 1.6-19.5 1.2-3.9 4-7 6-10.7 1.2-1.1 1.9-2.6 2.9-4.1s2.9-3 3.4-4.9c.7-2.3-.8-4.4.8-6.6 1.2-1.7 2.5-2.1 3.1-4.3s.4-4.9.7-7.2c.2-1.5.8-3.5.1-4.9-.5-1-1.8-1.2-2.2-2.2-.6-1.6.9-5.2.9-7 0-3.4.7-6.8-2-8.9-1-.8-1.7-.6-2.3-2-.4-.9.1-3.6.1-4.6 0-2.3.4-4.5-.4-6.6-.2-.5-.6-.8-.7-1.4-.3-2 1.1-2.9 2.1-4.2.3.3.6.6.8.9s.4.5.6.8c0 .6.5 1.1 1.1 1.2 5.1 1.1 10.8-1.1 15.7-2.3 3.6-.9 7.1-1.5 10.8-2.1 1.8-.3 3.7-.9 5.5-1 1.5-.1 3.1.7 4.5.7 1.8 0 3.5-.8 5.3-1.2 4.1-.9 8.3-1.5 12.5-2.2 6.3-1.2 12.1-3.3 18.4-4.5 3.7-.8 7.3-1.9 11-2.8 2.7-.7 4.9-.5 7.6-.6 3.2-.1 6.8-1.7 10-2.4 3.7-.8 7.5-1.9 11.3-2.3 3-.4 6.2-1.7 9.3-1.6 3.4.2 6.7-.2 10-1a82.26 82.26 0 0 0 4.7-1.3c-.3 2.8-.4 5.7-.2 8.6.4 3.2 1.8 6.3 2 9.6.3 4.1-.8 9.1-1 13.6zm12.3-38.7l-.2.2c-2.8.5-5.5 1.1-8.2 1.9-1.4.6-2.9 1-4.5 1.1v.1c-1.9.5-3.8 1.1-5.7 1.6-3.6.9-7 .7-10.6 1-3.2.3-6.5 1.2-9.7 1.7-6.3 1-12.4 3.5-18.8 4.3-2.8.3-4.6-.3-7.4.4-3.7.9-7.4 2.2-11.1 3l-18.2 4.4c-3.8.8-7.6 1.4-11.4 2.1-2.2.4-5.3 1.7-7.4 1.3s-3-.7-5.4-.2c-3.6.7-7.3 1.2-10.9 1.8-2.9.5-5.7 1.4-8.5 2s-6.5 1.9-9.6 1.7c-.2-.2-.4-.4-.6-.5-.1-.1-.5-.3-.4-.2-.1-.2-.2-.4-.4-.6-.4-.5-.8-.9-1.3-1.3 0-.1.1-.2.1-.4.9-3.9.1-8.6.4-12.7 1.6-.6 4.6-1 5.2-1.4 1.5-.9.7-1.7 1.3-3 .6-.7 1.5-1.2 2.4-1.3 1.8-.2.7.2 2 .6 2 .6 2.2.7 4.5.1 5.9-1.5 12.8-1.6 18.2-4.4 6.4-3.3 14.6-3.7 21.7-4.8 5.9-.9 11.1-3.6 17-4.6 3.2-.6 6.6-.7 9.6-1.7 4-1.3 8-2.3 12.1-3 3.8-.6 7.5-1.6 11.2-2.3s7.5-2.2 11.3-2.8c2.9-.4 5.8-.4 8.5-1.4 1.1-.4 1.7-1 2.6-.7.7.2 1.1 1.5 2 1.8 2.2.7 5.9-1.3 8.2-1.7 1.5-.3 3-.4 4.5-.8 1.6-.5 3.9-1.9 5.6-1.5 2.9.8 1.5 5.6 1.6 8.3.2 4 .6 8 .3 11.9z"/><path d="M282.7 353.4z"/></g><path d="M490.9 189.1c-.3-1.6-.4-3.2-.4-4.8 0-.9.5-2.3.1-3.2-.2-.3-.4-.6-.7-.8 0-2.6-.3-5.2-.9-7.8-.2-1.1-.1-2.5-1.1-3.3s-2.4-.8-3.7-.8c-.4 0-.9.2-1.1.6-2.6-.3-5.7.6-7.8.8a17.4 17.4 0 0 0-4.5.6c-2.1.7-3.4 2.1-5.8 2.4l-7.4 1.2c-1.1.4-2.1.9-3 1.6h-.2c-2.7.1-4.7-.9-7.5-.5-3.9.7-7.8 1.8-11.4 3.3l-1.8-.1c-2-.1-3.7.8-5.7 1.2l-17 3.3-9.7 1.7c-2.4.4-5.3.4-7.5 1.6-.3.2-.6.4-.9.7-1.3.1-2.6.2-3.8.4-2-.2-4-.7-6.2-.6-4.3.5-8.5 1.5-12.5 3-2.9.6-5.8 1.4-8.5 1.8-.7.1-1.2.7-1.1 1.4v1c-3.4 1-2.8 3.6-2.2 7.8 0 1.1.2 2.2.5 3.3.6 1.3 1.6.3 2 2.5.1.9-.5 2.6-.4 3.6.1 1.9.6 3.8.8 5.6-.4 2.8-1.2 7.8 1.4 9.4-.1.9.6 1.6 1.4 1.7a1.69 1.69 0 0 0 1-.3c5.4-.2 10.8-1.4 16.1-2 3.9-.5 8.1-.4 11.4-2.5.2-.1.2-.5.4-.7 1.4-.8 3-1.1 4.6-1 2 0 4 .5 6 .2 5.8-.6 11.8-1.8 17.6-2.7l35-5.3c6.3-.9 12.4-2.2 18.6-3.6 2.4-.5 5.7-.6 7.5-2.4.4-.2.8-.4 1.1-.7 1.8-.4 3.7-1 4.7-2.4 1.4-1.9.6-4.7.4-6.9a7.55 7.55 0 0 0 1.1-1.4c1.5-2 1.4-4.4 1.1-6.9zm-150.8 6c-.8-.8-1.8-.8-2.6-1.4-1.1-.7-1.7-1.9-2.9-2.6-3.9-2-9.9-1.5-14.1-2.2-11.6-2.1-23.5-4.5-35.3-5.4-3.7-.3-6 .2-9.2-.5-6.2-1.3-12.6-2.4-18.9-3.3l-18-2.5c-2.6-.4-6.2-1.8-7 1.7-.1.4-.1.8-.1 1.2 0 .2 0 .4-.1.6-.1 1.3-.4 2.6-.5 3.9 0 .6 0 1.2.1 1.7-.1.2-.1.4-.1.6 0 .5.3.9.8 1.1.1.1.2.1.2.2 0 .2 0 .4-.1.7-.3 1.2-.4 2.3-.5 3.5 0 .3 0 .6-.1 1-.9.2-.6 1-.7 2-.1 1.6-.7 3.1-.6 4.7-.2 1.4-.4 2.7-.4 4.1 0 .1 0 .3.1.4-.1 1.1.1 2.2.5 3.2 0 .6.5 1.1 1.1 1.2.2.1.4.1.6.1.6.5 1.4.9 2.2 1 1.9.3 3.5 1.3 5.4 1.4.3 0 .7-.1.9-.3l17.7 2.8c12.5 2.2 25.1 4 37.7 5.9l34.1 5.4c2.3.4 6.5 1.9 8.6.3s2.2-6.8 2.2-9.2c0-1.9-.2-3.9-.4-5.7-.2-2.4.5-4.1.8-6.4.5-2.6.5-7.1-1.4-9.2z" fill="#999"/><defs><path id="A" d="M340.1 195.1c-.8-.8-1.8-.8-2.6-1.4-1.1-.7-1.7-1.9-2.9-2.6-3.9-2-9.9-1.5-14.1-2.2-11.6-2.1-23.5-4.5-35.3-5.4-3.7-.3-6 .2-9.2-.5-6.2-1.3-12.6-2.4-18.9-3.3l-18-2.5c-2.6-.4-6.2-1.8-7 1.7-.4 1.7.4 3.1.7 4.6-.2 1.8-.3 3.7-.4 5.5-.3 1.2-.4 2.3-.5 3.5-.2 3.6-1 9.1.1 13.1a.78.78 0 0 0-.4.4l-.5.6c-.8.9-.4 2.6 1.1 2.6.5 0 1-.1 1.4-.2 1.1 1.6 2.8 1.5 5.7 2.1 6.4 1.2 12.9 2 19.4 3.1 12.5 2.2 25.1 4 37.7 5.9l34.1 5.4c2.3.4 6.5 1.9 8.6.3s2.2-6.8 2.2-9.2c0-1.9-.2-3.9-.4-5.7-.2-2.4.5-4.1.8-6.4.3-2.8.3-7.3-1.6-9.4z"/><path id="B" d="M222.6 366c-.3-1.1-.9-2.1-1.8-2.8-1.4-1-3.1-.9-4.7-1h-.5a1.3 1.3 0 0 0-1.2-.8c-5.8-.2-11.4-.5-17.2-.5-5 0-10.2 1-15.1.8-10-.5-20.2-1.6-30.3-.8-3.5-.6-10.1-1.8-11.2 1.1v.1c0 .1 0 .1-.1.2-1 .4-1.8 1.2-2 3s-.4 9.9 1.2 11.8 6.7 1.7 9.1 1.9c2.9.3 5.8-.3 8.7-.4 3.6-.1 7.2 0 10.8-.1 2.5-.1 4.9-.1 7.4-.1l13.8.7 7.6.3 12.2.8h.4c2.1.2 4.2.6 6.4 1 3.5.8 5.1-.6 5.8-3.4 2.2-.4 3.9-.7 4.3-3.8.2-2.3.4-8.5-3.6-8z"/></defs><clipPath id="C"><use xlink:href="#A"/></clipPath><g clip-path="url(#C)" class="N"><path d="M343.3 208.5l-.5-.3c-.5-.4-1.2-.4-1.6.1-3.3-.9-6.8-1.2-10-1.9-4.6-1-9.5-.9-14.2-1.4-1.8-.2-3.6-.5-5.4-.8.3-5.9.6-11.8.6-17.8a1.54 1.54 0 0 0-1.5-1.5 1.54 1.54 0 0 0-1.5 1.5c0 5.8-.3 11.6-.6 17.3-8.3-1.4-16.5-3.2-24.7-4.8-4.2-.8-8.4-.3-12.6-1.1-1.9-.4-3.8-.9-5.7-1.5.1-5.6.5-11.2 1.4-16.7.3-1.9-2.6-2.7-2.9-.8-.8 5.5-1.3 11.1-1.3 16.6-1.5-.5-3.1-.8-4.6-1.1-9.7-1.7-19.6-3.4-29.3-4.4-1.9-.2-1.9 2.8 0 3 10.2 1 20.4 2.5 30.4 4.7 1.2.2 2.3.6 3.5.9-.1 8.2-.1 16.3-1.3 24.4-.2.8.3 1.6 1.1 1.8.5.1 1 0 1.4-.4l.3-.2c.5-.4.7-1.1.3-1.7 1-7.6 1-15.3 1.1-23 1.9.6 3.7 1.1 5.7 1.4 4.6.8 9.1.4 13.7 1.4l23.5 4.5-1.2 23.6c0 1.9 3 1.9 3 0 .2-7.7.8-15.4 1.2-23.1l3.2.5c5 .7 10.1.6 15 1.6 3.8.7 8.8 1.2 12.4 2.5.8.2 1.6-.3 1.9-1.1l.1-.4c-.1-.7-.3-1.4-.9-1.8z"/></g><defs><path id="D" d="M490.9 189.1c-.3-1.6-.4-3.2-.4-4.8 0-.9.5-2.3.1-3.2-.2-.3-.4-.6-.7-.8 0-2.6-.3-5.2-.9-7.8-.2-1.1-.1-2.5-1.1-3.3s-2.4-.8-3.7-.8c-.4 0-.9.2-1.1.6-2.6-.3-5.7.6-7.8.8a17.4 17.4 0 0 0-4.5.6c-2.1.7-3.4 2.1-5.8 2.4l-7.4 1.2c-1.1.4-2.1.9-3 1.6h-.2c-2.7.1-4.7-.9-7.5-.5-3.9.7-7.8 1.8-11.4 3.3l-1.8-.1c-2-.1-3.7.8-5.7 1.2l-17 3.3-9.7 1.7c-2.4.4-5.3.4-7.5 1.6-.3.2-.6.4-.9.7-1.3.1-2.6.2-3.8.4-2-.2-4-.7-6.2-.6-4.3.5-8.5 1.5-12.5 3-2.9.6-5.8 1.4-8.5 1.8-.7.1-1.2.7-1.1 1.4v1c-3.4 1-2.8 3.6-2.2 7.8 0 1.1.2 2.2.5 3.3.6 1.3 1.6.3 2 2.5.1.9-.5 2.6-.4 3.6.1 1.9.6 3.8.8 5.6-.4 2.8-1.2 7.8 1.4 9.4-.1.9.6 1.6 1.4 1.7a1.69 1.69 0 0 0 1-.3c5.4-.2 10.8-1.4 16.1-2 3.9-.5 8.1-.4 11.4-2.5.2-.1.2-.5.4-.7 1.4-.8 3-1.1 4.6-1 2 0 4 .5 6 .2 5.8-.6 11.8-1.8 17.6-2.7l35-5.3c6.3-.9 12.4-2.2 18.6-3.6 2.4-.5 5.7-.6 7.5-2.4.4-.2.8-.4 1.1-.7 1.8-.4 3.7-1 4.7-2.4 1.4-1.9.6-4.7.4-6.9a7.55 7.55 0 0 0 1.1-1.4c1.5-2 1.4-4.4 1.1-6.9z"/></defs><clipPath id="E"><use xlink:href="#D"/></clipPath><g clip-path="url(#E)" class="N"><path d="M492.4 188.2c-1.2.1-2.4.4-3.5.9 0 0 0-.1-.1-.1l-.4-.2c-.7-.4-1.6-.2-2 .6-.1.2-.2.4-.2.6-1.3.6-4.1.7-4.9.8l-8.8 1.4c-4.6.6-9.3 1.2-13.9 2.2l-2.3.4c-.5-2.6-1.1-5.2-1.5-7.8-.7-4.1-.5-8.4-2.2-12.3-.8-1.8-3.4-.2-2.6 1.5 1.5 3.4 1.4 7.9 1.9 11.6.4 2.6.9 5.1 1.3 7.6l-25.1 4.6-25.6 4.6c-1-6.1-2.1-12.4-2.8-18.6-.2-1.9-3.2-1.9-3 0 .7 6.4 1.8 12.8 2.9 19.1l-31.6 5.8c-1 .1-1.9.1-2.9.1l-2.2.3c-.9.1-1.6.6-2.4.8-1.9.3-1.1 3.2.8 2.9 1.5-.2 2.9-.9 4.5-1 .4 0 .8 0 1.2-.1.2.1.5.1.7 0l1-.2c.7-.1 1.3-.1 2-.1.4 0 .8-.2 1.1-.5a691.78 691.78 0 0 1 28.2-4.8c.2 2.5-.1 4.9.1 7.4.4 3.3 1 6.5 1.7 9.7.4 1.9 3.2 1.1 2.9-.8-.5-2.8-1.1-5.6-1.5-8.5s.1-5.5-.2-8.4c10.1-1.7 20.2-4.2 30.3-5.7 6.8-1 13.5-2.5 20.3-3.9l.3 3c.2 3.3.3 6.8.8 10 .3 1.9 2.5 6.6 1.7 8.4s1.8 3.3 2.6 1.5c1.1-2.6-.3-5.1-.8-7.8-.7-4.6-1.2-9.3-1.4-14 0-.6-.1-1.1-.2-1.7l8.2-1.5c5.4-.9 10.9-1.5 16.3-2.4 1.7-.3 4.5-.3 6.4-1.2.2 0 .3 0 .5-.1 1.4-.4 2.9-1.3 4.4-1.3 1.9.2 1.9-2.8 0-2.8z"/></g><path d="M306.4 188.4c-.5 4.7-.6 9.5-.5 14.3a1.54 1.54 0 0 0 1.5 1.5 1.54 1.54 0 0 0 1.5-1.5c-.1-4.8.1-9.5.5-14.3.2-1.9-2.8-1.9-3 0zm2.1 18.7c0-1.9-3-1.9-3 0l-.6 6.5c-.2 2.3-.2 4.6-.2 7a1.54 1.54 0 0 0 1.5 1.5 1.54 1.54 0 0 0 1.5-1.5c0-4.6 1-9.1.8-13.5zm32.9-6.3c0-1.9.2-3.7-1.1-5.3s-3.8 0-2.6 1.5c1 1.3.6 2.9.7 4.4a17.82 17.82 0 0 1-.3 4.6c-.4 1.9 2.5 2.7 2.9.8.3-2 .4-4 .4-6zm-2.8 10.6l-.1.1c-.5.3-.7.9-.6 1.4l-.4 4.9c0 .5-.5 5.6-.2 5.5-1.9.2-1.9 3.2 0 3 2.2-.2 2.8-2.3 3-4.3l.7-9c0-1-1.3-2.4-2.4-1.6zm-75-29.8a1.54 1.54 0 0 0-1.5-1.5 1.54 1.54 0 0 0-1.5 1.5c.1 2.6.1 5.2-.1 7.8l-.5 5.3c0 .8.7 1.5 1.6 1.5.4 0 .7-.2 1-.4l.1-.1c.5-.4.6-1 .3-1.6.1-1.6.5-3.3.6-5 .3-2.5 0-5.1 0-7.5zm-.8 18.2c.2-1.9-2.8-1.9-3 0l-.5 7.4c-.1 1.9.6 5-.1 6.8s2.1 2.6 2.9.8.2-4.6.2-6.6c0-2.8.2-5.6.5-8.4zm133.9-13c-.6-1.8-3.5-1-2.9.8 1.7 5.5 2.6 11.3 2.5 17.1a1.54 1.54 0 0 0 1.5 1.5 1.54 1.54 0 0 0 1.5-1.5c.1-6.1-.7-12.1-2.6-17.9zm2.9 22.3c-.3-1.9-3.2-1.1-2.9.8.6 3.5 1.1 7.1 1.3 10.6.1 1.9 3.1 1.9 3 0-.2-3.8-.7-7.7-1.4-11.4zm53.7-13.6l-2.5-18.9c-.2-1.9-3.2-1.9-3 0l2.5 18.9c.2 1.9 3.2 1.9 3 0zm.4 3.7c-.4-1.9-3.3-1.1-2.9.8 1 4.5 1.6 9 1.8 13.6.1 1.9 3.1 1.9 3 0-.2-4.9-.9-9.7-1.9-14.4z" class="P"/><g class="Q"><path d="M288.3 206.3c-1.5 1.4-4 2.3-5.8 3.2s-3.9 1.7-5.4 3.1.8 3.5 2.1 2.1 4.2-2.4 6.1-3.3c1.8-.8 3.6-1.8 5.1-3.1 1.4-1.2-.7-3.3-2.1-2zm.9 5.5c-.4-.1-.8-.1-1.1 0s-.5.2-.7.4l-.1.1-.4.2c-.4.1-.7.3-1.1.5-.7.4-1 1.3-.5 2.1s1.3 1 2.1.5c.4-.2.7-.3 1.2-.5.2-.1.3-.2.5-.2l.1-.1c.6-.1 1.1-.5 1.2-1.1.1-.9-.4-1.7-1.2-1.9zm6-29.7c-1.3.7-2.4 1.5-3.6 2.3-.7.9-1.1 2-1.3 3.1-.6 1.8-1.7 1.9-3.5 2.4-1.3.4-2.3 1.3-3.5 1.6-1.8.6-1 3.5.8 2.9 1.4-.4 2.5-1.3 3.9-1.8 1.3-.3 2.6-.8 3.7-1.6.8-.9 1.4-2 1.6-3.2.5-1.9 1.7-2.2 3.4-3.3s.1-3.5-1.5-2.4zm-51.5 16.5c-1.7.8-3.3 1.7-4.8 2.7-1.4.9-1.5 2.5-2.8 3.5-3.5 2.5-8.8 2.5-8.6 7.8.1 1.9 3.1 1.9 3 0-.1-3.4 6.8-4.1 8.8-6.5 1.1-1.3.8-2 2.5-2.9 1.3-.6 2.2-1.6 3.5-2.1 1.7-.7.1-3.2-1.6-2.5zm-1.8-20.1c-.9-.1-1.8-.1-2.8-.1l-2.1.2c-2.2-1.2-3.5-2.7-6.4-2.4-1.9.2-1.9 3.2 0 3 1.7-.1 2.3.6 3.5 1.4.7.5 1.5.9 2.4 1.1.9 0 1.8-.1 2.8-.2.8-.1 1.7 0 2.5.1 2 0 2-3 .1-3.1zm86.8 33.8c-1.2.3-2 1.4-3 1.9-1.6.8-3 1.8-4.5 2.9-1.6 1.1-.1 3.7 1.5 2.6 1.3-1 2.6-1.9 4-2.6.5-.2 1.1-.5 1.5-.9.4-.3.7-.8 1.2-.9 2-.6 1.2-3.5-.7-3zm59.4-10.5c-1.1.1-2.1 1.1-3.2 1.1s-2.6-1.5-3.2-2-1.2-1-1.9-1.3c1.5-1.1 3.2-1.9 5.1-2.2s1.1-3.2-.8-2.9c-2 .3-3.9.9-5.7 1.9-1.2.7-1.5 2-2.6 2.9-1.8 1.4-4.1 2.1-6.4 2-2.8-.3-3.4-2.1-5.6-3s-5.3-.3-7.6-.5c-1.9-.2-1.9 2.8 0 3l5.1.2c2 .5 2.1 1.2 3.5 2.2 2 1.6 4.2 1.6 6.7 1.1 1.6-.3 3.1-1 4.4-1.9.3.2.7.2 1.1.1 1.7-.5 2.2.3 3.3 1.3.8.7 1.7 1.3 2.6 1.8.8.3 1.7.4 2.6.3s1.7-1 2.5-1c2-.2 2-3.2.1-3.1zm90-25.9c-2.4 2-4.3 4.5-6.7 6.5-1.5 1.2-4.5 2.6-5.1 4.7-.2.8.4 1.6 1.2 1.8.7.1 1.4-.3 1.7-1 .1-.4 1.8-1.4 2.1-1.6l3.1-2.4 5.9-5.7c1.4-1.4-.8-3.5-2.2-2.3zm3 7.1c-.3-.8-1.1-1.2-1.9-1s-1.4.7-1.9 1.4c-.5.6-1.1 1.1-1.8 1.6-.7.4-.9 1.3-.5 2s1.3.9 2 .5c.7-.5 1.3-1 1.9-1.6l1-1c.9-.2 1.4-1 1.2-1.9zm-49 20.8c-2.1.7-3.9 2.6-5.6 3.9-2.8 2.1-5.9 4-8.8 5.9-1.6 1-.1 3.6 1.5 2.6 2.6-1.7 5.3-3.4 7.8-5.2 1.8-1.3 3.7-3.7 5.9-4.4 1.8-.5 1-3.3-.8-2.8zm-16 6.3c-.4-.7-1.3-.9-2-.5-.9.5-1.7 1.1-2.5 1.8-.7.4-.9 1.3-.5 2.1.4.7 1.3.9 2 .5.9-.6 1.6-1.3 2.5-1.8.8-.4 1-1.3.5-2.1zm61.2-11.7c-.2.5-.7.8-1 1.3-.4.7-.5 1.6-.9 2.4-.8 1.4-2.5 1.9-3.5 3.1-2.7 3.2-5.7 6.3-8.4 9.5-1.2 1.5.9 3.6 2.1 2.1l5.2-6.1c1.2-1.3 2.5-2.9 3.7-4.1s2.5-1.6 3.4-3.2c.6-1.1 1.4-2.4 1.9-3.6.9-1.6-1.7-3.2-2.5-1.4z"/><path d="M433.8 183.4c-1.8.4-2.8 2.2-4 3.4l-5.9 5.6c-.6.6-.6 1.5 0 2.1s1.5.6 2.1 0l4.9-4.6c.7-.6 1.4-1.3 2-2 .5-.5 1-1.5 1.7-1.7 1.9-.3 1.1-3.2-.8-2.8zm-56.9 40.8l-1-.6c-.5-.2-.9-.2-1.2-.5.2 0 .4-.1.6-.2.8-.6 1.7-1.1 2.5-1.6.8-.4 1.3-1.1 2-1.5s.9-1.3.5-2-1.3-.9-2.1-.5-1.3 1.1-2 1.5l-1.3.7v-.7a.9.9 0 0 1 .1-.5v-.2c.7-.4 1-1.4.6-2.1-.3-.4-.7-.7-1.2-.8-1.2 0-1.9.9-2.2 2-.4 1.4-.4 2.8-.9 4.1-.6 1.4-.2 3.1 1 4 .8.6 1.8.7 2.6 1.2.9.7 1.8 1.5 2.7 2.4 1.4 1.3 3.5-.8 2.1-2.1l-2.8-2.6z"/></g><path d="M346.2 303.7c-.5-.8-.8-1.8-.9-2.7 0-1.6.7-2.1 0-3.8-.4-1.1-1.7-1.9-1.7-3.3 0-1.9 1.2-2.3 2.6-3.3 2.2-1.5 7.2-8.8 5.6-11.1-.7-1-3.6-1.6-4.7-2.2-1.3-.6-2.4-1.5-3.4-2.5-1.4-1.6-2.2-3.7-1.4-5.8.6-1.4 2-2.4 2.8-3.6.9-1.5 1.1-3.3 1.7-4.9 1.3-3.1 2.5-4.8 2.4-8.2v-1.5c-1.5-.2-2.9-.7-4.5-1-3.7-.7-7.5-.7-11.3-1.3-9.6-1.5-19.4-2.6-29.1-4-8.3-1.2-16.1-3.7-24.4-3.9-.4-1.1-1.7-1.7-2.8-1.3l-.6.3c-5.1 4.1-4.5 9.8-4.4 16 .2 8.5.2 16.8-.3 25.3-.2 4.3 1 11.4 5.5 13.3 2.5 1.1 5.6.8 8.3 1 4.5.4 9 1.3 13.5 1.8 8.6 1 16.9 3.5 25.4 4.8l21.1 3.4c.3 0 .7.1 1 .1.1-.5-.1-1.1-.4-1.6z" fill="#fab80e"/><path d="M278.6 244.8c-2.1 3.6-2.5 7.8-2.7 12-.1 3.1.6 6.2.4 9.4s-1 6.2-1 9.5c0 1.4-1.5 20.6 4.9 13.9 1.3-1.4-.8-3.5-2.1-2.1 1.1-1.2.3-6.1.3-7.9.1-4.2.4-8.3.9-12.5.7-6.7-1.7-14.4 2-20.6.4-.7.2-1.6-.5-2.1-.8-.5-1.8-.3-2.2.4zM397 267.5c-2.1 3.3-9.8 6.4-13.5 6.8-1.8.2-3.8.4-5-.9 1.6-1.5 3.1-3.2 4.3-5.1 1.3-1.8 3.7-5.8 2.2-8-1.2-1.9-3.8-1.2-5.2 0-2.8 2.2-6 8.2-5.3 12.5-3.3 3-7.7 4.4-12.2 4 0-.1 0-.2.1-.3 2-2.9 3.6-6 5-9.2 1.5-3.6 4.6-10.2 2.3-13.9-.4-.5-1.1-.8-1.7-.5-2.5.7-3 3.1-3.7 5.3-1.4 4.5-2.5 9.1-3.7 13.6-.3 1.1-.6 2.3-1 3.5-.3.4-.5.8-.8 1.2-1.7 2.5-3.5 4.8-5.5 7.1.4.3.7.6.9 1 .3.5.5 1.1.7 1.7l1.7-2 .5-.6c-1.3 4.8-2.3 9.6-1.8 14.1.1.8.8 1.4 1.6 1.4 3.9-.2 6.2-4.6 7.3-7.9 1.4-4.2.5-7.8-1-11.5 4.5.1 9-1.4 12.6-4.1.4.4.9.8 1.5 1 3 1.5 7.4.8 10.4-.4 3.6-1.4 9.5-3.5 11.7-6.9.9-1.6-1.4-3.5-2.4-1.9zm-16.6-3.5c.6-1.3 1-1.2 1.3.3-.5 1.2-1.2 2.3-2.1 3.3-.6.8-1.3 1.6-2 2.3.3-2.3 1.5-5.2 2.8-5.9zm-13-6.7c-.4 2.2-1 4.3-1.9 6.4.4-2.2 1-4.4 1.9-6.4zm-5.6 29.9c-.1 2.2-1.4 6.8-3.8 8.4-.1-4.5 1.3-9.4 2.7-14 .9 1.7 1.3 3.7 1.1 5.6zm-16.1 1.2c1.1-1.2 1.4-2 1-3.1-1.8.2-4.4.3-5.5-.6-1.4-1.3-1.1-2.8-.1-4.1.5-.1 1-.3 1.5-.4-.6-1.6-.7-3.3-.2-5-1.3 1-2.7 1.9-4.1 2.7l-3.1.4-6.6.5v-.4c.8-.6 1.6-1.1 2.5-1.6 2.2-1.2 4.5-2 6.9-2.5l3.3-.5c.4.3.8.7 1.2 1.1a12.05 12.05 0 0 1 2-4.1c-.6-.1-1.2-.2-1.8-.1-5.2.1-11.9 1.9-16 5.4-.9.7-1.6 1.7-2 2.8-1.6 0-3.2 0-4.8-.1-4.9-.2-10.3 0-15-1.9-3.3-1.3-6.5-4.5-3.9-8.1 1.2-1.5 2.7-2.8 4.4-3.8 7-4.8 19.6-12.6 27.9-7.6 1.6 1 3.4-1.4 1.7-2.4-10.2-6.1-24.8 2.5-33.1 8.9-3 2.3-6.1 5.7-4.8 9.8 1.7 5.2 8 7.2 12.9 7.7 5 .5 10 .7 15 .6.6.7 1.5 1.1 2.4 1.2 3.2.4 6.6-.1 9.5-1.4-.5 1.4-.3 3 .6 4.2 1.9 2.1 5.1 2.5 8.2 2.4zm99.8-17.4c-2.2-1.3-4.4-1.2-6.8-1 .3-.4.6-.8.8-1.2 1.6-2.9 4.1-9.5-1-10.2-2.7-.4-5.9.5-8.6.8-2.1.3-4 .3-5.8 1.3-.6-.6-1.6-.5-2.2.1-.3.4-.4.9-.3 1.3.9 3.2.4 7.3 2.2 9.9-2.1.3-4.4.8-5.4 2.3-1.4 2.2.5 3.4 2.5 3.7 4.9 1 10.9-.1 15.8-.8 3.1-.4 8.7-.5 9.4-4.6.2-.5-.1-1.2-.6-1.6zm-20.4-7.4c1.2-1 3-.8 4.5-1 1.8-.2 3.6-.5 5.3-.7 1.5-.2 3.4-.8 3.5 1.3 0 1.5-1.2 3.9-2 5-2.2 3.2-8.6 5.3-10.7.8a15.81 15.81 0 0 1-.9-5.2c.1-.1.2-.2.3-.2zm2.5 11.5c-2 .1-4.3.3-6.1.6s1.3-.2 1.8-.4c.9-.2 1.8-.4 2.7-.4.5 0 .9-.3 1.2-.7 3 .8 6.2.2 8.8-1.6.3.4.7.7 1.2.6 1.7-.3 3.4-.3 5.2-.1-2.8 2.2-12.8 1.8-14.8 2zm1.7-23.4a3.98 3.98 0 0 0-.9-2.1c-.2-.2-.4-.5-.6-.6l.4-.3c1.4-1.3-.7-3.4-2.1-2.1-.9.6-1.4 1.6-1.4 2.7.1 1.2 1.4 1.6 1.6 2.7s-1.2 2.2-1.5 3.2c-.3 1.1.1 2.3 1 3 1.4 1.4 3.5-.8 2.1-2.1-.4-.4.6-1.5.9-2 .3-.8.5-1.6.5-2.4zm6.4-.9c-.2-.3-.4-.7-.5-1.1s0-.5-.3-.6c1.9.1 1.9-2.9 0-3-1.5-.1-2.7 1-2.8 2.5v.3c0 .8.1 1.6.4 2.3.1.4.3.7.5 1.1.1.1.1.3.2.4-.9 1-1.9 1.6-1.8 3.1.1 1.9 3.1 1.9 3 0 0-.4 1-1 1.2-1.3.2-.2.3-.5.4-.7 0-.1.1-.2.2-.4.2-.2.2-.5.2-.8-.1-.7-.3-1.3-.7-1.8z" class="Q"/><path d="M386.7 389.3c6-.8 11.8-.7 17.7-1.2 1.8-.1 4.3.4 4.4 1.8.6-.9 1.3-1.8 2.2-2.5 2.6-1.9 5.5-2.6 8-4.8 1.6-1.4 3.2-3 4.7-4.5-.5-.4-1.1-.6-1.7-.9-2.7-1-5.4-.3-8.1.1-5.3.9-10.6.7-15.9.9-4.1.2-9-.3-13 .4-2.1.4-2.7 1.2-3.4 3.1-.5 1.4-1.4 5.2-.5 6.6 1 2.1 3.8 1.3 5.6 1zm38.5 24.1c-1-5.5-2.1-11.2-2.3-16.8-.1-3.9.4-7.7 1.6-11.4.7-2.3 1-3.9.6-5.1-1.9 2.1-3.9 4-6.1 5.7-2.6 2-6 2.7-8.2 5.3-2.6 3.2-4.4 5-8.2 5.9-.2 1.3-.8 2.5-1.6 3.5-1.7 1.9-4 3.1-6.1 4.5 0 .3-.1.6-.4.8-7.3 6.3-6.8 16.8-10.5 25-.5 1.3-1.3 2.5-2.3 3.5-1.3 1.1-2.5.9-3.2 2.8-1 2.5.1 3.8-2.4 5.4-1.2.8-2.4-1.2-1.1-1.9 2.1-1.3.7-5.1 2.4-7s1.8.6 4.1-2.6c1.1-1.6 1.5-4.2 2-6.1 1.3-5.3 2.7-11.3 5.7-16.1-1 .5-2 .9-3.1 1.2-2 .6-3 .9-4.1 2.6-.5.9-1.1 1.7-1.8 2.4-1 1-2.6-.5-1.6-1.6 1.2-1.3 1.6-3 3-4.1 1.8-1.4 4.6-1.4 6.7-2.4 2.7-1.2 5.5-3.5 8-5.2 1.6-.9 2.9-2.3 3.7-4-1.9.2-3.7.2-5.6.4-3.8.2-6.2 1.3-9.7 2.8-3.2 1.3-6.7 2-10.1 2.1-2.3.2-4.1 2.2-3.9 4.5.2 3.4.4 6.9.3 10.3-.3 8.6-.6 17.1-.2 25.7-.4.7-.2 1.6.5 2 2.6 1.6 4.8.5 7.6.2 4.7-.6 10.3.2 15.1.3 5.1.2 10.1.6 15.2.5l7.3-.3c1.6 0 3.9.5 5.5 0 2.7-.9 2.6-3 3-6.5.4-3.7.4-7.4 0-11.1-.4-5.4 1-10.2.2-15.2zm51.2-2.3c1.7-10 2.8-20.6 1.3-30.7-.1-1-1.4-1.3-2.2-.9-2.9 1.5-6.7 3.2-9 5.5-1.7 1.7-3.2 3.9-4.9 5.7.4-1.9 1.2-3.7 2.5-5.2 2.3-2.5 5.1-4.2 7.5-6.5 1.7-1.7 2.9-6 .2-7.4-2.2-1.1-7.1.4-9.5.6-2.9.2-6.3-.1-9 .8-3.2 1.1-5.5 2.9-9.1 3-4 .2-8.4-.6-12.4-1-.6-.5-1.4-.4-1.9.2l-.3.6c-.2 1.9-.2 3.9.1 5.8.1 3 .1 6.1-.2 9.1l-.5 13.5c-.2 10-.8 20.1-1.3 30.1-.1 2.4-1.2 9.3.9 10.9.9.7 1.9.5 2.9.5 2.8 0 5.5.1 8.4.2 11.5.6 23.2-.7 34.7-1.2.7 0 1.3-.5 1.5-1.1 1-4.1.5-9.1.2-13.4-.4-6.5-1-12.5.1-19.1z" fill="#999"/><path d="M463.6 397.1l-16.7 22.2c-4.1 5.4-7.5 12.2-12.4 16.9-1.2 1.1.4 3.3 1.8 2.4l.2-.2c.2-.1.3-.3.5-.5 5.1-5 8.8-12.2 13.1-17.9l16.1-21.5c1.1-1.4-1.5-2.9-2.6-1.4zm-3.9 20.2c-1.5 2.5-3.4 4.9-5.1 7.2l-2.4 3.5c-.4.6-1.3 2.5-1.8 2.6-1.9.5-1.1 3.4.8 2.9 2.3-.7 3.7-4.1 4.9-5.9 2-3 4.4-5.7 6.2-8.8.4-.7.1-1.6-.6-2s-1.5-.2-2 .5z" class="Q"/><path d="M268.7 399c-2.2-.5-4.4-.8-6.7-1-3.4 0-6.6.7-10 1.1-.9-.3-1.8.2-2.1 1 0 .1-.1.2-.1.3a141.44 141.44 0 0 0-.6 18.4c3.2-.5 6.4-.6 9.6-.5 3.5.2 7 .6 10.5.6.4-6.6-1.3-13.3-.6-19.9zm24.2 11.6l-.6-4.8c0-.9.3-2.6.2-3.4-.4-2.5-2.1-3.3-4.6-3.4-2.9-.1-5.8.6-8.7.6-2.7 0-5.6-.1-8.3-.4-.4 3.9.4 7.7.7 11.7a53.41 53.41 0 0 1 0 8c.9 0 1.8-.1 2.7-.2 6.3-.6 12.6-1.4 18.9-1.8 0-2.1-.1-4.2-.3-6.3zm-23.1 29.1c-.3-6.2-.8-12.4-.5-18.5-3.8 0-7.5-.4-11.4-.6-2.9-.1-5.8.1-8.6.5l.3 8.1c.2 5 .2 10.1.3 15.2 4.5.4 9.4 0 11.2-3.4.2-.4.6-.6 1-.5 2.6 0 5.2-.3 7.7-.8zm.1 2.4l-6.4 2.1 6.4.7c.1-1 0-1.9 0-2.8zm23-21.8c.6 0 1.2-.5 1.2-1.1-6.6.3-13.1 1.2-19.8 1.8-1 .1-1.9.1-2.9.2v1c-.1 5.5.1 11 .5 16.5.2-.1.4-.2.6-.4 1.2-1.2 2-2.8 3.5-4 .5-.4 1.2-.4 1.6.1.3.4.4.9.2 1.3-.8 1.5-1.9 2.9-3.2 3.9-.1.3-.3.6-.4.9-.1.4-.4.7-.8.8l-1.2.1c0 1.2.1 2.5.1 3.7 7.1.3 14.2.1 21.2-.7 0-.5 0-1-.1-1.4l-1-20.3c.1-.7.3-1.5.5-2.2-.1-.1-.1-.2 0-.2zM270 447.1c-3.9-.2-7.7-.8-11.5-1.5-.3.1-.7.2-1 .3-2.5.5-5 .7-7.5.5 0 4.6.1 9.2.5 13.8.3 5 .4 10.1.4 15.1 0 .3.1.6.3.9-.2.6.1 1.2.7 1.5 2.8 1.5 7.2 1.2 10.2 1.4 2.4.1 4.9.1 7.3.1-1.2-10.6.5-21.7.6-32.1zm25.4 10.6v-.2c-.1-.5-.5-.9-1-1-.3 0-.6-.1-.9-.1.2-3.3.2-6.5.1-9.8-7.1.7-14.2 1-21.3.7-.1 10.4-1.8 21.5-.6 32h5.3c3 .1 7.2.5 10.1-.7a4.47 4.47 0 0 0 2.9-3.7c1.1.4 2.3-.2 2.7-1.3.1-.2.1-.3.1-.5.5-4.6.2-9 .5-13.5.8.3 1.8-.1 2.1-1v-.9zm26-58.7c-2.2-.5-4.4-.9-6.7-1-3.4 0-6.6.7-10 1.1-.9-.3-1.8.2-2.1 1 0 .1-.1.2-.1.3a141.44 141.44 0 0 0-.6 18.4c3.2-.5 6.4-.6 9.6-.5 3.5.2 7 .6 10.5.6.4-6.6-1.2-13.3-.6-19.9zm24.2 11.6l-.6-4.8c-.1-.9.3-2.6.2-3.4-.4-2.5-2.1-3.3-4.6-3.4-2.9-.1-5.8.6-8.7.6-2.7 0-5.6-.1-8.3-.4-.4 3.9.4 7.7.7 11.7a53.41 53.41 0 0 1 0 8c.9 0 1.8-.1 2.7-.2 6.3-.6 12.6-1.4 18.9-1.8 0-2.1 0-4.2-.3-6.3zm-30.5 30.9c-.5-.9-.9-1.8-1.3-2.7.4-.1.8-.3 1.1-.5a.47.47 0 0 0 .1-.6l-.6-.9c-.1-.5-.3-.9-.6-1.4.2.1.4.2.7.3-1.1-3.1-1.8-6.3 0-9.4.9-1.6 3.4-.2 2.5 1.4-1.1 1.9-.9 4-.2 6 .1.2.3.4.4.5.3.5.5 1.1.7 1.6l.2 1.2c.4 1.1.9 2.1 1.1 3.1 1.2-.1 2.4-.3 3.5-.6-.3-6.2-.8-12.4-.6-18.6-3.8 0-7.5-.4-11.3-.6a41.02 41.02 0 0 0-7 .3c1.5 1.9 3.8 2.9 4.7 5.3.5 1.4-1.7 2-2.2.6-.5-1.1-1.4-2.1-2.4-2.7-.6-.5-1.1-1-1.6-1.6l.3 6.6c.2 5 .2 10.1.3 15.2 3.3.3 6.8.1 9.2-1.3v-.2a.47.47 0 0 0 .5.5c.9.1 1.6-.8 2.4-1 .3-.1.4-.3.3-.6-.2.2-.2.2-.2.1zM327 421l-2.8.2v1a138.86 138.86 0 0 0 .3 12.9c-.1.8-.2 1.5-.1 2.3l.2 2.1c-.1.9-.1 1.9.1 2.8 0 .1.1.2.1.2v1.1c1.8-2.8 3.6-5.6 4.1-9 .1-.7.1-1.3.1-2l-1.3-3.5c-.3-1-.1-1.5.9-1.7.2 0 .3 0 .4.1.3-2.5 1.9-3.8 4.1-5.1.5-.3.9-.2 1.3 0 .3-.1.7 0 .7.4 0 .2 0 .3-.1.5.1.5-.1 1-.6 1.3-.4.6-1 1-1.7 1.3h-.1c-.7.6-1 1.4-1 2.7-.1 1.6.1 3.3.1 4.9 1.1-1.2 2.1-2.5 3.1-3.8.9-1.4 3.1-.1 2.2 1.3-1.4 2-3.1 3.8-4.6 5.7-.3.4-.8.5-1.1.4l-.1.1c-.4 1.5-1.1 2.9-1.8 4.2 3 1 6.4 1 8.5-1.8.4-.5 1.2 0 .9.5-2.4 3.2-6.3 3.4-9.9 2.1-.5.9-1.1 1.8-1.7 2.6 4.5.1 9 .1 13.4-.3-.2-5.6 2.1-10.6 5.1-15.2l-.4-7c.1-.7.3-1.5.5-2.2v-.1c.6 0 1.2-.5 1.2-1.2l-20 2.2zm-4.3 26.1c-.7 0-1.4-.1-2.1-.2.4.4.6.9.3 1.6-2.3 4.5-1.2 10.1-1.2 15 0 1.6-2.5 1.6-2.6 0v-.9l-.3-1.7h-.1c0 .1 0 .2-.1.3l-.1.4c0 .2 0 .3-.1.1.3.6-.5 1.1-.9.5s.1-1.2.2-1.7c0-.2.2-.4.4-.5l.9-.3c-.1-2.2-.2-4.4 0-6.5h-.2c-1.7 1.1-3.7 2.1-5.6 3.3-.1.5-.2 1-.4 1.4-.1.2-.3.3-.5.2 0 0-.1 0-.1-.1-.2.2-.5.4-.8.4-.3.1-.6.1-.8.1-.8.8-1.4 1.7-1.8 2.7-.6 1.5-3 .9-2.5-.7.8-2.2 2.3-3.7 4-5-1-.6-2.1-1.1-3.1-1.7-1.4-.9-.1-3.1 1.3-2.2.8.5 1.7.9 2.6 1.4.1-.6 1-1.1 1.6-.8.7.3 1.3.3 2 .3.1 0 .3 0 .4.1 1.2-.7 2.4-1.5 3.5-2.4.3-.3.7-.4 1.1-.3.3-1 .6-1.9 1.1-2.8.1-.2.2-.3.3-.4-2.6-.3-5.2-.7-7.8-1.2-.3.1-.7.2-1 .3-2.5.5-5 .7-7.5.5 0 4.6.1 9.2.5 13.8.3 5 .4 10.1.4 15.1 0 .3.1.6.3.9-.2.6.1 1.2.7 1.5 2.8 1.5 7.2 1.2 10.2 1.4 2.4.2 4.8.1 7.3.1-1.3-10.5.4-21.6.5-32zm25.2 15.9c-.6-1-1.7-1.7-2.9-2l-1.5-3.6c.1-.4.1-.8 0-1.2-.2-.5-.5-.9-1-1.2-1-2.2-1.6-4.6-1.5-7 0-.3-.1-.6-.1-1-5.3.4-10.6.5-15.9.2-.1 10.4-1.8 21.5-.6 32h5.3c2.2.2 4.4.2 6.6.1.4.9 1.3 1.3 2.3 1.2 3.1-.5 6.5-1.8 8-4.8 0-.1.1-.2.1-.3 1.4-1.3 1.4-2.9 1.6-5 .1-2.3.6-5.2-.4-7.4zm70.6 6c0-3.5 1.4-7.7.6-11-.2-.6-.8-1.1-1.5-1.1-5.3-.3-10.6-.2-15.9.3-.7 0-1.3.5-1.5 1.1-.3 1.1-.5 2.2-.6 3.3.1.3.3.5.5.8 1.5 1.7 4.1 2.7 6 4 1.2.8.1 2.7-1.1 1.9-1.6-1.1-3.7-2-5.3-3.3.1.9.3 1.8.7 2.6.2 0 .5.1.6.2 1.8 1.4 3.8 2.9 4.3 5.2.4 1.9-.9 4.7 1.6 5.5 1.4.5.8 2.6-.6 2.2-1.9-.4-3.3-2.2-3.1-4.2.1-.9.1-1.9 0-2.8-.1.1-.2.2-.3.4 0-.9-.2-1.7-.7-2.4a4.74 4.74 0 0 0-1-1c-2.3-1.4-3.8-1.3-4.4-4.8-.5-2.7-.2-5.1-1.1-7.8-1.4-3.7-3.1-2.9-6.7-2.6-1.9 0-3.8 0-5.6-.2-1.9 0-3.5.2-5.4 0-.5-.1-1-.2-1.5-.2-3.2.7-2.4 4.1-2.5 6.8-.1 4.5-.6 9-.7 13.5-.5.2-.9.7-.8 1.3.2 2 .3 4.1.2 6.1-.1 1-.5 2-.2 3 .5 1.9 1.9 2.2 3.7 2.5 9.1 1.6 19.2 1.1 28.5 1 2.5 0 5-.3 7.6-.5 1.4-.1 3.5.1 4.8-.5 2-.9 1.8-2.3 1.8-4.4-.3-5-.4-9.9-.4-14.9zm56.9 16.9a49.48 49.48 0 0 1 0-7.7c.1-6.1-.3-12.3-.8-18.4-.2-3.3.5-6-3.4-6.7-4.7-.8-10.2-.1-14.9.5-6.3.8-12.6.9-19 1.2-2.1.1-7.6-.8-9.4.6-.6.6-.9 1.4-.9 2.2-.3 2.1 0 5 0 7.2 0 5.1.3 10.1 1 15.1-.1 2.9.7 6.8 2.6 8.9s5.5 2 8.2 2.1c5.5.2 11-.1 16.5.2 3.4.2 7.7 1.2 10.9-.2.7-.4.9-1.3.5-2.1-2.2-3.1-5.1-5.5-6.7-9.1-.9-2.1-1.2-5.2-3.2-6.6-.9-.4-1.8-.7-2.7-.8-1.3-.2-2.4-.8-3.4-1.7-1.4-.2-2.7-.6-4-1.2-3-1.7-4.4-5-8.4-4.7-1.4.1-1.4-2.1 0-2.2 3.1-.2 4.5.7 6.8 2.7 2.4 2.2 4.8 2.6 7.3 3.2 1.7.2 3.3.7 4.7 1.6.3.2.5.5.7.9.4.3.7.6 1.1 1-.3-2.2-1.1-4.3-2.3-6.2-.9-1.1.7-2.7 1.6-1.6 2.4 3 2.7 7.3 3.6 11 .1.2.1.5 0 .7 2.4 4 4.2 8.8 7.7 11.6l.1.1c1.2.8 2.3 1.6 3.4 2.4.9.6 1.9-.1 2.2-.9.8-1 .3-2 .2-3.1zm-15-8.4c.6 1.7 1.5 3.3 2.6 4.8l-2.6-4.8z" fill="#999"/><path d="M422.5 408.1c-.1-1.9-3.1-1.9-3 0 .3 10.1.5 20.5.2 30.6 0 1.9 3 1.9 3 0 .3-10.1.1-20.5-.2-30.6z" class="N"/><path d="M389.8 472.3l-4.7 5.6c-.6.9-1.3 1.7-2 2.5s-.9 1.7-1.5 2.4c-1.3 1.4.8 3.5 2.1 2.1.5-.7.9-1.4 1.3-2.1.5-.8 1.2-1.4 1.8-2.2 1.6-2.2 3.3-4.2 5.1-6.2 1.3-1.4-.8-3.5-2.1-2.1zm1 7.4c-.5.5-.9 1.1-1.4 1.6s-.8 1.1-1.2 1.5c-1.3 1.4.8 3.5 2.1 2.1.4-.5.7-1 1.2-1.5s.9-1.1 1.4-1.6c1.4-1.3-.7-3.4-2.1-2.1zm56.2-8.1c-3.9 4.3-7.5 8.9-10.7 13.8-1.1 1.6 1.5 3.1 2.6 1.5 3-4.7 6.5-9.1 10.2-13.2 1.3-1.4-.8-3.5-2.1-2.1zm-5.1.7c-.6-.6-1.5-.6-2.1 0l-1.4 1.8c-.3.5-.7 1.1-1.1 1.5-1.4 1.3.7 3.4 2.1 2.1.5-.5.9-1.1 1.3-1.8l1.3-1.6c.5-.4.4-1.3-.1-2z" class="Q"/><path d="M182.2 218.5l-.3.2c-.4-.5-1.2-.6-1.7-.2-3.1 2.4-4.1 6.5-7.8 8.3-3.1 1.5-6.9 1.6-9.6 4.1-4 3.7-1 11.9 1.2 15.9.4.7 1.4.9 2.1.5.3-.2.5-.5.6-.8.6-2.8.8-6.9 2.1-9.4 1.7-3.3 5.3-3.9 8.3-5.3 1.5-.7 2.3-1.2 2.9-2.7.5-1.2.4-2.5.9-3.8.6-1.9 1.8-3.5 3.3-4.6 1.6-1.3-.6-3.4-2-2.2z" class="N"/><path d="M259.4 235.1c-1.2-2.5-3.7-4.3-5.6-6.3-2.4-2.4-4.6-5.2-7.7-6.7-5.7-2.9-14.4-2.6-20 .2-6.5 3.3-12.9 1.7-16.4 9.3-.2.4-.2.8 0 1.2-.8 1.8-2.6 3.2-2.8 5.5-.3 2.6.9 4.3 1.5 6.7.8 3.4-2 4.4-2.9 7.3-.8 2.6.5 5.8 1.5 8.2 1.5 3.5 5.8 8.6 9.7 9.4 4.2.8 7.5-1.7 11.7.8 3.2 1.9 6 4.4 9.7 5.6 5.4 1.8 11.5-.4 15.7-4 2.1-1.9 2.6-3.7 3-6.5.6-3.8 1.6-7.3 2.4-11 .7-3.3.4-6.6.6-9.9s1.1-6.6-.4-9.8z" class="O"/><path d="M256.5 257.2c0-.1.1-.2.1-.2l.1-.2a5.87 5.87 0 0 0 0-6c-.8-1.2-2.9-.8-2.8.8.1 1.1.1 2.1.1 3.1-.1.4-.2.7-.4 1.1-1.2 2.6-3.8 3.3-6.3 4.2-2.9 1.1-5.2 2.1-8.1.2-2.3-1.5-4.4-4.2-6.3-6.2-.3-.3-.6-.5-1-.5-.3-2.9 3.4-4.2 4.7-6.4.4-.7.2-1.6-.6-2.1-.1-.1-.2-.1-.3-.1-3.9-.8-6.6 4.2-7.9 7.7h-.5c-1.4.2-2.7.3-4.1.5l-.4.1c-.5-.7-.9-1.4-1.2-2.1-1.6-3-5.3-5.4-3.8-9.3a1.23 1.23 0 0 0-.2-1.3v-.1c0-.3-.1-.7-.3-.9v-1.7c.4-.8.7-1.5 1.1-2.3.3-.6.2-1.3-.3-1.8l.6-.9c1-.9 2.2-1.7 3.4-2.2.6-.3.9-.9.7-1.6.7-.5 1.5-.8 2.3-1.2 1-.1 2.1.3 3.1 0 .4-.2.8-.4 1.2-.8.6-.2 1.2-.6 1.4-1.2.4-.7.1-1.7-.7-2-.4-.2-.9-.2-1.3 0l-.9.6c-.7 0-2.2.1-2.5.2-.4.1-.8.2-1.1.4-.3 0-.7.1-1 .2-2.8.7-5.5 1.7-8 3.1-.2.1-.4.3-.5.5-1.2.7-1.3 1.6-2.1 2.8-1.1 1.6-2.5 2.8-3.3 4.6-.6 1.6-.7 3.3-.2 5v.1c-.2 1.4.5 2.4.7 3.9.3 2.5-1.3 4.9-1.4 7.4 0 .2 0 .4.1.6-.2.7-.4 1.5-.3 2.2.1.9.6 1.8 1.3 2.5v.1c.1 1.2.6 2.2 1.4 3l.2.2c.1.6.2 1.2.4 1.8 2.1 5.3 6.5 4.4 11.1 4.9 2.5.4 4.9 1.2 7.2 2.4 1.3.7 2.4 2 3.6 2.9 1.6 1 3.3 1.6 4.9 2.6 3.9 2.5 8.1 3.4 12.1.2 4.3-3.4 5.7-8.6 7.2-13.6.7-2.4.8-4.8-1.2-5.2z" class="P"/><g class="N"><use xlink:href="#B"/><path d="M475.8 417.2c0-11.2 1-22.2 1-33.4a1.54 1.54 0 0 0-1.5-1.5 1.54 1.54 0 0 0-1.5 1.5c0 8.9-1 17.6-1 26.5 0 2.8 1 30.7 0 30.7-1.9.1-1.9 3.1 0 3 3.9-.2 3.6-2.5 3.5-5.8l-.5-21zm-58.4 42.9c.2-1.9-2.8-1.9-3 0-.4 3.5.4 6.9.3 10.5-.1 3.3-.6 6.6-.5 9.9a1.54 1.54 0 0 0 1.5 1.5 1.54 1.54 0 0 0 1.5-1.5c0-3.3.4-6.6.5-9.9.1-3.5-.7-7-.3-10.5zm57.1 11.2c-.1-5-.9-9.9-1-15a1.54 1.54 0 0 0-1.5-1.5c-.2 0-.3 0-.5.1-.3-.3-.6-.6-.9-.8-2.2-1.2-5.3-.1-7.8-.1-.8-.4-1.7-.2-2.2.6a1.39 1.39 0 0 0-.2 1.1v.2c.2.6.8 1.1 1.4 1.1 1.7.2 5.7-1 6.9-.3 2 1.2 1.6 6.4 1.8 8.4.2 2.3.7 4.8 1 7.4v14c0 .8.7 1.5 1.6 1.5.6 0 1.2-.4 1.4-1.1 1.2-4.7.7-10.2 0-15.6zm-55.8-93.5c-8.8.3-17.2 2.5-26.1 1.1-1.9-.3-2.7 2.6-.8 2.9 9.2 1.5 17.8-.6 26.9-1 1.9-.1 1.9-3.1 0-3zm53.6-.7c-.4-1.5.6-2.9-1-3.9s-6-.8-7.7-.7c-2.7.1-5.4.4-8.1 1-2.2.5-3.9 1.9-6.2 2.4-1.9.4-1.1 3.3.8 2.9 1.8-.4 3.5-1 5.1-1.8 1.9-.7 3.9-1.1 6-1.2 2.4-.3 5.1.4 7.4 0 .2 0 .4-.1.6-.2.1.6.1 1.2.1 1.8-.2.9.2 1.9 1.4 1.8h.2a1.54 1.54 0 0 0 1.5-1.5c0-.4-.1-.5-.1-.6z"/></g><path d="M620 320.2c-2 1.5-3.3 6.7-4.3 8.7-1.6 3.4-4.2 4.4-6.8 7-1.9 2-2.8 5-3.8 7.4-.7 1.9-1.6 3.8-2.6 5.6-.4.6-3.7 3.7-3.7 3.9-3.8 2.3-7 2.9-6.1 8.5.5 3.1 2.9 5.5 3.1 8.6v.7c.4-.9.9-1.8 1.3-2.6 1.4-3 .9-6.5 2.4-9.6s4.1-6.2 5.9-9.2l.2-.3c.6-1.5 1.4-3 2.4-4.4 1.4-2 2.8-4.9 4.6-6.6l.1-.1c.9-1.4 1.6-3 1.8-4.7.2-1.9 3.2-1.9 3.1 0-.3 2.2-1.1 4.3-2.4 6.2 0 .2-.1.3-.2.5l-3.3 5.3-3.6 6.9c-.3 1.1-.6 2.3-1 3.6-1 2.5-2.1 5-3.3 7.4-1.3 2.8-1.6 5.8-2.9 8.5-.2.5-.8.9-1.3.8-.7 2.2-1.5 4.5-3.4 5.9-1 .7-2-.2-2.2-1.1-.3.7-.6 1.4-.8 2.1-.8 2.4-1.6 5.5-.2 7.8 1.5-1.8 2.1-5.6 4.4-6.7 1.2-.5 2.3-1.1 3.3-1.8 3.6-2.7 3-6.8 4.1-10.8l.1-.2 2.7-4.5c1.8-2 3.8-3.9 4.8-6.7.6-1.6 1.5-3.9 1-5.7-.1-.4-.2-.7-.4-1 .5-3.2 3.8-7.3 5-10.6s1.4-6.9 2.4-10.3c-.2-1.3 3.4-11.5-.4-8.5zM515.2 470.6c-1.9-4.3-4.8-4-9.2-3.3-4.2.7-5.9 2.4-7.1 6.3-.2.6.4 1.4.1 1.8-.8 1.8-2.7 1-4.1.9-2.4-.1-4.8.3-7 1.2-1.1.5-2.2 1.5-3.3 1.9-2.4.8-3.5-.2-5.5-.8-3.6-1-7.7-.9-11.4-1.4s-8.5-1.4-11.3 1.6c-.5.5-.9 1.1-1.1 1.7-1 2.1-.1 1.8-2.4 2.8-3.7 1.7-9.1 1.1-12.5-.4-2-.9-2.9-.5-5.1-.9-5.5-.9-3.9-3.5-7.5-4.8-1.1-.4-2.4-.2-3.4.6-.6.5-1.1 1-1.6 1.6-2.2 1.9-4.3 2-6.9 3.1-3.2 1.3-3.5 2.8-3.3 6.1.1 1.2.7 1 .2 2-.4.8-4.3.8-5.2.8-4.4-.4-8.4-4.4-11.7-6.9-3.9-3.1-8.3-5.7-13-7.5-6.4-2.5-12.9-2.1-19.6-2.5-5.2-.3-9.1-1.4-13.3 2-.5.4-1.1.9-1.7 1.3a7.31 7.31 0 0 0-5.2 1.1c-1.7 1.2-2.2 2.5-4.3 3.1-1.9.7-3.9.9-5.8.6-1-.1-2 .1-2.8.7-1.2-.8-2.4-1.7-3.4-2.7-1.2-1.3-1.4-3.7-2.1-5.2-1.7-3.5-5.2-5.5-8.9-6.1-.3-.6-.8-1.1-1.3-1.5-1.7-1.2-3.4-.8-5.3-.3-3.3.8-6.7 1.8-10 2.5-.1 0-.2.1-.4.1l-.5-.2c-.8-.3-1.7-.4-2.5-.5-.4-.4-.9-.8-1.4-1-1-.4-2.1-.6-3.2-.6-2.9.3-5.6 1.3-7.9 3-.7.5-1.5 1-2.3 1.3-.1 0-.3.1-.4.1-2 .5-4 .9-6 1-.2-.6-.5-1.2-.9-1.7-.9-1-2.2-1.3-3.3-2-1.7-1.2-2.9-2.8-4.6-4-5.3-3.5-12-6-15.5-11.3-2.4-3.7-4.7-9-9.6-8.2-1.8.3-1.1.9-3.4.7-2.6-.2-1.5-.3-3-1.6s-2.4-3-4.1-4.2c-2-1.4-4.1-2.6-6.3-3.7-.5-.3-1.1-.6-1.7-.8-1.9-.4-3.9.6-5.9.2-1.7-.3-3.4-.6-5.1-.8s-3.4-.6-5.1-1.1c-.2-.3-.3-.7-.3-1.1 1.2-1.5-.9-3.6-2.1-2.1-.5.5-.8 1.2-.9 1.9-2.1-.9-4.1-1.8-6.1-2.5.6-1.6-1-3.9-1.8-5.1-.3-.5-.8-.7-1.3-.7-3.1.4-4.2-2.9-7.3-2.9-1 0-2 .8-2.4.6-1.3-.5-2-2.6-3.5-3.3-2.5-1.1-4.1-.4-4.9 1-2 .5-2.4 3.7-1.7 5.7-1.8 1.2-2.3 4.3-2.8 6.9-.4 1.9 2.5 2.7 2.9.8.1-1.2.4-2.4.7-3.6l.2-.3 4.8 3.4c.2.2.5.3.8.5 1.1 1.5 2.5 2.9 4 4.1.4.6.9 1.1 1.5 1.6 0 .3.2.6.4.9.4.4.8.7 1.2 1 2.7 3.2 6 5.8 9.7 7.8l1.2 1.5c2.5 2.8 5.8 6 9.8 6.1.2 0 .3 0 .5-.1.9 3.7 2.6 7.1 4.9 10.1 4.9 5.8 14.2 8.1 21.1 10.5 8.5 3.1 17.4 4.8 26.4 5.2 3.3.1 8.2-.3 11.1-2.6 1.5 1.2 3.2 2.2 5 3 .4.2.8.5 1.2.7-.5.3-.9.9-1 1.5-.3 1.3.4 2.9.8 4.1.4 1.5 1.1 2.8 2 4 .8.9 2.2 1.1 3.1.3l.2-.2c.8.6 1.6 1.1 2.5 1.6.1.1.3.1.4.1 2.5 2.2 5.7 3.3 9 3.1 1.9-.1 1.9-3.1 0-3-5 .3-7.8-2.6-10.7-6.2-.3-.4-.9-.6-1.4-.4-.4-.7-.8-1.4-1.1-2.2.2-.1.3-.2.5-.3 1.1.7 2.2 1.5 3.3 2.3 2.4 1.8 5.1 3.1 8 3.9 16.1 4.8 34.3 3.4 50.8 2.7 17.7-.7 35.4-.3 53-.3 17.9 0 35.7-.8 53.6-1.1 9.3-.2 17.9.4 27.1-1.5 4.1-.8 7.8-2.3 11.7-3.6 2.9-.9 4.9-.2 7.7.1.6.1 3.2-.1 3.5.2.4.4.9.5 1.5.4 3-.8 10.8-1.2 12.2-4.7.7-1.8.3-4.7.7-6.7.4-3 .7-4.3-.6-7.2zm-325-37.7c.2-.3.4-.6.4-.9v-.3c1.5.5 3.1 1.1 4.4.9-.1 1.2.2.7-1.4.9-1.3.1-2.4-.1-3.4-.6 0 .1 0 .1 0 0zm14.4 14.3c-.6-.5-1.4-1-2.1-1.6 0-.4-.3-.8-.6-1.1l-1.1-.8c.5-.8.3-1.8-.5-2.3-.1 0-.2-.1-.2-.1l-1.8-.7c-.1-.7-.7-1.1-1.4-1.1-1.9 0-2.9-1.9-4.4-2.8v-.2c1.7.4 3.4.3 5-.5.4-.3.7-.7.7-1.2l5.6 2.1c.7 1.1 1.3 2.2 1.8 3.5.5 1.9.8 3.7.9 5.6.1.9.3 1.9.5 2.9-.8-.5-1.6-1.1-2.4-1.7z" class="P"/><path d="M341.1 481.1c-.6 0-1.3.1-1.9 0-1.3 0-1.5-.5-2.5-1.2l-3.7-2.3c-1.6-1-3.1 1.6-1.5 2.6l1 .6c-.1.6.2 1.2.7 1.4 1.6.9 11.4 6 11.8 1.4.1-2.2-2.3-2.5-3.9-2.5z" class="O"/><path d="M624.5 286.7l-1.4-5.6c-.5-4.5-1.3-9.9-2.9-14-.1-.2-.1-.3-.2-.5 1.4-2.2-2-4.2-3.5-2-.9 1.4-2.2 2.5-3 4-.9 1.6-1.3 3.5-2.3 5.2-1.6 2.8-2.9 4.6-3.2 7.8 0 .4-.1.8-.1 1.1-1 2.6-1.1 5.2-1.3 8-.4 1.8-.9 3.6-1.5 5.4a2.24 2.24 0 0 0-2.9-.9c-.5.2-.8.6-1 1.1-.4 1.1-1.1 2.1-1.5 3.2-.1.2-.1.3-.2.5-1 .4-1.9.9-2.9 1.3-1.8 1-3.5 2.2-4.9 3.8a3.04 3.04 0 0 0-.7.5c-1.8.1-3.3 1.2-3.9 2.9-.4.9-.6 1.8-.7 2.8-1.5.8-2.8 1.9-3.8 3.3-2.2 1.7-3.9 4-5 6.6-1.3 2.9-1.6 5.1-3.7 7.5-1.3 1.2-2.2 2.8-2.6 4.5-.7 3.7 2.2 6.4 1.5 9.4-.4 1.7-1 2.8-.4 4.5.8 2.5 2.6 3.5 3.1 5.5-.1 1-.1 2.1-.2 3.1a1.86 1.86 0 0 0 1.7 1.9c-.5.4-.8.9-.9 1.6-.1 1.1-.1 2.1 0 3.2-.7 1.2-1.8 2.5-1.8 3.8 0 .9.3 1.7.9 2.4l.6.8c-.7 2.4-.9 5-.8 7.5.1.7.5 1.4 1.2 1.7-.5 1.7-.9 3.4-1.2 5.1-.5 4.4 1.2 8.2 2.6 12.1-.4.4-.6.9-.6 1.5.1 1.5-.2 3.5-.2 5.3-.2.3-.3.6-.4.9l-.4.2s-1.2.8-1.1 1c-.5-.2-1.3-.7-1.6-.9-.7-.4-1.5-.6-2.3-.6-2.4 0-4.4 1.9-4.4 4.3a4.65 4.65 0 0 0 .5 2.1c.4.8 1.1 1.5 2 1.7 0 .3 0 .7.1 1 .5 2.4 2.6 4.2 5.1 4.2 1.3 0 2.6-1.2 3.9-1.2s2.7 1.1 4.2 1.1c2.8 0 5.4-1.9 5.4-4.8 0-2.4-1.8-4.2-3.4-5.8l-1.2-1.2a19.57 19.57 0 0 0 1.2-3.4c1.7-2.1 3.2-4.1 4.7-6.3l.1-.1c.4-.5.7-1 .9-1.5.2-.4.5-.8.7-1.2-1.1-3.7-1.5-7.7-1-11.6.5-3.4 2.6-6 3.3-9.2 1.2-5.6-7.5-14.1-1.2-18.9 1.4-1 1.4-.6 2.9-.9 2.1-.4 2.6-.6 4-2.5 1.2-1.7 2.9-3.1 3.8-5 1.1-2.1.5-4.9 1.7-7 .7-1.2 2-1.8 3.1-2.6a13.82 13.82 0 0 0 4.3-5.8c.3-3.9 1.5-7.7 3.5-11 3.3-5.2 5-10.9 7.1-16.6 2.1-5 3.1-9.1 2.2-14.3zm-22.9 24c-1.6 2-3.1 4.2-4.6 6.5-.2.6-.4 1.2-.6 1.7-.5 1-1.1 2-1.8 2.8-1.5 2.6-2.1 5.4-3.3 8l-.3 1.5c-.5 2.7-.2 4.4-1.6 6.6-.3.5-1.1.4-1.5.7l-.9.9c-.5 1.7-1.2 3.4-1.9 5.1-.6 1.4-2.8.6-2.8-.8 0-2.3.4-5.1 2.2-6.7l.2-.1c.7-2.3 1.7-4.6 2.9-6.7.3-.5.6-1.1.9-1.6 0-.1.1-.2.1-.3-.1-.2-.1-.4-.1-.7.2-2 .4-3.8 1.4-5.5.7-1 1.4-2 2.3-2.9.7-1.2 1.3-2.3 2-3.4.4-1.4 1-2.8 1.7-4 1.1-1.1 2.2-2.2 3.4-3.3 1.5-1.5 3.4.6 2.3 2.2zm-214-169.6c-2.7 2.3-6.2 3.5-9.8 3.4-2.1-1.9-5.7-4.7-7.8-2.5-1 1.1-.6 2.6-.2 3.8.9 2.5 2.2 4.5 2.7 7.2 0 .2.1.3.2.5-.7 1.2-1.6 2.2-2.6 3.1-.6.5-.9.6-1.1 1.4s.3 1.6 1.1 1.8c.4.1.8 0 1.1-.1 2.4-1.4 4.4-3.5 5.8-5.9.5-.9.7-1.8 1.1-2.5 4-2.7 8-4.7 11.5-8.2 1.5-1.2-.6-3.2-2-2zm28.5-25c-1.6.7-3.2 1.2-4.9 1.4h-.6c-2.5-.4-4.6-2.4-6.9-4.5-1.7-1.6-3.7-2.7-5.9-1.4-.7.4-.9 1.3-.5 2.1 1.4 2.2 3 4.2 4.8 6 1.4 1.6 3.4 2.6 5.5 2.8.4.3.9.4 1.3.3l2.5-.4c.8 0 1.5-.2 2.3-.4.8-.3 1.3-1.1 1-1.9.9-.3 1.8-.7 2.6-1.2 1.3-.9.5-3.4-1.2-2.8zm38.1-35.9c0-.8-.7-1.5-1.6-1.5-.4 0-.7.2-1 .4-3.1 2.6-4.5 6.6-8.1 8.7-.5.3-1 .5-1.6.7.1-.7.1-1.5-.1-2.2-.2-1-.4-1.3.5-1.9.5-.4 1.1-.6 1.8-.7 1.9-.2 1.9-3.2 0-3l-.5.1a1.57 1.57 0 0 0 0-2.2c-.4-.4-.9-.5-1.4-.4l-1 .2c-.8.2-1.3 1-1 1.8.2.4.3.7.4 1.1-1.4 1-2.6 2.2-3.5 3.7-1.1 1.8-1.7 3.5-3.6 5.1-1 .6-1.9 1.2-2.7 2-1.4 1.7-1.3 3.4-1.4 5.3-.6 2.2-.9 4.4-1.1 6.7-.6 2-1.3 3.8-1.9 5.8-.1.3-.1.6 0 .8-.5 1.6 1.8 2.9 2.7 1.3.2-.4.4-.9.6-1.3 1.1-1.4 1.7-3.1 1.8-4.9.2-1.1.2-2.2.2-3.3s.3-2 .4-3c.3-1.6 1.2-3.1 2.6-4 2.1-1.5 4.5-1 6.9-1.6 3.5-.8 6.4-4.3 8.9-6.8 1.7-1.5 3.9-4.2 3.7-6.9z" class="P"/><path d="M414.7 103c-.3-1.1-.7-2.2-1.3-3.3-.1-1.8-.6-4.9-2.6-5.4-.5-.1-1.1 0-1.5.4-.5.6-.7 1.3-.5 2.1-.2.3-.3.8-.1 1.2.2.9.5 1.8.8 2.7l.3 1.4c-.3.3-.6.5-.9.7-.1 0-.2 0-.3-.1-.7-.3-1.5.1-1.7.8-.1.2-.1.4-.1.6-1.1 1.2.5 2.9 1.9 2.2.4-.2.9-.3 1.4-.4.3 0 .5.1.8.1.6.2 1.3.3 2 .3 1.4-.3 2.3-1.6 2-2.9-.2-.2-.2-.3-.2-.4z" class="O"/><path d="M370.2 128.2c.5 0 .9-.1 1.3-.4.1-.2.2-.3.2-.5-.5.4-1 .7-1.5.9zm95.3-74.7c-3.5-.6-7-2.2-10.6-2.4-1 0-2.4.7-3.3.3s-1.7-2.2-2.7-2.8c-2-1.2-5.9-2.6-8.3-2.3-3.1.5-5.2 3.8-8.2 4.7-4.3 1.3-12.4 3.6-12.5 9.2 0 1.6 1 2.9-.6 4.2-2 1.7-5.3.8-7.7 1-3.5.3-6.4 3.2-8.6 5.7-1.1 1.2-1.9 2.6-3 3.9-2 2.4-3.1 3-6.2 2.9-3.8-.2-8.8-.8-12.3 1-1.9 1-2.3 2.3-2.8 4.3-1 5.2-2.7 10-3.3 15.3-.6 4.4.1 6.4 1.5 10.4 1.1 3.2.6 4.3-3 4.7-2.9.5-5.9.6-8.8.4-2.9-.3-4.9.1-6.5 2.7-2.1 3.3-3.3 5.4-8 5.1-2.1-.1-4-1.1-6.1-1-6.2.4-11 10.5-7.9 15.6 1.3 2.2 1.4 2.5.3 5-.6 1.4-1 1.6-1 3.2.1 3.6 2.7 6.9 4.1 10.2-.4.6-.3 1.3.1 1.9.3.3.5.6.7.9.1.2.2.4.4.5 2.7 3.7 4 8.1 3.7 12.6-.1 2.5.5 4.6 2.7 5.9.7.4 1.6.2 2.1-.5.7-1.6 1.4-3.3 1.9-5 .9-2.5 1.7-3.1 3.2-5.1.8-1.1.7-2.3 1.3-3.4 1.8-3.3 5.1-2.1 7.5-3.7 1.8-1.1 5.2-4.4 5.5-6.6.2-1.8-1.2-3.3-1.9-4.8-1.1-2-4.5-6.1-4.6-8.1-.1-2.4 2.8-3.3 4.4-3.4 1.9-.1 3.8.2 5.6.7 2.3.7 4.3 2.1 6.4 3.1 4 1.9 4.5 1.5 8-1 2.7-2 4.8-3.8 5.1-7.4.2-2.3-.7-4.2.1-6.4.7-2 2.4-3.8 2-6.1-.7-5.1-6.5-3.6-1-10.3 1.5-1.8 4.3-4.1 6.8-3.5 3.2.8 5 4.5 6.6 7 2 3 4.3 2.5 7.5 2.1 4.6-.5 6.3-.4 8.4-4.7a12.58 12.58 0 0 0 1.1-9.5c-1.2-5.3-4-7.2-7.4-10.9-1.7-1.9-4.3-4.2-5.7-6.2-2.7-3.8 1.6-5.5 5.1-6.6a14.67 14.67 0 0 1 9.7 0c1.7.6 3.6.8 5.4.6 1.7-.2 4.3-.4 5.7-1.5.3-.2.4-.7.6-.9l.8-1.7c1.3-1.1 3.2-1.2 4.6-.4 3.3.3 7.3 1.2 9.9-1.9 1.2-1.4 1.2-3.4 2-5 2.4-4.7 4.6-3.2 8.2-4.5 2.4-.8 3.7-3.9 3.5-6.3.6-.3.2-.9-.5-1.2zm-88.1 67.7l-1.1-.1c-.3 0-.6 0-.9.1.3 2.8-.2 6.5-1.3 8.4-1.5 2.6-4.6 1.6-6.9 1.4-2.7-.2-7.5.3-9.5 2.3-2.3 2.2-1 5-.4 7.8.4 1.9.2 3.6 1 5.5.7 1.2 1.2 2.4 1.6 3.7.2.8-.3 1.6-1 1.8-.8.2-1.6-.2-1.9-1-.2-.5-.4-1.1-.7-1.5-.1.4-.2.7-.3 1.1-.2 1.3-.8 2.4-1.9 3.2-3.8 3.9-3.5 4.3-3.3 7.8v.4c-.2.8-1 1.3-1.8 1.1-2.9-1-2.3-4.5-1.9-7 0-.3.2-.6.5-.8.1-.3.3-.6.4-.8 1.5-2.3 4-2.6 5.2-5.2 2.7-6-3.9-11.4-.9-17.1 3.4-6.4 14.3-2.9 17.8-8.7.8-1.4.7-2.5 1.9-3.6 0-.1-.1-.3-.1-.4a1.47 1.47 0 0 1 1.5-1.5c1.1-.1 2.2 0 3.3.2.3 0 .7.1 1 .1 1.7.2 1.3 3-.3 2.8zm14.8-37c-.3 2.1-1.6 3.9-3.4 5-1 .6-1.8.7-2.5 1.7-.5.8-.8 1.7-.8 2.6-.1 1.9.4 3.8.6 5.6.1 1.4-1.6 1.8-2.5 1.1-.1 0-.1 0-.2.1-.8.2-1.5-.3-1.7-1.1-.7-2.8-1.4-6 0-8.7.4-.8.9-1.4 1.6-2 1.2-2 3-3.7 5.2-4.7.3-.1.6-.1.8 0 .6-1.4 3.1-1.3 2.9.4zm42.9-25.3c-2.8 2-4.3 4.5-6.4 6.9l-.3.5c-1.3 2.2-2.8 3-5.2 3.5-2.3.7-4.4 1.6-6.4 2.9-1.2.8-2.4 1.7-3.7 2.6-1.6 1.1-4.2 1.9-5.8 3.3-.2 1-.4 2.1-.6 2.9-.1.4-.3.8-.7 1 .1.1.1.2.1.3.6 1.9-2.3 2.6-2.9.8-1.1-3.8 0-6 2-7.6a6.25 6.25 0 0 1 3-3c2.1-1 4.2-1.5 6.3-2.5.8-.5 1.6-.9 2.4-1.3 1.3-.9 2.7-1.6 4.3-2 4.6-1.4 5.8-6.3 9.4-9.3 1.4-1.1 3.2-2.9 4.9-1.4.1.1.1.1.1.2.4.8.2 1.8-.5 2.2z" class="P"/><g class="O M"><path d="M229.9 175.1c1.9.1 4.2-.1 6 .5.7.3 1.5.5 2.3.7.4.1.7-.7.6-1-.3-.5-.9-.9-1.5-.9-.3 0-.5-.1-.8-.2l-1.7-.3-4.4-.1c-.4-.1-1.2 1.3-.5 1.3z" class="L"/><path d="M231.6 173.7c1.8-.1 3.7.1 5.5.6.6.2 1.3.4 2 .4.4 0 .7-.6.7-.9s-.5-.6-.9-.7c-1.1-.1-2.1-.7-3.2-.8s-2.3-.1-3.5-.1c-.6 0-.8 1.5-.6 1.5z" class="L"/><path d="M230.8 174.7c2 0 4.1.2 6.1.7.6.2 1.3.4 2 .4.6.1.7-.7.5-1.1-.7-.6-1.5-1-2.5-1.1-.4.1-1.2-.3-1.7-.4l-4.2-.1c-.8 0-1.2 1.5-.2 1.6z" class="L"/><path d="M233.2 176.9c1.4-.2 3.1-.7 4.5-.3 1.2.3 2.2 1 3.4 1.3 1 .2 1.3-1.4.1-1.6-1.3-.3-2.4-1-3.7-1.2-1.3-.1-2.6 0-3.9.5-.1.1-.8 1.4-.4 1.3z" class="L"/><path d="M233.4 175.2c1.5-.2 3-.1 4.6.1 1 .2 1.8.7 2.9.9.5.1 1.1-.3.9-.9s-1.3-.8-1.8-.9c-.4 0-.7-.2-1-.4-.6-.2-1.2-.4-1.8-.4-1.1 0-2.3 0-3.4.2-.5 0-1.1 1.5-.4 1.4z" class="L"/><path d="M238.3 174.6c.2 0 .4-1.4.4-1.4-.2 0-.3 1.4-.4 1.4zm-8.6.7c1.4-.4 2.9-.5 4.4-.4 1.2.2 2.3.9 3.5 1.2.5.1 1.4-1.2.6-1.4-1.1-.2-1.9-.8-3-1-1.5-.1-3.1 0-4.6.4-.4 0-.7 1.2-.9 1.2z" class="L"/><path d="M231 177.5c1.4-.4 3.3-1 4.8-.6 1.1.3 2.1 1 3.2 1.4.9.2 1.5-1.2.4-1.4s-1.8-.9-2.9-1.1c-.6-.2-1.2-.2-1.8-.2-1 .2-1.9.6-2.8 1-.4.1-.7.5-.9.9zm2.3-4.2c1.4 0 2.8.2 4.1.4 1.1.4 2.2.7 3.3.9.8.1 1.1-1.4.2-1.5-1.1-.2-2.2-.5-3.3-.9l-4.1-.4c-.2 0-.4 1.4-.2 1.5z" class="L"/><path d="M229.9 176.8c1.4-.3 3.4-1 4.8-.6 1.1.3 2 1 3.1 1.3.6.2 1.6-1.1.7-1.3s-1.7-.8-2.6-1.1c-2-.6-3 0-5.1.6-.3.1-.9 1.1-.9 1.1zm8.9-3.2a3.21 3.21 0 0 0 1.7.2c.4 0 .5-1.5.1-1.5-.6 0-1.1-.1-1.7-.2 0 0-.2 1.5-.1 1.5zm-1.4 1.9c.3 0 .6-1.3.8-1.3-.2 0-.5 1.3-.8 1.3z" class="L"/></g><path d="M344.9 414.1c-1-4.2-.4-8.8-1.3-13-.4-1.9-3.3-1.1-2.9.8.5 2.3.2 4.8.5 7.1.3 2 .3 4 .7 5.9s3.4 1.1 3-.8zm-52.9-8.5c-.2-2.2-.1-4.6-2.8-5.1-1.9-.4-2.7 2.5-.8 2.9 1.1.2 1.1 10.7 1.2 11.8.1 1.9 3.1 1.9 3 0-.1-3.2-.4-6.4-.6-9.6zm.8 37.6c-.4-2.8-.7-5.7-.7-8.5 0-1.8.3-3.6.3-5.4s-.4-4.3-.1-6.2-2.5-2.7-2.9-.8c-.2 1.8-.2 3.6 0 5.4l-.3 7c.1 3.1.3 6.2.8 9.3.3 1.9 3.2 1 2.9-.8zm-3.2 7.8l-.2 15.6a1.54 1.54 0 0 0 1.5 1.5 1.54 1.54 0 0 0 1.5-1.5l.2-15.6c.1-2-2.9-2-3 0zm-21.2-33.2c0-.3-.1-.6-.3-.9-.6-2.4-.2-5.2-.2-7.5 0-2.8-.7-5.8-.1-8.6.4-1.9-2.5-2.7-2.9-.8-.7 3.1-.1 6.2 0 9.4 0 2.9-.5 6.4.6 9.1.6 1.5 3 1.4 3-.4-.1-.1-.1-.2-.1-.3zm0 5.6c-.1-1.9-3.1-1.9-3 0 .3 5 .5 10 .5 15a1.54 1.54 0 0 0 1.5 1.5 1.54 1.54 0 0 0 1.5-1.5c0-5-.2-9.9-.5-15zM267 449c-.7 2.6-.3 5.4-.3 8 0 1.2-.1 2.4-.3 3.6-.1.5-.2 1-.2 1.5 0 1-.3 1.1.1.8-1.5 1.2.6 3.4 2.1 2.1 1.2-1 1-4.2 1.1-5.7.3-3.1-.5-6.5.3-9.5.1-.8-.4-1.6-1.2-1.7-.7-.2-1.4.2-1.6.9zm53.1-48.7c-.3-1.9-3.2-1.1-2.9.8.9 5.6 1.3 11.3 1.2 17a1.54 1.54 0 0 0 1.5 1.5 1.54 1.54 0 0 0 1.5-1.5c.2-6-.3-11.9-1.3-17.8zm-1.1 24c-.7 4.8-1 9.6-.8 14.4 0 1.9 3 1.9 3 0-.2-4.6 0-9.1.7-13.6.4-1.9-2.5-2.7-2.9-.8zm28.7 42.5c-.2-.8-.6-1.5-1.1-2.1-1-1.6-1.8-3.3-2.5-5-1.5-3.3-2.8-6.7-3.8-10.2-.2-.8-1.1-1.2-1.9-1s-1.2 1-1 1.8c1.3 4.4 2.4 9.3 4.2 13.4.9 2.1 2.8 2.4 2.5 4.9-.3 2.9-3 5.6-5.2 7.1-1.1.2-2 1.5-.9 2.5l.2.1c.5.5 1.2.6 1.8.2 3.3-1.8 8.5-7.3 7.7-11.7z" class="N"/><path d="M557.9 510.6c-.7-.5-1.5-.9-2.2-1.2-2.4-1.2-3.4-3-4.7-5.1-1.9-2.8-3.1-2.9-6.3-3.4-.5 0-.9 0-1.4.2.5-.4 1.1-.8 1.7-1.1 1.8-1 3.2-2.3 4.5-3.8 2.1-2.9 2-6.7 2.8-10 1-4 2.7-7.8 2.1-11.9-.4-3.1-1.9-6-4.4-8-3.5-2.9-8.5-1.8-11.9-4.7-2.8-2.3-5.4-4.5-8.8-5.8-3.7-1.5-7.9-1.7-11.9-2-8.4-.4-16.7 1.3-24.3 4.9-3.4 1.8-6.7 3.9-9.4 6.6-3 2.7-7.2.1-10.9 1.5-2.6 1-5 3.4-7 5.2-1.3 1.2-2.4 2.5-3.5 3.9-1.3 1.7-1.6 3.5-2.7 5.2l-.3 1.1-2.6.6c-.8-.4-.9-1.5-1.5-2.2-.5-.6-1.1-1.1-2-1.4-3.4-1.1-5.3 1.2-8.2 1.9-4.4 1.1-7.4-3.9-10.4-6-2.7-1.9-6-3-9.3-2.8-3.8 0-8.1 0-11.9 1.3-4.2 1.5-7.3 4.7-11.6 5.7-.8.3-1.8.5-2.7.6-2.9-.2-2.1-1.2-3.1-2.7-.9-1.5-1.4-2.8-2.8-3.9-1.8-1.5-4-2.4-5.7-3.7-1.3-1.1-2.8-2.1-4.2-3-5.6-3.1-14.8-2.8-17.7 3.7-.7 1.6-.6 5.1-2.2 6-2.4 1.5-5.8-1.1-8.3-1.4-1.3-.2-2.6.1-3.7.8-1.5 1.1-1.1 2.8-2.3 3.8-1.6 1.5-4.4 1.7-3.4 4.8.2.5.5.8.7 1.2.1.1.1.2.2.3-.2 0-.2-.1-.4-.1h-1.5c-.8-1.1-1.5-2.4-2.3-3.5-1.2-1.5-2.8-2.1-4.4-3.1-3.2-2-6.5-4.7-10.1-6-8.6-2.9-17.9-2-25.7 2.4-1.3.8-2.5 1.7-3.6 2.8-1.4 1.1-.5 1.3-2.4.9.1 0-2.1-.5-2-.5-2.3-1.4-1.5-3.7-2.1-5.8-.5-2.1-2.1-3.8-3.7-5.2-3.1-2.8-6.3-4.1-9.9-5.8-1.8-.8-2.3-1.9-3.7-3.2-.9-.8-2.4-1.2-3.4-1.9s-1.8-1.8-2.8-2.4c-1.5-1-3.2-1.7-5-1.8-2.3-.1-3.9 1.1-6 1.6-2.8.7-5.7 1.1-8.2-.1-2-1-3.4-1.9-5.7-2.4-2.8-.5-5-.7-7.4-2.2-1.4-.8-2.4-1.8-4.1-2.1-2.4-.4-4.1.5-6.5-.5-1.9-.9-4.1-1.8-5.9-2.8-4.4-2.5-8-6.3-11.8-9.7-3.1-2.8-5.6-5.7-9.9-6.7-9.8-2.3-19.1 2-27.8 6.1-3 1.5-9.5 1.8-10.2 6.3-.1.4-.1.8.1 1.1-.8.5-1.5 1.3-1.8 2.2-.3 1.1-.6 2.2-1 3.4-.2.5-.3.9-.3 1.5-.2.2-.3.4-.4.5-.1.2-.2.5-.4.7-.4.5-.5 1.1-.3 1.7a14.65 14.65 0 0 0-2 8.9c.2 1.2.6 2.4 1.5 3.4-4 2.8-9.3 2.7-12.5 6.9-3.9 5.2-5 11.2-7.5 17.1-1.2 2.4-2.1 5.1-2.4 7.8-.1.6.2 3.5-.1 3.8-.2.2-2.4-.2-2.7-.1-4 .7-4.2 4.4-3.4 7.5-1.1.6-2.7.5-3.2 2.1-.8 2.1 2.3 5 3.4 6.5 1.7 2.4 4.6 4.4 7 5.9 3.1 1.9 5.9.5 9.2 0 4.1-.6 8.4-.2 12.5-.6 4.5-.5 9-.7 13.5-.5 3.6.2 7.1-.3 10.7-.2 4.1.1 8.1 1.9 12.2 2.5 3.9.6 7.8 0 11.7-.2 4.6-.3 9.3-.4 13.8-.1 8.2.6 16.4.5 24.6-.5 8.9-1.1 18.2-1.7 27.1-1.8 4.1-.1 8.2-.4 12.3-.8 4.4-.5 8.8-.2 13.2-.2 20.7.1 41.4-.5 62.1-.6.5 0 1-.2 1.2-.7 7.3-.2 14.5.5 21.8.1 8.1-.5 16.3-1.1 24.4-.8 7 .4 14.8 1.1 21.8-.2 1.8-.4 3.4-.8 5-1.5 1.4.1 2.8.6 4.2.8 2.3.3 4.7.3 7 .2 2.2-.2 4.5-.6 6.7-.4 2.6.2 4.7 1 7.5 1 4.1 0 8.1 1.3 12.2 1.1 4.7-.2 9.1-1.5 13.8-1.4 4.1.1 8 1.6 12.2 1.3 5.1-.5 10.3-.4 15.4.2 4 .5 8 1 12 .5 4.7-.7 9.3-1.5 14.1-1.4s9.4.7 14.1 1.2c3.2.3 5.6-.2 7.4-3.1 1.2-1.7 1.4-3 .1-4.3z" class="P"/><g class="N"><path d="M162.1 465a3.04 3.04 0 0 0 .7.5c1 .5 2.2.6 3.4.2.4.1.7.1 1.1.1.8 0 1.4-.5 1.5-1.3 1.3-1.5.5-3.5-.2-5-1.5-3.5-1.9-6.3-1.2-9.4l3.6-7.6.4-.3c1.3-1 .5-3-.8-2.9-.6-.5-1.5-.5-2.1.1-1.4 1.3-2.5 2.8-3.5 4.5-1.9 2.2-3.3 4.8-4.1 7.7-.2.5-.2 1.2-.3 1.8-.6 2.5-1.5 4.7-1.6 6.7-.8.2-1.2 1.1-1.1 1.8.4 1.8 2.3 2.8 4.2 3.1zm29.3-16.8c3.2-1.2 6.3-2.8 9.9-2.6 2.7.1 5.2.9 8 .6.7-.2 1.2-.8 1.2-1.5-.3-2.5-2.7-4.3-5-5.7-1.5-1.5-3.2-2.8-4.9-4.1-1.5-1.2-3.6.8-2.1 2.1.5.5 1.2 1.2 2.1 1.8.1.5.3.8.7 1.1.2.2.5.3.8.5.2.2.3.4.5.5-1.6.6-4.3.7-5.4 1.1-2.4.8-4.6 1.9-6.7 3.2-1.6 1.1-.8 3.7.9 3zm9.6 29c-1.3 2.8-.9 6.2.1 9.1.2.8 1.1 1.3 1.9 1.1.5-.2.9-.5 1.1-1.1.9-2.7 1.2-4.8 3.4-7.1 2.1-2 4.5-2.5 7.1-3.5 1.4-.5 2.6-1.4 3.5-2.5 2.1-2.4 2.8-3.8 5.8-5.1.2-.1.4-.2.5-.4.8.1 1.6.1 2.5 0 1.4-.1 2.4-2.1.8-2.8-2.5-1.1-4.5-1.3-6.8-.4-1.3 0-2.6.2-3.8.8-3.7 1.7-5.3 5.9-9.1 7.1-2.8 1-5.6 1.8-7 4.8zm308.9 17.2c3 2.2 7.1-2 8.9-4 1.4-1.4 2.3-3.1 2.6-5.1.1-1.2 0-2.5-.4-3.7.2-1.1.1-2.2-.3-3.2.1-.7-.4-1.4-1.1-1.5h-.5c-.4-.1-.7 0-1.1.2-2.5 1.5-.8 5-1.2 7.2 0 .1-.1.2-.1.2l-.5 1.3c-.7 1.3-1.7 2.5-2.9 3.4-1.3 1-3.1 1.5-4 2.9-.4.9 0 1.8.6 2.3zm11.7-27.2c.2-.8.2-1.5.4-2.3s.2-1.1.9-1.4c.9-.5 2.1-.3 2.7-1.2.3-.5.2-1.3-.4-1.6-.1-.1-.2-.1-.3-.2-.8-.3-1.8.1-2.5.4-.8.3-1.6.4-2.4.9-.5.4-.5 1.1-.1 1.5-.3 1-.5 2.1-.5 3.1-.2 1.6 2 2.3 2.2.8zm-175.8 22.6c.3-.2.6-.4.9-.5.6-.1 1.2-.2 1.8-.4.9-.5 1.5-1.5 2.4-2l.3-.2c.2.2.5.4.8.4 5.5-.2 11 .8 16.3 2.5 2.9 1.1 5.8 2.4 8.6 3.8 1.1.5 3.9 1.2 5.8 2.1h-.1c-.6 0-1.2.5-1.2 1.2 0 .1 0 .2.1.3-.5.2-.9.2-1.4.2-.6 0-1.2.5-1.2 1.2 0 .2.1.4.2.5 1.3 3 7-.2 9.1.5 1.5.5 2.1-1.8.6-2.2-.6-.2-1.3-.2-1.9 0 .1-.2.1-.5.1-.7-.3-1.2-1.2-2.1-2.3-2.5-1.6-3.3-5.8-5.3-9.4-6.7-.1-.2-.2-.4-.5-.5-3.4-1.9-6.8-2.3-10.3-2.4-.3-.1-.7-.2-1-.2-1.9-.2-3.8-.3-5.8-.2-2.1-.2-3.7-.5-5.4-.2-.2-.1-.5 0-.8.2-.2.1-.5.1-.6.2-.4.2-.8.3-1.1.6-1.5.8-2.9 1.8-4.4 2.6-.5.2-.8.4-1.2.7-.8.8.5 2.3 1.6 1.7zM230.5 453c.4.2.8.2 1.1 0l2.1.8 4.4 1.7 7.4 2.5c2.8 1.2 5.2 3.1 6.8 5.7-.1.2-.1.5-.1.7.2.7.6 1.2 1.3 1.5 1.2 2.4 2.1 4.8 2.6 7.4.1.3.3.6.5.8-.2.7-.6 1.3-1.1 1.8-1.1 1.2-1.7 2.6-2.7 3.8l-.2.3-.4.4c-.8 1 .9 2.4 1.8 1.4.2-.2.3-.4.5-.6l3.4-4.6c.5-.5 1-1.2 1.3-1.9.4-1 .5-2.1.1-3.1v-.5c-.2-1-.6-2-1.1-2.9l1.8.7.2.1c1.8 1.4 3.4 3 5 4.5 2.1 1.7 4.5 2.8 7.1 3.5.6.5 1.2 1.2 1.8 1.8.4.4.8.6 1.3.8s1.7-.2 2.8-.5c.2.1.4.1.6.2h.6c.7.2 1.5.2 2.1 0l.2-.1c1.8.1 2.8.5 4.8 1.3 1.4.5 2-1.7.6-2.3-1.7-.8-3.5-1.3-5.4-1.5-.6-.6-1.2-.8-2.4-.5-.2 0-.2.1-.4.1-1.5-.5-3-1.4-4.3-2.5a.78.78 0 0 0-.4-.4l-.6-.3c-.5-.3-.8-.6-1.4-.8l-1.5-.8-5.2-4.1c-2.5-1.9-5-3.6-7.7-5.1-.8-.6-1.5-1.1-2.5-1.5l-.1-.1c-.4-1-.7-1.8-1.6-2.5-.9-.6-2-.6-3.1-.8-1.8-.4-3.3-1.5-5.1-2.2-3.3-1.2-6.8-1.8-10.2-2.8l-3.9-1.5c-.3-.1-.6-.1-.8.1-.9-.2-1.7-.7-2.4-1.3-1-1.2-2.6.5-1.6 1.6 1.3.8 2.7 1.1 4 1.7zm72.7 30.8c.2 0 .4-.1.5-.2 2.5-1.5 5-2.1 7.8-2.6.8-.2 1.5-.2 2.2-.3l1.5.3c.7 0 1.5-.1 2.1-.2.6.1 1.2.2 1.8.2.4.1.8-.2 1-.5.4.1.8.2 1.2.2.3.1.6 0 .8-.1.8.2 1.5.5 2.4.8 1.4.5 2-1.8.5-2.2l-.8-.2c0-.4-.2-.7-.5-.9-.7-.4-1.5-.6-2.3-.7-.7-.1-1.4-.2-2-.4 0-.5-.2-1-.7-1.2-2-1.6-7.1-.4-9.1.4-2.5.9-5.9 2.8-7.2 5.4-.2.2-.4.5-.4.8v.4c0 .5.5 1 1.2 1z"/><path d="M294.2 493.9c.5.3.8.6 1.2.8-.4.4-.3 1 0 1.3l.1.1c.9.7 1.8 1.2 2.9 1.5.6.5 1.3 1 2.1 1.5 1.8.6 3.8.9 5.8 1 .7.1 1.5 0 2.1-.1.5.2 1 .5 1.5.8.2.4.5.7.7 1.1 0 .2 0 .5-.1.6-.5 1.3 1.4 1.8 2.1.9.5-.5.6-1.3.4-2 0-1.1-.6-2.1-1.5-2.8.4-.5.9-.9 1.5-1.2h.4c.7-.2 1.4-.2 2.1-.4.3-.1.6-.2.8-.5l.5-.2c.5-.3.8-1 .5-1.5-.2-.4-.7-.7-1.2-.6-.4.1-.8.2-1.2.4-1.7.5-3.8 1.1-5.1 2.2-.2-.2-.5-.3-.8-.3-5.2-.3-9.4-1.4-13.7-4.6-1.1-.8-2.3 1.2-1.1 2zM137 467.3c.3-.2.5-.5.6-.9.3-1 0-2.1.1-3.2.1-1.4.2-2.8.5-4.1.2-1.1-1.5-1.5-2.1-.8-.5-.2-1 0-1.3.5-1.3 1.9-1.5 6.1.2 8.1.3.8 1.2.9 2 .4zm-12.9 11.2c.7-.2 1.5-.3 2.1-.2.6 0 1.2-.5 1.2-1.2s-.5-1.2-1.2-1.2c-1.2-.1-2.3.1-3.3.5-.5.3-.8 1-.4 1.6.3.6 1 .7 1.6.5zm2.6 6.7c-.2 0-.3 0-.4.1h-.1c-.4 0-.8.2-.9.5l-.1.1c-.2.3-.5.6-.6 1-.2.2-.2.5-.3.7v.2c-.2.5-.3.9-.3 1.4-.5.8-.8 1.7 0 2.3.6.5 1.6.5 2.1-.2.3-.3.4-.8.4-1.2 0-.1-.1-.2-.1-.3.3-.2.6-.5.8-.8.7-.5 1.1-1.4 1.2-2.2 0-.9-.7-1.6-1.7-1.6zm17.6-31.7c.1-.1.2-.1.2-.2 1-1.5 1.7-3.1 2.1-4.8 0-.8-.1-1.5-.2-2.2.3 0 .6-.2.8-.3.5-.4.9-.9 1.2-1.5.3-.4.6-.8.8-1.2.8-2.3 1.4-4.7 1.5-7.1 0-.6-.5-1.2-1.2-1.2-.2 0-.5 0-.7.1 0-.7-.2-1.4-.3-2-.2-.6-.8-1-1.5-.8-.2.1-.4.2-.5.3-1 .9-1.6 2.2-1.8 3.6 0 .6.2 1.3.3 1.9.5 2.7.5 2.5-.5 4.8-1.2 3-3.9 7.8-2.8 11 .8 1.2 2.8.8 2.6-.4zm14.5-25.4c.2 1.1 1.1 2.4 1.5 3.5.2.6.8.9 1.5.8.6-.2.9-.8.8-1.4-.2-.5 0-1.2.4-1.6 1.1.4 1.7-1 1.1-1.8.4-1 .6-2.1.7-3.2 0-2.1-.4-4.9-1.6-6.6-.3-.5-1.1-.7-1.6-.4a.78.78 0 0 0-.4.4 3.19 3.19 0 0 0 0 3c.6 1.2.9.8.4 2.4-.2.6-.6 1.2-.9 1.8-.2-.2-.3-.4-.5-.5-1-1.1-2.6.5-1.6 1.6.6.7.1.9.2 2zm395.3 19.1c-.6.6-1 1.5-1.1 2.3 0 .5.2 1 .2 1.5-.2.8-.9 1.2-1.5 1.8-1.7 1.5-2.7 3.6-2.9 5.8v.6c0 .6.5 1.2 1.2 1.2s1.2-.5 1.2-1.2c0-.2.1-.5.2-.6.5 0 .9-.3.9-.8 1-.6 2.4-1.1 2.9-1.8.8-1.2.4-2.4.3-3.7v-.1c.1-.2.2-.3.2-.5.2-1-.7-1.9.2-2.9.9-.9-.8-2.6-1.8-1.6z"/></g></svg>