<svg xmlns="http://www.w3.org/2000/svg" viewBox="0 0 1000 1000"><path d="M466.649 100.834c-51.446 10.62-97.009 39.42-141.287 67.684L161.074 273.39c-15.254 9.737-30.827 19.761-41.892 34.081-27.094 35.062-20.08 85.6-4.244 126.984s39.395 81.167 42.01 125.4c1.838 31.117-6.942 61.79-9.942 92.815-6.34 65.586 15.185 134.558 61.988 180.939s119.137 67.241 182.018 47.551c41.33-12.941 77.215-41.769 119.929-48.925 36.729-6.154 73.881 4.466 110.78 9.505s78.61 2.916 105.362-22.992c12.72-12.318 20.568-28.69 28.155-44.69l79.377-167.397c13.638-28.76 27.524-61.52 16.398-91.342-6.122-16.41-19.511-30.471-20.462-47.961-.929-17.064 10.203-32.035 18.117-47.181 21.54-41.23 19.805-93.687-4.414-133.403-28.416-46.599-81.26-71.39-131.107-93.62-25.233-11.253-50.672-22.134-75.73-33.772-18.632-8.654-27.302-19.268-42.15-32.236-34.93-30.507-85.067-33.57-128.619-26.312z" fill="#fafafa"/><path d="M410.223 812.779c-4.609-2.308-8.368-6.255-13.274-7.837-9.91-3.195-19.741 4.135-29.567 7.583-17.268 6.06-47.934-6.866-47.934-6.866 9.668 15.537 30.666 22.925 47.934 16.866 9.826-3.448 19.657-10.778 29.567-7.583 4.906 1.582 8.665 5.53 13.274 7.837s11.415 2.186 13.635-2.465c0 0-9.027-5.227-13.635-7.535zm13.473-44.052c-12.502-1.024-24.08-10.464-35.231-16.206s-23.126-11.353-35.636-10.444c-11.256.818-21.365 6.802-31.377 12.011s-21.18 9.892-32.277 7.835a23.573 23.573 0 0 1-15.75-11.403q-.722.446-1.413.966v.358c-3.826 10.618 6.066 22.248 17.162 24.305s22.266-2.625 32.278-7.834 20.12-11.194 31.377-12.012c12.51-.909 24.484 4.703 35.636 10.445s22.691 11.898 35.23 12.206c12.407.304 25.995-7.248 28.045-19.427-.652-1.623-11.95 10.52-28.044 9.2z" fill="#eee"/><path d="M600.1 357.655l-241.262-57.381-67.814 204.747 48.785 167.398c12.866 2.371 25.609 6.63 38.324 11.485 6.113 2.335 12.22 4.806 18.332 7.275 28.152 11.375 56.392 22.635 85.748 19.788.411-.04.823-.072 1.235-.118 20.345-2.247 38.94-11.19 57.74-19.67 11.7-5.277 23.48-10.375 35.812-13.566 21.118-5.466 52.179-6.442 73.482-3.313z" fill="#fff"/><path d="M600.1 357.655l-81.513-19.387c-1.402 29.781-4.027 59.508-6.233 89.235-3.055 41.157-4.25 82.292-4.422 123.556-.173 41.362.233 82.73-.748 124.084-.241 10.15-.455 20.335-.836 30.512 11.837-3.898 23.3-9.271 34.84-14.476 11.7-5.277 23.48-10.375 35.811-13.566 21.119-5.466 59.18-6.443 80.482-3.313z" fill="#eee"/><path d="M301.763 531.42L373.99 339.9a6.149 6.149 0 0 1 7.238-3.984l222.374 45.603-3.501-23.863-241.263-57.382-67.814 204.747z" fill="#ccc"/><path d="M472.832 713.915c-26.77 0-52.415-10.362-77.304-20.418l-.432-.175c-5.855-2.365-11.908-4.811-17.855-7.082-10.322-3.942-23.956-8.796-37.885-11.362l-1.516-.28-49.434-169.625 68.78-207.662 245.084 58.29.29 1.608 58.003 320.07-3.445-.505c-20.185-2.965-57.795-2.356-79.492 3.258-12.214 3.161-24.19 8.366-35.41 13.426l-3.905 1.767c-17.334 7.853-35.259 15.974-54.589 18.11-.274.029-.544.053-.814.078l-.453.042c-3.224.313-6.432.46-9.623.46zm-131.051-43.666c13.79 2.701 27.094 7.444 37.244 11.32 5.991 2.288 12.068 4.744 17.944 7.118l.432.173c27.298 11.03 55.524 22.435 84.57 19.619l.488-.045c.24-.022.478-.043.718-.07 18.535-2.047 36.092-10.002 53.07-17.694l3.913-1.77c11.418-5.148 23.618-10.448 36.214-13.707 21.09-5.46 56.77-6.321 78.036-3.817L597.932 359.71 360.49 303.237l-66.848 201.831z" fill="#777"/><path d="M385.439 382.626c-1.922 7.53-1.36 15.489.057 23.13 1.77 9.536 5.335 19.502 13.311 25.02 5.669 3.922 12.974 5.048 19.785 3.994 15.074-2.334 27.685-15.803 29.025-30.998 2.879-32.656-51.807-61.784-62.178-21.146z" fill="#aaa"/><path d="M385.439 382.626l-.019.08c19.386-10.915 52.733 12.58 50.469 38.266a31.72 31.72 0 0 1-1.288 6.52 35.097 35.097 0 0 0 13.016-23.72c2.879-32.656-51.807-61.784-62.178-21.146z" fill="#888"/><path d="M413.793 437.64a28.9 28.9 0 0 1-16.408-4.808c-7.263-5.025-11.956-13.732-14.347-26.62-1.78-9.597-1.786-17.288-.021-24.204 4.056-15.895 15.465-23.854 30.515-21.286 18.783 3.203 38.416 22.389 36.575 43.27-1.448 16.43-14.833 30.724-31.132 33.248a33.912 33.912 0 0 1-5.183.4zm-5.66-72.386c-7.237 0-16.49 3.177-20.272 17.99-1.58 6.189-1.55 13.197.093 22.056 2.138 11.524 6.153 19.184 12.276 23.42 4.775 3.304 11.33 4.608 17.98 3.578 13.861-2.146 25.685-14.773 26.917-28.746 1.583-17.96-16.136-35.121-32.435-37.9a27.24 27.24 0 0 0-4.559-.398z" fill="#777"/><path d="M559.184 521.721l-50.741 22.185a10.152 10.152 0 0 1-15.688-4.76l-12.965-37.081a10.152 10.152 0 0 1 3.479-11.463l50.74-22.185a10.152 10.152 0 0 1 15.688 4.761l12.966 37.08a10.152 10.152 0 0 1-3.48 11.463z" fill="#bababb"/><path d="M562.662 510.259l-12.965-37.081a10.152 10.152 0 0 0-15.688-4.76l-50.74 22.184a10.152 10.152 0 0 0-3.48 11.463l1.596 4.564 41.734-18.247a10.152 10.152 0 0 1 15.688 4.76l11.37 32.517 9.007-3.938a10.152 10.152 0 0 0 3.478-11.462z" fill="#888"/><path d="M502.38 548.458a12.781 12.781 0 0 1-3.715-.557 12.527 12.527 0 0 1-8.27-7.93L477.43 502.89a12.609 12.609 0 0 1 4.335-14.285l.234-.175 50.755-22.192a12.653 12.653 0 0 1 19.303 6.115l12.966 37.081a12.61 12.61 0 0 1-4.335 14.285l-.235.177-50.755 22.19a12.513 12.513 0 0 1-7.318 2.372zm-17.823-55.69a7.625 7.625 0 0 0-2.408 8.472l12.966 37.08a7.652 7.652 0 0 0 11.825 3.59l.233-.177 50.723-22.176a7.627 7.627 0 0 0 2.407-8.473l-12.967-37.08a7.651 7.651 0 0 0-11.824-3.589l-.234.176z" fill="#777"/><path d="M472.95 713.919c-26.885 0-52.94-10.53-78.239-20.752-29.315-11.846-59.633-24.094-90.218-19.064-13.128 2.159-25.794 7.504-38.043 12.674-2.6 1.097-5.2 2.194-7.802 3.262-15.241 6.256-31.699 11.86-48.784 10.567-15.815-1.204-34.525-10.249-40.676-27.746a2.5 2.5 0 0 1 4.717-1.658c3.893 11.074 16.64 22.92 36.338 24.417 16.045 1.22 31.835-4.184 46.506-10.205a842.895 842.895 0 0 0 7.757-3.244c12.517-5.282 25.461-10.745 39.175-13.001 31.975-5.258 62.948 7.258 92.904 19.362 28.087 11.35 57.13 23.093 86.588 19.833 18.54-2.047 36.096-10.002 53.076-17.695 12.886-5.839 26.211-11.876 40.125-15.477 46.915-12.143 91.597.313 134.807 12.36 31.2 8.699 60.677 16.906 89.192 15.426a2.5 2.5 0 0 1 .26 4.993c-29.344 1.518-59.19-6.791-90.795-15.603-42.573-11.869-86.595-24.141-132.212-12.336-13.496 3.493-26.621 9.44-39.313 15.192-17.335 7.854-35.261 15.975-54.59 18.111a98.242 98.242 0 0 1-10.774.584z" fill="#787878"/><path d="M246.834 562.023l93.877-279.16a8.408 8.408 0 0 1 10.017-5.474l269.685 67.73a8.408 8.408 0 0 1 6.05 10.421l-4.612 16.47a8.408 8.408 0 0 1-10.077 5.905L374.03 320.316a8.408 8.408 0 0 0-9.903 5.36l-87.37 246.11a8.408 8.408 0 0 1-10.371 5.231l-14.03-4.27a8.408 8.408 0 0 1-5.522-10.724z" fill="#999"/><path d="M246.834 562.023l93.877-279.16a8.408 8.408 0 0 1 10.017-5.474l269.685 67.73a8.408 8.408 0 0 1 6.05 10.421l-4.612 16.47a8.408 8.408 0 0 1-10.077 5.905L374.03 320.316a8.408 8.408 0 0 0-9.903 5.36l-87.37 246.11a8.408 8.408 0 0 1-10.371 5.231l-14.03-4.27a8.408 8.408 0 0 1-5.522-10.724z" fill="#999"/><path d="M351.098 312.646l-91.055 262.44 6.343 1.93a8.408 8.408 0 0 0 10.371-5.23l87.37-246.111a8.408 8.408 0 0 1 9.903-5.359l237.744 57.598a8.408 8.408 0 0 0 10.077-5.905l.652-2.33L361 307.287a8.408 8.408 0 0 0-9.903 5.36z" fill="#fa0"/><path d="M620.413 345.118L350.728 277.39a8.408 8.408 0 0 0-10.017 5.475l-93.877 279.16a8.408 8.408 0 0 0 5.522 10.723l7.687 2.34 91.055-262.44a8.408 8.408 0 0 1 9.903-5.359l261.502 62.392 3.96-14.14a8.408 8.408 0 0 0-6.05-10.422z" fill="#fb0"/><path d="M268.85 579.886a10.953 10.953 0 0 1-3.192-.478l-14.03-4.27a10.908 10.908 0 0 1-7.163-13.911l93.877-279.16a10.963 10.963 0 0 1 12.996-7.103l269.685 67.73a10.908 10.908 0 0 1 7.847 13.52l-4.611 16.47a10.87 10.87 0 0 1-13.073 7.66l-237.745-57.598a5.893 5.893 0 0 0-6.958 3.766l-87.37 246.11a10.892 10.892 0 0 1-10.263 7.264zm-19.646-17.066a5.909 5.909 0 0 0 3.88 7.535l14.03 4.27a5.9 5.9 0 0 0 7.287-3.675l87.37-246.111a10.88 10.88 0 0 1 12.848-6.953l237.744 57.598a5.884 5.884 0 0 0 7.08-4.148l4.612-16.47a5.908 5.908 0 0 0-4.251-7.323l-269.685-67.729a5.93 5.93 0 0 0-7.038 3.847z" fill="#777"/><path d="M476.412 691.179l-44.21-151.448a14.399 14.399 0 0 0-19.112-9.392l-50.05 19.726a14.399 14.399 0 0 0-8.8 16.407l23.893 117.432c6.113 2.335 12.22 4.806 18.332 7.275 28.152 11.375 56.392 22.635 85.748 19.788z" fill="#aaa"/><path d="M476.412 691.179l-44.21-151.448a14.399 14.399 0 0 0-19.112-9.392l-50.05 19.726a14.399 14.399 0 0 0-8.8 16.407l1.646 8.088 44.538-17.555a14.399 14.399 0 0 1 19.11 9.393l42.157 144.413a102.215 102.215 0 0 0 20.522.156z" fill="#888"/><path d="M472.832 713.915c-26.77 0-52.415-10.362-77.304-20.418l-.432-.175c-5.855-2.365-11.908-4.811-17.855-7.083l-1.284-.49-24.166-118.778a16.837 16.837 0 0 1 10.333-19.232l50.05-19.726a16.9 16.9 0 0 1 22.429 11.022l44.209 151.444 6.65 22.684-3.008.292c-3.224.313-6.431.46-9.623.46zm-92.523-31.854c5.574 2.146 11.203 4.42 16.66 6.625l.432.174c26.35 10.647 53.568 21.658 81.549 19.86l-4.938-16.841-44.21-151.449a11.899 11.899 0 0 0-15.794-7.765l-50.05 19.726a11.859 11.859 0 0 0-7.272 13.559zm44.104 99.402q-.39 0-.779-.01c-12.703-.313-24.15-6.213-35.219-11.918l-1.095-.565c-10.91-5.617-22.552-11.025-34.31-10.174-9.478.69-18.405 5.405-27.037 9.966-1.125.594-2.246 1.187-3.367 1.77-10.058 5.234-21.95 10.286-33.887 8.075a26.022 26.022 0 0 1-17.35-12.364 18.038 18.038 0 0 1-1.71-15.246 2.5 2.5 0 0 1 4.705 1.695 13.105 13.105 0 0 0 1.342 11.063 21.188 21.188 0 0 0 13.924 9.936c10.446 1.938 21.364-2.753 30.668-7.594a635.908 635.908 0 0 0 3.338-1.755c9.089-4.802 18.487-9.768 29.012-10.533 13.05-.955 25.417 4.773 36.96 10.716l1.098.566c10.568 5.447 21.495 11.08 33.051 11.364 11.025.236 23.927-6.413 25.579-17.682a2.5 2.5 0 1 1 4.947.725c-.95 6.48-4.906 12.306-11.137 16.405a34.821 34.821 0 0 1-18.733 5.56z" fill="#787878"/><path d="M681.95 770.103c-7.998-2.891-15.931-6.99-24.43-6.673-14.775.551-26.192 14.112-40.8 16.387-10.493 1.633-20.901-2.798-30.44-7.464s-19.407-9.794-30.025-9.671-22.021 7.682-22.2 18.3v20c.179-10.618 11.582-18.177 22.2-18.3s20.485 5.006 30.024 9.671 19.947 9.097 30.44 7.464c14.61-2.275 26.026-15.836 40.801-16.387 8.498-.317 16.432 3.782 24.43 6.673s17.54 4.435 24.521-.422v-20c-6.981 4.857-16.523 3.313-24.521.422z" fill="#eee"/><path d="M534.057 803.481h-.043a2.5 2.5 0 0 1-2.458-2.541c.206-12.248 12.922-20.62 24.67-20.758l.41-.002c10.511 0 20.052 4.682 29.285 9.213l1.458.714c8.814 4.312 19.055 8.789 28.956 7.239 6.371-.992 12.12-4.302 18.206-7.806 7.08-4.076 14.401-8.292 22.886-8.608 7.242-.269 13.928 2.365 20.4 4.914a186.76 186.76 0 0 0 4.973 1.905c6.626 2.396 15.862 4.32 22.244-.122a2.5 2.5 0 1 1 2.855 4.105c-6.533 4.544-15.55 4.788-26.798.72a191.347 191.347 0 0 1-5.107-1.956c-6.268-2.47-12.191-4.806-18.38-4.57-7.249.27-13.724 4-20.578 7.945-6.215 3.578-12.642 7.279-19.932 8.414-11.346 1.764-22.424-3.043-31.923-7.687l-1.463-.718c-8.72-4.28-17.733-8.702-27.091-8.702-.114 0-.228 0-.342.002-9.208.107-19.575 6.64-19.73 15.842a2.5 2.5 0 0 1-2.498 2.457zm-179.25 23.635c-14.756 0-29.654-7.557-37.481-20.135a2.5 2.5 0 1 1 4.245-2.643c9.054 14.55 28.813 21.5 44.983 15.827 2.532-.888 5.048-2.037 7.711-3.255 7.512-3.433 15.28-6.982 23.452-4.348a32.214 32.214 0 0 1 8.52 4.75 41.427 41.427 0 0 0 5.105 3.232 10.746 10.746 0 0 0 7.733.803 4.131 4.131 0 0 0 2.527-2.11 2.5 2.5 0 0 1 4.513 2.154 9.072 9.072 0 0 1-5.417 4.686 15.593 15.593 0 0 1-11.594-1.062 45.741 45.741 0 0 1-5.738-3.61 28.025 28.025 0 0 0-7.183-4.082c-6.325-2.042-12.89.96-19.84 4.135-2.648 1.21-5.386 2.462-8.134 3.426a40.472 40.472 0 0 1-13.402 2.232z" fill="#787878"/><path d="M687.923 260.314c-2.28 3.847-3.426 8.604-2.026 12.851.5 1.52 1.69 3.145 3.28 2.974a3.989 3.989 0 0 0 2.537-1.947c3.287-4.586 6.248-27.349 6.248-27.349s-8.116 10.226-10.04 13.47zm-148.15-5.303c-5.778 5.399-4.452 9.85-2.77 10.66 1.993.957 5.043 1.653 7.41-5.45m218.485 70.703c.255 1.846.992 3.894 2.728 4.574 2.33.911 4.694-1.179 6.197-3.179 3.031-4.032 21.748-40.636 17.634-44.607s-27.365 37.36-26.559 43.212zm-265.7 371.98c.254 1.847.991 3.895 2.727 4.574 2.33.912 4.694-1.178 6.198-3.178 3.03-4.032 21.747-40.636 17.633-44.607s-27.365 37.36-26.558 43.211zM431.772 262.2c.255 1.847.992 3.895 2.728 4.574 2.33.912 4.694-1.179 6.197-3.179 3.032-4.032 21.748-40.636 17.634-44.607s-27.365 37.36-26.559 43.212zm55.335 202.971c.254 1.847.991 3.895 2.727 4.574 2.33.912 4.694-1.178 6.198-3.178 3.03-4.032 21.747-40.636 17.633-44.607s-27.365 37.36-26.558 43.212zm259.987-5.847a39.23 39.23 0 0 0-14.442 23.262c-.651 3.295-.716 7.137 1.642 9.527 3.146 3.189 8.957 1.711 11.751-1.79s3.394-8.214 3.888-12.666m-411.419 53.168a39.23 39.23 0 0 0-14.442 23.263c-.652 3.294-.717 7.136 1.642 9.527 3.146 3.188 8.957 1.71 11.751-1.79s3.394-8.214 3.888-12.666m369.219 44.606a66.606 66.606 0 0 0-13.945 25.746c-.802 2.852-.842 6.846 1.978 7.752 1.83.588 3.716-.632 5.178-1.88a44.101 44.101 0 0 0 11.55-15.402M188.23 447.46c.022.628-.158 1.251-.172 1.886-.123 5.537 6.118 7.529 10.405 4.02 8.4-6.875 8.832-28.866 8.832-28.866s-19.474 10.714-19.064 22.96zm-30.84 137.365c-.79 2.86-.957 6.661 1.679 8.026 2.053 1.063 4.693-.229 5.911-2.194s1.383-4.384 1.514-6.692c.33-5.802 1.362-12.166.712-17.868-4.901 4.764-8.01 12.193-9.816 18.728zm277.184-98.935c-1.746-2.293-10.685 8.225-12.34 11.597s-.315 8.426 3.372 9.139c2.256.436 4.557-.905 5.926-2.749a18.482 18.482 0 0 0 2.598-6.336c1.45-5.353 2.19-9.358.444-11.651zM287.772 273.265c-3.924 1.401-17.855 12.979-20.665 16.056s-3.815 8.236-1.056 11.36c3.343 3.786 10.06 2.145 13.095-1.893s8.357-20.48 8.626-25.523zm238.661-83.719c-3.925 1.402-17.856 12.979-20.666 16.056s-3.814 8.236-1.056 11.36c3.343 3.786 10.06 2.145 13.096-1.892s8.356-20.48 8.626-25.524zm-175.081 21.537s-7.3 5.571-8.985 7.942-3.514 4.9-3.57 7.807 2.7 5.999 5.454 5.062c1.562-.531 2.502-2.084 3.31-3.523 3.236-5.758 3.791-17.288 3.791-17.288z" fill="#ddd"/><path d="M687.386 363.537c.06-.08-.048.131-.08.196a8.66 8.66 0 0 0 1.457 1.138 36.884 36.884 0 0 1 3.146 1.993c.137.103.355.092.381.356a.707.707 0 0 0 .195.426 1.044 1.044 0 0 1 .372.533c.05.005-.152.264-.146.278-.007.099.028.146.015.253-.313.502-.27.282-.312.236-.08-.086-.34.08-.39-.056-.066.08-.105.225-.172.261-.278-.092-.546-.01-.754-.218-.115.221.086.05.028.2a2.332 2.332 0 0 0-.644-.028c-.08 0-.08-.137-.151-.155-.46-.117-.898-.305-1.378-.479a9.325 9.325 0 0 0-1.212-.5c-.045-.314-.29-.322-.483-.357-.317-.425-.909-.594-1.311-1.05a5.15 5.15 0 0 0-.787-.728 1.308 1.308 0 0 1-.288-.605c-.042-.122-.138-.158-.198-.244-.075-.106-.207-.097-.111-.435-.217-.083-.21-.394-.452-.521.201-.416.147-.536.381-.988.204-.278.262-.24.418-.416.087.043.264-.043.415-.112.093-.042.042.12.082.173.077.102.252.104.355.157.17.088.435-.007.587.054a1.781 1.781 0 0 0 .994.733c0-.014.051-.089.043-.095zm54.976 36.124c.094-.051.01.193-.01.27l6.095 6.01a143.882 143.882 0 0 1 11.676 12.766 8.92 8.92 0 0 1 1.427 1.893 8.54 8.54 0 0 0 .915 1.552 15.302 15.302 0 0 1 1.485 2.316c.146.15-.234.194-.205.245.056.215.19.423.233.638-.51.307-.554-.09-.707-.315-.293-.427-.904-.759-1.149-1.22-.126.007-.125.24-.287.14a33.484 33.484 0 0 1-2.329-2.569c-.15.206.287.35.242.546-.537-.603-1.263-1.212-1.88-1.783-.232-.212-.343-.534-.57-.76-1.444-1.476-2.895-3.043-4.5-4.642-1.417-1.42-2.706-2.84-4.156-4.105a7.32 7.32 0 0 0-1.862-1.955c-1.43-1.72-3.49-3.43-5.304-5.345a65.706 65.706 0 0 0-3.432-3.313 19.608 19.608 0 0 1-1.726-1.942c-.302-.359-.66-.64-.975-.949-.392-.384-.816-.629-.963-1.182-.828-.624-1.246-1.289-2.241-2.042.08-.52-.275-.892-.142-1.434.283-.214.535-.015.809-.094a4.804 4.804 0 0 0 1.248.58c.256.091.32.352.531.547.408.382 1 .752 1.424 1.082.703.545 1.462.886 2.052 1.351a48.686 48.686 0 0 0 4.283 3.837c-.019-.034.052-.092.018-.123zm12.068 106.668c.092-.213.711-.292.909-.337a18.556 18.556 0 0 1 10.787-2.639 27.85 27.85 0 0 1 10.667 2.995 38.381 38.381 0 0 1 9.101 6.322c1.282 1.317 2.614 2.594 3.86 3.952 1.154 1.434 2.397 2.808 3.482 4.298a76.983 76.983 0 0 1 10.508 20.58 136.517 136.517 0 0 1 5.17 20.634c1.212 6.822 2.066 13.603 2.854 20.502.788 6.908 1.46 13.906 2.656 21.162.62 3.861 1.557 7.91 2.193 11.463a77.39 77.39 0 0 0 2.058 8.546 131.563 131.563 0 0 0 4.576 12.713c.446.93-.253.178-.143.441.363.95.9 2.057 1.25 2.982-.668-.025-1.267-1.656-1.838-2.893a78.388 78.388 0 0 1-3.348-7.673c-.227-.311-.037.607-.414-.215-1.123-3.092-2.029-5.678-2.793-8.3a93.448 93.448 0 0 1-2.13-8.462c-.188.37.494 2.235.487 2.877-.978-3.964-2.02-8.57-2.79-12.734-.295-1.548-.404-3.158-.654-4.754-1.505-10.33-2.47-21.022-4.398-32.203-.896-4.94-1.785-9.768-3.048-14.43l-.447-1.753-.518-1.725c-.351-1.147-.677-2.3-1.05-3.433-.822-2.238-1.555-4.508-2.553-6.66-.396-1.06-.739-2.165-1.24-3.192a155.755 155.755 0 0 0-1.487-3.076c-.467-1.033-1.115-1.942-1.654-2.883-.581-.913-1.067-1.856-1.679-2.662a52.184 52.184 0 0 0-11.66-13.142 33.728 33.728 0 0 0-8.096-4.594 22.397 22.397 0 0 0-9.06-1.627 14.748 14.748 0 0 0-9.804 4.337 19.439 19.439 0 0 0-4.888 9.856 27.647 27.647 0 0 0 .394 12.275 35.553 35.553 0 0 0 2.361 6.219c1.155 2.443 2.465 4.455 3.44 6.563 2.895 4.271 4.96 7.383 8.771 12.318.42 1.295 1.992 3.294 2.389 4.466-.579-.118-1.643-1.343-2.355-1.852-1.443-1.732-3.008-3.529-4.366-5.099-.84-.972-1.344-1.915-2.172-3.076-1.618-2.26-3.702-5.054-5.128-7.374a48.574 48.574 0 0 1-5.534-11.206 29.015 29.015 0 0 1-.557-14.493 24.436 24.436 0 0 1 2.792-7.174 18.81 18.81 0 0 1 5.472-5.967c-.18.1-.174-.026-.373.127zm86.993 151.962c.066-.076-.06.126-.097.188a6.988 6.988 0 0 0 1.33 1.223c1.117.776 2.02 1.264 3.037 2.009.136.098.35.082.38.341a.676.676 0 0 0 .2.414 1.026 1.026 0 0 1 .385.51c.05.003-.144.268-.138.282-.003.099.033.144.024.25-.295.513-.261.292-.305.249-.084-.082-.34.093-.396-.04-.065.082-.099.227-.165.266-.286-.082-.556.003-.773-.199-.113.223.088.049.034.2a2.554 2.554 0 0 0-.658-.022c-.081 0-.084-.135-.157-.153a12.231 12.231 0 0 1-1.408-.501 12.341 12.341 0 0 0-1.228-.556c-.036-.32-.285-.34-.48-.39-.305-.448-.895-.668-1.27-1.167a6.025 6.025 0 0 0-.733-.82 1.318 1.318 0 0 1-.229-.644c-.03-.129-.121-.176-.172-.27-.062-.117-.194-.126-.06-.452-.205-.112-.16-.425-.381-.586.252-.388.215-.516.506-.935.237-.248.289-.204.465-.358.078.054.261-.01.416-.059.096-.03.025.125.056.182.06.11.23.133.323.197.153.107.421.042.56.117a1.635 1.635 0 0 0 .883.816c0-.015.058-.086.05-.092zM641.501 198.392c-.055.084.041-.133.07-.2a8.729 8.729 0 0 0-1.512-1.077 37.135 37.135 0 0 1-3.242-1.856c-.142-.097-.36-.077-.398-.34a.702.702 0 0 0-.212-.415 1.038 1.038 0 0 1-.395-.516c-.05-.003.143-.269.136-.282.003-.1-.033-.145-.024-.252.294-.513.26-.292.304-.248.083.082.337-.095.393.039.063-.083.096-.228.162-.267.282.079.548-.013.763.184.107-.225-.087-.047-.036-.198a2.332 2.332 0 0 0 .645 0c.08-.003.086.132.157.147.465.096.909.265 1.395.416a9.257 9.257 0 0 0 1.229.443c.059.311.303.308.496.334.335.41.931.55 1.353.988a5.132 5.132 0 0 0 .817.691c.154.105.225.363.316.592.048.121.145.152.21.235.08.103.21.088.132.431.22.073.228.387.476.502-.177.427-.117.545-.325 1.011-.187.289-.247.254-.392.437-.09-.039-.26.056-.407.132-.09.048-.05-.119-.092-.169-.082-.1-.257-.093-.362-.142-.175-.08-.433.027-.588-.028a1.798 1.798 0 0 0-1.03-.69c0 .015-.047.093-.039.098zm-36.519-18.572c-.06.083-.014-.157-.002-.23a60.85 60.85 0 0 0-4.37-2.246c-3.363-1.555-5.94-2.52-9.093-3.716a3.244 3.244 0 0 1-1.241-.507 2.775 2.775 0 0 0-.892-.539 6.343 6.343 0 0 1-1.434-.663c-.12-.008.07-.296.04-.312-.092-.115-.224-.172-.31-.296.18-.564.323-.31.472-.254.283.104.715-.067.981.1.07-.088.003-.255.122-.29a8.879 8.879 0 0 1 2.018.382c.039-.25-.256-.08-.28-.25a15.114 15.114 0 0 0 1.552.171c.19.02.332.189.518.231 1.204.266 2.422.646 3.712 1.048 1.144.358 2.181.834 3.287 1.155a2.878 2.878 0 0 0 1.43.706c1.108.726 2.6 1.232 3.93 2.042.805.49 1.63.947 2.451 1.36a6.056 6.056 0 0 1 1.213.962 5.451 5.451 0 0 0 .675.426c.268.18.558.23.658.647.566.215.843.64 1.51.926-.063.478.173.668.072 1.18-.197.287-.364.21-.551.377a1.868 1.868 0 0 0-.833-.04c-.17.015-.21-.185-.35-.275a6.274 6.274 0 0 0-.952-.383c-.47-.2-.98-.195-1.381-.35a12.287 12.287 0 0 0-2.944-1.473c.014.021-.031.1-.008.111zm18.955 82.19c.129-.058.312.265.382.367a95.754 95.754 0 0 0 11.382 3.63c.988.23 1.976.48 2.974.694l3.014.597a18.585 18.585 0 0 0 5.772.022 24.514 24.514 0 0 0 11.082-5.482 46.45 46.45 0 0 0 7.992-8.731 69.998 69.998 0 0 0 5.958-10.075 75.499 75.499 0 0 0 4.448-11.34c.68-2.14 1.076-4.49 1.697-6.475.196-.708.394-1.503.574-2.342.144-.843.308-1.727.411-2.61a60.297 60.297 0 0 0 .363-7.741c-.068-.588.3-.057.296-.221.055-.592-.021-1.304.014-1.882.601.12.536 1.134.564 1.929.045.752.18 1.586.23 2.43l.089 1.253c0 .41-.015.809-.05 1.184.095.22.257-.317.305.212a46.308 46.308 0 0 1-1.163 10.14c.282-.132.277-1.31.508-1.636-.422 2.353-.956 5.068-1.573 7.479-.248.891-.653 1.752-.934 2.657a74.328 74.328 0 0 1-8.29 17.323 48.868 48.868 0 0 1-12.062 12.884 40.078 40.078 0 0 1-7.632 3.596c-.862.195-1.753.386-2.669.52a20.75 20.75 0 0 1-2.835.181c-.483-.01-.972.006-1.46-.027l-1.473-.175a13.115 13.115 0 0 1-1.424-.23l-1.39-.27a87.519 87.519 0 0 1-11.255-2.984 119.416 119.416 0 0 1-13.058-5.379 60.768 60.768 0 0 1-3.319-1.795c-1.08-.667-2.18-1.316-3.251-2.027-1.133-.756-2.317-1.381-3.384-2.113l-1.917-1.246a10.302 10.302 0 0 1-1.6-1.38c-2.545-1.652-4.14-3.146-7.015-5.367-.293-.829-1.39-1.813-1.565-2.61.43-.093 1.14.484 1.657.606a24.487 24.487 0 0 0 3.19 2.098 21.25 21.25 0 0 1 1.66 1.36c.63.477 1.36.983 2.087 1.478l2.12 1.351c2.12 1.37 4.18 2.35 6.037 3.369a76.12 76.12 0 0 0 14.658 6.945c-.094-.05-.025-.12-.145-.166zm51.477-66.784c-.1.02.123-.065.19-.091a8.584 8.584 0 0 0-.326-1.812 36.603 36.603 0 0 1-1.016-3.57c-.034-.168-.203-.303-.047-.52a.714.714 0 0 0 .137-.448 1.056 1.056 0 0 1 .077-.648c-.034-.036.288-.099.293-.113.07-.07.076-.13.157-.201.565-.174.387-.036.388.027.003.117.307.163.254.3.102-.017.227-.101.3-.084.146.253.4.37.417.665.233-.09-.03-.096.112-.17a2.317 2.317 0 0 0 .461.448c.06.054-.03.156.011.217.265.395.467.828.71 1.28a9.425 9.425 0 0 0 .573 1.184c-.175.266.002.436.123.591-.046.53.284 1.054.281 1.664a5.172 5.172 0 0 0 .103 1.07 1.297 1.297 0 0 1-.188.641c-.05.12-.003.21-.015.314-.015.129.09.211-.208.396.107.207-.107.432-.01.688-.429.17-.469.295-.947.47a2.953 2.953 0 0 1-.59.025c-.036-.09-.226-.145-.385-.196-.098-.03.05-.117.054-.181.011-.127-.118-.246-.16-.353-.068-.179-.329-.286-.401-.432a1.762 1.762 0 0 0-.252-1.202c-.01.01-.099.032-.096.041zM96.083 327.082c-.017-.1.063.125.089.192a9.82 9.82 0 0 0 1.869-.25 28.648 28.648 0 0 1 3.709-.77c.173-.02.33-.179.528-.002a.706.706 0 0 0 .433.18 1.032 1.032 0 0 1 .638.14c.04-.03.06.298.073.304.06.078.118.09.178.178.097.584-.016.392-.077.386-.116-.01-.2.29-.327.223.004.104.071.237.046.31-.266.12-.409.362-.698.35.063.242.096-.02.154.129a2.267 2.267 0 0 0-.486.418c-.057.054-.148-.046-.212-.01-.409.23-.848.392-1.304.6a8.22 8.22 0 0 0-1.189.482c-.249-.192-.425-.027-.581.084-.516-.08-1.038.22-1.635.187a4.79 4.79 0 0 0-1.054.058 1.337 1.337 0 0 1-.633-.209c-.119-.053-.21-.009-.312-.024-.128-.018-.21.084-.396-.215-.206.1-.434-.116-.69-.024-.178-.428-.305-.469-.491-.944a2.786 2.786 0 0 1-.033-.586c.091-.035.146-.223.197-.38.032-.097.121.05.188.056.13.012.253-.114.364-.154.184-.066.296-.323.448-.392a1.897 1.897 0 0 0 1.245-.22c-.011-.01-.03-.099-.04-.097zm37.244-3.909c.02-.1.066.138.083.21a65.77 65.77 0 0 0 4.358.356c3.294.151 5.784.255 8.803.635a2.485 2.485 0 0 1 1.194.21 2.44 2.44 0 0 0 .88.343 4.463 4.463 0 0 1 1.366.395c.108-.012-.025.303.003.315.095.097.219.132.309.24-.094.585-.247.359-.383.328-.26-.057-.611.187-.863.072-.048.1.032.25-.065.307a8.088 8.088 0 0 1-1.782.043c.01.25.231.02.28.182a8.946 8.946 0 0 0-1.338.197c-.162.028-.314-.102-.479-.093-1.061.054-2.156.037-3.317.062-1.03.02-2.006-.074-2.994.025a2.06 2.06 0 0 0-1.375-.121c-1.128-.253-2.499-.135-3.838-.352a23.237 23.237 0 0 0-2.43-.256 4.958 4.958 0 0 1-1.31-.377 4.072 4.072 0 0 0-.692-.107c-.279-.05-.526.026-.763-.31-.528.041-.909-.223-1.546-.197-.136-.458-.397-.529-.52-1.036.043-.343.207-.344.29-.575a1.554 1.554 0 0 0 .68-.32c.131-.088.241.077.387.1a5.095 5.095 0 0 0 .913-.056c.455-.017.865-.235 1.249-.258a10.416 10.416 0 0 0 2.933.144c-.02-.014-.01-.105-.033-.106zm141.4 17.727c.094-.096.337.152.424.227 6.93.45 14.243.685 21.596.706 8.166.031 15.332-.155 22.336-.44 7.004-.268 13.845-.68 21.366-1.218 1.998-.158 4.115-.43 5.978-.41 1.32.024 2.93-.06 4.52-.175 2.28-.157 4.474-.436 6.938-.487.524-.08.061.3.208.292.527.03 1.156-.017 1.667.025-.1.606-.996.494-1.688.554-1.315.114-2.906.57-4.223.625-.176.124.308.214-.14.33-3.319.418-5.509.826-8.827 1.074.186.239 1.16-.107 1.49.018-2.062.242-4.44.578-6.577.874-.796.104-1.62.067-2.44.14a424.5 424.5 0 0 1-16.62 1.281c-5.175.317-10.128.427-15.09.64a61.066 61.066 0 0 0-6.985.003c-5.755-.157-12.663-.143-19.46-.532l-12.279-.8c-2.171-.126-4.363-.487-6.59-.798-1.178-.17-2.347-.22-3.47-.356a16.309 16.309 0 0 1-3.794-.635c-2.655-.169-4.52-.63-7.7-.926-.604-.521-1.887-.722-2.403-1.284.274-.317 1.083-.236 1.529-.424a28.447 28.447 0 0 0 3.4.02 11.636 11.636 0 0 1 1.89.291c1.396.18 3.149.227 4.5.336 2.238.182 4.27.122 6.16.218 4.543.472 9.31.873 14.453.943-.094-.017-.055-.106-.17-.111zm99.107-4.983c-.007-.1.049.13.067.2a8.729 8.729 0 0 0 1.855-.068 37.18 37.18 0 0 1 3.701-.503c.172-.01.333-.159.522.026a.702.702 0 0 0 .422.2 1.038 1.038 0 0 1 .628.17c.041-.03.05.3.064.306.058.08.114.094.172.184.08.587-.028.39-.09.383-.116-.015-.21.28-.335.208 0 .105.063.24.035.31-.272.11-.427.345-.718.32.052.243.098-.017.149.135a2.338 2.338 0 0 0-.511.393c-.061.051-.148-.053-.214-.02-.427.206-.882.343-1.36.52a9.239 9.239 0 0 0-1.244.397c-.236-.211-.428-.06-.597.037-.515-.12-1.074.131-1.674.041a5.136 5.136 0 0 0-1.069-.05 1.322 1.322 0 0 1-.612-.277c-.112-.066-.208-.032-.309-.059-.126-.033-.22.059-.368-.26-.218.075-.416-.168-.683-.108-.12-.447-.24-.504-.359-1a2.872 2.872 0 0 1 .045-.586c.095-.023.173-.203.242-.352.043-.093.112.064.176.078.126.029.26-.082.374-.108.187-.043.327-.285.483-.336a1.798 1.798 0 0 0 1.238-.08c-.01-.012-.02-.102-.03-.1z" fill="#ddd" fill-rule="evenodd"/></svg>