<?xml version="1.0" encoding="utf-8"?>
<!-- Generator: Adobe Illustrator 23.0.3, SVG Export Plug-In . SVG Version: 6.00 Build 0)  -->
<svg version="1.1" id="Layer_1" xmlns="http://www.w3.org/2000/svg" xmlns:xlink="http://www.w3.org/1999/xlink" x="0px" y="0px"
	 viewBox="0 0 218.4 247.3" style="enable-background:new 0 0 218.4 247.3;" xml:space="preserve">
<style type="text/css">
	.st0{fill:#F5F5F5;}
	.st1{fill-rule:evenodd;clip-rule:evenodd;fill:#FFFFFF;}
	.st2{fill-rule:evenodd;clip-rule:evenodd;fill:#DDDDDD;}
	.st3{fill-rule:evenodd;clip-rule:evenodd;fill:#F5F5F5;}
	.st4{fill-rule:evenodd;clip-rule:evenodd;fill:#999999;}
	.st5{fill-rule:evenodd;clip-rule:evenodd;fill:#BBBBBB;}
	.st6{fill:#999999;}
	.st7{fill-rule:evenodd;clip-rule:evenodd;fill:#444444;}
	.st8{fill:#FFBB00;}
</style>
<g>
	<g transform="translate(300,300)">
		<path class="st0" d="M-172-58.5c17.9-2.7,34.9-8.9,49-20.1c26.2-20.7,38.5-54.1,37.8-86.7c-0.5-30.8-12.8-61.1-34.1-82.5
			c-23.5-23.7-73.2-46.9-106.1-29c-4.1,2.2-7.8,5.3-11.3,8.4c-36.2,32.8-67.1,88.3-57.8,138.9c2.7,15,10.9,29.7,20.4,41.4
			c11.9,15,26.3,24.1,45.2,27.9C-210.6-56.7-190.5-55.8-172-58.5z"/>
	</g>
	<path class="st0" d="M31.9,54.7c1-0.5,1.9-1.4,2.5-2.3c2.3-2,3.8-4.7,4.7-7.8c0.6-1.9,0.6-3.9,0.1-5.8c-3.5-11.7-14.4-1.3-18.1,3.3
		C18,46,18,51.6,22.5,54.6c2.2,1.5,5.1,1.9,7.6,1C30.7,55.2,31.3,55,31.9,54.7z"/>
</g>
<path class="st1" d="M202.9,188.2c-0.3-2.5-0.6-4.9-0.6-7.4c-0.1-4.7-0.5-9.4-0.6-14.1c-0.2-7.2,0.1-13.9-3-20.6
	c-2.9-6.3-7-10.9-12-15.5c-2.8-2.6-5.7-4.9-8.7-7.3c-1.6-1.3-5.4-3.4-7.3-5.5c0-0.2,0-0.3,0-0.5v-0.1c0-0.1,0-0.3-0.1-0.4
	c-1.3-5.8,0.1-12.4-0.2-18.4c-0.3-5.6-0.3-11.3,0-16.9c0.2-4.8,0.2-9.6-0.2-14.4c-0.4-3.8-0.5-7.7-0.4-11.5c0.1-0.2,0.1-0.3,0.1-0.5
	V54c0-0.2,0-0.4,0-0.6c0.3-7.1,0.8-14.4,0.6-21.5c-0.2-6.5,0.5-13.8-2.5-19.8c-1.7-3.4-5.9-4.3-9.5-4.6C153.3,7.1,148,6.9,142.7,7
	c-1.3,0-2.5,0-3.8,0c-1.9,0.1-3.8,0.2-5.7,0.2c-3.1-0.1-6.2-0.4-9.2-0.8L98.6,5.8c-2.9-0.1-10.2,0.5-13,0.2c-4-0.1-7.9-0.1-11.9-0.2
	C69.5,5.7,65.2,5.9,61,6.4c-5.3,0.7-8.4,3.4-9.3,8.8c-1.1,5.9-1.4,12-1.1,18C50,40,49.8,46.9,50,53.7c0.2,7-0.3,13.8-0.1,20.8
	c0.1,7.8-0.1,15.6-0.8,23.3c-0.3,4,0,8.1-0.2,12.2c0,2.1-0.2,4.2-0.7,6.2c-0.1,0.3-0.3,0.7-0.4,1c-0.3,0.1-0.6,0.2-0.9,0.4
	c-3.7,3.2-7,6.7-9.8,10.7c-2.7,3.5-5.7,6.9-7.8,10.8c-2,3.7-4.2,7.5-5.8,11.4c-1.6,3.7-4,7.7-4.8,11.8c-2,6.4-3.7,12.9-5,19.5
	c-0.5,2.5-1.4,4-2.2,6.5c0.9,4,3.6,8.2,5.6,11.9c2.3,4.2,5.4,7.9,8.3,11.6c3.4,4.3,5.7,5.9,9.7,9.7c1.8,1.7,5.1,4.5,7.1,5.8
	c0-2,0-2.5,0.1-4.7c0.2-6.2,2.7-10.5,6.7-15c3.8-4.3,7.4-8,9.7-13.3c1.2-2.7,2.2-5.6,2.8-8.6c0.3-1.6,0.7-8.3,2.9-8.7h0.1
	c6.2,0.3,12.4,0.5,18.6,0.7c5.9,0.2,11.9-0.6,17.9-0.4c11.6,0.4,23.4,0.6,35,0.6c3.3,0,6.6,0.1,9.9-0.1c1.5-0.1,4.9-0.8,6-0.5
	c1.5,0.7,3,1.5,4.4,2.4c1.1,0.8,1,0.4,1.4,1.7c0.3,0.9,0.8,10.9,0.8,11.9c0,1.4,0.4,2.7,1.2,3.8c0.7,3.1,2.5,5.9,5,7.9
	c1.4,1,3,1.9,4.5,2.6c3.4,1.6,4.4,3.7,4.5,7.3c0.4,2.6,0.5,5.1,0.3,7.7c0,0.4-0.2,0.9-0.2,1.2c1.3-1.2,2.9-2.4,4.4-3.4
	c1.6-1.9,5.2-4.7,6.8-6.5c2.5-2.7,3.6-3.9,6.1-6.6c2.5-2.6,4.9-6.4,6.9-9.4c2-3,4-6,5-9.6c0-0.1,0-0.1,0.1-0.2
	C202.9,188.4,202.9,188.3,202.9,188.2z"/>
<path class="st2" d="M57.6,164.9c-0.7-1.7-0.6-3.6-0.5-5.3c0-2.6,0.2-5.2,0.4-7.7c0.7-10.3-0.3-20.7,1.2-30.9c0-0.1,0-0.2,0.1-0.2
	v-0.3c-0.1-3.5-0.2-3.8,0-7.3c0.1-2.8,0.7-8.9,0.7-11.7c0.1-6.5,0.7-13,0.9-19.5c0.1-4.2,0.5-9,0.8-13.2c0.4-5.8-0.1-12.1,0.1-17.8
	c0.3-10.2,1.1-19.4,1.3-29.6c0-1.7-0.2-4.4,0-6.1c0.1-0.5,0.1-1.1,0.1-1.6c-1-0.2-2,0.2-2.6,1c-1.2,1.2-1,1.5-0.9,3
	c0.1,1.2,0.2,2.4,0.3,3.6c0.2,3.8,0.2,7.5,0.1,11.3c-0.2,7.5-1,15.1-1.5,22.5c-0.6,7.4-0.2,15-0.5,22.4c-0.1,7.6-0.7,15.1-1.6,22.6
	c-0.1,0.9-0.3,1.8-0.6,2.6c-0.2,2.5-0.3,2.9-0.4,5.5c-0.3,5.8-0.7,11.6-0.8,17.4c0,1.2,0.9,2.5,1.5,3.7c0.4,0.6,0.5,1.3,0.3,2
	c-0.3,1-0.5,2-0.5,3V163c0.1,2,1.6,3.6,3.6,3.8C58.4,166.3,57.9,165.7,57.6,164.9z"/>
<path class="st2" d="M135.2,163.6c-7.2,0.5-14.4,0.2-21.6,0.4c-8.3,0.2-16.6,0.6-24.8,0.4c-1.1,0-23.9-1.5-30.2-0.2
	c0.5,1.3,1.5,2.1,2.9,2.7c0.9,0.1,1.8,0.1,4.4,0.1c4.2,0,8.9-0.3,13.1-0.2c14.5,0.3,32.5,0.7,43.8-0.1c5.5-0.4,10.9-0.7,16.3-0.8
	c1.6-0.1,3.2-0.1,4.8,0.1c0.7-0.2,1.4-0.4,2-0.8c-0.2-0.5-0.2-1-0.3-1.5C142.8,162.9,136.7,163.5,135.2,163.6z"/>
<path class="st3" d="M172.3,210.1c0.1,0.1,0.2,0.1,0.2,0.2v0.1c1.3,2.4,1.2,6,1.2,8.8c0,1.5-0.1,3.4,0,4.9c3.1-2,5.7-4.3,8.2-6.9
	c-0.2-4.1-0.2-8.9-0.6-12.9c-0.4-4-2.7-6.6-6.8-7.8c-1.9-0.5-3.4-2-3.7-4c-1.1-7.2-1.4-14.6-0.8-21.9c0.3-3.4,0.3-6.9,0.1-10.3
	c-0.2-1.8-0.6-3.5-1.4-5.1c-1.6-4.1-3.7-8-6.2-11.6c-1.5-2.1-2.6-4.5-3.1-7.1c-0.5-2.2-1.2-4.4-1.9-6.6c-0.2-1.1-0.7-2-1.3-2.9
	c-2-2.1-1.8-4.7-2-7.2c-0.1-1.6-0.6-2.6-1.5-2.9c-0.5,2.1-2.2,3.4-2.5,5.8c-0.3,2.9-0.1,5.8,0.8,8.6c0.5,1.8,1.4,4,0.9,5.8
	c-0.4,1.7-2,2.9-2.9,4.4c-1.5,2.4-2.4,5-2.7,7.8c-0.2,1.5-0.1,3,0.2,4.5c0.2,1.2,1,2.1,1.2,3.2c0.4,1.5-0.1,2.4-0.8,3.7
	c-0.7,1.4-0.8,3.2-0.2,4.7c0,0,0,0,0,0.1c0.3,0.7,0.6,1.5,0.9,2.2c2.5,2.2,3.2,4.7,4,8c0,0,0,0.1,0,0.1c0.1,0.1,0.1,0.3,0.2,0.4
	c0,0.1,0.1,0.2,0.2,0.2c1.3,1.6,3,2.8,5,3.3l0.3,0.1c0.1,0,0.2-0.1,0.3-0.1c0.3,0,0.5,0.3,0.5,0.6c-0.2,1.8-0.3,3.6-0.4,5.3
	c0.3,4.1,1,8.1,2,12c0.2,0.8,0.5,1.7,0.8,2.5c1.3,2,3.1,3.8,5.1,5.1c1.8,1.2,4.2,2,5.8,3.5C171.8,209.4,172,209.7,172.3,210.1z"/>
<path class="st0" d="M59.6,177.5l-0.3-0.1c-0.6-0.2-1.2-0.3-1.9-0.4c-0.7,0-1.4-0.2-2-0.4c-0.9-0.2-1.8-0.6-2.7-1
	c-1.7-0.9-3-2.3-3.9-4c-0.7-1-1.1-2.2-1.1-3.4c-0.2,0-0.2-0.1-0.1-0.6c0-0.1,0.1-0.3,0.1-0.4v-0.2c0-0.1,0.1-0.2,0.1-0.3
	c1.1-3.1,2.5-6,3.5-9.1c0.9-2.5,2.3-5.6,2.9-8.2c1-4.8-0.1-9.2-1-13.9c-0.2-1.1-0.6-2.2-1.2-3.2c-0.7-1.4-3-3.6-4.6-3.4
	c-1,0.1-0.8,2.3-0.9,3.3c0,0.8,0.2,1.6,0.4,2.4c0.5,2.2,1.6,3.1,1.7,4.8c0.1,3.9-0.1,7.7-0.8,11.6c-0.5,4-2.6,7.3-3.7,11
	c-1,3.3-2.3,6.6-2.8,10c-0.4,3.8-0.5,7.6-0.3,11.4c0.1,5.1,0.4,10.2-1.1,15.2c-0.5,1.7-1.3,3.3-2.4,4.6c-2.8,3-4.3,7-4.1,11.1
	c0.1,2.6,0.1,3.9,0.2,6.5c2.3,2.4,4.8,4.8,7.7,6.5c0-0.1,0.1-0.1,0.1-0.2c-0.3-2.7-0.3-4.6-0.2-7.4c0.1-2.2,0.8-4.3,2-6.1
	c1.2-1.4,2.6-2.7,4.1-3.8c3.6-3,6.5-6.8,8.4-11.1c0.6-1.4,1.4-2.6,2-4c0.2-0.5,0.4-1,0.6-1.6c0.7-1.8,1.3-3.6,1.7-5.5
	c0.4-2.3,1.2-6.4,1.4-8.8C61,178.1,60.3,177.8,59.6,177.5z"/>
<path class="st3" d="M25.3,166.2c0.5,0.1,1.1,0,1.6-0.2c2.5-1.9,4.4-5.1,6.3-7.7c1.8-3.8,3.5-7.8,5.3-11.6c1-2.1,1.8-4.4,2.3-6.6
	c-0.3-5.8-0.1-12,6.6-13c0.1-0.1,0.2-0.2,0.4-0.3c0.3-0.4,0.5-0.9,0.7-1.4c0.3-1,0.3-2,0-3c-0.3-0.4,0.2-1.6-0.3-1.7
	c-7.5,7.3-13.4,16.1-17.4,25.8c-2.1,5-3.7,10.1-5,15.4c-0.3,1-0.6,2-0.9,2.9C24.9,165.3,25.1,165.8,25.3,166.2z"/>
<path class="st3" d="M163.1,124.9c-0.2,0.2-0.4,0.4-0.5,0.7c0.4,1.7,1.2,3.2,2.4,4.4c1.4,1.6,2.8,3.1,4.4,4.5
	c0.9,0.7,1.7,1.4,2.6,2.1c1.8,1.4,3.9,2.4,5.5,4c0.2,0.2,0.4,0.3,0.6,0.5c1,0.6,1.8,1.4,2.6,2.3c1.5,1.5,3,3.2,4.3,4.9
	c0.1,0,0.1,0.1,0.1,0.1c0.1,0.1,0.2,0.3,0.4,0.4c0.3,0.4,0.7,0.7,1.1,1h0.1c0.8,0.2,1.6,0.7,2.3-0.3c1.1-1.6,1-3.7-0.3-5.1
	c-2.9-3.9-6.5-7.2-10.5-10c-1.5-1.1-2.8-2.2-4.1-3.5c-2.8-2.6-6-4.7-9.5-6.2C164.1,124.7,163.6,124.7,163.1,124.9z"/>
<path class="st4" d="M47.7,167.4c0.2,1.4,0.8,3.2,1.1,4.6c0.3,1.3,2,2.4,3.1,3c1.9,1,4,1.6,5.9,2.6c3.3,0.6,6.7,0.8,10.1,0.6
	c2.1-0.5,6.7,0.7,8.8,0.1c1.2-0.1,2.3-0.1,3.5-0.1c7.8,0.3,12.3-0.3,20.2-0.1c9.7,0.3,21.2,0.8,30.9,1c6.1,0.1,10.9-0.6,17-0.3
	c1,0,2,0,3-0.1c1.1-0.1,1.4,0.1,1.7-1s-0.9-1.5-1.7-2.2c-1.7-1.5-0.3-1.7-0.8-3.7c-0.8-3-2.5-4.6-5.5-4.6c-3.6,0-7.2,0.4-10.9,0.5
	c-2,0.1-4.1,0.2-6.1,0.2c-8.2,0-16.3-0.1-24.5,0c-13.4,0.1-26.8-0.1-40.1,0.1c-1.2,0.1-2.4,0-3.5-0.4c-1.9-0.2-3.7-0.8-4.3-2.3
	c-0.1-0.2-0.1-0.4-0.2-0.6c-0.2,0.1-0.1-0.4,0-1c0.1-0.7,0.1-1.3,0.3-2c0.1-2.2-0.1-5.3-0.1-7.6c-0.1-0.5-0.4-0.9-0.6-1.3
	c-1.6,0-1.9,1.9-2.6,3.7c-0.4,1.1-1.8,3.2-2.1,4.4c-0.6,2.2-1,2.3-1.6,4.6C48.4,166,47.7,166.7,47.7,167.4z"/>
<path class="st4" d="M80.5,5.5h9.1c0,0,0,0.1,0,0.1h-9.2L80.5,5.5z"/>
<path class="st5" d="M133.8,49.7c2.4,0,4.7,0,7,0h1c2.6,0,5.1,0.1,7.7,0c0.6,0,1.2-0.2,1.8-0.5c0.3-0.3,0.4-0.6,0.3-1
	c-0.2-0.3-0.5-0.5-0.9-0.5c-5.2,0-10.3,0.2-15.4,0.2c-0.4-0.1-0.9-0.1-1.3,0c-0.3,0.2-0.6,0.4-0.8,0.6c-0.1,0.1-0.1,0.2-0.1,0.2
	c0,0.2,0,0.3,0,0.5C133.2,49.4,133.5,49.6,133.8,49.7z"/>
<path class="st5" d="M136.1,24.6c-0.6,0-1.4-0.3-1.2-1.1c0.1-0.3,0.9-0.7,1.4-0.7c5,0.1,10,0.3,15,0.5c0.7,0,1.9-0.5,1.9,0.8
	c-0.1,1.3-1.3,0.9-2.1,0.9h-0.8c-1.3,0-2.7-0.1-4-0.2c-0.4,0-0.8,0-1.3-0.1s-1-0.1-1.6-0.1C141.1,24.6,138.6,24.7,136.1,24.6z"/>
<path class="st5" d="M144.1,42.2h-5.5c-0.7,0-1.4-0.1-1.3-0.9c0-0.3,0.8-0.8,1.3-0.8c3.6,0,7.3,0,10.9,0c0.6,0,1.3,0,1.3,0.9
	c0,0.8-0.7,1-1.4,1c-1.8,0-3.1,0-4.9,0C144.5,42.3,144.1,42.2,144.1,42.2z"/>
<path class="st5" d="M67.1,20.1c0.3,0.2,0.6,0.4,0.9,0.4h0.3c1.1,0,2.2-0.1,3.4-0.2l1.7-0.2c0.2,0,0.5,0,0.7-0.1
	c0.2-0.1,0.4-0.2,0.5-0.4c0.1,0,0.1-0.1,0.1-0.1c0,0,0-0.1,0-0.1c0.1-0.3,0-0.5-0.1-0.8c-0.2-0.2-0.4-0.3-0.6-0.4
	c-0.8-0.1-1.6-0.1-2.5,0c-1.1,0.1-2.4,0.2-3.7,0.4c-0.3,0.1-0.6,0.3-0.8,0.6C66.9,19.7,66.9,19.9,67.1,20.1z"/>
<path class="st5" d="M145.2,28c0.2,0.3,0.5,0.4,0.8,0.5c0.9,0.1,1.8,0.1,2.8,0h0.4c0.6,0.1,1.2,0.1,1.9,0.1c0.3-0.1,0.7-0.2,0.9-0.5
	c0.1-0.2,0.1-0.4,0.1-0.7c-0.3-0.3-0.6-0.6-0.8-0.6c-1.8-0.1-3.5-0.1-5.3,0c-0.3,0.1-0.5,0.2-0.7,0.4
	C145.2,27.5,145.2,27.8,145.2,28z"/>
<path class="st5" d="M145.5,32.1c0.2,0.4,0.5,0.6,0.8,0.7c0.8,0.1,1.5,0.1,2.3,0c0.6,0.1,1.3,0.1,1.9,0c0.6-0.1,1.1-0.8,0.7-1.3
	c-0.2-0.2-0.4-0.5-0.6-0.5c-1.4-0.1-2.9-0.1-4.3,0C145.9,31.1,145.3,31.7,145.5,32.1z"/>
<path class="st5" d="M81,41.9c-3.2-0.1-5.4-0.6-8.6-0.7c-0.7,0-1.5,0-1.5-0.9s0.8-1,1.5-1c0.4,0,0.7,0,1.1,0c3.3,0.2,6.7,0.4,10,0.7
	c1,0,2,0.1,3,0.3c0.5,0.1,1.2,0.6,1.2,1c0.1,0.8-0.6,0.8-1.3,0.8C85,42.1,83.5,42,82.1,42C81.7,42,81.4,42,81,41.9z"/>
<path class="st5" d="M79.1,47.3l-6.6-0.2c-0.7,0-1.4,0.1-1.4-0.9c0-1,0.8-1,1.5-1c4.3,0.1,8.6,0.3,12.9,0.5c0.7,0,1.5,0.1,1.4,1
	s-0.8,0.9-1.5,0.9C83.3,47.5,81.2,47.4,79.1,47.3L79.1,47.3z"/>
<path class="st5" d="M83.1,134.8c0.1,0.9-0.8,1.1-1.5,1.1S79.9,136,80,135c0.1-0.5,1-0.8,1.8-1.4C82.4,134.1,83.1,134.5,83.1,134.8z
	"/>
<path class="st5" d="M59.8,139.9c-0.4,0.3-0.9,0.9-1.3,0.9s-1.1-0.7-1.1-1c0.1-0.6,0.5-1,1.1-1.2c0.3-0.1,0.9,0.5,1.3,0.8
	L59.8,139.9z"/>
<g>
	<path class="st5" d="M118.8,141.9c0.3,0.2,0.9,0.4,0.9,0.7c0.1,0.4-0.1,1.2-0.4,1.3c-0.8,0.4-1.7,0.6-2.6,0.6
		c-5.7,0.1-11.4,0-17.2,0.1c-8.2,0.1-16.5,0.4-24.7,0.6c-0.3,0.1-0.6,0.1-0.9,0c-0.4-0.3-1-0.7-1-1s0.5-0.7,0.9-1
		c0.2-0.1,0.5-0.1,0.8-0.1c11.4-0.2,22.9-0.5,34.4-0.7c3.2-0.1,4.9-0.5,8.2-0.5C117.2,141.8,118.8,142.1,118.8,141.9z"/>
	<path class="st5" d="M81.6,150.6c0,1.1,1.1,1,1.9,1c1.5,0,3.1,0,4.7,0l0,0h4.7c0.2,0,0.5,0.1,0.7,0c0.3-0.2,0.5-0.5,0.8-0.8
		c0-0.3-0.1-0.6-0.3-0.9c-0.1-0.2-0.3-0.3-0.6-0.4c-1.8-0.1-3.7-0.1-5.5-0.1c-1.5,0-2.9,0-4.4,0C82.7,149.5,81.6,149.4,81.6,150.6z"
		/>
	<path class="st5" d="M76.2,149.4c0.3,0,0.9,0.7,0.9,0.8c-0.2,0.5-0.5,0.8-1,1.1c-0.3,0.1-0.7-0.4-1.4-0.9
		C75.3,149.8,75.9,149.4,76.2,149.4z"/>
</g>
<g>
	<path class="st6" d="M164.4,98.9"/>
	<path class="st6" d="M159.5,100.4c0,0.1,0,0.1,0,0.2c0-0.1,0-0.2,0-0.3C159.5,100.4,159.5,100.4,159.5,100.4z"/>
</g>
<path class="st7" d="M159.3,101.9h-0.2c-1.3,0-1.3,2,0,2h0.2C160.6,103.9,160.6,101.9,159.3,101.9z"/>
<g>
	<path class="st8" d="M84.3,57.6c1.1,0,2.3,0.2,3.7,0.6c0.3,0.2,0.4,0.5,0.4,0.8c0,0.3-0.1,0.5-0.4,0.7C87.7,59.9,87.4,60,87,60
		c-0.9-0.2-1.7-0.3-2.5-0.3c-1.8,0-3.1,0.5-4.1,1.6c-0.9,1.1-1.4,2.6-1.4,4.7c0,2.1,0.5,3.7,1.6,4.9c0.6,0.6,1.2,0.9,2,0.9
		c0.8,0,2-0.4,3.7-1.2c0.6-0.3,1-0.4,1.2-0.4c0.4,0,0.6,0.2,0.6,0.7c0,0.4-0.2,0.8-0.6,1.1c-1.4,0.7-2.5,1.2-3.3,1.5
		c-0.8,0.3-1.5,0.4-2.1,0.4c-1.2,0-2.2-0.4-3-1.3c-1.5-1.6-2.3-3.8-2.3-6.6c0-2.8,0.7-4.9,2.1-6.2C80.6,58.3,82.3,57.6,84.3,57.6z"
		/>
	<path class="st8" d="M90.4,57.7c0-0.6,0.1-1,0.3-1.2c0.2-0.2,0.4-0.3,0.8-0.3c0.7,0,1.1,0.3,1.1,0.9c0,0.4,0,1.6-0.1,3.5
		s-0.1,3.6-0.1,5s0.1,2.7,0.2,3.6c0.2,1.6,0.5,2.4,0.8,2.4c0.4,0,0.6-0.3,0.8-0.8c0.1-0.2,0.2-0.4,0.4-0.5c0.2-0.2,0.4-0.2,0.7-0.2
		c0.6,0,0.9,0.5,0.9,1.5c0,0.5-0.3,1.1-0.9,1.6c-0.6,0.5-1.1,0.8-1.7,0.8c-0.6,0-1-0.1-1.3-0.3c-0.3-0.2-0.6-0.5-0.8-0.9
		c-0.2-0.4-0.4-0.7-0.5-1.1c-0.1-0.4-0.2-0.8-0.3-1.3c-0.1-0.8-0.2-2.1-0.2-4c0-1.8-0.1-3.6-0.1-5.2S90.4,58.4,90.4,57.7z"/>
	<path class="st8" d="M103.9,62.2c0.7,0,1.1,0.6,1.1,1.9c0,0.1,0,0.3,0,0.4l0,1.7c0,0.5,0,1.1,0,1.6l0.4,5.6c0,0.4-0.4,0.6-1.3,0.6
		c0,0-0.2,0-0.4,0c-0.2,0-0.3-0.1-0.4-0.2s-0.1-0.3,0-0.5c0.1-0.2,0-0.5-0.1-0.7c-0.8,0.8-1.8,1.2-3,1.2c-2.3,0-3.5-1.8-3.5-5.4
		c0-2,0.4-3.5,1.1-4.5c0.8-1,1.8-1.5,3.2-1.5c0.7,0,1.3,0.1,2,0.3C103.3,62.4,103.6,62.2,103.9,62.2z M101.4,64.5
		c-0.9,0-1.6,0.3-2.1,0.8c-0.5,0.5-0.7,1.5-0.7,3c0,2.4,0.7,3.7,2,3.7c0.3,0,0.7-0.2,1.2-0.5c0.4-0.3,0.7-0.7,0.9-1.1
		c0.3-0.9,0.5-1.9,0.5-2.9c0-1.1-0.1-1.8-0.4-2.3S102,64.5,101.4,64.5z"/>
	<path class="st8" d="M108.4,58.1c0.3,0,0.6,0.1,0.8,0.4c0.3,0.3,0.4,0.6,0.4,0.9s-0.1,0.6-0.4,0.9c-0.3,0.3-0.6,0.5-0.9,0.5
		c-0.3,0-0.6-0.1-0.9-0.4c-0.3-0.3-0.4-0.6-0.4-1C107,58.6,107.5,58.2,108.4,58.1C108.3,58.1,108.4,58.1,108.4,58.1z M109.4,71.1
		l0,1.7c0,0.3-0.1,0.6-0.4,0.8c-0.2,0.2-0.5,0.3-0.8,0.3c-0.4,0-0.6-0.2-0.6-0.6c-0.2-5.3-0.3-8.2-0.3-8.7c0-0.6,0-1.2,0.1-2.1
		c0-0.3,0.2-0.4,0.6-0.4c0.9,0,1.4,0.4,1.5,1.1c0,0.4,0.1,0.7,0.1,0.9l-0.1,1.6V71.1z"/>
	<path class="st8" d="M113.7,73.8c-0.4,0-0.7-0.2-0.8-0.7c0-3.3-0.2-6.3-0.6-8.9c0-0.3,0.1-0.6,0.4-0.9c0.2-0.3,0.5-0.4,0.8-0.4
		c0.3,0,0.5,0.2,0.7,0.5c0.6-0.8,1.4-1.2,2.5-1.2c1.3,0,2.3,0.6,3,1.9c0.8-1.2,1.9-1.8,3.3-1.8c1.4,0,2.4,0.5,3.1,1.6
		c0.4,0.7,0.8,1.6,0.9,2.7c0.2,1.1,0.3,2.7,0.3,4.7c0,0.8-0.1,1.4-0.2,1.8c-0.2,0.4-0.5,0.7-1,0.7c-0.4,0-0.6-0.3-0.6-0.8l0.1-3.1
		c0-3.7-1-5.6-2.9-5.6c-0.6,0-1,0.2-1.3,0.6c-0.3,0.5-0.4,1-0.5,1.6c-0.1,1-0.1,1.9-0.1,2.7v3.6c0,0.3-0.1,0.5-0.4,0.7
		c-0.3,0.2-0.5,0.3-0.8,0.3c-0.4,0-0.6-0.2-0.7-0.7l0.1-5.1c0-1.8-0.3-2.9-0.9-3.4c-0.3-0.2-0.7-0.3-1.3-0.3c-0.6,0-1,0.2-1.3,0.7
		c-0.3,0.4-0.4,1.2-0.4,2.2l0.1,4.6C114.9,73.1,114.5,73.8,113.7,73.8z"/>
	<path class="st8" d="M130.6,63c0.7-0.6,1.5-0.9,2.4-0.9c0.9,0,1.8,0.2,2.6,0.5c0.8,0.3,1.3,0.8,1.3,1.3c0,0.3-0.1,0.5-0.3,0.7
		c-0.2,0.2-0.4,0.2-0.6,0.2s-0.3,0-0.4,0c-0.1,0-0.4-0.2-1-0.5c-0.6-0.3-1.1-0.4-1.6-0.4c-0.5,0-0.9,0.1-1.2,0.4
		c-0.3,0.2-0.5,0.6-0.5,1.1s0.2,0.8,0.6,1.1c0.4,0.3,1.1,0.5,2,0.7c1,0.2,1.7,0.5,2.2,0.8c0.5,0.3,0.8,1,0.8,1.9
		c0,1.4-0.4,2.3-1.1,2.9s-1.6,0.9-2.6,0.9c-1,0-1.9-0.1-2.6-0.4c-0.7-0.3-1.1-0.7-1.1-1.3c0-0.6,0.3-1,1-1c0.2,0,0.5,0.1,1.1,0.3
		c0.6,0.2,1.1,0.3,1.7,0.3c0.6,0,1-0.2,1.3-0.5c0.3-0.4,0.4-0.8,0.4-1.2s-0.2-0.8-0.6-1c-0.4-0.2-1-0.4-1.7-0.5
		c-0.8-0.1-1.3-0.3-1.7-0.4c-1-0.4-1.5-1.3-1.5-2.6C129.5,64.4,129.9,63.6,130.6,63z"/>
	<path class="st8" d="M75,78.7c0.4,0,0.8,0.2,1,0.5c0.3,0.4,0.6,1.1,1.1,2.3c1,2.7,2.1,6.9,3,12.6c0,0.1,0,0.2,0,0.3
		c0,0.1-0.1,0.3-0.2,0.4S79.6,95,79.3,95c-0.3,0-0.5-0.1-0.7-0.2c-0.2-0.1-0.3-0.4-0.4-0.7s-0.2-1-0.4-1.9c-0.4-2.1-0.7-3.2-0.8-3.3
		c-0.2-0.1-0.9-0.2-2-0.4c-1.1-0.1-1.9-0.2-2.2-0.2s-0.6,0-0.6,0.1c-0.3,0.3-0.7,2.3-1.2,6C70.9,94.8,70.6,95,70,95
		c-0.6,0-0.8-0.2-0.8-0.7c0-1.2,0.4-3.5,1.3-6.8c0.9-3.3,1.6-5.6,2.2-6.7C73.4,79.4,74.2,78.7,75,78.7z M74.9,81.4
		c-0.2,0-0.7,0.7-1.3,2.2c-0.6,1.5-0.9,2.4-0.9,2.7c0,0.1,0,0.1,0,0.2c0.1,0.1,0.7,0.2,1.6,0.3c0.9,0.1,1.5,0.1,1.8,0.1
		c0.3,0,0.5,0,0.5-0.1c0,0,0-0.2,0-0.4s-0.2-1.1-0.7-2.7C75.6,82.2,75.2,81.4,74.9,81.4z"/>
	<path class="st8" d="M85.5,95c-0.6,0-1.1-0.2-1.6-0.6l-0.3-0.3v7.4c-0.1,0.3-0.3,0.6-0.5,0.8s-0.5,0.3-0.8,0.3
		c-0.4,0-0.6-0.3-0.6-0.9V84.6c0.1-0.4,0.2-0.7,0.4-0.9s0.4-0.3,0.7-0.3c0.3,0,0.5,0.1,0.6,0.2c0.1,0.1,0.2,0.5,0.3,1.2
		c0.1-0.3,0.3-0.6,0.8-0.9c0.5-0.3,1.1-0.4,1.9-0.4c1.7,0,2.9,0.6,3.6,1.8c0.7,1.2,1.1,2.7,1.1,4.3s-0.5,3-1.4,3.9
		C88.5,94.5,87.2,95,85.5,95z M83.6,87.5v4.6c0.1,0,0.2,0.1,0.3,0.2c0.5,0.4,1,0.6,1.6,0.6c2.3,0,3.4-1.2,3.4-3.5
		c0-2-0.5-3.3-1.5-3.8c-0.4-0.2-1-0.3-1.6-0.3c-0.6,0.1-1.1,0.4-1.6,0.8C83.9,86.6,83.6,87.1,83.6,87.5z"/>
	<path class="st8" d="M96.1,95c-0.6,0-1.1-0.2-1.6-0.6l-0.3-0.3v7.4c-0.1,0.3-0.3,0.6-0.5,0.8s-0.5,0.3-0.8,0.3
		c-0.4,0-0.6-0.3-0.6-0.9V84.6c0.1-0.4,0.2-0.7,0.4-0.9s0.4-0.3,0.7-0.3c0.3,0,0.5,0.1,0.6,0.2c0.1,0.1,0.2,0.5,0.3,1.2
		c0.1-0.3,0.3-0.6,0.8-0.9c0.5-0.3,1.1-0.4,1.9-0.4c1.7,0,2.9,0.6,3.6,1.8c0.7,1.2,1.1,2.7,1.1,4.3s-0.5,3-1.4,3.9
		C99.1,94.5,97.8,95,96.1,95z M94.2,87.5v4.6c0.1,0,0.2,0.1,0.3,0.2c0.5,0.4,1,0.6,1.6,0.6c2.3,0,3.4-1.2,3.4-3.5
		c0-2-0.5-3.3-1.5-3.8c-0.4-0.2-1-0.3-1.6-0.3c-0.6,0.1-1.1,0.4-1.6,0.8C94.4,86.6,94.2,87.1,94.2,87.5z"/>
	<path class="st8" d="M106,91.4l0,2.5c0,0.3-0.1,0.6-0.4,0.8c-0.3,0.2-0.5,0.4-0.8,0.4c-0.4,0-0.6-0.3-0.7-0.9
		c0-0.1-0.1-1.3-0.2-3.6c-0.1-2.3-0.3-4.1-0.7-5.4c-0.1-0.6-0.2-1-0.2-1.1c0-0.5,0.3-0.8,1-0.8c0.3,0,0.5,0.1,0.7,0.3
		s0.3,0.4,0.3,0.7c0,0.2,0.1,0.5,0.1,0.9c0,0.4,0.1,0.6,0.1,0.7c0.3-0.8,0.9-1.4,1.6-1.9c0.7-0.4,1.5-0.6,2.3-0.6c1.4,0,2,0.3,2,1
		c0,0.3-0.1,0.6-0.4,0.8c-0.2,0.2-0.5,0.3-0.8,0.3c-1.4,0-2.4,0.4-3,1.3C106.3,87.8,106,89.3,106,91.4z"/>
	<path class="st8" d="M116.7,83.4c1.2,0,2.2,0.6,2.9,1.7c0.8,1.1,1.2,2.5,1.2,4.1c0,1.6-0.4,2.9-1.2,4.1c-0.8,1.1-1.8,1.7-3.1,1.7
		c-1.3,0-2.3-0.6-3.1-1.7c-0.8-1.1-1.2-2.4-1.2-3.8c0-1.8,0.4-3.2,1.1-4.3C114,84,115.2,83.4,116.7,83.4z M116.4,85.5
		c-0.7,0-1.3,0.4-1.7,1.1s-0.7,1.5-0.7,2.3c0,1.3,0.2,2.2,0.7,2.9c0.5,0.7,1.1,1,1.7,1c1.1,0,1.8-0.5,2.2-1.5c0.1-0.5,0.2-1,0.2-1.7
		C118.8,86.8,118,85.5,116.4,85.5z"/>
	<path class="st8" d="M130.3,83.3c0.2,0,0.4,0.1,0.5,0.2c0.1,0.2,0.2,0.3,0.2,0.5l0,0.2c-0.7,1.8-1.2,3.2-1.5,4.3
		c-0.2,0.8-0.4,1.4-0.5,1.7c-0.1,0.4-0.3,1-0.5,2c-0.2,1-0.4,1.6-0.5,1.9c-0.2,0.6-0.6,0.8-1.2,0.8c-0.3,0-0.5-0.2-0.6-0.5
		c-0.5-1.6-1.3-3.5-2.3-5.6c-1-2.1-1.6-3.3-1.7-3.6c-0.1-0.3-0.2-0.6-0.2-0.8s0.1-0.5,0.3-0.7c0.2-0.2,0.5-0.3,0.8-0.3
		c0.3,0,0.5,0.1,0.7,0.4c0.2,0.4,0.7,1.4,1.5,3c0.8,1.7,1.4,3,1.8,3.9c0-0.1,0.1-0.3,0.2-0.6c0.8-2.9,1.5-5,2.1-6.3
		C129.5,83.5,129.8,83.3,130.3,83.3z"/>
	<path class="st8" d="M135.8,83.5c0.9,0,1.7,0.3,2.5,0.8c0.8,0.5,1.2,1.1,1.2,1.9c0,0.8-0.3,1.5-1,2.2s-1.5,1.1-2.6,1.3
		c-0.5,0.1-1.2,0.1-2.1,0.1c0.2,1.4,0.5,2.3,1.1,2.8c0.2,0.2,0.4,0.3,0.7,0.3c1,0,1.9-0.3,2.6-1c0.7-0.7,1.2-1,1.5-1
		c0.1,0,0.3,0.1,0.6,0.4c0.3,0.2,0.4,0.5,0.4,0.7c0,0.4-0.5,1-1.6,1.9c-0.5,0.4-1,0.7-1.7,1c-0.7,0.3-1.3,0.4-1.8,0.4
		c-1.4,0-2.5-0.9-3.2-2.8c-0.4-1.1-0.6-2.4-0.6-3.8s0.3-2.5,1-3.5C133.4,84,134.4,83.5,135.8,83.5z M135.9,85.2
		c-0.6,0-1.2,0.4-1.6,1.1c-0.2,0.2-0.3,0.8-0.5,1.7c2.3,0,3.5-0.6,3.5-1.7C137.3,85.6,136.8,85.2,135.9,85.2z"/>
	<path class="st8" d="M148,83.4l0-4.8c0-0.9,0.3-1.3,0.9-1.3s0.9,0.2,1,0.7c0,0.2,0.1,1.5,0.1,3.9c0,2.4,0.1,4.6,0.2,6.7
		s0.2,4,0.2,5.8c0,0.5-0.4,0.7-1.1,0.7c-0.5,0-0.7-0.3-0.7-1c-0.7,0.6-1.6,0.8-2.5,0.8c-1.2,0-2.2-0.5-3-1.4
		c-0.8-0.9-1.2-2.1-1.2-3.4c0-1.4,0.3-2.6,0.8-3.8c0.6-1.2,1.4-2,2.6-2.5c0.7-0.3,1.4-0.5,2.1-0.5C147.5,83.4,147.7,83.4,148,83.4z
		 M148.1,86.8c-0.1-0.4-0.3-0.6-0.4-0.8c-0.2-0.2-0.3-0.3-0.5-0.3c-0.2,0-0.4-0.1-0.7-0.1c-0.3,0-0.6,0.1-1,0.3
		c-0.4,0.2-0.7,0.5-1,1c-0.5,0.9-0.8,1.8-0.8,2.8s0.2,1.8,0.6,2.4c0.4,0.6,0.9,0.9,1.7,0.9s1.3-0.4,1.7-1.1c0.4-0.7,0.6-1.6,0.6-2.7
		C148.3,87.9,148.2,87.1,148.1,86.8z"/>
</g>
<path class="st7" d="M162.8,111.9c-4.1-3.5-7.6-6.9-11.1-11.1c-2.4-2.9-5.8-5.5-8.6-2.1c-0.1,0.1-0.2,0.2-0.3,0.4
	c-3.1,7.1,3.9,14.7,7.5,20.3c0.4,0.7,1.6,0.6,1.8-0.2c0-0.1,0-0.1,0-0.2c0.1-0.5-0.2-0.9-0.5-1.1c-1.3-1.9-2.7-3.6-3.9-5.6
	c-1.9-3.1-4.8-8.5-3.3-12.1c3-3.3,7.5,4.8,9.5,6.7c2.3,2.3,4.9,4.3,7.4,6.4C162.4,114.1,163.8,112.7,162.8,111.9z"/>
<g>
	<g>
		<path class="st6" d="M77.2,12.5c-2.2,0.4-4.9-0.2-7-0.1c-2.9-0.1-5.8,0.2-8.7,0.7c-1,0.2-1.4,0.8-2.2,1.5c-0.1,1.6-0.1,3.3,0,4.9
			c0,4.6,0,9.2,0,13.8s-0.2,9.1-0.5,13.7c-0.2,3.9-0.8,7.9-1,11.8c-0.3,10.2-0.5,20.5-0.8,30.8c-0.7,7.5-1.9,15.1-2,22.6
			c-0.1,4.5-0.1,9.1-0.1,13.6c0,1.7,0.1,3.4,0.3,5c0,0.3,0.1,0.7,0.1,1.2v0.8c0,0.3,0,0.7,0,1c0,0.4-0.2,0.7-0.4,1
			c-0.7-0.1-1.4-0.4-1.9-0.9c-0.6-1-1.3-1.9-2.2-2.7c-1.1-1.4-1.7-3.1-2-4.9c0-0.1,0-0.1,0-0.2c0-0.2,0.1-0.3,0.1-0.5
			c0.1-1.4,0.2-2.7,0.2-4.1c0-8.2,0-16.4,0-24.6c0.2-3.4,0.7-6.7,0.8-10.1c0.1-4,0.2-8,0.2-12.1l0.6-12.8c-0.2-3.2-0.3-6.4-0.3-9.6
			c0-9.6,0.7-19,0.9-28.5c-0.1-2.5,0-5,0.3-7.4c0.5-2.3,1.2-2.8,2.8-4.7c0.7-0.8,3.4-1.8,4.3-2c2.1-0.7,4.2-1.1,6.3-1.2
			c3.8-0.1,7.5-0.1,11.3,0l44.1,0.8c0,0,8.5-0.1,10.7,1L144,11c6.6,0.2,13.2,0.4,19.8,0.7c2.5,0.1,4.4,1.8,6.1,3.5
			c0.2,0.2,0.3,0.5,0.2,0.8c0.2,2.5,0.7,4.9,0.7,7.4c0,7.9-0.1,15.8-0.2,23.6c0,4.2-0.2,8.4,0,12.6s-0.6,8.4-0.5,12.6
			c0.2,7.1-0.1,12.9-0.1,19.9c0,3.8,0.3,7.3,0.2,11.1c0,0.8-0.1,1.8-0.2,2.5c-0.2,1.9,0.2,2.5,0.2,4c-0.1,1.9-0.1,3.8,0,5.7
			c0.1,1.3,0.2,2.5-0.9,1.9c-2-1.1-4-2.3-6-3.5c-0.4-0.2-0.7-0.5-1-0.8c-2.6-2.3-2.4-4.7-2.4-4.7l-0.3-8.8c0.1-0.9,0.1-2,0.1-2.7
			c0-15.5,0.6-30.8,0.5-46.5c-0.1-1.3-0.1-2.7,0-4c0.1-1.4,0.1-2.7,0-4.1c-0.3-3.1,0.7-6,0.4-9.1c0.2-3.3,0.3-6.6,0.3-10
			c0-1.8,0.4-7-1.8-7.9c-0.1-0.2-0.2-0.3-0.4-0.3c-3.2-0.4-6.6-0.2-9.9-0.3c-1.7-0.1-3.4-0.1-5.1-0.2c0,0-10.2,0.2-15.8-1.2
			l-26.4-0.1L77.2,12.5z"/>
	</g>
</g>
<path class="st7" d="M203.4,187.4c-0.1-2.6-0.3-5.3-0.3-7.9c-0.2-8.3-0.2-16.6-0.4-24.8c0-1.9-0.3-3.8-0.9-5.6
	c-1.8-4.8-3.8-9.6-7.3-13.6c-2.9-3.6-6.3-6.7-10.1-9.3c-2.6-1.7-4.9-3.7-7.3-5.6c-0.9-0.7-1.8-1.3-2.8-1.8c-1.1-0.7-2.2-1.2-3.1-1.7
	v-6.9c0-4.6-0.1-9-0.1-13.6c0-14.3-0.2-28.6,0.3-42.8c0.2-5.2,0.3-10.3,0.3-15.5c0.1-6,0.1-12,0.2-18c0-4.8-1.5-8.9-5.5-11.8
	c-2.2-1.6-4.8-1.9-7.4-2c-4.8-0.2-9.6-0.4-14.5-0.5c-3.6-0.1-7.3,0.1-10.9,0c-4.5-0.1-9-0.6-13.5-0.6c-9.4,0-18.9-0.9-28.3-0.9
	c-5.4,0-10.7-0.1-16.1-0.1c-3.2,0-6.4,0.1-9.6,0.1c-3.1,0-6.1-0.1-9,1c-2.9,1.1-5.2,3-5.8,6.1c-0.7,3.4-1.1,6.9-1.2,10.5
	c-0.1,10.8,0,21.6-0.1,32.4c-0.2,11.3-0.5,22.5-0.9,33.8c-0.2,5.6-0.9,11.2-1.2,16.8c-0.1,3.1,0,6.2,0,9.2c0,0.6-0.3,1.1-0.6,1.5
	c-3.5,3.2-7.2,6.4-10.6,9.7c-3.7,3.5-6.4,7.8-9.1,12.1c-1.2,2-2.3,4-3.5,6c-2,3.5-3.6,7.3-4.7,11.3c-1.4,4.7-2.6,9.4-3.8,14.1
	c-1.6,6-3.1,12.1-4.6,18.1c0,1.1,0,2.4,0.9,2.9c0.5,0.3,0.9,0.1,1.1-0.3c1.2-4.8,2.4-9.6,3.5-14.5c1.1-4.7,2.2-9.5,3.5-14.2
	c0.8-3.4,1.9-6.8,3.2-10c2-4.4,4.3-8.7,6.7-12.8c2.9-4.8,6.4-9.2,10.4-13.1c2-2.1,4.3-3.9,6.5-5.9c0.3-0.3,0.7-0.5,1.2-0.9v8.3
	c-1,0-2.1,0.1-3.1,0.3c-2.1,0.6-3.6,2.4-4,4.5c-0.3,1.4-0.4,2.8-0.5,4.3c-0.1,1.7-0.1,3.4-0.3,5.1c-0.2,0.8-0.6,1.5-1,2.2
	c-0.6,1.3-1.2,2.7-1.8,4.2c-0.3-0.3-0.5-0.8-0.8-0.9c-0.4-0.1-0.8-0.2-1.2-0.2c-0.1,0.2-0.3,0.4-0.4,0.6c-0.1,0.2-0.2,0.4-0.2,0.7
	c0,0.1,0,0.2,0,0.3c0.3,0.6,0.7,1.2,1.1,1.7c0.6,0.8,0.7,1.8,0.2,2.7c-1.4,3.3-3.6,5.9-5.5,8.8c-1.8,2.7-4.2,5-7.1,6.7
	c-0.5,0.3-0.9,0.7-1.2,1.2c-0.2,0.3-0.2,1.1,0,1.2c0.4,0.3,0.9,0.3,1.4,0.1c3.6-2.4,6.7-5.4,9.4-8.7c4.1-5.6,7.1-11.9,9.1-18.5
	c0.1-1,1.1-1.8,2.1-1.7c2.4-0.1,4.3-2,4.2-4.4c0-1.2,0-2.4-0.1-3.6s-0.3-2.4-0.5-3.7c1.7,1,3.1,2.5,4,4.3c1.2,2.5,1.9,5.2,2,7.9
	c0.3,5.3-0.8,10.6-3.2,15.3c-1.5,3.1-2.6,6.3-3.3,9.6c-0.4,2.8-0.5,5.6-0.2,8.3c0.2,5.3,0.9,10.6,0.9,15.9c0,4.6-2.2,8.7-5,12.4
	c-0.9,1.2-2.1,2.1-3,3.3c-0.3,0.4-0.5,1-0.4,1.5c0.4,0.7,1.1,0.5,1.6,0.1c0.7-0.6,1.3-1.2,1.9-1.8c5.8-6.3,7.8-13.7,6.8-22.1
	c-0.3-3.1-0.5-6.3-0.8-9.4c0-0.4,0-0.8,0.1-1.2c3.2,3.7,7.7,4.6,12.2,5.4c-0.2,0.8-0.3,1.5-0.5,2.2c-0.5,2.6-0.9,5.3-1.7,7.9
	c-1.7,6.1-4.8,11.8-9.1,16.5c-2.1,2.3-4.3,4.5-6.5,6.7c-1.8,1.6-2.8,3.9-2.8,6.3c0,2.5,0,5,0,7.5c0,0.8,0.5,1.3,1.2,1.5
	c1.4,0.3,1.2-1.1,1.2-2c0-1,0-2.1,0-3.1v-4.6c0.1-1.5,0.8-3,2-4c2-2.1,4-4.1,6-6.2c5.7-6,9.5-13.6,10.7-21.8
	c0.4-2.2,0.9-4.3,1.4-6.5h2.1c9.1-0.1,18.1-0.5,27.2-0.4c10,0.1,20.1,0.6,30.1,0.8c8.2,0.1,16.5,0.1,24.7,0.1c1.6,0,3.2-0.3,4.8-0.4
	c0,0,0.1,0,0.1,0c0.8,0.5,1.7,1,2.5,1.5s1.6,0.6,1.5,2c-0.2,4.8,0.2,9.6,1.3,14.3c0.6,3.3,2.3,6.2,4.9,8.3c2.2,1.8,4.5,3.3,7,4.6
	c1.2,0.6,2,1.8,2,3.1c0,1.9,0.2,3.9,0.3,5.8c0.1,1,0.1,2,0.2,3c0,0.6-0.1,2.1,0.4,2.5c1.3,0.9,1.8-1.8,1.8-2.8
	c0-1.9-0.1-2.8-0.2-4.6c-0.1-1.6-0.3-3.3-0.6-4.9c-0.2-1.6-1.2-3-2.7-3.7c-3.1-1.4-5.8-3.4-8.1-5.8c-1.4-1.6-2.4-3.6-2.8-5.7
	c-1.1-4.6-1.5-9.3-1.4-13.9c0-0.3,0.1-0.6,0.1-1h3v1.3c-0.1,2.6,0.7,5.1,2.2,7.2c1.8,2.7,3.8,5.2,5.7,7.9c0.3,0.4,0.6,0.8,1,1.2
	c0.7,0.5,1.5,1.4,2.2,0.5c0.8-0.9-0.2-1.4-0.8-2c-3.2-3.7-6.3-7.4-8-12.1c-0.2-0.4-0.3-0.9-0.2-1.4c0.3-5.8,0.5-11.5,0.8-17.2
	c0.2-2.9,0.4-5.9,0.6-8.8c0.1-2-0.4-3.9-1.5-5.6c-2.4-3.8-4.8-7.7-7.4-11.3c-1.2-1.6-2.2-3.3-3-5.1c-0.9-2.1-1.7-4.3-2.3-6.5
	c-0.6-2.8-0.5-5.6,0.4-8.3c0.3-0.7,0.7-1.3,1.1-1.9c0.2,1.5,0.4,2.7,0.6,3.8c0.9,4.1,3.8,4.9,7.3,3.6c0.3-0.1,0.5-0.2,0.8-0.4
	c0.3,0.5,0.5,1,0.8,1.5c2.2,4.5,6.2,7.1,9.9,10.1c2.9,2.4,5.7,4.9,8.4,7.5c1.8,1.7,3.2,3.6,4.8,5.5c0.4,0.5,0.9,1,1.6,0.5
	c0.7-0.5,0.5-1.1,0.1-1.7c-1.8-2.8-4.1-5.4-6.7-7.5c-1.7-1.4-3.3-2.9-4.9-4.4c-0.3-0.4-0.3-0.9-0.1-1.3c0.8-0.9,1.6-1.7,2.6-2.5
	c0.6-0.5,1.3-1,0.7-1.8c-0.5-0.8-1.3-0.4-1.9,0c-0.9,0.7-1.7,1.4-2.5,2.2c-0.4,0.5-0.8,0.9-1.2,1.4c-3.5-2.5-6.8-4.9-8.7-8.7
	c-1.2-2.3-2.2-4.8-3.2-7.2l-0.3-0.6c-0.3-0.4-0.5-0.9-0.7-1.3c-0.7-1.1-1.5-2-2.7-2.3c-0.2-0.1-0.4-0.1-0.6-0.2c0,0-0.1,0-0.1,0
	c0,0,0,0-0.1,0c-1.8-0.4-3.8,0.3-4.9,1.9c0,0-0.1,0.1-0.1,0.1c-0.2-0.2-0.4-0.4-0.6-0.6c-0.4,0.5-0.8,1-1.1,1.5
	c0.3,0.3,0.6,0.6,0.5,0.7c-0.6,1-1.1,2.2-1.2,3.4c-0.2,1.4-0.1,2.8-0.2,4.2c-0.1,2.2,0.4,4.2,1,6.4c0.4,1,0.8,2,1.3,3
	c0.3,0.7,0.1,1-0.4,1.4c-2.3,1.8-3.9,4.2-4.8,7c-1.2,4.5-1.4,9,0.8,13.3c-1.6,0.9-1.5,2.6-1.8,4.2h-2.8c-5.6,0-11.3-0.2-17,0
	c-7.2,0.2-14.4,1-21.6,1c-13.3,0.1-26.6-0.2-40-0.4c-1.4,0-2.8-0.1-4.3-0.2c-0.7-12.7,0.7-25.6,0.7-38.3c0.1-0.1,0.1-0.1,0.2-0.2
	c0-4.7,0.2-9.4,0.4-14.1c0.4-8.1,0.9-16.1,1.3-24.1c0.3-6.3,0.5-12.6,0.6-18.9c0.1-6.2,0.2-12.3,0.3-18.5c-0.1-4.3,0.1-8.6,0.5-12.8
	c0.5-4.5,0.8-9,0.7-13.5V14h8.8c0.1,0,0.2,0.1,0.4,0.1h51.4c3.4,0,6.6,0.8,10,1.1c1.6,0.1,3.1,0.3,4.7,0.3c2.4,0.1,4.8-0.2,7.1,0.1
	c3.9,0.4,8,0.5,11.9,0.7c0.2,0,0.5,0,0.7,0c0.1,0.3,0.1,0.6,0.1,0.9c0,18.4,0.1,36.7,0,55c-0.1,8.8-0.5,17.7-0.8,26.5
	c0,0.7-0.1,1.5,0.9,1.6c1,0.1,1.1-0.5,1.2-1.4c0.1-0.9,0.2-1.8,0.2-2.6c0.2-7.8,0.6-15.7,0.6-23.5c0.1-18.6,0-37.2,0-55.8
	c0-0.4,0-0.7-0.1-1.1c-0.2-1.4-0.9-1.9-2.3-1.9c-3.7-0.1-7.3-0.3-11-0.4c-0.8,0-1.7,0-2.5,0c-0.9,0-1.8-0.1-2.7-0.2
	c-2.2-0.1-4.5-0.1-6.7-0.3c-3.7-0.3-7.4-1.1-11.2-1.1H77.5l-1.8,0.1c0,0-2-0.2-2-0.2l-9.4-0.2c-0.4,0-0.9,0-1.2,0.2
	c-0.9,0.9-1.9,0.6-2.9,0.6c-1.4,0-1.7,0.3-1.8,1.7c-0.1,1.4,0,2.7,0,4c0.2,8.8,0,17.7-0.8,26.5c-0.5,4.5-0.4,9.1-0.6,13.7
	c-0.4,10.4-0.8,20.8-1.3,31.3c-0.3,5.4-0.7,10.8-1.1,16.1c-0.2,2.4-0.7,4.8-0.8,7.2c-0.4,6.6,0.2,13.1,0.6,19.6v1
	c-1.2-1.6-2.3-3.2-3.4-4.9c-0.4-0.6-1-1.3-1-1.9c0.1-11.9-0.1-23.7,0.8-35.6c0.9-11.7,1-23.4,1.2-35.2c0.2-10.6,0-21.2,0.1-31.8
	c0-3.6,0.4-7.1,0.8-10.6c0.1-1.1,0.4-2.2,1-3.1c1.6-2.4,4.4-3.8,7.3-3.7C71.1,6.6,81,6.6,91,6.6c0,0,0,0,0,0.1
	c3.6,0.1,7.1,0.4,10.7,0.5c0,0,0.1,0,0.1,0c2.1,0,4.2-0.1,6.3,0c5.1,0.1,10.4,0.3,15.5,0.2c2.4,0.3,4.8,0.6,7.2,0.7
	c0.1,0,0.2,0,0.3,0c4.5,0.4,9,0.1,13.5,0.1c2.2,0,4.4,0.2,6.6,0.2c0.9,0,1.7,0.1,2.6,0.1c1.7,0.1,3.5,0.2,5.2,0.2
	c2,0.1,3.9,0.6,5.6,1.5c3.3,1.8,5.2,5.3,5,9c-0.1,11.9-0.5,23.8-0.6,35.7c-0.1,13.9-0.2,27.8-0.2,41.7c0,4.6,0.1,9.3,0.2,13.9v5.5
	l-3.5-2.2c0,0,0,0-0.1-0.1c-1.6-1.3-3.3-2.6-4.9-4c-0.8,0.2-1.5,0.4-2.1,0.8c1,0.9,2.1,1.7,3.1,2.6c0.4,0.4,0.8,0.8,0.9,0.9
	c2.1,1.9,4.9,3.6,7.5,4.9c4.4,2.1,7.9,5.5,11.9,8.2c3.3,2.2,6.4,4.7,9.1,7.6c3.3,3.7,5.9,8,7.8,12.5c1.8,4.2,1.7,8.4,1.8,12.8
	c0.2,8.3,0.4,16.6,0.7,25c0,1,0.1,1.9,0.1,2.9c0,0.8-0.1,1.7,0,2.5c0,0.2,0.2,0.4,0.4,0.5c0.2,0.1,0.5-0.1,0.7-0.2
	C203.2,189.8,203.5,188.5,203.4,187.4z M43.2,138.7c-1.1-0.1-0.9-1-0.9-1.9c0-1.3,0.1-2.7,0.3-4c0.2-1,0.6-1.9,1.1-2.7
	c0.3-0.6,1.2-0.8,1.3,0.2v0c0.3,2.2,0.6,4.5,0.7,6.7C45.8,138.1,44.3,138.8,43.2,138.7z M157.7,118.6c1,1.7,1.8,3.5,2.7,5.3
	c0,0.3-0.1,0.6-0.3,0.8c-0.4,0.3-0.8,0.5-1.2,0.6c-1.5,0.3-3-0.6-3.4-2.1c-0.3-1.7-0.5-3.5-0.7-5.3
	C156,117.7,157.2,117.9,157.7,118.6z M159.8,179.5c-4,0.2-7.8-3.3-7.8-6.7c1.5,0.4,3,0.9,4.6,1.1s3.1,0.3,4.8,0.4
	C160,175.8,158.8,177.2,159.8,179.5z M162.1,171.1c0,0.4-0.3,0.7-0.6,0.9c-0.7,0.1-1.3,0.1-2,0c0-1-0.1-1.8,0-2.5
	c0-0.3,0.1-0.6,0.2-0.9c0.5-0.7,1.4-1,2.2-0.5C163,168.9,162.1,170.1,162.1,171.1z M162.3,159.5c0.3,0.1,0.9,0.4,0.9,0.6
	c0.1,1,0,2.1,0,3.3l-3.2-0.5c0.5-1.2,0.8-2.1,1.3-3.1C161.6,159.6,162,159.4,162.3,159.5z M147.4,149.2c-0.1-2.3,0.6-4.6,1.9-6.5
	c0.9-1.3,1.9-2.5,2.9-3.7c3.3,4.2,6.3,8.6,9,13.2c-1.6-1.8-3-3.7-4.4-5.5c-0.5-0.7-1-1.3-1.6-1.9c-0.4-0.2-1,0-1.6,0
	c0,0.5,0.1,1,0.2,1.5c0.4,0.6,0.9,1.1,1.4,1.7c2,2.4,4,4.9,6,7.4c0.3,0.5,0.6,1,0.8,1.5c-2.7,0.8-3.3,2.9-3.8,5.3
	c-1.6-0.4-3.1-0.9-4.7-1.5c-3-1.5-5.4-3.5-6-7C147.4,152.3,147.3,150.8,147.4,149.2z M147.4,160.9c0.2-0.6,0.4-1.1,0.7-1.6
	c3.9,4.6,9.6,4.8,14.8,6.5c-4.8-0.7-5.9,2-5.6,5.9c-3.8-0.3-6.8-2.3-9.1-5.8C147.3,164.4,147,162.6,147.4,160.9z M63.8,165
	c13.7,0.2,27.4,0.4,41.1,0.4c5.4,0,10.9-0.6,16.3-0.7c7.8-0.2,15.5-0.2,23.2-0.3c0.3,0,0.7,0.3,1,0.4l-0.2,0.5c-2.1,0-4.3-0.1-6.4,0
	c-8.7,0.3-17.4,0.9-26.1,1.1c-6.3,0.1-12.6-0.4-18.9-0.4c-10.1,0-20.2,0.1-30.3,0.1c-2.1,0-4.2,0-6-1.5c0,0,0,0,0,0v0c0,0,0,0,0,0
	C59.6,164.7,61.7,164.9,63.8,165z M56.2,108.1c0.3-3.7,0.9-7.3,1.1-11c0.5-9.1,0.8-18.2,1.2-27.3c0.1-2.9,0.1-5.8,0.3-8.6
	c0.4-7.6,1-15.2,1.4-22.9c0.3-6.2,0.2-12.5,0.3-18.7c0-1.6,0-3.2,0-4.8c0.3,0,0.5,0,0.8,0c0.2,0,0.6-0.1,0.6,0.1
	c0.1,0.1,0.1,0.2,0.1,0.3c0,0.4,0,0.7,0,1.1c-0.3,6.7-0.3,13.4-0.9,20.2c-0.8,9.2-0.6,18.5-0.8,27.8c0,1.4,0.2,2.9,0.1,4.3
	c-0.4,9.3-0.9,18.6-1.3,27.9c-0.4,9-0.7,17.8-1.1,26.8c0,0.4,0,0.7,0,1.1c0,0,0.1,0.1,0.1,0.1c0,12.6-1.3,25.4-0.7,38
	c-0.9-0.1-1.2-0.5-1.1-1.4c0.3-1.7,0.4-3.5,0.5-5.2c0-6.9-0.1-13.8-0.2-20.8v-1c0,0,0,0,0,0c-0.2-2.9-0.4-5.7-0.7-8.6c0,0,0,0,0-0.1
	C55.4,119.6,55.7,113.8,56.2,108.1z M54.5,153.2c0.1,1.1,0.2,2.1,0.1,3.2c-0.1,2-0.2,4.1-0.3,6.1c0.1,0.7,0.3,1.4,0.6,2
	c0.8,1.2,1.8,2.2,3.1,2.9c0.9,0.3,1.9,0.5,2.8,0.6c4.2,0.3,8.4,0,12.6,0.1c10.9,0.1,21.8,0.5,32.7,0.4c13.2-0.1,26.4-0.7,39.7-1.1
	c0.3-0.1,0.7,0,1,0.2c1,1,1.9,2,2.8,3.1c0.2,0.2,0.3,0.4,0.3,0.6c-0.2,2.1,0.5,4.3,1.9,5.9c-1.6,0.1-2.9,0.3-4.2,0.3
	c-17.1,0.3-34.2-0.7-51.3-0.9c-7.9-0.1-15.7,0.2-23.6,0.3c-5.7,0.1-11.3,0.2-16.7-1.6c-5-1.7-7.7-6.9-5.8-11.6
	c1.3-3.3,2.7-6.5,4-9.8C54.2,153.6,54.3,153.4,54.5,153.2z"/>
<circle class="st7" cx="110.4" cy="172.7" r="3.5"/>
</svg>
